<svg width="30" height="30" viewBox="0 0 30 30" fill="none" xmlns="http://www.w3.org/2000/svg">
<path d="M18.7174 7.52549L18.1858 7.61537L17.6542 7.77438L17.1226 7.36187L16.591 7.70237L16.0595 7.72426L15.5279 7.86023L14.9963 7.3394L14.4647 7.64821L13.9331 7.42467L13.4015 7.3878L12.8699 7.51455L12.3383 7.45175L11.8067 7.38664L11.2751 7.37858L10.7809 7.80665L10.1751 7.49381L9.697 7.78475L9.39035 8.30731L8.75117 8.32747L8.33177 8.68987L8.15802 9.23777L7.75587 9.63415L7.97449 10.2731L7.87151 10.753L7.84447 11.2433L7.92732 11.245L7.68914 11.7774L7.76048 12.3097L7.66958 12.8421L7.40723 13.3744L7.43427 13.9068L7.69086 14.4391L7.89913 14.9715L7.67821 15.5038L7.60744 16.0362L7.50388 16.5685L7.74954 17.1009L7.59133 17.6332L7.87496 18.1656L7.48145 18.6979L7.84217 19.1923L7.53265 19.7978L8.03203 20.1803L8.01419 20.7956L8.44741 21.15L8.87084 21.4738L9.19992 21.9266L9.79365 21.9404L10.2349 22.2354L10.7516 22.3236L11.2716 22.467L11.2751 22.372L11.8067 22.2204L12.3383 22.1104L12.8699 22.2786L13.4015 22.4342L13.9331 22.2515L14.4647 22.0896L14.9963 22.2279L15.5279 22.4082L16.0595 22.3518L16.591 22.0562L17.1226 22.4388L17.6542 22.2521L18.1858 22.2924L18.718 22.3045L19.2352 22.3022L19.6874 22.0061L20.2892 22.1461L20.5418 21.5423L20.9853 21.3205L21.4416 21.0635L21.548 20.5214L22.0203 20.2109L21.9778 19.6595L22.2407 19.2084L22.3195 18.7014L22.3517 18.6979L22.075 18.1656L22.6417 17.6332L22.079 17.1009V16.5685L22.5652 16.0362L22.136 15.5038L22.3304 14.9715L22.3155 14.4391L22.4046 13.9068L22.4955 13.3744L22.2165 12.8421L22.4242 12.3097L22.1072 11.7774L22.5427 11.245L22.4466 10.7086L21.9421 10.2973L21.8529 9.81218L21.9323 9.17728L21.4859 8.84485L20.9405 8.67834L20.807 7.99332L20.2696 7.84698L19.7075 7.87636L19.2456 7.58311L18.7197 7.41833L18.718 7.52607L18.7174 7.52549ZM14.9968 19.6566L14.4629 19.7165L13.9003 19.7828L13.505 19.2407L12.8894 19.3536L12.4016 19.1081L11.8711 18.8967L11.8199 18.1535L11.2429 17.9697L11.1198 17.4114L10.904 16.9459L10.5893 16.5167L10.5059 15.9993L10.4846 15.4819L10.4645 14.9726L10.1026 14.4207L10.6181 13.9719L10.6578 13.4528L10.5744 12.8404L11.152 12.5546L11.4782 12.164L11.6801 11.6529L12.1737 11.4294L12.359 10.7714L12.8446 10.5007L13.3555 10.2806L13.8721 10.0455L14.4566 10.1884L14.9951 10.087L15.5313 10.2074L16.0025 10.5531L16.499 10.6683L17.0818 10.6326L17.6646 10.7179L17.9856 11.2168L18.3366 11.6259L18.6093 12.0862L19.1173 12.3783L19.2392 12.9256L19.7093 13.3203L19.4803 13.9471L19.8899 14.4201L19.4889 14.9726H19.8243L19.4843 15.4791L19.5315 16.0091L19.4544 16.5345L19.1029 16.9528L19.0862 17.5468L18.6766 17.9127L18.3406 18.3234L17.8786 18.5948L17.5064 18.9762L17.1088 19.3697L16.6405 19.6837L16.0658 19.6751L15.5158 19.6111L14.994 19.656L14.9968 19.6566ZM19.7852 11.2963H19.3347L18.8405 11.1534L18.9314 10.5617L18.5212 10.2074L18.5966 9.71424L18.7801 9.20032L19.4406 9.37259L19.7858 8.99522L20.1638 9.29366L20.4578 9.53448L20.7811 9.79489L20.8001 10.208H20.7351L20.6557 10.5686L20.7287 11.1523L20.1298 11.0405L19.7858 11.2145L19.6408 11.3816L19.7858 11.2975L19.7852 11.2963ZM14.9968 11.9738L14.4923 12.1075L14.0573 12.3881L13.4176 12.2337L13.1857 12.811L12.8549 13.1734L12.6921 13.6412L12.0075 13.8837L12.168 14.4737L11.9016 14.9732L11.912 15.5177L12.172 16.0028L12.3394 16.5098L12.5966 16.9903L12.9775 17.3826L13.6224 17.3573L13.9078 17.9691L14.4624 18.0089L14.9968 17.7433L15.5411 18.0642L16.083 17.9605L16.4892 17.5612L17.0197 17.3872L17.0789 16.7229L17.3499 16.334L17.5432 15.9019L17.5835 15.4312L17.8614 14.9744H17.79L17.8372 14.4725L17.954 13.8964L17.6985 13.4119L17.19 13.1313L16.7032 12.9371L16.4346 12.4797L16.0042 12.2008L15.5256 11.9658L14.9963 11.975L14.9968 11.9738ZM18.7174 7.52549L18.1858 7.61537L17.6542 7.77438L17.1226 7.36187L16.591 7.70237L16.0595 7.72426L15.5279 7.86023L14.9963 7.3394L14.4647 7.64821L13.9331 7.42467L13.4015 7.3878L12.8699 7.51455L12.3383 7.45175L11.8067 7.38664L11.2751 7.37858L10.7809 7.80665L10.1751 7.49381L9.697 7.78475L9.39035 8.30731L8.75117 8.32747L8.33177 8.68987L8.15802 9.23777L7.75587 9.63415L7.97449 10.2731L7.87151 10.753L7.84447 11.2433L7.92732 11.245L7.68914 11.7774L7.76048 12.3097L7.66958 12.8421L7.40723 13.3744L7.43427 13.9068L7.69086 14.4391L7.89913 14.9715L7.67821 15.5038L7.60744 16.0362L7.50388 16.5685L7.74954 17.1009L7.59133 17.6332L7.87496 18.1656L7.48145 18.6979L7.84217 19.1923L7.53265 19.7978L8.03203 20.1803L8.01419 20.7956L8.44741 21.15L8.87084 21.4738L9.19992 21.9266L9.79365 21.9404L10.2349 22.2354L10.7516 22.3236L11.2716 22.467L11.2751 22.372L11.8067 22.2204L12.3383 22.1104L12.8699 22.2786L13.4015 22.4342L13.9331 22.2515L14.4647 22.0896L14.9963 22.2279L15.5279 22.4082L16.0595 22.3518L16.591 22.0562L17.1226 22.4388L17.6542 22.2521L18.1858 22.2924L18.718 22.3045L19.2352 22.3022L19.6874 22.0061L20.2892 22.1461L20.5418 21.5423L20.9853 21.3205L21.4416 21.0635L21.548 20.5214L22.0203 20.2109L21.9778 19.6595L22.2407 19.2084L22.3195 18.7014L22.3517 18.6979L22.075 18.1656L22.6417 17.6332L22.079 17.1009V16.5685L22.5652 16.0362L22.136 15.5038L22.3304 14.9715L22.3155 14.4391L22.4046 13.9068L22.4955 13.3744L22.2165 12.8421L22.4242 12.3097L22.1072 11.7774L22.5427 11.245L22.4466 10.7086L21.9421 10.2973L21.8529 9.81218L21.9323 9.17728L21.4859 8.84485L20.9405 8.67834L20.807 7.99332L20.2696 7.84698L19.7075 7.87636L19.2456 7.58311L18.7197 7.41833L18.4315 7.61249L18.718 7.52607L18.7174 7.52549ZM14.9968 19.6566L14.4629 19.7165L13.9003 19.7828L13.505 19.2407L12.8894 19.3536L12.4016 19.1081L11.8711 18.8967L11.8199 18.1535L11.2429 17.9697L11.1198 17.4114L10.904 16.9459L10.5893 16.5167L10.5059 15.9993L10.4846 15.4819L10.4645 14.9726L10.1026 14.4207L10.6181 13.9719L10.6578 13.4528L10.5744 12.8404L11.152 12.5546L11.4782 12.164L11.6801 11.6529L12.1737 11.4294L12.359 10.7714L12.8446 10.5007L13.3555 10.2806L13.8721 10.0455L14.4566 10.1884L14.9951 10.087L15.5313 10.2074L16.0025 10.5531L16.499 10.6683L17.0818 10.6326L17.6646 10.7179L17.9856 11.2168L18.3366 11.6259L18.6093 12.0862L19.1173 12.3783L19.2392 12.9256L19.7093 13.3203L19.4803 13.9471L19.8899 14.4201L19.4889 14.9726H19.8243L19.4843 15.4791L19.5315 16.0091L19.4544 16.5345L19.1029 16.9528L19.0862 17.5468L18.6766 17.9127L18.3406 18.3234L17.8786 18.5948L17.5064 18.9762L17.1088 19.3697L16.6405 19.6837L16.0658 19.6751L15.5158 19.6111L14.994 19.656L14.9968 19.6566ZM19.7852 11.2963H19.3347L18.8405 11.1534L18.9314 10.5617L18.5212 10.2074L18.5966 9.71424L18.7801 9.20032L19.4406 9.37259L19.7858 8.99522L20.1638 9.29366L20.4578 9.53448L20.7811 9.79489L20.8001 10.208H20.7351L20.6557 10.5686L20.7287 11.1523L20.1298 11.0405L19.7858 11.2145L19.6408 11.3816L19.7858 11.2975L19.7852 11.2963ZM14.9968 11.9738L14.4923 12.1075L14.0573 12.3881L13.4176 12.2337L13.1857 12.811L12.8549 13.1734L12.6921 13.6412L12.0075 13.8837L12.168 14.4737L11.9016 14.9732L11.912 15.5177L12.172 16.0028L12.3394 16.5098L12.5966 16.9903L12.9775 17.3826L13.6224 17.3573L13.9078 17.9691L14.4624 18.0089L14.9968 17.7433L15.5411 18.0642L16.083 17.9605L16.4892 17.5612L17.0197 17.3872L17.0789 16.7229L17.3499 16.334L17.5432 15.9019L17.5835 15.4312L17.8614 14.9744H17.79L17.8372 14.4725L17.954 13.8964L17.6985 13.4119L17.19 13.1313L16.7032 12.9371L16.4346 12.4797L16.0042 12.2008L15.5256 11.9658L14.9963 11.975L14.9968 11.9738ZM29.305 5.48943L29.1376 4.98416L28.8591 4.52613L29.0594 3.89468L28.5306 3.56225L28.2482 3.13591L27.8408 2.81155L27.8679 2.08158L27.2713 1.94849L26.979 1.45763L26.5354 1.14766L25.9987 1.0284L25.5194 0.788155L25.0137 0.592268L24.4798 0.501239L23.9304 0.832517L23.4621 0.357205L22.9414 0.41309L22.4046 0.67408L21.9231 0.272512L21.4139 0.194734L20.8893 0.345682L20.3876 0.153252L19.852 0.545025L19.3416 0.519675L18.8308 0.503543L18.317 0.564038L17.8142 0.312266L17.301 0.367575L16.7913 0.266751L16.2832 0L15.7695 0.0201648L15.2557 0.269632L14.7443 0.47416L14.2317 0.259838L13.7191 0.196463L13.2047 0.103705L12.6984 0.357205L12.1824 0.216627L11.6807 0.513337L11.1537 0.146915L10.6566 0.490868L10.1233 0.0939102L9.63026 0.452843L9.09924 0.179755L8.59641 0.347986L8.09071 0.4563L7.56659 0.335887L7.0793 0.648153L6.55863 0.57556L6.0512 0.648153L5.53054 0.597453L5.02196 0.770294L4.55768 1.04223L4.11986 1.3159L3.59114 1.38561L3.06472 1.52561L2.7529 1.98076L2.4848 2.43821L2.04526 2.72052L1.59306 3.03163L1.36868 3.5104L1.41011 4.0946L0.883114 4.44835L0.930291 5.00029L0.81235 5.50383L0.747914 6.01256L0.665069 6.51956L0.807748 7.0473L0.428613 7.52895L0.787611 8.07225L0.662192 8.57579L0.488446 9.07703L0.692109 9.60304L0.402148 10.0991L0.604085 10.6222L0.422284 11.1263L0.359574 11.6368L0.310672 12.1484L0.56784 12.6681L0 13.1682L0.543676 13.6907L0.537348 14.2018L0.0575319 14.7116L0.479241 15.2244L0.291687 15.7377L0.311823 16.2505L0.233004 16.765L0.155336 17.2801L0.444146 17.7848L0.257743 18.3044L0.589702 18.8039L0.186403 19.3357L0.2704 19.8456L0.699012 20.3342L0.646658 20.8498L0.314699 21.3868L0.508007 21.8874L0.811775 22.3766L0.397545 22.9273L0.571867 23.4274L0.841116 23.916L0.709368 24.4449L0.666795 24.9916L1.24902 25.3765L0.954454 26.035L1.51194 26.3507L1.65807 26.8624L2.09301 27.1775L2.16895 27.8141L2.68616 28.0354L3.17864 28.2387L3.63371 28.4681L4.12216 28.6104L4.58587 28.793L5.05705 28.9762L5.53744 29.2268L6.05005 29.2487L6.57704 29.1139L7.04996 29.5639L7.57522 29.4423L8.06885 29.6998L8.60562 29.3927L9.10154 29.6445L9.62796 29.4342L10.1199 29.8081L10.644 29.5967L11.1445 29.8721L11.6698 29.569L12.1824 29.5466L12.6944 29.5322L13.203 29.6583L13.711 29.9343L14.2236 30.0029L14.7379 29.8606L15.2506 29.758L15.7609 29.5541L16.2712 29.4815L16.7913 29.9349L17.3027 29.8473L17.8038 29.4682L18.3297 29.8652L18.844 29.8819L19.3353 29.4158L19.8663 29.7684L20.3669 29.5489L20.8611 29.2648L21.3817 29.3876L21.8869 29.2885L22.4346 29.7044L22.8942 29.0782L23.4195 29.2124L23.9356 29.2337L24.4252 28.9952L25.0085 29.3576L25.4976 29.1047L25.8692 28.6196L26.3243 28.4145L26.8104 28.2428L27.2425 27.9662L27.7735 27.7721L27.9277 27.2075L28.3897 26.9061L28.5715 26.4055L28.6716 25.887L28.835 25.4105L29.1111 24.9536L29.0266 24.4236L29.5674 23.9638L29.0369 23.3963L29.1175 22.8899L29.5754 22.4146L29.5311 21.8955L29.6703 21.3908L29.4655 20.8619L29.4074 20.3451L29.6347 19.8444L29.7935 19.3386L29.4212 18.808L29.5311 18.2998L29.6899 17.7922L29.4707 17.2731L29.5639 16.7633L29.6094 16.2517L30 15.7423L29.7653 15.2273L29.9655 14.7134L29.5127 14.2029L29.488 13.6913L29.4195 13.1808L29.4281 12.6692L29.5599 12.1536L29.9436 11.6264L29.3988 11.135L29.9097 10.598L29.7814 10.0899L29.7267 9.57827L29.6117 9.07069L29.3349 8.57579L29.4442 8.05381L29.4477 7.53874L29.4908 7.01965L29.2763 6.52417L29.5455 5.98145L29.3039 5.49L29.305 5.48943ZM24.1191 18.6968L24.1835 19.2044L24.267 19.7361L23.7589 20.1337L23.9166 20.7144L23.7273 21.1961L23.5881 21.7186L22.8816 21.8471L22.797 22.4227L22.289 22.622L21.8903 22.9072L21.5549 23.2886L21.0923 23.4764L20.6189 23.6164L20.1557 23.7639L19.7536 24.2548L19.1978 23.9016L18.7163 24.0278L18.1847 24.3343L17.6531 23.9725L17.1215 23.9327L16.5899 24.1194L16.0583 23.9592L15.5267 24.3809L14.9951 24.3821L14.4635 24.3896L13.9319 24.4708L13.4003 24.2369L12.8687 24.3072L12.3371 24.2179L11.8055 23.9598L11.2739 23.9863L10.7636 24.2144L10.22 24.3446L9.76374 24.0145L9.30578 23.7875L8.89098 23.4925L8.33234 23.4562L8.00038 23.0397L7.42679 22.9245L7.33934 22.2901L6.76978 22.1046L6.83479 21.4507L6.30492 21.1765L6.38201 20.5963L6.10011 20.1728L5.91773 19.7016L6.00921 19.1876L5.71809 18.6991L5.83776 18.1667L5.81475 17.6344L5.91888 17.102L5.82568 16.5697L5.67725 16.0373L5.56909 15.505L5.7342 14.9726L5.88666 14.4403L5.70774 13.9079L5.54895 13.3756L5.68473 12.8432L5.86192 12.3109L5.80612 11.7785L5.51616 11.2456L5.91428 10.7484L5.80324 10.2218L5.95858 9.73152L6.13232 9.2516L6.3682 8.80048L6.45335 8.25719L7.01774 8.02788L7.03615 7.37743L7.46936 7.06746L7.95436 6.8445L8.2495 6.35536L8.82942 6.33001L9.2097 5.91116L9.75338 5.89618L10.2608 5.82013L10.7682 5.78095L11.2739 5.48539L11.8055 6.04252L12.3371 5.48943H12.8687L13.4003 5.96762L13.9319 5.54531L14.4635 5.73601L14.9951 5.72161L15.5267 5.80918L16.0583 5.89848L16.5899 5.62424L17.1215 5.82877L17.6531 5.51708L18.1847 5.94515L18.7163 5.88754L19.2467 5.51132L19.7576 5.66803L20.1661 6.14277L20.6862 6.15314L21.2644 6.12087L21.483 6.77018L21.9605 6.94302L22.4915 7.09858L22.7205 7.5906L22.9408 8.05151L23.6168 8.20706L23.4281 8.8967L23.9678 9.20839L24 9.74016L24.275 10.2051L23.9776 10.757L24.1847 11.245L24.3164 11.7774L24.3561 12.3097L24.439 12.8421L24.4257 13.3744L24.3659 13.9068L24.1922 14.4391L24.2238 14.9715L24.4091 15.5038L24.0052 16.0362L24.1714 16.5685L23.9546 17.1009L24.3009 17.6332L24.0846 18.1569L24.1168 18.6985L24.1191 18.6968ZM18.7174 7.52722L18.1858 7.61537L17.6542 7.7715L17.1226 7.36648L16.591 7.70121L16.0595 7.72311L15.5279 7.8562L14.9963 7.34516L14.4647 7.64821L13.9331 7.4287L13.4015 7.39241L12.8699 7.51685L12.3383 7.4552L11.8067 7.39125L11.2751 7.38376L10.7809 7.80434L10.1774 7.49899L9.69873 7.78764L9.3892 8.30558L8.75463 8.33093L8.33637 8.6939L8.16032 9.2395L7.76105 9.63703L7.97219 10.2731L7.86921 10.7536L7.8416 11.2439L7.92272 11.2456L7.68914 11.778L7.75933 12.3103L7.67015 12.8427L7.41241 13.375L7.43887 13.9074L7.69086 14.4397L7.8951 14.9721L7.67821 15.5044L7.60917 16.0368L7.50791 16.5691L7.74897 17.1015L7.59363 17.6338L7.87266 18.1662L7.48605 18.6985L7.84045 19.1934L7.5384 19.7972L8.03203 20.1815L8.01879 20.7939L8.44971 21.1494L8.87257 21.4738L9.20338 21.9243L9.79423 21.9422L10.2361 22.2354L10.7521 22.3241L11.2722 22.4659L11.2757 22.3725L11.8073 22.2239L12.3389 22.1156L12.8705 22.2809L13.4021 22.4336L13.9336 22.2544L14.4652 22.0954L14.9968 22.2314L15.5284 22.4088L16.06 22.3529L16.5916 22.0626L17.1232 22.4382L17.6548 22.255L18.1864 22.2942L18.7186 22.3063L19.2358 22.3028L19.6891 22.0101L20.2892 22.1444L20.5452 21.5469L20.9882 21.324L21.4427 21.0653L21.5532 20.5254L22.0215 20.212L21.9829 19.6618L22.243 19.2095L22.3212 18.702L22.3529 18.6985L22.0813 18.1662L22.6376 17.6338L22.0853 17.1015V16.5691L22.5629 16.0368L22.1411 15.5044L22.3316 14.9721L22.3172 14.4397L22.4046 13.9074L22.4938 13.375L22.22 12.8427L22.4242 12.3103L22.113 11.778L22.5404 11.2456L22.4455 10.7092L21.9478 10.2961L21.8569 9.81103L21.9306 9.179L21.4864 8.84485L20.9445 8.67431L20.8058 7.99562L20.2696 7.84755L19.7093 7.8729L19.2461 7.58253L18.7203 7.42006L18.7186 7.52607L18.7174 7.52722ZM14.9968 19.6583L14.4629 19.7171L13.9009 19.7805L13.5039 19.2453L12.8906 19.3524L12.4027 19.107L11.874 18.8938L11.8165 18.1575L11.2435 17.9703L11.1169 17.4143L10.9006 16.9488L10.5882 16.5184L10.5036 16.001L10.4812 15.4837L10.4604 14.9738L10.1055 14.4218L10.6129 13.9713L10.6543 13.4522L10.5761 12.8421L11.148 12.5529L11.4742 12.1617L11.679 11.6524L12.1709 11.4265L12.3607 10.7749L12.8463 10.5047L13.3572 10.2846L13.8738 10.0513L14.4572 10.1895L14.9957 10.0899L15.5319 10.2086L16.0042 10.5496L16.5007 10.6654L17.0818 10.6343L17.6623 10.7231L17.985 11.2185L18.3371 11.6264L18.611 12.0856L19.1155 12.3806L19.2404 12.9262L19.7058 13.3226L19.4837 13.9471L19.8876 14.4213L19.4947 14.9732H19.8238L19.4895 15.4802L19.5338 16.0103L19.455 16.5357L19.1063 16.9551L19.0856 17.5468L18.6777 17.9138L18.3417 18.3246L17.8809 18.5977L17.5075 18.9779L17.1088 19.3691L16.6399 19.6808L16.0664 19.6745L15.5169 19.6134L14.9945 19.6578L14.9968 19.6583ZM19.7852 11.298L19.3347 11.2969L18.8428 11.1517L18.9274 10.5635L18.523 10.2074L18.5989 9.71481L18.7836 9.2032L19.4389 9.3674L19.7858 8.99522L20.1649 9.28962L20.4606 9.53045L20.7828 9.79259L20.803 10.2063H20.7391L20.6597 10.5686L20.727 11.1488L20.1321 11.0434L19.7858 11.2156L19.6437 11.3793L19.7858 11.2963L19.7852 11.298ZM14.9968 11.975L14.4923 12.1069L14.0562 12.3846L13.4193 12.2371L13.184 12.8092L12.8532 13.1711L12.6881 13.6377L12.0121 13.8843L12.1674 14.4725L11.9051 14.9721L11.916 15.5159L12.1737 16.001L12.3417 16.5069L12.5995 16.9862L12.9803 17.378L13.6212 17.3584L13.9101 17.9628L14.4635 18.0043L14.9974 17.7444L15.5405 18.059L16.0813 17.9547L16.4886 17.5589L17.0174 17.3826L17.0818 16.7235L17.3533 16.334L17.5472 15.9014L17.5892 15.4301L17.8625 14.9721H17.7923L17.8378 14.4702L17.9499 13.8953L17.6951 13.4113L17.1905 13.1284L16.7061 12.9314L16.4351 12.4768L16.0048 12.1991L15.5261 11.9664L14.9968 11.9744V11.975Z" fill="#EAEAEA"/>
</svg>
