<svg width="233" height="24" viewBox="0 0 233 24" fill="none" xmlns="http://www.w3.org/2000/svg">
<g clip-path="url(#clip0_3234_15450)">
<path d="M6.6879 8.38168C6.52662 8.6236 5.99743 9.38966 5.52368 10.1154C3.57324 13.5375 1.00289 19.5652 0.0100308 22.191C-4.90177e-05 22.2162 -0.00508892 22.2414 0.0100308 22.2616C0.0201106 22.2767 0.0553899 22.2817 0.0755495 22.2716C1.522 21.3745 4.49554 20.3565 7.15661 20.0037C14.9382 18.9756 24.0705 20.4674 30.8996 21.0923C37.517 21.6971 40.3796 21.3443 42.0982 20.8454C44.2099 20.2355 46.4527 18.9856 48.3981 14.2078C49.8093 10.7404 52.0268 3.24603 52.6971 0.620239C47.8689 0.186808 37.391 -0.231504 29.8059 0.151528C21.6564 0.55976 15.6589 1.93061 13.0079 3.14523C11.3599 3.90121 9.74208 4.7832 8.08395 6.57236C8.05875 6.59756 7.76644 6.92011 7.57492 7.16203C7.57492 7.16203 6.92981 8.02889 6.6879 8.38672V8.38168Z" fill="white"/>
<path opacity="0.07" d="M51.0996 6.19434C50.2176 9.09228 49.1844 12.2775 48.3931 14.2128C46.4477 18.9906 44.205 20.2456 42.0933 20.8504C40.3747 21.3443 37.507 21.6971 30.8896 21.0973C24.0605 20.4724 14.9282 18.9806 7.14661 20.0087C4.48554 20.3615 1.512 21.3796 0.0655527 22.2767C0.0554729 22.2817 0.0453931 22.2867 0.0302734 22.2817H0.0403532C0.0403532 22.2817 0.050433 22.2918 0.131071 22.2615C0.927376 21.9743 5.79592 19.9281 17.433 21.3292C26.1017 22.3724 37.8446 25.7542 44.4066 22.8613C47.5968 21.4552 49.7438 18.5975 50.9333 15.3619C52.2436 11.8088 53.1407 8.57317 53.6901 6.45641C52.9341 6.38081 52.1176 6.28001 51.0996 6.19434Z" fill="black"/>
<path d="M41.2774 5.37311C40.8187 5.35799 39.846 5.34791 39.4277 5.39327C39.2211 6.03334 38.5155 8.35673 38.1123 9.67719C38.5105 9.69231 38.9943 9.71247 39.589 9.71751C41.7158 9.72255 42.8347 8.83552 43.2328 7.58059C43.6058 6.41133 43.1421 5.43863 41.2723 5.37311H41.2774Z" fill="url(#paint0_linear_3234_15450)"/>
<path d="M29.8059 0.146645C21.6514 0.554877 15.6539 1.92573 13.0079 3.14035C11.3599 3.89633 9.74208 4.77831 8.08395 6.56748C8.05875 6.59268 8.06883 6.633 8.11923 6.6078C8.55266 6.31548 9.09193 6.01813 9.76224 5.75605C10.2309 5.56958 10.6845 5.44358 11.3196 5.27222C11.9143 5.11095 13.1894 4.83375 13.7891 4.71279C15.9815 4.27432 18.4359 3.90641 20.1344 3.74513C20.1444 3.74513 20.1545 3.74513 20.1495 3.76529C20.0033 4.16849 19.706 4.85895 19.4993 5.22182C18.9903 6.13405 18.2494 6.85475 16.9945 7.04123C15.79 7.22267 14.9483 7.31338 14.4796 7.37386C14.3485 7.75185 11.9395 13.6889 10.5787 17.1412C9.47496 17.1865 7.57492 17.4587 6.4611 17.7964C7.42876 15.2613 8.90041 11.5721 9.56568 9.97949C10.2309 8.38688 10.4678 8.22561 10.7904 8.00385C10.8509 7.96353 10.8055 7.93329 10.7702 7.94337C9.90839 8.10969 8.52242 8.46248 7.81683 8.71952C6.98525 9.02191 5.99743 9.37974 5.52368 10.1055C3.57324 13.5377 1.00289 19.5654 0.0100308 22.1912C-4.90177e-05 22.2164 -0.00508892 22.2416 0.0100308 22.2617C0.0201106 22.2768 0.0553899 22.2819 0.0755495 22.2668C1.522 21.3697 4.49554 20.3516 7.15661 19.9988C14.9382 18.9707 24.0705 20.4625 30.8996 21.0874C37.517 21.6922 40.3796 21.3394 42.1033 20.8405C44.215 20.2306 46.4577 18.9808 48.4031 14.2029C49.8143 10.7355 52.0319 3.24114 52.7022 0.615356C47.874 0.181925 37.396 -0.236387 29.811 0.146645H29.8059ZM29.5186 15.7754C29.9269 16.8086 30.1839 17.3781 30.2948 17.6049C30.32 17.6603 30.2797 17.6855 30.2293 17.6855C29.9067 17.6754 29.181 17.6502 27.7345 17.5141C25.6732 17.3176 24.9273 16.5162 24.4384 15.2008C24.1713 14.4801 23.3548 11.4511 23.0676 10.292C23.0575 10.2466 22.992 10.2264 22.9668 10.292C22.2259 12.4339 21.3994 15.0295 20.7946 17.0001C19.8168 16.9295 17.569 16.8237 16.2788 16.8338C17.9168 12.1013 19.333 8.14497 21.0667 3.65946C22.367 3.52338 24.2872 3.37722 25.4817 3.30666C24.9777 4.68256 24.4535 6.12397 23.7429 8.05425C23.7228 8.11473 23.7681 8.14497 23.8236 8.10465C26.5249 5.99797 27.7295 5.06559 30.4964 3.06475C31.2826 3.00427 33.4346 2.95387 34.8861 2.93371C34.9265 2.93371 34.8962 2.96395 34.8761 2.97907C32.4166 4.81863 29.5237 7.03619 27.2255 8.88079C27.2255 8.88079 28.7425 13.8098 29.5186 15.7804V15.7754ZM47.7681 7.80729C47.118 10.2315 44.8097 12.3684 40.3091 12.5146C38.9533 12.5599 37.9202 12.4894 37.2952 12.4793C36.8114 14.0568 36.1511 16.2088 35.6673 17.7913C34.4174 17.8619 32.472 17.8065 31.0558 17.7208C32.4619 13.2151 34.4426 7.3789 35.8437 2.91859C36.3124 2.90851 38.1167 2.89339 39.8706 2.90851C41.6194 2.92867 43.2423 3.02947 44.5023 3.26634C46.5535 3.64938 48.5392 4.89423 47.7631 7.80729H47.7681Z" fill="url(#paint1_linear_3234_15450)"/>
<path d="M62.7168 7.03567H66.3909L65.015 17.7505H66.779L68.1498 7.03567H71.6777L72.0456 5.60938H62.9033L62.7168 7.03567Z" fill="#3F3B3A"/>
<path d="M80.5126 5.60938L74.9688 11.2641L79.2728 17.7505H81.3493L76.9545 11.3196L82.5538 5.60938H80.5126Z" fill="#3F3B3A"/>
<path d="M73.8347 5.60938L72.2773 17.7505H74.0413L75.5986 5.60938H73.8347Z" fill="#3F3B3A"/>
<path d="M87.7593 5.60938H84.569L83.0117 17.7505H84.7757L85.3502 13.2952H87.3712C90.506 13.2952 92.4514 11.6371 92.4514 8.92563C92.4514 6.86431 90.8185 5.61442 87.7593 5.61442V5.60938ZM87.4267 11.9697H85.5165L86.1667 6.91471H87.6686C89.7097 6.91471 90.6018 7.60014 90.6018 8.96091C90.6018 10.9517 89.3569 11.9748 87.4317 11.9748L87.4267 11.9697Z" fill="#3F3B3A"/>
<path d="M106.569 10.6846H101.373L102.023 5.60938H100.264L98.7017 17.7505H100.466L101.191 12.0554H106.382L105.662 17.7505H107.421L108.978 5.60938H107.219L106.569 10.6846Z" fill="#3F3B3A"/>
<path d="M115.495 8.25098C112.098 8.25098 110.485 11.1388 110.485 14.067C110.485 16.461 111.896 17.9629 114.305 17.9629C117.329 17.9629 119.295 15.5135 119.295 12.1317C119.295 9.75287 117.904 8.25602 115.495 8.25602V8.25098ZM114.366 16.6575C112.995 16.6575 112.309 15.8814 112.309 14.2081C112.309 11.038 113.7 9.55631 115.444 9.55631C116.78 9.55631 117.485 10.3476 117.485 12.0057C117.485 14.2938 116.578 16.6575 114.371 16.6575H114.366Z" fill="#3F3B3A"/>
<path d="M124.476 6.17496L123.12 6.31608L122.45 8.46308H120.872L120.686 9.69785H122.243L121.462 15.02C121.426 15.2821 121.406 15.5139 121.406 15.7407C121.406 17.2224 122.243 17.9582 123.745 17.9582C124.561 17.9582 125.322 17.7315 125.988 17.3232L125.393 16.1792C124.854 16.4614 124.41 16.5824 124.057 16.5824C123.316 16.5824 122.984 16.2497 123.13 15.2417L123.946 9.69281H126.209L126.597 8.45804H124.128L124.46 6.16992L124.476 6.17496Z" fill="#3F3B3A"/>
<path d="M132.025 8.25098C129.299 8.25098 127.016 10.398 127.016 14.0469C127.016 16.461 128.427 17.9578 130.836 17.9578C132.025 17.9578 133.079 17.5697 134.082 16.8642L133.361 15.7352C132.413 16.3703 131.672 16.5819 130.765 16.5819C129.707 16.5819 128.855 15.8411 128.82 14.1527C133.29 13.8705 135.165 12.4795 135.165 10.6298C135.165 9.13296 133.961 8.25098 132.03 8.25098H132.025ZM128.89 13.0086C129.208 10.8616 130.523 9.53615 131.99 9.53615C132.806 9.53615 133.326 9.92422 133.326 10.6651C133.326 11.8999 132.378 12.7415 128.89 13.0086Z" fill="#3F3B3A"/>
<path d="M138.249 17.9575C138.768 17.9575 139.177 17.8517 139.675 17.64L139.287 16.496C139.101 16.5665 138.879 16.6018 138.693 16.6018C138.264 16.6018 138.098 16.4254 138.194 15.8609L139.882 4.53125L138.138 4.72277L136.505 15.7148C136.284 17.1965 137.024 17.9525 138.249 17.9525V17.9575Z" fill="#3F3B3A"/>
<path d="M148.304 15.055C148.304 13.7497 147.452 12.908 145.688 12.3234C143.889 11.7236 143.612 11.4263 143.612 10.7711C143.612 10.0302 144.206 9.53631 145.3 9.53631C146.247 9.53631 146.953 9.79838 147.694 10.3629L148.546 9.26919C147.674 8.59889 146.726 8.24609 145.375 8.24609C143.092 8.24609 141.777 9.31959 141.777 10.9072C141.777 11.9807 142.573 12.913 144.357 13.4775C146.066 14.0218 146.474 14.4301 146.474 15.2062C146.474 16.068 145.678 16.6526 144.488 16.6526C143.47 16.6526 142.467 16.2293 141.742 15.5943L140.724 16.6174C141.464 17.3028 142.876 17.958 144.357 17.958C146.918 17.958 148.309 16.8139 148.309 15.05L148.304 15.055Z" fill="#3F3B3A"/>
<path d="M162.658 17.9171H164.422L163.026 15.6491C163.696 14.8528 164.306 13.9003 164.84 12.8217L164.875 12.7512L163.57 12.2976L163.54 12.353C163.101 13.1997 162.688 13.8851 162.275 14.4446L159.271 9.53067C158.999 9.0922 158.873 8.66885 158.873 8.1951C158.873 7.2224 159.644 6.59241 160.843 6.59241C162.043 6.59241 162.648 6.99056 163.409 7.68607L163.459 7.73647L164.502 6.59241L164.447 6.54201C163.479 5.66507 162.36 5.25684 160.929 5.25684C158.832 5.25684 157.315 6.52185 157.315 8.2707C157.315 8.92588 157.497 9.49539 157.935 10.2463L158.298 10.8612C155.884 11.8238 154.715 13.1644 154.715 14.9687C154.715 15.9465 155.063 16.7528 155.713 17.3072C156.348 17.8415 157.26 18.1237 158.349 18.1237C159.629 18.1237 160.828 17.66 161.927 16.7528L162.648 17.9322L162.658 17.9171ZM158.994 11.9448L161.231 15.6138C160.37 16.3799 159.462 16.773 158.54 16.773C156.872 16.773 156.272 15.7902 156.272 14.873C156.272 13.5525 157.084 12.6756 158.989 11.9498L158.994 11.9448Z" fill="#3F3B3A"/>
<path d="M181.613 8.65851C181.613 6.77359 180.076 5.60938 176.996 5.60938H173.806L172.249 17.7505H174.012L174.663 12.6048H176.537L179.153 17.7505H181.159L178.246 12.3931C180.287 12.005 181.623 10.5938 181.623 8.65851H181.613ZM176.754 11.3196H174.824L175.398 6.91471H176.921C178.886 6.91471 179.723 7.51446 179.723 8.69379C179.723 10.4023 178.629 11.3196 176.754 11.3196Z" fill="#3F3B3A"/>
<path d="M187.731 8.25098C185.005 8.25098 182.722 10.398 182.722 14.0469C182.722 16.461 184.133 17.9578 186.542 17.9578C187.731 17.9578 188.785 17.5697 189.788 16.8642L189.062 15.7352C188.114 16.3703 187.374 16.5819 186.466 16.5819C185.408 16.5819 184.556 15.8411 184.521 14.1527C188.991 13.8705 190.866 12.4795 190.866 10.6298C190.866 9.13296 189.662 8.25098 187.731 8.25098ZM184.597 13.0086C184.914 10.8616 186.229 9.53615 187.696 9.53615C188.513 9.53615 189.032 9.92422 189.032 10.6651C189.032 11.8999 188.084 12.7415 184.597 13.0086Z" fill="#3F3B3A"/>
<path d="M195.916 9.53631C196.864 9.53631 197.569 9.79838 198.31 10.3629L199.162 9.26919C198.29 8.59889 197.342 8.24609 195.992 8.24609C193.709 8.24609 192.393 9.31959 192.393 10.9072C192.393 11.9807 193.189 12.913 194.974 13.4775C196.682 14.0218 197.09 14.4301 197.09 15.2062C197.09 16.068 196.294 16.6526 195.105 16.6526C194.087 16.6526 193.084 16.2293 192.358 15.5943L191.34 16.6174C192.081 17.3028 193.492 17.958 194.974 17.958C197.534 17.958 198.925 16.8139 198.925 15.05C198.925 13.7446 198.073 12.903 196.309 12.3183C194.51 11.7186 194.233 11.4212 194.233 10.766C194.233 10.0252 194.827 9.53127 195.921 9.53127L195.916 9.53631Z" fill="#3F3B3A"/>
<path d="M205.628 8.25098C202.231 8.25098 200.618 11.1388 200.618 14.067C200.618 16.461 202.029 17.9629 204.438 17.9629C207.462 17.9629 209.428 15.5135 209.428 12.1317C209.428 9.75287 208.037 8.25602 205.628 8.25602V8.25098ZM204.499 16.6575C203.128 16.6575 202.438 15.8814 202.438 14.2081C202.438 11.038 203.829 9.55631 205.572 9.55631C206.908 9.55631 207.614 10.3476 207.614 12.0057C207.614 14.2938 206.706 16.6575 204.499 16.6575Z" fill="#3F3B3A"/>
<path d="M213.681 10.9122L213.923 8.46281H212.457L211.086 17.7463H212.794L213.445 13.3062C214.296 10.9122 215.279 9.99494 216.302 9.97478C216.579 9.97478 216.821 10.0101 217.099 10.0806L217.673 8.35193C217.396 8.28137 217.043 8.24609 216.726 8.24609C215.667 8.24609 214.538 9.02224 213.681 10.9072V10.9122Z" fill="#3F3B3A"/>
<path d="M222.26 6.17496L220.904 6.31608L220.234 8.46308H218.656L218.47 9.69785H220.027L219.246 15.02C219.211 15.2821 219.19 15.5139 219.19 15.7407C219.19 17.2224 220.027 17.9582 221.529 17.9582C222.345 17.9582 223.106 17.7315 223.772 17.3232L223.177 16.1792C222.638 16.4614 222.194 16.5824 221.841 16.5824C221.101 16.5824 220.768 16.2497 220.914 15.2417L221.731 9.69281H223.993L224.382 8.45804H221.917L222.25 6.16992L222.26 6.17496Z" fill="#3F3B3A"/>
<path d="M229.704 12.3234C227.904 11.7236 227.627 11.4263 227.627 10.7711C227.627 10.0302 228.222 9.53631 229.315 9.53631C230.263 9.53631 230.969 9.79838 231.709 10.3629L232.561 9.26919C231.689 8.59889 230.742 8.24609 229.391 8.24609C227.108 8.24609 225.793 9.31959 225.793 10.9072C225.793 11.9807 226.589 12.913 228.373 13.4775C230.082 14.0218 230.49 14.4301 230.49 15.2062C230.49 16.068 229.693 16.6526 228.504 16.6526C227.486 16.6526 226.483 16.2293 225.757 15.5943L224.739 16.6174C225.48 17.3028 226.891 17.958 228.373 17.958C230.933 17.958 232.324 16.8139 232.324 15.05C232.324 13.7446 231.473 12.903 229.709 12.3183L229.704 12.3234Z" fill="#3F3B3A"/>
</g>
<defs>
<linearGradient id="paint0_linear_3234_15450" x1="0.207238" y1="7.54027" x2="50.7977" y2="7.54027" gradientUnits="userSpaceOnUse">
<stop stop-color="#AF1F24"/>
<stop offset="0.5" stop-color="#D31A1B"/>
<stop offset="1" stop-color="#D31A1B"/>
</linearGradient>
<linearGradient id="paint1_linear_3234_15450" x1="0.206587" y1="11.1387" x2="50.7971" y2="11.1387" gradientUnits="userSpaceOnUse">
<stop stop-color="#AF1F24"/>
<stop offset="0.5" stop-color="#D31A1B"/>
<stop offset="1" stop-color="#D31A1B"/>
</linearGradient>
<clipPath id="clip0_3234_15450">
<rect width="232.561" height="24" fill="white"/>
</clipPath>
</defs>
</svg>
