<svg width="175" height="55" viewBox="0 0 175 55" fill="none" xmlns="http://www.w3.org/2000/svg">
<g clip-path="url(#clip0_4413_12164)">
<path d="M20.9365 5.75488C17.1763 5.75488 14.1236 8.82361 14.1236 12.6035C14.1236 16.3835 17.1763 19.4522 20.9365 19.4522C24.6967 19.4522 27.7494 16.3835 27.7494 12.6035C27.7494 8.82361 24.6967 5.75488 20.9365 5.75488ZM20.9365 17.7137C18.1328 17.7137 15.84 15.422 15.84 12.5904C15.84 9.75872 18.1197 7.46705 20.9365 7.46705C23.7534 7.46705 26.0331 9.75872 26.0331 12.5904C26.0331 15.422 23.7534 17.7137 20.9365 17.7137Z" fill="#65B0D4"/>
<path d="M16.1937 29.0674H12.879V30.7927H16.1937V29.0674Z" fill="#65B0D4"/>
<path d="M19.6133 34.4277H16.2985V36.1531H19.6133V34.4277Z" fill="#65B0D4"/>
<path d="M56.1409 5.0443C56.9532 5.07064 57.7262 5.25503 58.4599 5.58429L59.1805 4.017C58.2371 3.58238 57.2414 3.34531 56.1933 3.31897C52.5379 3.22677 49.3673 5.72917 48.4895 9.16667C47.9392 6.84866 48.7908 4.33309 50.8216 2.858L49.8258 1.44875C47.3889 3.20043 46.2753 6.13745 46.6945 8.9296C44.179 7.16475 40.7333 7.00671 38.0212 8.81106L38.9645 10.2466C41.0608 8.85058 43.7073 8.95594 45.6595 10.2993C44.2183 10.1281 42.7509 10.3652 41.4014 11.0105C39.541 11.9061 38.1522 13.4866 37.4709 15.4358C37.1303 16.4236 36.9862 17.4509 37.0517 18.4782L38.768 18.3728C38.7156 17.5694 38.8204 16.766 39.0955 16.0022C39.6196 14.4875 40.707 13.2627 42.1482 12.5647C43.3667 11.972 44.7031 11.8271 46.0001 12.1037C44.3231 13.0783 42.5282 14.9485 43.8253 18.5704L45.4368 17.9909C44.3886 15.0802 45.856 13.8554 48.3847 12.9071L48.2667 12.5778C51.3587 16.9504 52.9834 22.0869 52.9834 27.4737C52.9834 41.6846 41.48 53.2483 27.3433 53.2483C22.9935 53.2483 18.9058 52.1552 15.3159 50.2191C20.5435 49.982 30.527 48.8757 31.7848 43.7787C32.3482 41.4739 30.907 39.6695 29.7409 38.2076C28.9155 37.1671 28.1294 36.1925 28.2473 35.3364C28.3259 34.7306 28.8762 34.0589 29.8588 33.3477C31.038 32.4916 34.7589 31.6882 38.3618 30.9112C40.8381 30.3712 43.406 29.818 45.5285 29.1858C48.8301 28.198 50.6513 26.0776 50.7168 25.9854C50.9264 25.7352 50.9788 25.3664 50.8347 25.0635C50.6906 24.7605 50.3892 24.563 50.0617 24.563H1.88665C3.31474 11.7481 14.1892 1.72534 27.3564 1.72534V0C12.2763 0 0 12.3408 0 27.5C0 42.6592 12.2763 55 27.3564 55C42.4365 55 54.7128 42.6592 54.7128 27.5C54.7128 22.0738 53.1537 16.8714 50.2058 12.3803C51.8828 10.5496 53.4943 9.79885 55.7216 11.7217L56.8484 10.4179C53.9529 7.9023 51.5684 8.9296 50.0617 10.1545C50.2582 8.8374 50.8871 7.62572 51.8697 6.70378C53.0358 5.59746 54.5556 5.01796 56.154 5.07064L56.1409 5.0443ZM3.20992 36.153H13.521V34.4277H2.67275C2.34521 33.2423 2.09628 32.0307 1.93905 30.7795H10.1145V29.0541H1.76873C1.74253 28.5405 1.71633 28.0137 1.71633 27.4868C1.71633 27.0917 1.71633 26.6966 1.74253 26.3147H47.6903C46.9959 26.7625 46.105 27.2366 45.0306 27.5527C42.9736 28.1717 40.445 28.7117 37.995 29.2385C33.8811 30.1341 30.3174 30.898 28.85 31.9648C27.4481 32.9789 26.7013 34.0062 26.5441 35.1125C26.3345 36.7062 27.3826 38.0232 28.4045 39.3008C29.4789 40.631 30.4877 41.8954 30.1209 43.3705C29.6099 45.4514 26.3607 47.0714 20.9759 47.9274C17.2681 48.5069 13.652 48.5596 12.6432 48.5728C8.3458 45.5304 5.01796 41.2105 3.22302 36.153H3.20992ZM49.1839 10.8657H49.2494C49.2494 10.8657 49.2232 10.892 49.2101 10.9052C49.2101 10.892 49.197 10.8788 49.1839 10.8657ZM46.9959 11.5769C46.9959 11.5769 47.0221 11.6032 47.0221 11.6164C47.009 11.6164 46.9828 11.6296 46.9697 11.6427L46.9959 11.5769Z" fill="#65B0D4"/>
<path d="M77.1953 24.1279V22.5211C77.7194 22.8636 78.44 23.1928 79.3702 23.1928C80.9293 23.1928 81.5844 22.4026 81.5844 21.6255C81.5844 20.967 81.1914 20.427 80.3266 20.0187L79.1475 19.4392C77.9683 18.8597 77.2215 18.0432 77.2215 16.871C77.2215 15.2247 78.6627 14.0525 80.9424 14.0525C81.7678 14.0525 82.4491 14.2237 82.7767 14.4081V16.0149C82.3705 15.7647 81.663 15.5539 80.9686 15.5539C79.6847 15.5539 78.9772 16.0939 78.9772 16.871C78.9772 17.3978 79.2916 17.7666 80.0253 18.1222L81.2045 18.6885C82.5932 19.347 83.2483 20.2953 83.2483 21.5728C83.2483 23.1928 82.1085 24.7206 79.4619 24.7206C78.5317 24.7206 77.7325 24.4704 77.2084 24.1279H77.1953Z" fill="#231816"/>
<path d="M103.15 14.1855V24.498H101.473V19.8093H95.7736V24.498H94.0966V14.1855H95.7736V18.2421H101.473V14.1855H103.15Z" fill="#231816"/>
<path d="M112.688 19.3741C112.688 16.3449 114.968 14.04 117.981 14.04C120.994 14.04 123.274 16.358 123.274 19.3741C123.274 22.3901 121.021 24.7081 117.981 24.7081C114.941 24.7081 112.688 22.3901 112.688 19.3741ZM121.584 19.3741C121.584 17.2141 120.051 15.581 117.981 15.581C115.911 15.581 114.391 17.2141 114.391 19.3741C114.391 21.5341 115.898 23.1277 117.981 23.1277C120.064 23.1277 121.584 21.5077 121.584 19.3741Z" fill="#231816"/>
<path d="M142.18 14.185V24.5633H141.905L134.751 17.6883V24.5107H133.1V14.1191H133.349L140.516 20.9151V14.185H142.18Z" fill="#231816"/>
<path d="M153.028 14.1855H154.679V24.498H153.028V14.1855Z" fill="#231816"/>
<path d="M174.083 14.185V24.5633H173.807L166.654 17.6883V24.5107H165.003V14.1191H165.252L172.419 20.9151V14.185H174.083Z" fill="#231816"/>
<path d="M102.822 40.7498C102.822 43.2126 101.067 44.7141 98.145 44.7141C97.503 44.7141 97.0313 44.6746 96.6514 44.6087V47.3877H94.9744V37.0752H98.4856C101.237 37.0752 102.822 38.6161 102.822 40.7629V40.7498ZM101.054 40.7629C101.054 39.5908 100.32 38.5898 98.3546 38.5898H96.6383V43.1073C97.0182 43.16 97.4899 43.1995 98.1188 43.1995C100.267 43.1995 101.054 42.2249 101.054 40.7629Z" fill="#231816"/>
<path d="M119.645 45.2398H115.4L114.509 47.3734H112.635L117.418 36.916H117.64L122.422 47.3734H120.549L119.658 45.2398H119.645ZM117.522 40.1691L116.003 43.791H119.029L117.522 40.1691Z" fill="#231816"/>
<path d="M139.861 47.374L137.869 44.0814C137.529 44.1209 137.175 44.1473 136.795 44.1473C136.14 44.1473 135.642 44.0946 135.223 44.0155V47.374H133.546V37.0615H137.372C140.084 37.0615 141.551 38.3259 141.551 40.4463C141.551 42.0268 140.804 43.12 139.481 43.6731L141.761 47.374H139.874H139.861ZM139.756 40.4727C139.756 39.3268 139.14 38.5893 137.214 38.5893H135.197V42.5536C135.603 42.6326 136.114 42.6722 136.756 42.6722C138.865 42.6722 139.756 41.8819 139.756 40.4727Z" fill="#231816"/>
<path d="M159.487 47.374L154.836 42.119V47.374H153.159V37.0615H154.836V41.6317L159.317 37.0615H161.453L156.775 41.8161L161.675 47.374H159.5H159.487Z" fill="#231816"/>
</g>
<defs>
<clipPath id="clip0_4413_12164">
<rect width="174.083" height="55" fill="white"/>
</clipPath>
</defs>
</svg>
