<svg width="183" height="40" viewBox="0 0 183 40" fill="none" xmlns="http://www.w3.org/2000/svg">
<g clip-path="url(#clip0_4413_12118)">
<mask id="mask0_4413_12118" style="mask-type:luminance" maskUnits="userSpaceOnUse" x="0" y="3" width="4" height="17">
<path d="M0.33523 19.3825L0.986658 19.394L1.63047 19.4016L2.27809 19.3711L2.92571 19.3825L3.59237 19.394L3.58856 18.7578L3.59999 18.1444L3.57332 17.5273L3.5619 16.914L3.53523 16.3006L3.59237 15.6873L3.58094 15.0778V14.4644L3.59237 13.8549L3.57713 13.2378L3.54285 12.6244L3.59618 12.0111L3.56952 11.3978L3.53523 10.7806L3.5619 10.1635L3.6038 9.55014L3.59618 8.933L3.59999 8.31586L3.53904 7.69872L3.6038 7.08157L3.54285 6.46824L3.55047 5.84729L3.58475 5.23014L3.55047 4.60919L3.58475 3.973L2.92952 3.96157L2.28571 3.99967H1.6419L0.994277 3.96538L0.319991 3.95776L0.342849 4.60157L0.339039 5.21491L0.33142 5.82824L0.361896 6.44538L0.369516 7.05872L0.319991 7.67205L0.33523 8.28157V8.8911L0.33142 9.50443L0.377135 10.1178L0.380944 10.7349L0.358087 11.3482L0.384753 11.9616L0.369516 12.5749L0.312373 13.1921L0.346659 13.8092L0.339039 14.4263L0.323801 15.0435L0.377135 15.6606L0.350468 16.274L0.377135 16.8911L0.323801 17.5082L0.308563 18.1292L0.33142 18.7501L0.33523 19.3825Z" fill="white"/>
</mask>
<g mask="url(#mask0_4413_12118)">
<path d="M1.56312 2.35963L-7.18861 13.5251L2.35184 21.0031L11.1036 9.83762L1.56312 2.35963Z" fill="url(#paint0_linear_4413_12118)"/>
</g>
<mask id="mask1_4413_12118" style="mask-type:luminance" maskUnits="userSpaceOnUse" x="0" y="0" width="20" height="4">
<path d="M3.56952 0.427214L2.92952 0.358643L2.28571 0.438643L1.6419 0.389119L0.994278 0.358643L0.331421 0.385309L0.346659 1.06721L0.365707 1.73769L0.354278 2.41198V3.07483L0.97904 3.12436L1.61142 3.09007L2.23999 3.04055L2.87237 3.04817L3.50094 3.12055L4.13333 3.10531L4.76571 3.09769L5.39809 3.12436L6.03047 3.13198L6.65904 3.07864L7.29142 3.07483H7.91999L8.54475 3.1015L9.17333 3.07864L9.80571 3.1015L10.4419 3.10912L11.0705 3.05959L11.7029 3.13198L12.3352 3.04817L12.9676 3.07864L13.6 3.13579L14.2362 3.05579L14.8686 3.09769L15.5048 3.08245L16.1371 3.07102L16.7695 3.05959L17.4057 3.08626L18.0419 3.08245L18.6819 3.07864L19.3524 3.12436L19.3067 2.4234L19.2914 1.74912L19.2762 1.07483L19.2914 0.423405L18.6933 0.408167L18.0648 0.434833L17.4324 0.358643L16.8038 0.415785L16.1752 0.446261L15.5467 0.423405H14.9219L14.2971 0.438643L13.6724 0.373881L13.0438 0.3815L12.4114 0.438643L11.7829 0.419595L11.1581 0.442452L10.5257 0.400548H9.89714L9.26475 0.438643L8.63618 0.396738L8.0038 0.419595L7.37142 0.389119L6.73904 0.411976L6.11047 0.404357L5.47809 0.362452H4.8419L4.20571 0.373881L3.56952 0.427214Z" fill="white"/>
</mask>
<g mask="url(#mask1_4413_12118)">
<path d="M7.57206 -8.87727L-1.01517 2.07837L12.1142 12.3694L20.7014 1.41378L7.57206 -8.87727Z" fill="url(#paint1_linear_4413_12118)"/>
</g>
<mask id="mask2_4413_12118" style="mask-type:luminance" maskUnits="userSpaceOnUse" x="4" y="3" width="16" height="17">
<path d="M19.3181 3.97261L18.701 3.95357L18.0838 3.94214L17.4667 3.96119H16.8495H16.2324L15.6191 3.99166L15.0057 3.96881L14.3924 3.99547L13.7752 3.96499H13.1543L12.5371 4.01071L11.92 3.95357L11.3029 3.96881L10.6819 3.95738H10.0648L9.44762 3.95357H8.82667L8.20572 3.98785L7.58477 3.94976L6.96762 3.99166L6.34667 4.01833L5.72572 4.01071L5.10096 3.99928H4.4762L4.51048 4.60881L4.48381 5.22214L4.44191 5.83547L4.46477 6.4488L4.44572 7.06214L4.46096 7.67547L4.46858 8.28499L4.49905 8.89452L4.48381 9.50404L4.47239 10.1174L4.51429 10.7345L4.45334 11.3479L4.4762 11.9612L4.45715 12.5745L4.51429 13.1917L4.47239 13.8088L4.50286 14.4221L4.47239 15.0393L4.50286 15.6564L4.49524 16.2736L4.50286 16.8869L4.49524 17.504V18.1212L4.45334 18.7421L4.48 19.3631L5.09715 19.3783L5.71429 19.3402L6.33143 19.3326H6.94858H7.56572L8.17905 19.3936L8.79239 19.3631L9.40572 19.405L10.0229 19.3326L10.64 19.3593L11.2571 19.3859L11.8743 19.3707L12.4914 19.3898H13.1124H13.7295L14.3467 19.4088L14.9676 19.3898L15.5886 19.4088L16.2095 19.3517L16.8267 19.344L17.4476 19.3821H18.0686L18.6933 19.3593L19.3333 19.3859L19.3524 18.7574L19.3143 18.144L19.3486 17.5307L19.2952 16.9174L19.3219 16.304L19.3105 15.6907L19.341 15.0812L19.3067 14.4717L19.3181 13.8583L19.2952 13.245L19.3067 12.6279V12.0145L19.3371 11.4012L19.2991 10.7879V10.1707L19.3029 9.55738L19.3257 8.94404L19.2762 8.3269L19.3219 7.70976L19.3029 7.09261L19.28 6.47928V5.86214L19.2838 5.245L19.2762 4.62404L19.3295 4.00309H19.3067V3.98023L19.3181 3.97261ZM16.3086 17.6602L15.6952 17.6412L15.0819 17.6259L14.4686 17.6412H13.8552H13.2419L12.6286 17.6717L12.0152 17.6488L11.4019 17.6717L10.7848 17.6412H10.1714L9.5581 17.6831L8.94477 17.6259L8.32762 17.6374L7.71048 17.6259H7.08953H6.49143L6.50667 17.0393L6.46858 16.4374L6.50667 15.8355L6.46477 15.2336L6.44191 14.6279L6.44953 14.0221L6.46477 13.4164L6.47239 12.8107L6.4381 12.205L6.46477 11.5993L6.50667 10.9936L6.48381 10.384L6.50286 9.77452L6.48762 9.165L6.47619 8.55928L7.09715 8.53261L7.72572 8.54785L8.3581 8.55928L8.98667 8.51738L9.61524 8.57833L10.2438 8.55547L10.8762 8.57452L11.5086 8.51738L12.141 8.55928L12.7733 8.5288L13.4057 8.55928L14.0381 8.5288L14.6667 8.53642L15.2991 8.5288L15.9352 8.53642H16.5714L17.1886 8.57071L17.2076 9.17642L17.1924 9.805L17.2305 10.4336L17.2381 11.0621V11.6907L17.2419 12.3193L17.181 12.9479L17.2114 13.5764L17.1695 14.205L17.2419 14.8374L17.2152 15.4698L17.1886 16.1021L17.2038 16.7345L17.1924 17.6259L16.3086 17.6564V17.6602Z" fill="white"/>
</mask>
<g mask="url(#mask2_4413_12118)">
<path d="M10.1164 -3.29704L-3.06757 13.5232L13.6777 26.6484L26.8617 9.82821L10.1164 -3.29704Z" fill="url(#paint2_linear_4413_12118)"/>
</g>
<mask id="mask3_4413_12118" style="mask-type:luminance" maskUnits="userSpaceOnUse" x="7" y="9" width="10" height="8">
<path d="M7.36759 9.45201L7.35998 10.0615L7.38283 10.6711L7.36379 11.2768L7.38664 11.8787L7.35236 12.4882L7.36759 13.0939L7.35617 13.6996L7.35998 14.3053L7.37521 14.9111L7.38283 15.5206L7.38664 16.1301L7.3714 16.7434L8.00759 16.7244L8.63998 16.7434L9.27617 16.7625L9.91617 16.7472L10.5524 16.732L11.1885 16.7206L11.8285 16.7282L12.4685 16.732L13.1047 16.7625L13.7409 16.7549L14.3809 16.7434L15.0209 16.7587L15.6647 16.7396L16.2933 16.7244L16.3162 16.1377L16.3238 15.532L16.2971 14.9263L16.3085 14.3206L16.2895 13.7149L16.32 13.1091L16.2933 12.5034L16.3047 11.8977L16.2933 11.2882L16.3162 10.6787L16.3085 10.0691L16.3047 9.46343H15.6724L15.0362 9.47486L14.4038 9.43677L13.7638 9.47105L13.1276 9.47867L12.4914 9.46343L11.8514 9.48248L11.2114 9.46343L10.5752 9.44439L9.93902 9.45201L9.29902 9.44058L8.65902 9.45201L8.01521 9.47867L7.36759 9.45201Z" fill="white"/>
</mask>
<g mask="url(#mask3_4413_12118)">
<path d="M10.7649 5.08593L3.79454 13.9788L12.9092 21.123L19.8796 12.2302L10.7649 5.08593Z" fill="url(#paint3_linear_4413_12118)"/>
</g>
<path d="M34.1028 18.0411C34.5867 18.0411 34.8267 17.8659 34.8267 17.5116V4.18209C34.8267 3.83162 34.5828 3.65257 34.1028 3.65257V3.12305H38.7314V3.65257C38.2476 3.65257 38.0076 3.82781 38.0076 4.18209V17.5116C38.0076 17.8621 38.2514 18.0411 38.7314 18.0411V18.5707H34.1028V18.0411Z" fill="#231816"/>
<path d="M47.6076 14.3162C47.6076 14.3162 48.339 14.7467 48.7809 15.0019C49.1657 15.2229 49.84 15.4591 50.3314 15.6343C50.8228 15.8095 51.3409 15.9543 51.8781 16.061C52.419 16.1676 52.899 16.221 53.3295 16.221C53.6457 16.221 54.0533 16.1981 54.5562 16.1486C55.059 16.0991 55.5505 15.9962 56.0343 15.84C56.5181 15.6838 56.9371 15.4667 57.2876 15.1924C57.6419 14.9181 57.8171 14.5562 57.8171 14.1067C57.8171 13.6572 57.6533 13.3257 57.3295 13.1086C57.0057 12.8952 56.5752 12.7391 56.0457 12.64C55.5162 12.541 54.9105 12.48 54.2324 12.4495C53.5543 12.4191 52.8609 12.3772 52.1562 12.3162C51.4476 12.2591 50.7581 12.16 50.08 12.0229C49.4019 11.8857 48.7962 11.6572 48.2667 11.3333C47.7371 11.0095 47.3067 10.5714 46.9828 10.0114C46.6552 9.45525 46.4952 8.72382 46.4952 7.82477C46.4952 7.21906 46.6286 6.62096 46.899 6.0343C47.1695 5.44763 47.5809 4.92954 48.1409 4.48001C48.6971 4.03049 49.4057 3.66477 50.259 3.37906C51.1162 3.09715 52.1181 2.95239 53.2724 2.95239C54.259 2.95239 55.1124 3.02858 55.84 3.18858C56.5638 3.34477 57.1924 3.51239 57.7219 3.68763C58.2514 3.86287 58.6971 4.03049 59.059 4.18668C59.4209 4.34287 60.579 5.01334 60.579 5.01334L59.3105 7.43239C59.3105 7.43239 58.2667 6.88763 57.9352 6.71239C57.5467 6.50668 56.9447 6.24001 56.48 6.06477C56.0152 5.88954 55.5124 5.74477 54.9752 5.63811C54.4343 5.53144 53.8971 5.47811 53.3562 5.47811C52.9486 5.47811 52.5257 5.51239 52.0876 5.58096C51.6495 5.64954 51.2533 5.75239 50.9028 5.88953C50.5486 6.02668 50.2552 6.20573 50.0228 6.4343C49.7905 6.65906 49.6762 6.93715 49.6762 7.27239C49.6762 7.74096 49.84 8.09525 50.1638 8.32763C50.4876 8.56382 50.9181 8.73906 51.4476 8.85715C51.9771 8.97525 52.5828 9.05525 53.2609 9.09334C53.939 9.13144 54.6324 9.18096 55.3409 9.24192C56.0457 9.29906 56.739 9.40192 57.4171 9.55049C58.0952 9.69525 58.7009 9.93144 59.2305 10.2553C59.76 10.5791 60.1867 11.0133 60.5143 11.5619C60.8419 12.1105 61.0019 12.8229 61.0019 13.7067C61.0019 14.7238 60.7467 15.5543 60.2362 16.2019C59.7257 16.8495 59.0857 17.3562 58.3238 17.7295C57.5619 18.1029 56.739 18.3505 55.8552 18.4762C54.9714 18.6019 54.1486 18.6667 53.3867 18.6667C52.3276 18.6667 51.44 18.6019 50.7238 18.4762C50.0076 18.3505 49.4133 18.1943 48.9371 18.0076C48.4647 17.821 48.0876 17.6533 47.8095 17.5086C47.5314 17.3638 46.5867 16.6972 46.5867 16.6972L47.6114 14.3238L47.6076 14.3162Z" fill="#231816"/>
<path d="M80.56 3.12695H84.2438V3.65648C84.1143 3.65648 83.9962 3.70219 83.8933 3.78981C83.7905 3.87743 83.7409 4.01076 83.7409 4.186V17.5155C83.7409 17.6908 83.7905 17.8241 83.8933 17.9117C83.9962 17.9993 84.1105 18.045 84.2438 18.045V18.5746H80.56V11.9993H71.5771V17.5193C71.5771 17.6946 71.6305 17.8279 71.7295 17.9155C71.8324 18.0031 71.9467 18.0489 72.08 18.0489V18.5784H68.3962V3.12695H72.08V3.65648C71.9505 3.65648 71.8324 3.70219 71.7295 3.78981C71.6267 3.87743 71.5771 4.01076 71.5771 4.186V9.17648H80.56V3.12695Z" fill="#231816"/>
<path d="M92.4038 18.0411C92.8876 18.0411 93.1276 17.8659 93.1276 17.5116V4.18209C93.1276 3.83162 92.8838 3.65257 92.4038 3.65257V3.12305H97.0324V3.65257C96.5486 3.65257 96.3086 3.82781 96.3086 4.18209V17.5116C96.3086 17.8621 96.5524 18.0411 97.0324 18.0411V18.5707H92.4038V18.0411Z" fill="#231816"/>
<path d="M105.81 3.12695H109.029L118.389 13.5193V3.12695H121.874V3.65648C121.52 3.65648 121.345 3.83172 121.345 4.186V17.5155C121.345 17.8698 121.52 18.045 121.874 18.045V18.5746H118.579C118.579 18.5746 117.57 17.4203 117.272 17.1079L108.766 7.77076V17.5193C108.766 17.8736 108.979 18.0489 109.406 18.0489V18.5784H105.806V3.12695H105.81Z" fill="#231816"/>
<path d="M136.72 2.95239C137.707 2.95239 138.709 3.11239 139.73 3.4362C140.75 3.76001 141.684 4.24382 142.526 4.89144C143.368 5.53525 144.057 6.3543 144.594 7.34096C145.131 8.33144 145.402 9.49715 145.402 10.8495C145.402 12.2019 145.135 13.3714 144.594 14.3581C144.057 15.3448 143.368 16.1638 142.526 16.8076C141.684 17.4552 140.75 17.9238 139.73 18.2172C138.709 18.5105 137.703 18.6591 136.72 18.6591C135.737 18.6591 134.731 18.5105 133.71 18.2172C132.69 17.9238 131.756 17.4552 130.914 16.8076C130.072 16.16 129.383 15.3448 128.846 14.3581C128.309 13.3714 128.038 12.2019 128.038 10.8495C128.038 9.49715 128.305 8.33144 128.846 7.34096C129.383 6.3543 130.072 5.53525 130.914 4.89144C131.756 4.24382 132.69 3.76001 133.71 3.4362C134.731 3.11239 135.737 2.95239 136.72 2.95239ZM136.72 5.65335C136.038 5.65335 135.356 5.77144 134.678 6.00382C133.996 6.24001 133.383 6.57525 132.838 7.01716C132.29 7.45906 131.848 8.00001 131.509 8.64763C131.166 9.29525 130.998 10.0267 130.998 10.8495C130.998 11.6724 131.17 12.4076 131.509 13.0514C131.848 13.6991 132.293 14.24 132.838 14.6819C133.383 15.12 134 15.4591 134.678 15.6953C135.36 15.9314 136.038 16.0457 136.72 16.0457C137.402 16.0457 138.08 15.9276 138.762 15.6953C139.444 15.4591 140.057 15.1238 140.602 14.6819C141.147 14.24 141.592 13.6991 141.931 13.0514C142.27 12.4038 142.442 11.6724 142.442 10.8495C142.442 10.0267 142.27 9.29525 141.931 8.64763C141.592 8.00001 141.147 7.45906 140.602 7.01716C140.057 6.57525 139.44 6.24001 138.762 6.00382C138.08 5.76763 137.398 5.65335 136.72 5.65335Z" fill="#231816"/>
<path d="M152.099 3.12695C152.099 3.12695 155.025 7.56124 155.417 8.14791C155.806 8.73457 156.122 9.23362 156.366 9.64505L160.804 3.12695H164.259V3.65648C164.11 3.65648 163.97 3.67172 163.84 3.70219C163.71 3.73267 163.573 3.80124 163.436 3.90791C163.295 4.01457 163.147 4.17076 162.99 4.37648C162.83 4.58219 162.64 4.86029 162.419 5.21457L157.676 12.2889V17.5155C157.676 17.8698 157.89 18.045 158.316 18.045V18.5746H154.362V12.2927L148.45 3.13076H152.099V3.12695Z" fill="#231816"/>
<path d="M172.712 3.12695H176.248V3.65648C176.118 3.69457 175.989 3.74791 175.855 3.81648C175.726 3.88505 175.661 4.026 175.661 4.24314C175.661 4.39933 175.691 4.55552 175.76 4.71171C175.825 4.8679 175.924 5.07362 176.053 5.32886L181.855 17.2793C181.947 17.4965 182.072 17.6527 182.232 17.7479C182.389 17.847 182.571 17.946 182.777 18.0412V18.5708H178.956L177.032 14.7536H170.229L169.223 16.8374C169.036 17.2489 168.945 17.5422 168.945 17.7174C168.945 17.9346 169.12 18.0412 169.474 18.0412V18.5708H165.581L172.716 3.12695H172.712ZM176.027 12.5822L173.684 7.12314L171.063 12.5822H176.027Z" fill="#231816"/>
<path d="M89.52 31.2648H85.2838C85.2419 31.28 85.1962 31.2915 85.1467 31.2915C84.8952 32.0343 84.5486 32.8305 84.1105 33.581H88.9943V38.0419H88.3886V37.4895H84.0686V38.0495H83.4819V34.5334C83.0514 35.12 82.5562 35.6495 82.0038 36.0876C81.9086 35.9581 81.7105 35.741 81.5886 35.6305C82.979 34.5753 83.9733 32.8724 84.5029 31.2648H81.9276V30.6934H89.5238V31.2648H89.52ZM88.3848 36.9181V34.1448H84.0648V36.9181H88.3848Z" fill="#231816"/>
<path d="M107.345 31.5966C107.31 31.6728 107.242 31.7337 107.128 31.7337C106.815 34.4232 105.916 36.7661 104.484 36.7661C103.756 36.7661 103.101 36.0385 103.101 34.6747C103.101 32.5985 104.716 30.8613 106.99 30.8613C109.49 30.8613 110.568 32.4423 110.568 34.1299C110.568 36.187 109.375 37.1813 107.284 37.6651C107.208 37.528 107.059 37.2918 106.922 37.1394C108.91 36.7585 109.931 35.7909 109.931 34.1566C109.931 32.7318 109.013 31.4328 106.994 31.4328C106.907 31.4328 106.811 31.4404 106.735 31.4518L107.349 31.6004L107.345 31.5966ZM106.518 31.4823C104.773 31.6994 103.691 33.1432 103.691 34.6556C103.691 35.5813 104.088 36.1604 104.503 36.1604C105.55 36.1604 106.301 33.8518 106.518 31.4823Z" fill="#231816"/>
<path d="M129.402 31.8209C129.497 31.8133 129.573 31.8019 129.661 31.8019C130.602 31.8019 131.535 32.3657 131.535 33.5314C131.535 34.6971 130.766 35.3104 129.581 35.3104C129.07 35.3104 128.396 35.12 127.851 34.6895C127.912 34.56 127.981 34.3352 128.023 34.1714C128.526 34.56 129.12 34.7428 129.577 34.7428C130.389 34.7428 130.899 34.3009 130.899 33.5238C130.899 32.8838 130.457 32.3809 129.543 32.3809C128.815 32.3809 127.676 32.7542 126.701 33.0971C127.109 34.4723 127.661 36.4419 127.996 37.7371L127.329 37.8857C127.063 36.64 126.491 34.5828 126.118 33.3142C125.566 33.5123 124.789 33.7714 124.32 33.9466C124.312 34.0228 124.251 34.1028 124.171 34.1371L123.893 33.4438C124.446 33.2723 125.318 32.9866 125.95 32.7619C125.691 31.8819 125.448 31.1009 125.295 30.6019L126.187 30.4381C126.194 30.5485 126.152 30.5942 126.004 30.6704C126.194 31.3371 126.35 31.8971 126.541 32.5562C127.474 32.2362 128.354 31.9504 129.029 31.8552C128.64 31.4133 127.958 30.8266 127.482 30.5409L127.878 30.1523C128.457 30.48 129.227 31.1276 129.634 31.6228L129.39 31.8209H129.402Z" fill="#231816"/>
<path d="M151.676 33.8257L151.859 33.8105L152.312 33.8638C152.312 33.959 152.301 34.0543 152.301 34.1648C152.145 37.6771 152.004 38.9152 151.665 39.3381C151.379 39.6771 151.158 39.719 150.225 39.719C149.912 39.719 149.562 39.719 149.2 39.6924C149.173 39.4333 149.082 39.0943 148.968 38.8771C149.63 38.9457 150.278 38.9457 150.499 38.9457C150.731 38.9457 150.85 38.919 150.952 38.7971C151.2 38.5267 151.341 37.4638 151.459 34.66H149.192C148.895 36.5267 148.312 38.4733 146.987 39.7114C146.857 39.5209 146.587 39.2619 146.377 39.1133C148.088 37.5628 148.465 34.5114 148.606 32.199H147.128V27.719H152.286V32.199H149.474C149.421 32.7019 149.383 33.2619 149.307 33.8333H151.68L151.676 33.8257ZM147.931 28.5571V31.3609H151.444V28.5571H147.931ZM153.688 28.7476L154.789 28.8162C154.777 28.9114 154.712 28.98 154.541 29.0067V36.359H153.684V28.7476H153.688ZM156.941 27.3457L158.057 27.4143C158.046 27.5248 157.981 27.5781 157.81 27.6048V38.4809C157.81 39.1324 157.627 39.4219 157.238 39.5705C156.823 39.7343 156.11 39.7457 154.907 39.7457C154.853 39.5019 154.712 39.079 154.571 38.82C155.051 38.8352 155.493 38.8352 155.855 38.8352C156.891 38.8352 156.945 38.8352 156.945 38.4809V27.3457H156.941Z" fill="#231816"/>
<path d="M172.834 32.4917C172.834 33.1164 172.823 33.8402 172.77 34.6021C174 33.3488 175.09 31.444 175.634 29.8364L176.697 30.164C176.644 30.2593 176.556 30.3012 176.411 30.3012C176.126 31.0212 175.737 31.8402 175.284 32.6288L175.764 32.804C175.737 32.8726 175.661 32.9526 175.505 32.9678V39.7488H174.674V33.5812C174.221 34.2478 173.714 34.8878 173.185 35.4059C173.082 35.2574 172.899 35.0402 172.758 34.8612C172.629 36.5488 172.316 38.3888 171.604 39.7755C171.436 39.6117 171.074 39.3526 170.865 39.2574C171.89 37.2688 171.981 34.4917 171.981 32.4917V28.6517H176.96V27.0859L178.114 27.1659C178.103 27.2612 178.038 27.3297 177.855 27.3564V28.6478H182.922V29.505H172.838V32.4878L172.834 32.4917ZM182.956 32.0002V32.8574H181.467V38.5755C181.467 39.6917 181.09 39.7869 178.731 39.7602C178.693 39.5164 178.564 39.1355 178.434 38.8764C178.941 38.8917 179.421 38.9031 179.783 38.9031C180.533 38.9031 180.613 38.9031 180.613 38.5755V32.8574H176.491V32.0002H180.613V29.9164L181.714 29.985C181.703 30.0955 181.638 30.1488 181.467 30.1755V32.0002H182.956ZM178.419 37.0097C178.133 36.2478 177.459 35.0631 176.838 34.2059L177.539 33.8936C178.202 34.7393 178.861 35.8821 179.158 36.6288L178.419 37.0097Z" fill="#231816"/>
</g>
<defs>
<linearGradient id="paint0_linear_4413_12118" x1="2.52544" y1="10.6193" x2="5.73332" y2="6.52667" gradientUnits="userSpaceOnUse">
<stop stop-color="#E60012"/>
<stop offset="0.08" stop-color="#E10213"/>
<stop offset="1" stop-color="#B81C22"/>
</linearGradient>
<linearGradient id="paint1_linear_4413_12118" x1="2.84472" y1="9.75414" x2="6.03379" y2="5.6855" gradientUnits="userSpaceOnUse">
<stop stop-color="#E60012"/>
<stop offset="0.08" stop-color="#E10213"/>
<stop offset="1" stop-color="#B81C22"/>
</linearGradient>
<linearGradient id="paint2_linear_4413_12118" x1="8.99339" y1="14.2284" x2="12.1919" y2="10.1478" gradientUnits="userSpaceOnUse">
<stop stop-color="#E60012"/>
<stop offset="0.08" stop-color="#E10213"/>
<stop offset="1" stop-color="#B81C22"/>
</linearGradient>
<linearGradient id="paint3_linear_4413_12118" x1="6.97616" y1="9.44252" x2="16.0369" y2="16.5445" gradientUnits="userSpaceOnUse">
<stop stop-color="#E60012"/>
<stop offset="0.08" stop-color="#E10213"/>
<stop offset="1" stop-color="#B81C22"/>
</linearGradient>
<clipPath id="clip0_4413_12118">
<rect width="182.857" height="40" fill="white"/>
</clipPath>
</defs>
</svg>
