<svg width="30" height="30" viewBox="0 0 30 30" fill="none" xmlns="http://www.w3.org/2000/svg">
<path d="M17.8242 0.0395508L18.335 0.14502L18.8467 0.208496L19.3594 0.247559L19.8535 0.620605L20.3809 0.388184L20.8789 0.635254L21.4219 0.224121L21.9346 0.276855L22.4365 0.450684L22.9463 0.512207L23.4404 0.742676L23.9912 0.400879L24.4521 0.932129L25.043 0.554199L25.4824 0.990723L25.8984 1.33838L26.3643 1.52588L26.8047 1.77295L27.1787 2.11084L27.5615 2.43408L28.1104 2.63135L28.1465 3.2417L28.6475 3.53369L28.6758 4.0874L28.8242 4.56494L29.0654 5.02393L29.3613 5.50439L29.0801 6.04834L29.2461 6.54639L29.3047 7.05518L29.6504 7.53955L29.4727 8.06787L29.7637 8.56104L29.6533 9.08252L29.5518 9.60303L29.4072 10.1235L29.8135 10.6157L29.3994 11.1479L29.835 11.6421L29.4873 12.1665L29.6719 12.6724L29.4727 13.189L29.7598 13.6958L29.7686 14.2075L30 14.7192L29.6289 15.2329L29.5723 15.7437L29.9863 16.2612L29.9736 16.7749L29.7109 17.2817L29.4346 17.7856L29.8447 18.312L29.7148 18.8198L29.6504 19.3296L29.3809 19.8286L29.4697 20.3452L29.3604 20.8511L29.6475 21.3843L29.2871 21.8706L29.2061 22.3774L29.2266 22.8911L29.2578 23.4087L29.3008 23.9272L29.4678 24.4604L29.2842 24.9751L29.1016 25.4741L28.9414 25.9771L28.8555 26.5317L28.4434 26.9097L27.9463 27.186L27.5488 27.5044L27.3154 28.0044L26.7705 28.1265L26.5938 28.8452L25.9277 28.6763L25.5234 29.0806L24.9395 28.8667L24.5439 29.3306L24.4863 29.2876L23.957 29.1558L23.4453 29.1968L22.9629 29.5542L22.4268 29.3169L21.9248 29.4741L21.3975 29.3062L20.8936 29.439L20.3906 29.6177L19.8896 29.8667L19.3496 29.3638L18.8418 29.4731L18.3301 29.5132L17.8203 29.5874L17.3037 29.4409L16.7949 29.6401L16.2861 29.9517L15.7725 29.9653L15.2568 29.7046L14.7422 30.0015L14.2324 29.4556L13.7178 29.6099L13.1982 29.9595L12.6914 29.6499L12.1826 29.5151L11.6709 29.4731L11.1533 29.5981L10.6416 29.5552L10.1406 29.3237L9.62109 29.4233L9.08301 29.7964L8.60254 29.2905L8.06836 29.563L7.56543 29.4106L7.04102 29.5103L6.55762 29.1606L6.0332 29.2534L5.51855 29.2378L5.05371 28.895L4.55762 28.8169L4.06641 28.689L3.59375 28.4995L3.09766 28.3228L2.83398 27.8247L2.41504 27.5425L2.11133 27.1411L1.76758 26.771L1.16211 26.5249L1.02539 25.9956L0.754883 25.5229L1.10352 24.9009L0.520508 24.4673L0.970703 23.9058L0.472656 23.4399L0.857422 22.8901L0.466797 22.4106L0.620117 21.8843L0.478516 21.3813L0.297852 20.8794L0.303711 20.3657L0.248047 19.855L0.359375 19.3364L0.223633 18.8286L0 18.3237L0.496094 17.7944L0.554688 17.2808L0.364258 16.7739L0.380859 16.2622L0.233398 15.7515L0.123047 15.2397L0.211914 14.7271L0.512695 14.2173L0.0175781 13.6987L0.421875 13.1938L0.158203 12.6753L0.410156 12.1704L0.358398 11.6567L0.566406 11.1528L0.435547 10.6343L0.208008 10.1099L0.441406 9.60986L0.453125 9.09717L0.455078 8.5835L0.777344 8.09521L0.327148 7.54443L0.819336 7.07373L0.77832 6.55615L0.486328 6.01221L0.475586 5.49463L0.836914 5.01123L0.970703 4.51025L0.953125 3.94189L1.38379 3.56104L1.42383 2.96631L2.15527 2.86279L2.41602 2.42627L2.58008 1.83643L3.19141 1.7876L3.42188 1.15674L4.09082 1.34326L4.46191 0.855957L5.04004 1.0249L5.51758 0.776855L6.00293 0.470215L6.53418 0.623535L7.0332 0.437012L7.56348 0.614746L8.08984 0.76709L8.56152 0.189941L9.10449 0.58252L9.5957 0.221191L10.1289 0.568848L10.6279 0.276855L11.1377 0.157715L11.6514 0.153809L12.1621 0.0258789L12.6787 0.0737305L13.1982 0.321777L13.709 0.209473L14.2236 0.244629L14.7363 0.300293L15.25 0.318848L15.7637 0.138184L16.2793 0.0395508L16.7939 0.0727539L17.3105 0.00146484L17.8242 0.0395508ZM15.7822 5.76416L15.6152 6.29443L15.6191 6.81787L15.7988 7.34033L15.9541 7.86279L15.8467 8.38623L15.8555 8.90869L15.6406 9.43213L15.8203 9.95459L15.9316 10.4771L15.9707 11.0005L15.7256 11.5229L15.6621 12.0454L15.7148 12.5679L15.709 13.0913L15.6328 13.6138L15.6426 14.1372L15.8945 14.6597L15.9023 15.1821L15.6953 15.7046L15.8936 16.2271L15.8447 16.7505L15.7266 17.272L15.8389 17.7944L15.6602 18.3179H15.6162L15.8926 18.8667L15.6865 19.3774L15.3359 19.7954L15.0312 20.2104L14.6348 20.5356L14.3525 21.0542L13.7734 21.0679L13.3076 21.3599L12.7705 21.5034L12.2217 21.4204L11.7227 21.1899L11.2461 20.9536L10.8428 20.6108L10.3418 20.3521L10.1426 19.8315L9.82031 19.3892L9.73926 18.8511L9.72363 18.3179L9.89551 17.811L9.83887 17.2524L10.0938 16.7749L10.46 16.3833L10.7832 15.9536L11.1855 15.5776L11.7666 15.564L12.2744 15.5132L12.7705 15.438L13.25 15.4858L13.7295 15.4829L14.2334 15.3286L14.04 14.8257L14.0684 14.3472L14.3047 13.8696L14.1299 13.3911L14.0332 12.9126L14.2598 12.3833L13.7295 12.4204L13.249 12.6108L12.7705 12.5649L12.2539 12.4194L11.7471 12.5229L11.2422 12.6216L10.7275 12.7095L10.2109 12.8345L9.7998 13.1763L9.29395 13.3569L9.07617 13.9185L8.61133 14.1606L8.33203 14.5952L7.89453 14.9048L7.69141 15.3853L7.56934 15.8921L7.23926 16.3032L6.98633 16.7651L6.80273 17.2622L6.98633 17.8071L6.92383 18.313L6.89258 18.8257L6.91309 19.3433L6.90625 19.8804L7.14941 20.355L7.52637 20.7524L7.58008 21.3032L7.91406 21.7065L8.27637 22.0757L8.62988 22.4448L9.08496 22.6968L9.41211 23.1001L9.80566 23.439L10.2832 23.6362L10.7578 23.8325L11.252 23.9683H11.7715L12.2627 24.0952L12.7705 24.3198L12.8701 24.3228L13.2783 24.1128L13.7842 24.0562L14.2793 23.936L14.7646 23.7856L15.332 23.7964L15.709 23.395L16.2314 23.2476L16.6064 22.8765L16.9531 22.4888L17.3691 22.1655L17.6338 21.7124L17.8945 21.2661L18.0332 20.7622L18.374 20.3491L18.4072 19.8208L18.5186 19.3247L18.5752 18.8198L18.6396 18.313L18.5146 17.8062L18.5684 17.3003L18.5645 16.7954L18.5996 16.2886L18.54 15.7827L18.5264 15.2778L18.5703 14.772L18.7246 14.2671L18.5713 13.7612L18.7568 13.2554L18.627 12.7495L18.6289 12.2349L19.1738 12.3823L19.5479 12.853L20.0869 12.939L20.6348 12.9146L21.1377 13.146L21.6738 13.1938L22.1562 13.0298L22.6387 13.2632L23.1914 13.1528L23.0566 12.604L23.0029 12.1265L23.0361 11.6499L22.9795 11.1714L23.1436 10.6948L23.1143 10.2251L22.6426 10.2085L22.1621 10.0698L21.6836 10.3862L21.1709 10.1079L20.6846 9.94482L20.1582 9.84131L19.6611 9.60986L19.3779 9.13525L19.0547 8.71924L18.6865 8.29248L18.6367 7.73975L18.6094 7.20459L18.5596 6.72607L18.5312 6.24854L18.5625 5.87158L18.1846 5.68506L17.7051 5.6499L17.2266 5.88721L16.748 5.81396L16.2686 5.60205L15.7822 5.76416Z" fill="#EAEAEA"/>
</svg>
