<svg width="180" height="55" viewBox="0 0 180 55" fill="none" xmlns="http://www.w3.org/2000/svg">
<circle cx="177.5" cy="52.5" r="2.5" transform="rotate(-180 177.5 52.5)" fill="white"/>
<circle cx="152.5" cy="52.5" r="2.5" transform="rotate(-180 152.5 52.5)" fill="white"/>
<circle cx="127.5" cy="52.5" r="2.5" transform="rotate(-180 127.5 52.5)" fill="white"/>
<circle cx="102.5" cy="52.5" r="2.5" transform="rotate(-180 102.5 52.5)" fill="white"/>
<circle cx="77.5" cy="52.5" r="2.5" transform="rotate(-180 77.5 52.5)" fill="white"/>
<circle cx="52.5" cy="52.5" r="2.5" transform="rotate(-180 52.5 52.5)" fill="white"/>
<circle cx="27.5" cy="52.5" r="2.5" transform="rotate(-180 27.5 52.5)" fill="white"/>
<circle cx="2.5" cy="52.5" r="2.5" transform="rotate(-180 2.5 52.5)" fill="white"/>
<circle cx="177.5" cy="27.5" r="2.5" transform="rotate(-180 177.5 27.5)" fill="white"/>
<circle cx="152.5" cy="27.5" r="2.5" transform="rotate(-180 152.5 27.5)" fill="white"/>
<circle cx="127.5" cy="27.5" r="2.5" transform="rotate(-180 127.5 27.5)" fill="white"/>
<circle cx="102.5" cy="27.5" r="2.5" transform="rotate(-180 102.5 27.5)" fill="white"/>
<circle cx="77.5" cy="27.5" r="2.5" transform="rotate(-180 77.5 27.5)" fill="white"/>
<circle cx="52.5" cy="27.5" r="2.5" transform="rotate(-180 52.5 27.5)" fill="white"/>
<circle cx="27.5" cy="27.5" r="2.5" transform="rotate(-180 27.5 27.5)" fill="white"/>
<circle cx="2.5" cy="27.5" r="2.5" transform="rotate(-180 2.5 27.5)" fill="white"/>
<circle cx="177.5" cy="2.5" r="2.5" transform="rotate(-180 177.5 2.5)" fill="white"/>
<circle cx="152.5" cy="2.5" r="2.5" transform="rotate(-180 152.5 2.5)" fill="white"/>
<circle cx="127.5" cy="2.5" r="2.5" transform="rotate(-180 127.5 2.5)" fill="white"/>
<circle cx="102.5" cy="2.5" r="2.5" transform="rotate(-180 102.5 2.5)" fill="white"/>
<circle cx="77.5" cy="2.5" r="2.5" transform="rotate(-180 77.5 2.5)" fill="white"/>
<circle cx="52.5" cy="2.5" r="2.5" transform="rotate(-180 52.5 2.5)" fill="white"/>
<circle cx="27.5" cy="2.5" r="2.5" transform="rotate(-180 27.5 2.5)" fill="white"/>
<circle cx="2.5" cy="2.5" r="2.5" transform="rotate(-180 2.5 2.5)" fill="white"/>
</svg>
