<svg width="80" height="55" viewBox="0 0 80 55" fill="none" xmlns="http://www.w3.org/2000/svg">
<circle cx="77.5" cy="52.5" r="2.5" transform="rotate(-180 77.5 52.5)" fill="white"/>
<circle cx="52.5" cy="52.5" r="2.5" transform="rotate(-180 52.5 52.5)" fill="white"/>
<circle cx="27.5" cy="52.5" r="2.5" transform="rotate(-180 27.5 52.5)" fill="white"/>
<circle cx="2.5" cy="52.5" r="2.5" transform="rotate(-180 2.5 52.5)" fill="white"/>
<circle cx="77.5" cy="27.5" r="2.5" transform="rotate(-180 77.5 27.5)" fill="white"/>
<circle cx="52.5" cy="27.5" r="2.5" transform="rotate(-180 52.5 27.5)" fill="white"/>
<circle cx="27.5" cy="27.5" r="2.5" transform="rotate(-180 27.5 27.5)" fill="white"/>
<circle cx="2.5" cy="27.5" r="2.5" transform="rotate(-180 2.5 27.5)" fill="white"/>
<circle cx="77.5" cy="2.5" r="2.5" transform="rotate(-180 77.5 2.5)" fill="white"/>
<circle cx="52.5" cy="2.5" r="2.5" transform="rotate(-180 52.5 2.5)" fill="white"/>
<circle cx="27.5" cy="2.5" r="2.5" transform="rotate(-180 27.5 2.5)" fill="white"/>
<circle cx="2.5" cy="2.5" r="2.5" transform="rotate(-180 2.5 2.5)" fill="white"/>
</svg>
