<svg width="31" height="30" viewBox="0 0 31 30" fill="none" xmlns="http://www.w3.org/2000/svg">
<g clip-path="url(#clip0_4047_7357)">
<path d="M15.629 13.7264L15.3218 13.2946L15.1282 12.7835L14.7444 12.4061L14.4977 11.9315L14.0447 11.6025L13.8205 11.1129L13.5935 10.625L13.2771 10.2002L12.861 9.84464L12.7186 9.29663L12.3319 8.92089L11.9573 8.5359L11.7418 8.0087L11.1908 8.07229L10.6658 8.0983L10.1402 7.95898L9.66992 8.08558L10.0272 8.4197L10.2722 8.89892L10.5338 9.36716L10.9476 9.72845L11.2444 10.1718L11.3845 10.725L11.8472 11.0516L12.0276 11.5765L12.2593 12.0656L12.657 12.4379L13.0679 12.8015L13.2627 13.3165L13.5404 13.7732L13.8453 14.2114L14.0908 14.6912L14.5899 14.9929L14.7207 15.5565L15.0394 15.9878L15.0861 15.9554L15.38 16.3866L15.7178 16.7872L16.0768 17.1722L16.3851 17.5936L16.5828 18.0925L16.8208 18.5625L17.0963 19.0064L17.4651 19.3851L17.7193 19.8441L18.1682 20.1666L18.442 20.6123L18.695 21.0725L19.0673 21.4494L19.269 21.9673L19.8113 21.9413L20.3363 22.0523L20.8619 21.9881L21.4722 21.9777L21.0296 21.5413L20.7588 21.0886L20.5847 20.5672L20.2528 20.1568L19.8073 19.8261L19.4868 19.4076L19.1739 18.9839L18.9918 18.4683L18.7722 17.9792L18.4218 17.5821L17.9746 17.2526L17.7274 16.7826L17.5222 16.2832L17.1833 15.8774L16.803 15.5005L16.6064 14.9947L16.32 14.5519L16.0474 14.0842L15.629 13.7264Z" fill="black"/>
<path d="M30.0453 5.43326L29.4793 4.98815L29.4338 4.47656L29.197 4.02278L29.0869 3.51003L28.7601 3.10885L28.7676 2.44349L28.1671 2.27123L27.6484 2.09203L27.4098 1.56136L27.0819 1.07116L26.4975 1.05555L26.0797 0.6405L25.5316 0.596566L24.9824 0.686745L24.4954 0.401179L23.9611 0.587895L23.4759 0.254928L22.9174 0.757269L22.4454 0.229493L21.9262 0.282675L21.4092 0.316203L20.8859 0.463033L20.3915 0.126019L19.8757 0.151454L19.3524 0.363027L18.8458 0.202902L18.3254 0.421412L17.8223 0.0803515L17.3013 0.444534L16.7958 0L16.2806 0.136424L15.7665 0.408116L15.2548 0.2873L14.7413 0.186716L14.2307 0.342216L13.7137 0.106943L13.2037 0.238164L12.685 0.0641656L12.1859 0.466501L11.6597 0.135268L11.1428 0.0791953L10.646 0.415631L10.1342 0.43702L9.60575 0.20637L9.10955 0.469391L8.60758 0.62547L8.08659 0.53876L7.57828 0.611018L7.08323 0.817966L6.52939 0.42488L6.03549 0.6405L5.56003 0.934158L4.9964 0.815654L4.41893 0.804093L3.96134 1.11278L3.73139 1.7423L3.20752 1.8926L2.88767 2.30765L2.58453 2.71981L2.16036 3.04353L1.98919 3.5424L1.54659 3.9089L1.49817 4.45228L1.54889 4.99335L1.30511 5.47199L0.943185 5.95237L0.915522 6.468L1.04462 6.99752L1.27226 7.53338L0.858467 8.01607L1.26189 8.56177L0.812362 9.04619L1.07689 9.57859L0.631976 10.0688L0.751849 10.5914L0.825041 11.1099L0.585294 11.6157L0.946643 12.1435L0.986985 12.6585L1.00946 13.1724L0.759341 13.6823L0.676928 14.1962L0.5 14.7107L0.623331 15.2263L1.02733 15.7379L0.71266 16.2553L1.04058 16.7634L0.966814 17.2785L0.665402 17.8016L0.926472 18.3074L1.02099 18.8179L0.864806 19.3398L0.652723 19.867L1.1351 20.3549L1.0717 20.8735L1.24805 21.3758L1.00946 21.9088L1.27918 22.4025L0.915522 22.9505L1.22385 23.4389L1.31779 23.9459L1.07804 24.4881L1.33565 24.9864L1.45092 25.498L1.40827 26.0842L1.80823 26.4906L2.07852 26.9461L2.6289 27.1779L2.87211 27.6409L3.28648 27.9427L3.51009 28.5178L4.09908 28.5583L4.52613 28.8618L5.02637 29.0034L5.55485 28.9936L6.01302 29.4381L6.52766 29.4584L7.0694 29.1878L7.58289 29.1919L8.07506 29.4462L8.60297 29.274L9.09802 29.5202L9.61958 29.4075L10.1152 29.6919L10.6339 29.6144L11.1451 29.6665L11.6545 29.7543L12.1778 29.5011L12.6902 29.4907L13.1945 29.7873L13.7051 29.937L14.218 30.0023L14.7326 29.9566L15.2479 29.6104L15.7608 29.8301L16.2754 29.9763L16.7883 29.8723L17.2972 29.6341L17.8107 29.6786L18.3213 29.611L18.8423 29.8283L19.3455 29.5693L19.8676 29.7624L20.3592 29.3503L20.8946 29.7352L21.3885 29.4225L21.9198 29.6688L22.4345 29.6624L22.9376 29.5127L23.4436 29.4075L23.9548 29.3659L24.4908 29.5676L24.9501 29.0231L25.5195 29.3242L26.0238 29.1445L26.5102 28.9329L26.9447 28.6271L27.4911 28.5109L27.8743 28.1317L28.0288 27.5363L28.3826 27.1837L29.0679 27.0432L29.3468 26.5744L29.6131 26.0952L29.5646 25.5055L29.401 24.9361L29.5231 24.4505L29.9882 23.9817L29.9652 23.4615L30.1986 22.9649L29.9306 22.4244L30.1254 21.9232L30.319 21.4203L29.8903 20.874L30.3254 20.3856L30.111 19.8572L30.1035 19.3416L30.0585 18.8248L30.032 18.3092L30.4262 17.8074L30.1946 17.2854L30.3859 16.7744L30.1438 16.2553L30.4401 15.7437L30.311 15.2275L30.0879 14.713L30.0199 14.1997L30.4977 13.6794L30.1479 13.1701L30.2084 12.6539L30.1104 12.1423L30.3732 11.618L30.4602 11.0978L30.3444 10.5862L30.0349 10.0867L29.892 9.58032L29.9392 9.06238L30.1917 8.52882L30.0067 8.0259L30.1525 7.49697L29.9611 6.99636L30.0585 6.46974L29.8309 5.97433L30.0418 5.43384L30.0453 5.43326ZM18.7807 22.6649L18.175 22.5938L17.9416 22.1059L17.5837 21.7036L17.382 21.1937L17.02 20.7943L17.05 20.1249L16.4766 19.8711L15.9959 19.5532L15.9262 18.9525L15.8299 18.3699L15.3314 18.0641L15.2329 17.4831L14.8531 17.0952L14.4151 16.7565L13.916 16.9865L13.7656 17.5276L13.2181 17.7265L13.3022 18.4699L12.6026 18.5375L12.3415 18.9832L12.0626 19.4138L11.8678 19.9168L11.3041 20.1012L11.0131 20.5208L10.8604 21.0602L10.4241 21.355L10.272 21.8949L9.69451 22.0683L9.64725 22.6996L9.04442 22.7574L8.66751 22.8811L8.21165 23.1557L7.64571 22.9534L8.08313 22.5198L8.30617 22.0302L8.82715 21.7978L9.07324 21.3278L9.55216 21.059L9.59768 20.4162L10.2005 20.2538L10.597 19.9139L10.699 19.3196L11.0413 18.9335L11.5773 18.7138L11.741 18.1727L11.9882 17.7039L12.4216 17.3952L12.7363 16.9848L12.9518 16.4882L13.625 16.3865L13.8474 15.8651L13.3737 15.5443L13.2953 14.9795L13.1783 14.4407L12.8233 14.0661L12.1894 13.8835L12.0597 13.3534L11.696 12.9846L11.3647 12.5932L11.1981 12.0886L10.8183 11.7307L10.729 11.1729L10.3256 10.8313L9.88584 10.5151L9.73542 9.99942L9.70315 9.40228L9.39598 8.99416L8.96143 8.67391L8.44794 8.408L8.46753 7.77444L7.81399 7.60449L7.87566 7.08885L8.26871 6.86225L8.78162 7.27961L9.29454 7.13278L9.80746 7.03567L10.3204 7.25533L10.8333 6.87496L11.3462 6.82005L11.8597 6.78594L12.3715 7.02757L12.5934 7.48714L12.7363 8.00335L13.1241 8.35077L13.7408 8.54038L13.7627 9.13984L14.3114 9.37569L14.5269 9.84161L14.5523 10.4388L15.0392 10.7174L15.3862 11.0931L15.5233 11.6128L15.6121 12.166L16.272 12.3261L16.382 12.7447L16.5083 12.3059L17.0529 12.0978L17.2131 11.5585L17.8574 11.4365L17.9928 10.8758L18.2931 10.4573L18.8498 10.2601L19.0481 9.75374L19.3933 9.37395L19.9091 9.14099L20.1016 8.6294L20.4376 8.2421L20.5407 7.65304L20.9741 7.3484L21.317 6.88248L21.8438 7.19348L22.2996 6.92179L22.7716 7.02237L22.4581 7.45881L22.2259 7.9467L21.6075 8.1022L21.2934 8.52015L21.1977 9.12654L20.8911 9.55084L20.3926 9.80924L20.2151 10.3451L19.7183 10.6052L19.4913 11.0983L18.9611 11.3296L18.7023 11.7955L18.3432 12.1747L17.9554 12.5285L17.8228 13.1036L17.5041 13.5187L16.9509 13.7314L16.8345 13.8603L17.0869 14.3286L17.4281 14.7355L18.0136 14.9743L18.1317 15.535L18.3081 16.0558L18.6879 16.4362L19.1754 16.7426L19.4279 17.2108L19.7702 17.6172L19.8757 18.1872L20.3707 18.4884L20.4917 19.0479L21.1078 19.2659L21.0652 19.9376L21.5948 20.215L21.6617 20.8116L21.9343 21.2666L22.3227 21.6417L22.6714 22.0441L22.9659 22.484L23.0385 22.814L22.748 23.169L22.2351 22.7834L21.7222 22.8325L21.2092 22.8655L20.6963 22.9539L20.1834 22.7707L19.6705 22.8453L19.0861 23.173L18.7807 22.6689V22.6649Z" fill="black"/>
</g>
<defs>
<clipPath id="clip0_4047_7357">
<rect width="30" height="30" fill="white" transform="translate(0.5)"/>
</clipPath>
</defs>
</svg>
