<svg width="31" height="30" viewBox="0 0 31 30" fill="none" xmlns="http://www.w3.org/2000/svg">
<path d="M29.7196 5.5023L29.6012 5.00413L29.4464 4.52038L29.3794 4.00088L29.3915 3.40758L29.1622 2.90827L28.7214 2.56059L28.2888 2.23713L27.7712 2.03994L27.3282 1.79374L27.1208 1.12894L26.5997 0.964617L25.9869 1.1301L25.5848 0.599066L25.0534 0.478561L24.496 0.866022L24.0217 0.437624L23.492 0.580039L22.9588 0.787031L22.4603 0.587534L21.9439 0.610021L21.4622 0.116469L20.9122 0.667102L20.4103 0.456074L19.9008 0.358056L19.3792 0.521228L18.8836 0.0524687L18.3643 0.158559L17.8409 0.473372L17.3285 0.450309L16.8173 0.336722L16.3044 0.294056L15.7914 0.0772616L15.2773 0.343641L14.7621 0.155676L14.2491 0.26465L13.7379 0.407065L13.2249 0.427822L12.7074 0.287713L12.1996 0.470489L11.6659 0L11.1789 0.607138L10.6654 0.599643L10.1282 0.213911L9.61986 0.33211L9.0994 0.26638L8.60436 0.544868L8.0995 0.676328L7.57038 0.522381L7.0453 0.437047L6.57278 0.882166L6.0529 0.845842L5.52031 0.785301L5.08188 1.13932L4.57933 1.23446L4.10277 1.42069L3.4483 1.36419L3.15832 1.87561L2.62573 2.08664L2.60667 2.77681L2.32189 3.18964L2.11567 3.64571L1.88288 4.08334L1.57211 4.50597L1.04992 4.9188L1.48893 5.51729L0.902041 5.97279L0.953451 6.49517L0.931501 7.00948L0.970203 7.5284L1.17122 8.05943L0.984644 8.5599L0.904352 9.06902L0.784201 9.57583L0.923414 10.0982L0.575094 10.5946L0.61784 11.1118L0.868538 11.6359L0.967315 12.152L0.905507 12.6628L0.660585 13.1702L0.749543 13.6851L0.695244 14.1977L0.564119 14.7108L0.802108 15.2246L0.903774 15.7366L0.682536 16.252L0.918793 16.7612L0.5 17.2847L0.605131 17.7967L1.07591 18.2937L0.606864 18.8259L0.645567 19.3391L0.943631 19.8378L0.817705 20.359L0.960383 20.8647L1.08169 21.3703L1.26307 21.8702L1.26711 22.3834L1.3243 22.8925L1.17122 23.4212L1.24805 23.9292L1.52936 24.4153L1.37282 24.9515L1.57615 25.43L1.83089 25.8757L1.84071 26.439L2.19712 26.8305L2.345 27.3737L2.72913 27.7444L3.3657 27.8067L3.73366 28.1446L4.06985 28.5712L4.43088 29.0469L4.98484 29.0977L5.55208 28.972L6.02864 29.2677L6.56989 29.0302L7.07014 29.1882L7.56749 29.39L8.08564 29.3669L8.60725 29.2897L9.09132 29.7083L9.63199 29.3398L10.1299 29.6016L10.6469 29.5641L11.1576 29.6396L11.6659 29.7838L12.1927 29.4811L12.7004 29.6546L13.2099 29.8322L13.7287 29.6558L14.2393 29.8916L14.754 29.9683L15.2704 29.5762L15.7833 29.443L16.2997 29.9176L16.8092 29.4972L17.3326 30.0017L17.8421 29.759L18.3608 29.8806L18.8784 29.9366L19.3942 29.9325L19.8991 29.691L20.4051 29.5249L20.907 29.3168L21.4344 29.5255L21.9422 29.42L22.458 29.4309L22.9843 29.5549L23.503 29.5716L24.0119 29.4788L24.5121 29.3064L25.0511 29.5116L25.5837 29.3721L26.1232 29.2741L26.4721 28.6894L27.0711 28.7338L27.4766 28.3781L27.71 27.8355L28.1501 27.5738L28.5025 27.2082L28.8826 26.8519L29.1321 26.3998L29.1789 25.8619L29.8161 25.5402L29.8779 24.9982L29.7283 24.4435L30.1499 23.9707L29.7814 23.4183L29.8438 22.9092L30.2279 22.4266L30.065 21.8979L29.7935 21.3634L30.2603 20.8814L30.351 20.3717L30.0668 19.8407L29.9397 19.3212L30.0829 18.8149L30.4203 18.3145L30.0743 17.7892L30.3521 17.2841L30.2637 16.7687L30.3544 16.2567L30.5 15.7441L30.1395 15.2286L30.4128 14.7155L30.4555 14.2011L30.3284 13.6886L30.0749 13.18L30.0616 12.668L30.2793 12.1485L30.1632 11.6388L30.1783 11.1251L30.4128 10.5998L30.0806 10.1028L30.0107 9.59313L30.0818 9.07478L30.3342 8.54202L30.1476 8.0404L30.2094 7.51975L29.7231 7.04638L30.195 6.48709L29.5792 6.0316L29.9934 5.36565L29.7184 5.50172L29.7196 5.5023ZM20.308 13.2371L20.289 13.7555L20.2589 14.2726L20.0851 14.7731L19.7593 15.2563L19.6374 15.7643L19.4427 16.0906L18.9055 16.1932L18.3677 16.3945L17.8299 16.4613L17.2921 15.9989L16.6498 16.116L16.9669 16.7346L16.5504 17.242L16.5117 17.75L16.9548 18.2591L16.573 18.7665L16.763 19.275L17.0143 19.7836L16.8543 20.2916L16.9144 20.7995L16.4534 21.3069L17.038 21.816L16.8549 22.324L16.7821 22.832L16.9681 23.3411L16.5181 23.8496L16.4031 24.0987L15.859 24.4285L15.3143 24.417L14.7696 24.3126L14.2248 24.2757L13.6796 24.0618L13.2111 23.8606L13.4029 23.8467L13.2995 23.3388L13.1654 22.8308L13.1562 22.3228L13.311 21.8149L13.1452 21.3069L13.638 20.7989L13.0528 20.291L13.0869 19.783L13.5039 19.275L13.4179 18.7671L13.5195 18.2591L13.2781 17.7506L13.1874 17.2426L13.3867 16.7341L13.4693 16.1027L12.8408 16.4481L12.3371 16.3581L11.8328 16.2169L11.328 16.4515L10.7076 15.7377L10.7445 15.7395L11.1292 15.224L10.8889 14.7108L11.0882 14.196L10.6348 13.6834L10.614 13.1696L11.3153 12.3901L11.3193 12.4103L11.8259 12.5573L12.3325 12.9598L12.8391 12.4339L13.5507 12.8865L13.5363 12.182L13.5109 11.6855L13.4277 11.1891L13.1845 10.6927L13.333 10.1962L13.3988 9.6652L13.5507 9.15262L13.5022 8.59795L13.9759 8.20991L14.1376 7.72962L14.2069 7.1444L14.4958 6.65892L14.9608 6.34641L15.5419 6.27664L15.9936 5.9872L16.5198 5.89725L17.0559 5.94742L17.5735 5.68623L18.0887 5.58763L18.6034 5.81423L19.1187 5.58705L19.6328 6.01718L19.9314 6.23225L20.3843 6.23571L19.8939 6.77711L19.9089 7.31852L20.1809 7.85993L20.025 8.40191L19.6351 8.91507L19.6328 9.00098L19.0008 9.14397L18.3689 9.10649L17.8721 9.15896L17.3378 9.13302L16.9929 9.51183L17.0553 10.0382L16.7844 10.5289L16.863 11.0663L16.9502 11.6031L16.7157 12.1405L16.7965 12.6225L17.2373 12.8024L17.7375 12.7672L18.2383 12.3855L18.7386 12.4368L19.2394 12.6288L19.739 12.9027L20.1347 13.1691L20.2682 13.0532L20.3075 13.2354L20.308 13.2371Z" fill="black"/>
</svg>
