<svg width="31" height="30" viewBox="0 0 31 30" fill="none" xmlns="http://www.w3.org/2000/svg">
<g clip-path="url(#clip0_4047_7360)">
<path d="M17.8359 11.2646L17.4868 11.4479L17.3571 11.7989L17.3231 12.2864L17.3254 12.7734L17.3669 13.2609L17.3577 13.7484L17.3168 14.2262L17.0172 13.855L16.7072 13.4793L16.422 13.0851L16.2014 12.6437L15.9087 12.2553L15.5918 11.8841L15.3274 11.4738L14.8987 11.3021L14.7552 11.3534L14.4038 11.7989L14.4073 12.2904L14.3398 12.7814L14.3421 13.273L14.4205 13.764L14.39 14.2555L14.4003 14.7471L14.3992 15.2387L14.345 15.7308L14.5409 16.0921L14.9004 16.2207L15.2496 16.0812L15.4069 15.7308L15.404 15.2462L15.4616 14.7615L15.3988 14.2774L15.3694 13.7928L15.4195 13.3151L15.7168 13.6879L15.9571 14.1115L16.2382 14.5056L16.5298 14.8912L16.8772 15.2369L17.095 15.6778L17.3957 16.0581L17.8353 16.2823L17.9828 16.1774L18.3677 15.7314L18.4005 15.2398L18.3988 14.7488L18.3694 14.2573L18.3049 13.7657L18.3614 13.2741L18.3562 12.7826L18.3723 12.291L18.3654 11.7989L18.2225 11.4116L17.8359 11.2646Z" fill="black"/>
<path d="M13.1355 11.2383L12.7558 11.4187L12.6014 11.7996L12.6199 12.2911L12.606 12.7827L12.5703 13.2737L12.5887 13.7653L12.6441 14.2568L12.6141 14.7484L12.6331 15.2405L12.632 15.7321L12.8013 16.0664L13.1332 16.2358L13.5042 16.1038L13.6443 15.7321L13.6506 15.2405L13.6627 14.7496L13.6523 14.258L13.6137 13.7664L13.6195 13.2749L13.6973 12.7833L13.6385 12.2917L13.6056 11.7996L13.5279 11.406L13.1355 11.2383Z" fill="black"/>
<path d="M11.6316 15.2094L11.1522 15.1697L10.6729 15.1927L10.2177 15.1881L10.1688 14.7248L10.182 14.2378L10.2379 13.7503L10.2241 13.2622L10.1607 12.7746L10.152 12.2871L10.1469 11.799L10.0466 11.429L9.67788 11.2383L9.29935 11.4198L9.20601 11.799L9.18239 12.2906L9.14033 12.7821L9.15646 13.2731L9.19103 13.7647L9.14552 14.2563L9.13918 14.7478L9.12305 15.24L9.18815 15.7315L9.3247 16.0854L9.67788 16.23L10.1659 16.2018L10.6544 16.23L11.143 16.241L11.6316 16.279L12.0038 16.105L12.1449 15.7315L12.0147 15.3472L11.6316 15.2094Z" fill="black"/>
<path d="M29.7614 5.52498L29.4681 5.05012L29.5857 4.48709L29.596 3.91024L29.2884 3.45382L28.6609 3.22504L28.5106 2.70178L28.0969 2.38252L27.6861 2.07997L27.3635 1.65641L26.8662 1.48583L26.501 1.04382L25.96 0.995988L25.4213 1.04728L24.9448 0.804087L24.466 0.442183L23.9521 0.414522L23.4243 0.543608L22.8902 0.771239L22.4092 0.35747L21.8653 0.760866L21.3825 0.311367L20.8518 0.57588L20.3633 0.130992L19.8424 0.250858L19.3256 0.324046L18.8215 0.0843129L18.2955 0.445641L17.7821 0.48598L17.2699 0.508455L16.7618 0.25835L16.2496 0.175941L15.7368 -0.000976562L15.2229 0.122347L14.713 0.52632L14.1973 0.211671L13.6909 0.539574L13.1775 0.465811L12.6561 0.164416L12.152 0.425471L11.6433 0.519981L11.123 0.363809L10.5976 0.151738L10.1113 0.634084L9.59449 0.570693L9.09381 0.747035L8.56261 0.508455L8.07058 0.778154L7.52439 0.414522L7.03755 0.722832L6.53226 0.816765L5.99184 0.577033L5.4952 0.83463L4.98588 0.949886L4.40167 0.907241L3.99722 1.3066L3.54321 1.57688L3.31275 2.12723L2.85126 2.36984L2.55051 2.78361L1.97724 3.00721L1.93691 3.59617L1.63443 4.02319L1.49328 4.5234L1.50307 5.05185L1.06002 5.50942L1.04043 6.02403L1.31064 6.56574L1.30661 7.0792L1.0531 7.57135L1.22479 8.09922L0.979931 8.59482L1.09228 9.11635L0.808815 9.61196L0.886019 10.1306L0.834166 10.6418L0.747167 11.1512L0.99952 11.6745L1.00989 12.1868L0.714327 12.691L0.565105 13.2016L0.5 13.7145L0.545516 14.2291L0.890628 14.7443L0.671692 15.2572L0.525927 15.7718L0.629633 16.2847L0.867006 16.7936L0.822643 17.307L0.890052 17.8176L0.672844 18.3386L0.930958 18.8417L0.738525 19.3638L1.14932 19.8553L0.765028 20.3907L1.07672 20.8852L0.831285 21.4165L0.837622 21.9311L0.986845 22.4342L1.09113 22.9402L1.13261 23.4513L0.930958 23.9873L1.47369 24.4471L1.17294 25.0165L1.35155 25.5208L1.56242 26.0071L1.8672 26.4416L1.983 26.988L2.36096 27.3712L2.95439 27.5256L3.30584 27.8795L3.44584 28.5647L3.9131 28.8442L4.39072 29.1104L4.97839 29.062L5.5459 28.8983L6.02986 29.0211L6.49712 29.4867L7.01565 29.4642L7.50999 29.6976L8.04868 29.4302L8.54763 29.625L9.0483 29.8186L9.59218 29.3899L10.0785 29.8256L10.6051 29.6118L11.119 29.6043L11.6341 29.5599L12.1474 29.534L12.6469 29.9281L13.1672 29.6965L13.6759 29.8878L14.1933 29.6458L14.7032 29.942L15.2177 29.8129L15.7305 29.5899L16.2415 29.5219L16.76 29.9996L17.2676 29.6498L17.7815 29.7103L18.2914 29.6123L18.814 29.8751L19.332 29.9621L19.8413 29.8463L20.3391 29.5368L20.8438 29.3939L21.3594 29.4412L21.8912 29.6936L22.3919 29.5086L22.9191 29.6544L23.418 29.4631L23.9429 29.5605L24.4366 29.3328L24.9661 29.4591L25.419 28.9738L25.9312 28.9352L26.4036 28.7439L26.8916 28.5796L27.2897 28.2506L27.9275 28.2287L28.2012 27.7365L28.3492 27.1793L28.6506 26.7811L29.2912 26.5598L29.3166 25.9835L29.664 25.5478L29.3644 24.9387L29.4577 24.4523L29.6859 23.9613L30.1082 23.4865L29.91 22.9517L30.0702 22.4498L29.8691 21.9184L30.1042 21.4217L30.0996 20.9065L29.8726 20.378L30.1808 19.8818L30.4032 19.3788L30.3692 18.8618L30.2574 18.3426L29.9463 17.8188L30.3542 17.3174L30.2494 16.8011L29.9498 16.2836L30.2379 15.7747L30.5012 15.2624L29.9867 14.7489L30.2471 14.2349L30.1261 13.7231L30.3393 13.2062L30.0996 12.6985L30.0564 12.1868L30.3473 11.6629L30.0869 11.1593L30.0518 10.6475L29.9527 10.1393L30.0725 9.61887L30.1797 9.09734L29.849 8.60577L29.963 8.08308L29.8657 7.57653L29.5833 7.0867L29.8328 6.54903L29.7095 6.04593L29.7631 5.5244L29.7614 5.52498ZM23.1893 18.5109L23.0055 19.0364L22.4656 19.222L21.9575 19.4185L21.6377 19.815L21.5248 20.465L21.008 20.6425L20.6663 21.0327L20.2935 21.3865L19.7969 21.575L19.4501 21.9657L18.8947 22.0642L18.5559 22.4688L18.235 22.9067L17.7164 23.0479L17.1213 23.06L16.7036 23.3453L16.359 23.7562L16.0456 24.2449L15.4263 24.1336L15.0592 24.6984L14.7562 24.1844L14.4704 23.7274L14.9486 23.3724L14.8714 22.9281L14.8098 22.4636L14.9475 21.9357L14.2935 21.8251L13.8332 21.7357L13.3129 21.6891L12.8468 21.3491L12.3635 21.1508L11.9227 20.8385L11.4007 20.7872L10.7664 20.9641L10.4241 20.4535L9.8117 20.4939L9.39802 20.151L9.13875 19.6L8.57759 19.4859L8.12531 19.2047L7.86605 18.7143L7.68859 18.1778L7.00874 18.0694L6.77425 17.5842L6.37094 17.2096L6.36576 16.6138L5.94171 16.2271L6.1497 15.5995L5.75965 15.1742L5.61504 14.6665L5.84665 14.1196L5.64845 13.6148L5.6836 13.0956L5.98089 12.6173L5.89735 12.0825L6.03966 11.5874L5.9348 10.9881L6.273 10.5559L6.47638 10.0632L7.03063 9.79925L7.11993 9.22124L7.52497 8.87605L7.8574 8.47092L8.14721 8.00759L8.7827 7.95745L9.17448 7.62609L9.43259 7.07056L9.86873 6.76398L10.4328 6.70693L10.8223 6.29316L11.388 6.28912L11.8351 5.97678L12.4078 6.06956L12.8866 5.84135L13.4028 5.76413L13.926 5.74857L14.4174 5.42009L14.9452 5.35785L15.4758 5.62755V5.76528L15.9863 5.83271L16.5002 5.81427L17.055 5.5244L17.539 5.82003L18.0149 6.06668L18.5369 6.09492L19.1015 6.02346L19.5791 6.24936L20.0861 6.39631L20.4612 6.82679L21.0327 6.85676L21.3727 7.30741L22.0231 7.27629L22.1989 7.92172L22.7785 8.03986L22.968 8.60116L23.2976 8.99418L23.7107 9.31863L24.0667 9.70128L24.3416 10.1439L24.3635 10.7144L25.026 10.9858L24.8457 11.6099L25.0312 12.0894L25.1637 12.5879L25.3124 13.0933L25.1499 13.616L25.2064 14.1075L25.4841 14.6463L25.3613 15.1489L24.7806 15.505L24.621 15.9574L24.3946 16.3815L24.383 16.9278L24.3721 17.5156L24.0391 17.9075L23.4047 18.0435L23.1881 18.5086L23.1893 18.5109Z" fill="black"/>
<path d="M21.5092 12.3672L21.8509 12.1418L22.0047 11.799L21.8526 11.4555L21.5116 11.2907L21.0236 11.3034L20.535 11.2354L20.0464 11.2907L19.5578 11.3276L19.1931 11.433L19.0001 11.799L19.0399 12.2905L18.9984 12.7821L19.0145 13.2731L19.0433 13.7646L19.0042 14.2562L19.0445 14.7478L18.9961 15.2399L19.0883 15.7315L19.1666 16.1216L19.5555 16.2703L20.0435 16.2588L20.5321 16.2282L21.0207 16.2801L21.5092 16.2715L21.8613 16.0847L22.0307 15.7315L21.8503 15.3892L21.5092 15.1921L21.0305 15.2549L20.5511 15.1817L20.0764 15.2077L20.0326 14.7484L20.0585 14.2712L20.5511 14.2833L21.0299 14.2579L21.5092 14.2989L21.8699 14.1277L22.0508 13.7658L21.8469 13.4264L21.5092 13.2252L21.0305 13.212L20.5511 13.2644L20.0602 13.2581L20.0994 12.7821L20.0643 12.3107L20.5511 12.2876L21.0305 12.309L21.5092 12.3672Z" fill="black"/>
</g>
<defs>
<clipPath id="clip0_4047_7360">
<rect width="30" height="30" fill="white" transform="translate(0.5)"/>
</clipPath>
</defs>
</svg>
