<svg width="223" height="70" viewBox="0 0 223 70" fill="none" xmlns="http://www.w3.org/2000/svg">
<g clip-path="url(#clip0_4062_5158)">
<path d="M26.7868 7.3252C21.976 7.3252 18.0703 11.2308 18.0703 16.0417C18.0703 20.8525 21.976 24.7581 26.7868 24.7581C31.5976 24.7581 35.5033 20.8525 35.5033 16.0417C35.5033 11.2308 31.5976 7.3252 26.7868 7.3252ZM26.7868 22.5455C23.1996 22.5455 20.2662 19.6288 20.2662 16.0249C20.2662 12.421 23.1829 9.50431 26.7868 9.50431C30.3907 9.50431 33.3074 12.421 33.3074 16.0249C33.3074 19.6288 30.3907 22.5455 26.7868 22.5455Z" fill="#65B0D4"/>
<path d="M20.7184 36.9947H16.4775V39.1906H20.7184V36.9947Z" fill="#65B0D4"/>
<path d="M25.0934 43.817H20.8525V46.0129H25.0934V43.817Z" fill="#65B0D4"/>
<path d="M71.8271 6.42002C72.8664 6.45354 73.8554 6.68822 74.7941 7.10728L75.716 5.11255C74.5091 4.55939 73.2351 4.25766 71.8941 4.22414C67.2174 4.1068 63.1609 7.29167 62.0378 11.6667C61.3338 8.71648 62.4234 5.51485 65.0215 3.63745L63.7476 1.84387C60.6298 4.07328 59.205 7.8113 59.7414 11.3649C56.523 9.11878 52.1145 8.91763 48.6446 11.2141L49.8515 13.0412C52.5335 11.2644 55.9195 11.3985 58.4171 13.1082C56.5733 12.8903 54.6959 13.192 52.9693 14.0134C50.5891 15.1533 48.8123 17.1648 47.9406 19.6456C47.5048 20.9028 47.3204 22.2103 47.4042 23.5177L49.6001 23.3836C49.533 22.3611 49.6671 21.3386 50.0192 20.3664C50.6897 18.4387 52.0809 16.8798 53.9248 15.9914C55.4837 15.2371 57.1935 15.0527 58.853 15.4047C56.7074 16.6451 54.4109 19.0254 56.0704 23.6351L58.1322 22.8975C56.7912 19.193 58.6686 17.6341 61.9037 16.4272L61.7529 16.0081C65.7088 21.5733 67.7873 28.1106 67.7873 34.9665C67.7873 53.0532 53.0699 67.7706 34.9832 67.7706C29.4181 67.7706 24.1882 66.3793 19.5953 63.9152C26.2835 63.6135 39.0565 62.2055 40.6657 55.7184C41.3865 52.785 39.5426 50.4885 38.0508 48.6279C36.9947 47.3036 35.989 46.0632 36.1398 44.9737C36.2404 44.2026 36.9444 43.3477 38.2016 42.4425C39.7102 41.353 44.4708 40.3305 49.0805 39.3415C52.2486 38.6542 55.534 37.9502 58.2495 37.1456C62.4737 35.8884 64.8036 33.1897 64.8874 33.0723C65.1556 32.7538 65.2227 32.2845 65.0383 31.899C64.8539 31.5134 64.4684 31.262 64.0493 31.262H2.41379C4.2409 14.9521 18.1537 2.19588 35 2.19588V0C15.7064 0 0 15.7064 0 35C0 54.2936 15.7064 70 35 70C54.2936 70 70 54.2936 70 35C70 28.0939 68.0053 21.4727 64.2337 15.7567C66.3793 13.4267 68.4411 12.4713 71.2907 14.9186L72.7323 13.2591C69.0278 10.0575 65.977 11.3649 64.0493 12.9239C64.3008 11.2476 65.1054 9.70546 66.3625 8.53209C67.8544 7.12404 69.7988 6.38649 71.8439 6.45354L71.8271 6.42002ZM4.1068 46.0129H17.2988V43.8171H3.41954C3.00048 42.3084 2.68199 40.7663 2.48084 39.1739H12.9406V36.978H2.26293C2.22941 36.3242 2.19588 35.6537 2.19588 34.9832C2.19588 34.4804 2.19588 33.9775 2.22941 33.4914H61.0153C60.1269 34.0613 58.9871 34.6648 57.6125 35.0671C54.9808 35.8549 51.7457 36.5421 48.6111 37.2126C43.3477 38.3525 38.7883 39.3247 36.9109 40.6825C35.1173 41.9732 34.1619 43.2807 33.9607 44.6887C33.6925 46.717 35.0335 48.3932 36.341 50.0192C37.7155 51.7122 39.0062 53.3214 38.5369 55.1988C37.8831 57.8472 33.7261 59.909 26.8367 60.9986C22.0929 61.7361 17.4665 61.8032 16.1758 61.8199C10.6777 57.9478 6.42002 52.4497 4.12356 46.0129H4.1068ZM62.9262 13.829H63.0101C63.0101 13.829 62.9765 13.8625 62.9598 13.8793C62.9598 13.8625 62.943 13.8458 62.9262 13.829ZM60.1269 14.7342C60.1269 14.7342 60.1604 14.7677 60.1604 14.7845C60.1437 14.7845 60.1101 14.8012 60.0934 14.818L60.1269 14.7342Z" fill="#65B0D4"/>
<path d="M98.7646 30.7088V28.6638C99.4351 29.0996 100.357 29.5187 101.547 29.5187C103.542 29.5187 104.38 28.5129 104.38 27.5239C104.38 26.6858 103.877 25.9986 102.771 25.4789L101.262 24.7414C99.7536 24.0038 98.7982 22.9646 98.7982 21.4727C98.7982 19.3774 100.642 17.8855 103.559 17.8855C104.615 17.8855 105.486 18.1034 105.905 18.3381V20.3831C105.386 20.0646 104.481 19.7964 103.592 19.7964C101.95 19.7964 101.044 20.4837 101.044 21.4727C101.044 22.1432 101.447 22.6125 102.385 23.0651L103.894 23.7859C105.671 24.624 106.509 25.8309 106.509 27.4569C106.509 29.5187 105.051 31.4631 101.665 31.4631C100.474 31.4631 99.4519 31.1446 98.7814 30.7088H98.7646Z" fill="#231916"/>
<path d="M131.971 18.0532V31.1782H129.825V25.2107H122.533V31.1782H120.388V18.0532H122.533V23.216H129.825V18.0532H131.971Z" fill="#231916"/>
<path d="M144.174 24.6576C144.174 20.8022 147.09 17.8688 150.946 17.8688C154.801 17.8688 157.718 20.819 157.718 24.6576C157.718 28.4962 154.835 31.4464 150.946 31.4464C147.057 31.4464 144.174 28.4962 144.174 24.6576ZM155.556 24.6576C155.556 21.9085 153.594 19.83 150.946 19.83C148.297 19.83 146.353 21.9085 146.353 24.6576C146.353 27.4066 148.281 29.4349 150.946 29.4349C153.611 29.4349 155.556 27.3731 155.556 24.6576Z" fill="#231916"/>
<path d="M181.906 18.0531V31.262H181.554L172.402 22.512V31.1949H170.29V17.9693H170.609L179.778 26.6188V18.0531H181.906Z" fill="#231916"/>
<path d="M195.785 18.0532H197.897V31.1782H195.785V18.0532Z" fill="#231916"/>
<path d="M222.723 18.0532V31.262H222.371L213.219 22.512V31.1949H211.106V17.9693H211.425L220.594 26.6188V18.0532H222.723Z" fill="#231916"/>
<path d="M131.551 51.863C131.551 54.9976 129.305 56.9085 125.567 56.9085C124.746 56.9085 124.142 56.8582 123.656 56.7744V60.3113H121.511V47.1863H126.003C129.523 47.1863 131.551 49.1475 131.551 51.8798V51.863ZM129.289 51.8798C129.289 50.3879 128.35 49.114 125.835 49.114H123.64V54.8635C124.126 54.9305 124.729 54.9808 125.534 54.9808C128.283 54.9808 129.289 53.7404 129.289 51.8798Z" fill="#231916"/>
<path d="M153.074 57.579H147.643L146.503 60.2945H144.106L150.225 46.9851H150.51L156.628 60.2945H154.231L153.091 57.579H153.074ZM150.359 51.1255L148.414 55.7351H152.287L150.359 51.1255Z" fill="#231916"/>
<path d="M178.939 60.2945L176.391 56.1039C175.955 56.1542 175.503 56.1877 175.016 56.1877C174.178 56.1877 173.541 56.1207 173.005 56.0201V60.2945H170.859V47.1695H175.754C179.224 47.1695 181.101 48.7787 181.101 51.4775C181.101 53.489 180.146 54.8803 178.453 55.5843L181.369 60.2945H178.956H178.939ZM178.805 51.511C178.805 50.0527 178.017 49.114 175.553 49.114H172.971V54.1595C173.491 54.26 174.145 54.3103 174.966 54.3103C177.665 54.3103 178.805 53.3046 178.805 51.511Z" fill="#231916"/>
<path d="M204.049 60.2945L198.099 53.6063V60.2945H195.953V47.1695H198.099V52.9861L203.831 47.1695H206.564L200.58 53.2208L206.849 60.2945H204.066H204.049Z" fill="#231916"/>
</g>
<defs>
<clipPath id="clip0_4062_5158">
<rect width="222.723" height="70" fill="white"/>
</clipPath>
</defs>
</svg>
