<svg id="Group_4347" data-name="Group 4347" xmlns="http://www.w3.org/2000/svg" xmlns:xlink="http://www.w3.org/1999/xlink" width="55.071" height="24.619" viewBox="0 0 55.071 24.619">
  <defs>
    <clipPath id="clip-path">
      <rect id="Rectangle_2319" data-name="Rectangle 2319" width="55.071" height="24.619" fill="none"/>
    </clipPath>
    <clipPath id="clip-path-2">
      <path id="Path_203996" data-name="Path 203996" d="M329.237,46.166c-.209.657-.935,3.039-1.349,4.393.41.014.908.037,1.516.04,2.18.006,3.326-.9,3.739-2.19.384-1.2-.094-2.2-2.011-2.265-.215-.007-.541-.013-.873-.013-.392,0-.791.009-1.022.035" transform="translate(-327.888 -46.131)" fill="none"/>
    </clipPath>
    <linearGradient id="linear-gradient" x1="-6.933" y1="4.273" x2="-6.912" y2="4.273" gradientUnits="objectBoundingBox">
      <stop offset="0" stop-color="#a70719"/>
      <stop offset="0.5" stop-color="#d8000e"/>
      <stop offset="1" stop-color="#d8000e"/>
    </linearGradient>
    <clipPath id="clip-path-3">
      <path id="Path_203997" data-name="Path 203997" d="M27.927,9.1h0m-3.5-.791c2.77-2.162,4.005-3.117,6.846-5.171.807-.063,3.01-.117,4.5-.136.044,0,.011.028-.01.048-2.521,1.882-5.491,4.162-7.845,6.05,0,0,1.556,5.055,2.353,7.077.413,1.059.679,1.646.792,1.877.027.054-.013.084-.065.08-.335-.008-1.077-.033-2.559-.175-2.117-.205-2.881-1.025-3.381-2.376-.272-.736-1.112-3.844-1.406-5.031a.052.052,0,0,0-.1,0c-.758,2.2-1.609,4.862-2.227,6.878-1-.068-3.308-.179-4.633-.169,1.682-4.855,3.136-8.911,4.909-13.513,1.334-.137,3.306-.293,4.527-.358-.517,1.408-1.054,2.888-1.78,4.867-.017.042,0,.07.032.07a.076.076,0,0,0,.045-.018m7.424,9.864C33.3,13.555,35.329,7.57,36.771,2.992c.483-.009,2.33-.027,4.13-.009a29.23,29.23,0,0,1,4.75.367c2.1.393,4.141,1.668,3.345,4.656-.666,2.488-3.04,4.676-7.651,4.83-1.389.048-2.453-.027-3.087-.037-.5,1.621-1.176,3.823-1.67,5.45-.4.023-.877.033-1.382.033-1.1,0-2.353-.047-3.35-.106M37.369,0C35,0,32.678.046,30.572.151,22.212.57,16.06,1.977,13.341,3.222A14.744,14.744,0,0,0,8.292,6.737c-.027.027-.016.069.035.042a8.8,8.8,0,0,1,1.688-.873,15.953,15.953,0,0,1,1.6-.5c.611-.167,1.917-.451,2.533-.573,2.252-.449,4.768-.828,6.512-.99.008-.006.018.005.013.018a12.23,12.23,0,0,1-.664,1.5,3.391,3.391,0,0,1-2.573,1.864c-1.234.186-2.1.279-2.574.344-.136.386-2.607,6.482-4,10.021a20.625,20.625,0,0,0-4.227.67c1-2.6,2.5-6.382,3.186-8.017s.927-1.8,1.257-2.029c.061-.04.013-.069-.022-.06a25.121,25.121,0,0,0-3.03.8,4.57,4.57,0,0,0-2.355,1.417A111.149,111.149,0,0,0,.009,22.765.154.154,0,0,0,0,22.806v0a.048.048,0,0,0,.009.028.054.054,0,0,0,.065.008,21.263,21.263,0,0,1,7.261-2.326c7.981-1.054,17.35.479,24.357,1.116,6.782.619,9.725.26,11.487-.249,2.166-.625,4.462-1.909,6.459-6.811C51.088,11.017,53.36,3.328,54.051.634,50.474.316,43.872,0,37.551,0Z" fill="none"/>
    </clipPath>
    <linearGradient id="linear-gradient-2" x1="0" y1="1.077" x2="0.002" y2="1.077" xlink:href="#linear-gradient"/>
  </defs>
  <g id="Group_4348" data-name="Group 4348">
    <g id="Group_4347-2" data-name="Group 4347" clip-path="url(#clip-path)">
      <path id="Path_203994" data-name="Path 203994" d="M6.892,8.6c-.167.246-.706,1.032-1.194,1.776A110.377,110.377,0,0,0,.043,22.762c-.01.027-.017.051,0,.072a.053.053,0,0,0,.064.01,21.171,21.171,0,0,1,7.261-2.326c7.98-1.057,17.349.476,24.353,1.116,6.786.619,9.725.257,11.487-.249,2.166-.628,4.465-1.909,6.459-6.813C51.116,11.017,53.389,3.328,54.079.633A205.946,205.946,0,0,0,30.6.151C22.24.569,16.091,1.976,13.369,3.221A14.773,14.773,0,0,0,8.323,6.736C8.3,6.763,8,7.1,7.8,7.34c0,0-.658.887-.909,1.255" transform="translate(-0.029 0)" fill="#fff"/>
      <path id="Path_203995" data-name="Path 203995" d="M52.718,53.274c-.9,2.969-1.967,6.238-2.777,8.223-2,4.9-4.293,6.185-6.459,6.811-1.763.51-4.7.868-11.487.249-7.007-.637-16.376-2.17-24.357-1.116A21.266,21.266,0,0,0,.377,69.767a.051.051,0,0,1-.033.008s.008.008.093-.022c.815-.294,5.805-2.394,17.748-.958,8.891,1.071,20.936,4.542,27.669,1.571a13,13,0,0,0,6.695-7.69c1.338-3.644,2.259-6.962,2.825-9.137-.775-.073-1.615-.18-2.656-.266" transform="translate(-0.303 -46.922)" fill="#e0e0e0"/>
    </g>
  </g>
  <g id="Group_4350" data-name="Group 4350" transform="translate(39.093 5.5)">
    <g id="Group_4349" data-name="Group 4349" clip-path="url(#clip-path-2)">
      <rect id="Rectangle_2320" data-name="Rectangle 2320" width="5.639" height="4.474" transform="translate(0 0)" fill="url(#linear-gradient)"/>
    </g>
  </g>
  <g id="Group_4352" data-name="Group 4352">
    <g id="Group_4351" data-name="Group 4351" clip-path="url(#clip-path-3)">
      <rect id="Rectangle_2321" data-name="Rectangle 2321" width="54.051" height="22.858" transform="translate(0)" fill="url(#linear-gradient-2)"/>
    </g>
  </g>
</svg>
