<svg xmlns="http://www.w3.org/2000/svg" viewBox="0 0 138 34"><path d="M26.83 4.55h3.18v22h10.54v2.67H26.83V4.55zm36.94 12.08c0 8.49-5.16 13-11.46 13-6.52 0-11.09-5.05-11.09-12.52 0-7.83 4.87-12.96 11.46-12.96 6.73 0 11.09 5.16 11.09 12.48zm-19.15.4c0 5.27 2.86 9.99 7.87 9.99 5.05 0 7.91-4.65 7.91-10.25 0-4.91-2.56-10.03-7.87-10.03-5.27.01-7.91 4.88-7.91 10.29zm42.07 11.09c-1.43.51-4.25 1.35-7.58 1.35-3.73 0-6.81-.95-9.22-3.26-2.12-2.05-3.44-5.34-3.44-9.19.03-7.34 5.08-12.73 13.35-12.73 2.86 0 5.09.62 6.15 1.13l-.77 2.6c-1.32-.59-2.97-1.06-5.45-1.06-6 0-9.92 3.73-9.92 9.92 0 6.26 3.77 9.96 9.52 9.96 2.09 0 3.51-.29 4.25-.66v-7.36h-5.01v-2.56h8.13v11.86zm25.95-11.49c0 8.49-5.16 13-11.46 13-6.52 0-11.09-5.05-11.09-12.52 0-7.83 4.87-12.96 11.46-12.96 6.74 0 11.09 5.16 11.09 12.48zm-19.14.4c0 5.27 2.86 9.99 7.87 9.99 5.05 0 7.91-4.65 7.91-10.25 0-4.91-2.56-10.03-7.87-10.03-5.28.01-7.91 4.88-7.91 10.29z"/></svg>