<svg width="223" height="70" viewBox="0 0 223 70" fill="none" xmlns="http://www.w3.org/2000/svg">
<g clip-path="url(#clip0_4047_17573)">
<path d="M26.7868 7.3252C21.976 7.3252 18.0703 11.2308 18.0703 16.0417C18.0703 20.8525 21.976 24.7581 26.7868 24.7581C31.5976 24.7581 35.5033 20.8525 35.5033 16.0417C35.5033 11.2308 31.5976 7.3252 26.7868 7.3252ZM26.7868 22.5455C23.1996 22.5455 20.2662 19.6288 20.2662 16.0249C20.2662 12.421 23.1829 9.50431 26.7868 9.50431C30.3907 9.50431 33.3074 12.421 33.3074 16.0249C33.3074 19.6288 30.3907 22.5455 26.7868 22.5455Z" fill="#65B0D4"/>
<path d="M20.7175 36.9951H16.4766V39.191H20.7175V36.9951Z" fill="#65B0D4"/>
<path d="M25.0925 43.8174H20.8516V46.0133H25.0925V43.8174Z" fill="#65B0D4"/>
<path d="M71.8271 6.42002C72.8664 6.45354 73.8554 6.68822 74.7941 7.10728L75.716 5.11255C74.5091 4.55939 73.2351 4.25766 71.8941 4.22414C67.2174 4.1068 63.1609 7.29167 62.0378 11.6667C61.3338 8.71648 62.4234 5.51485 65.0215 3.63745L63.7476 1.84387C60.6298 4.07328 59.205 7.8113 59.7414 11.3649C56.523 9.11878 52.1145 8.91763 48.6446 11.2141L49.8515 13.0412C52.5335 11.2644 55.9195 11.3985 58.4171 13.1082C56.5733 12.8903 54.6959 13.192 52.9693 14.0134C50.5891 15.1533 48.8123 17.1648 47.9406 19.6456C47.5048 20.9028 47.3204 22.2103 47.4042 23.5177L49.6001 23.3836C49.533 22.3611 49.6671 21.3386 50.0192 20.3664C50.6897 18.4387 52.0809 16.8798 53.9248 15.9914C55.4837 15.2371 57.1935 15.0527 58.853 15.4047C56.7074 16.6451 54.4109 19.0254 56.0704 23.6351L58.1322 22.8975C56.7912 19.193 58.6686 17.6341 61.9037 16.4272L61.7529 16.0081C65.7088 21.5733 67.7873 28.1106 67.7873 34.9665C67.7873 53.0532 53.0699 67.7706 34.9832 67.7706C29.4181 67.7706 24.1882 66.3793 19.5953 63.9152C26.2835 63.6135 39.0565 62.2055 40.6657 55.7184C41.3865 52.785 39.5426 50.4885 38.0508 48.6279C36.9947 47.3036 35.989 46.0632 36.1398 44.9737C36.2404 44.2026 36.9444 43.3477 38.2016 42.4425C39.7102 41.353 44.4708 40.3305 49.0805 39.3415C52.2486 38.6542 55.534 37.9502 58.2495 37.1456C62.4737 35.8884 64.8036 33.1897 64.8874 33.0723C65.1556 32.7538 65.2227 32.2845 65.0383 31.899C64.8539 31.5134 64.4684 31.262 64.0493 31.262H2.41379C4.2409 14.9521 18.1537 2.19588 35 2.19588V0C15.7064 0 0 15.7064 0 35C0 54.2936 15.7064 70 35 70C54.2936 70 70 54.2936 70 35C70 28.0939 68.0053 21.4727 64.2337 15.7567C66.3793 13.4267 68.4411 12.4713 71.2907 14.9186L72.7323 13.2591C69.0278 10.0575 65.977 11.3649 64.0493 12.9239C64.3008 11.2476 65.1054 9.70546 66.3625 8.53209C67.8544 7.12404 69.7988 6.38649 71.8439 6.45354L71.8271 6.42002ZM4.1068 46.0129H17.2988V43.8171H3.41954C3.00048 42.3084 2.68199 40.7663 2.48084 39.1739H12.9406V36.978H2.26293C2.22941 36.3242 2.19588 35.6537 2.19588 34.9832C2.19588 34.4804 2.19588 33.9775 2.22941 33.4914H61.0153C60.1269 34.0613 58.9871 34.6648 57.6125 35.0671C54.9808 35.8549 51.7457 36.5421 48.6111 37.2126C43.3477 38.3525 38.7883 39.3247 36.9109 40.6825C35.1173 41.9732 34.1619 43.2807 33.9607 44.6887C33.6925 46.717 35.0335 48.3932 36.341 50.0192C37.7155 51.7122 39.0062 53.3214 38.5369 55.1988C37.8831 57.8472 33.7261 59.909 26.8367 60.9986C22.0929 61.7361 17.4665 61.8032 16.1758 61.8199C10.6777 57.9478 6.42002 52.4497 4.12356 46.0129H4.1068ZM62.9262 13.829H63.0101C63.0101 13.829 62.9765 13.8625 62.9598 13.8793C62.9598 13.8625 62.943 13.8458 62.9262 13.829ZM60.1269 14.7342C60.1269 14.7342 60.1604 14.7677 60.1604 14.7845C60.1437 14.7845 60.1101 14.8012 60.0934 14.818L60.1269 14.7342Z" fill="#65B0D4"/>
<path d="M98.7656 30.709V28.664C99.4361 29.0998 100.358 29.5189 101.548 29.5189C103.543 29.5189 104.381 28.5131 104.381 27.5242C104.381 26.686 103.878 25.9988 102.772 25.4791L101.263 24.7416C99.7546 24.004 98.7992 22.9648 98.7992 21.4729C98.7992 19.3776 100.643 17.8857 103.56 17.8857C104.616 17.8857 105.487 18.1037 105.906 18.3383V20.3833C105.387 20.0649 104.482 19.7967 103.593 19.7967C101.95 19.7967 101.045 20.4839 101.045 21.4729C101.045 22.1434 101.448 22.6128 102.386 23.0653L103.895 23.7861C105.672 24.6242 106.51 25.8311 106.51 27.4571C106.51 29.5189 105.052 31.4633 101.666 31.4633C100.475 31.4633 99.4529 31.1448 98.7824 30.709H98.7656Z" fill="white"/>
<path d="M131.972 18.0527V31.1777H129.826V25.2103H122.534V31.1777H120.389V18.0527H122.534V23.2156H129.826V18.0527H131.972Z" fill="white"/>
<path d="M144.174 24.6579C144.174 20.8026 147.09 17.8691 150.946 17.8691C154.801 17.8691 157.718 20.8193 157.718 24.6579C157.718 28.4965 154.835 31.4467 150.946 31.4467C147.057 31.4467 144.174 28.4965 144.174 24.6579ZM155.556 24.6579C155.556 21.9089 153.594 19.8303 150.946 19.8303C148.297 19.8303 146.353 21.9089 146.353 24.6579C146.353 27.407 148.281 29.4352 150.946 29.4352C153.611 29.4352 155.556 27.3735 155.556 24.6579Z" fill="white"/>
<path d="M181.905 18.0535V31.2624H181.553L172.401 22.5124V31.1953H170.289V17.9697H170.608L179.777 26.6192V18.0535H181.905Z" fill="white"/>
<path d="M195.785 18.0527H197.897V31.1777H195.785V18.0527Z" fill="white"/>
<path d="M222.722 18.0535V31.2624H222.37L213.218 22.5124V31.1953H211.105V17.9697H211.424L220.593 26.6192V18.0535H222.722Z" fill="white"/>
<path d="M131.552 51.8632C131.552 54.9978 129.306 56.9087 125.568 56.9087C124.747 56.9087 124.143 56.8585 123.657 56.7746V60.3115H121.512V47.1865H126.004C129.524 47.1865 131.552 49.1477 131.552 51.88V51.8632ZM129.289 51.88C129.289 50.3882 128.351 49.1142 125.836 49.1142H123.641V54.8637C124.127 54.9308 124.73 54.9811 125.535 54.9811C128.284 54.9811 129.289 53.7406 129.289 51.88Z" fill="white"/>
<path d="M153.073 57.5792H147.642L146.502 60.2947H144.105L150.224 46.9854H150.509L156.627 60.2947H154.23L153.09 57.5792H153.073ZM150.358 51.1257L148.413 55.7354H152.286L150.358 51.1257Z" fill="white"/>
<path d="M178.939 60.2949L176.391 56.1043C175.955 56.1546 175.503 56.1881 175.016 56.1881C174.178 56.1881 173.541 56.1211 173.005 56.0205V60.2949H170.859V47.1699H175.754C179.224 47.1699 181.101 48.7791 181.101 51.4779C181.101 53.4894 180.146 54.8807 178.453 55.5847L181.369 60.2949H178.956H178.939ZM178.805 51.5114C178.805 50.0531 178.017 49.1144 175.553 49.1144H172.971V54.1599C173.491 54.2604 174.145 54.3107 174.966 54.3107C177.665 54.3107 178.805 53.305 178.805 51.5114Z" fill="white"/>
<path d="M204.049 60.2949L198.099 53.6067V60.2949H195.953V47.1699H198.099V52.9865L203.831 47.1699H206.564L200.58 53.2212L206.849 60.2949H204.066H204.049Z" fill="white"/>
</g>
<defs>
<clipPath id="clip0_4047_17573">
<rect width="222.723" height="70" fill="white"/>
</clipPath>
</defs>
</svg>
