<svg xmlns="http://www.w3.org/2000/svg" xmlns:xlink="http://www.w3.org/1999/xlink" width="287.299" height="64" viewBox="0 0 287.299 64">
  <defs>
    <clipPath id="clip-path">
      <rect id="Rectangle_2321" data-name="Rectangle 2321" width="203.649" height="64" fill="none"/>
    </clipPath>
    <clipPath id="clip-path-2">
      <rect id="Rectangle_2319" data-name="Rectangle 2319" width="55.071" height="24.619" fill="none"/>
    </clipPath>
    <clipPath id="clip-path-3">
      <path id="Path_203996" data-name="Path 203996" d="M329.237,46.166c-.209.657-.935,3.039-1.349,4.393.41.014.908.037,1.516.04,2.18.006,3.326-.9,3.739-2.19.384-1.2-.094-2.2-2.011-2.265-.215-.007-.541-.013-.873-.013-.392,0-.791.009-1.022.035" transform="translate(-327.888 -46.131)" fill="none"/>
    </clipPath>
    <linearGradient id="linear-gradient" x1="-6.933" y1="4.273" x2="-6.912" y2="4.273" gradientUnits="objectBoundingBox">
      <stop offset="0" stop-color="#a70719"/>
      <stop offset="0.5" stop-color="#d8000e"/>
      <stop offset="1" stop-color="#d8000e"/>
    </linearGradient>
    <clipPath id="clip-path-4">
      <path id="Path_203997" data-name="Path 203997" d="M27.927,9.1h0m-3.5-.791c2.77-2.162,4.005-3.117,6.846-5.171.807-.063,3.01-.117,4.5-.136.044,0,.011.028-.01.048-2.521,1.882-5.491,4.162-7.845,6.05,0,0,1.556,5.055,2.353,7.077.413,1.059.679,1.646.792,1.877.027.054-.013.084-.065.08-.335-.008-1.077-.033-2.559-.175-2.117-.205-2.881-1.025-3.381-2.376-.272-.736-1.112-3.844-1.406-5.031a.052.052,0,0,0-.1,0c-.758,2.2-1.609,4.862-2.227,6.878-1-.068-3.308-.179-4.633-.169,1.682-4.855,3.136-8.911,4.909-13.513,1.334-.137,3.306-.293,4.527-.358-.517,1.408-1.054,2.888-1.78,4.867-.017.042,0,.07.032.07a.076.076,0,0,0,.045-.018m7.424,9.864C33.3,13.555,35.329,7.57,36.771,2.992c.483-.009,2.33-.027,4.13-.009a29.23,29.23,0,0,1,4.75.367c2.1.393,4.141,1.668,3.345,4.656-.666,2.488-3.04,4.676-7.651,4.83-1.389.048-2.453-.027-3.087-.037-.5,1.621-1.176,3.823-1.67,5.45-.4.023-.877.033-1.382.033-1.1,0-2.353-.047-3.35-.106M37.369,0C35,0,32.678.046,30.572.151,22.212.57,16.06,1.977,13.341,3.222A14.744,14.744,0,0,0,8.292,6.737c-.027.027-.016.069.035.042a8.8,8.8,0,0,1,1.688-.873,15.953,15.953,0,0,1,1.6-.5c.611-.167,1.917-.451,2.533-.573,2.252-.449,4.768-.828,6.512-.99.008-.006.018.005.013.018a12.23,12.23,0,0,1-.664,1.5,3.391,3.391,0,0,1-2.573,1.864c-1.234.186-2.1.279-2.574.344-.136.386-2.607,6.482-4,10.021a20.625,20.625,0,0,0-4.227.67c1-2.6,2.5-6.382,3.186-8.017s.927-1.8,1.257-2.029c.061-.04.013-.069-.022-.06a25.121,25.121,0,0,0-3.03.8,4.57,4.57,0,0,0-2.355,1.417A111.149,111.149,0,0,0,.009,22.765.154.154,0,0,0,0,22.806v0a.048.048,0,0,0,.009.028.054.054,0,0,0,.065.008,21.263,21.263,0,0,1,7.261-2.326c7.981-1.054,17.35.479,24.357,1.116,6.782.619,9.725.26,11.487-.249,2.166-.625,4.462-1.909,6.459-6.811C51.088,11.017,53.36,3.328,54.051.634,50.474.316,43.872,0,37.551,0Z" fill="none"/>
    </clipPath>
    <linearGradient id="linear-gradient-2" x1="0" y1="1.077" x2="0.002" y2="1.077" xlink:href="#linear-gradient"/>
  </defs>
  <g id="Group_4362" data-name="Group 4362" transform="translate(-15198 -7148.978)">
    <g id="Group_4360" data-name="Group 4360" transform="translate(15198 7148.979)">
      <g id="Group_4335" data-name="Group 4335" transform="translate(0 0)" clip-path="url(#clip-path)">
        <path id="Path_203987" data-name="Path 203987" d="M18.75,4.368a7.966,7.966,0,1,0,7.966,7.966A7.975,7.975,0,0,0,18.75,4.368m0,13.925a5.958,5.958,0,1,1,5.959-5.959,5.966,5.966,0,0,1-5.959,5.959" transform="translate(5.745 2.327)" fill="#4ca2cb"/>
        <rect id="Rectangle_2318" data-name="Rectangle 2318" width="3.882" height="2.008" transform="translate(15.071 33.824)" fill="#4ca2cb"/>
        <rect id="Rectangle_2319-2" data-name="Rectangle 2319" width="3.882" height="2.008" transform="translate(19.07 40.071)" fill="#4ca2cb"/>
        <path id="Path_203988" data-name="Path 203988" d="M65.671,5.876a7,7,0,0,1,2.714.631l.834-1.825a9.018,9.018,0,0,0-12.493,6,7.018,7.018,0,0,1,2.736-7.337L58.3,1.711a9.021,9.021,0,0,0-3.66,8.7,9.023,9.023,0,0,0-10.147-.138L45.6,11.949a7.019,7.019,0,0,1,7.826.063,9.018,9.018,0,0,0-10.058,9.53l2-.129a7.006,7.006,0,0,1,8.458-7.3c-1.959,1.137-4.065,3.317-2.546,7.527l1.888-.682c-1.223-3.39.492-4.814,3.446-5.91l-.144-.383a29.982,29.982,0,0,1-38.548,43.81c6.111-.27,17.789-1.568,19.26-7.5.665-2.682-1.028-4.788-2.389-6.482-.969-1.2-1.884-2.345-1.749-3.34a3.982,3.982,0,0,1,1.879-2.308c1.376-.989,5.735-1.927,9.95-2.832,2.9-.624,5.895-1.269,8.381-2.008a13.467,13.467,0,0,0,6.076-3.723,1,1,0,0,0-.766-1.652H2.2A30.032,30.032,0,0,1,32,2.006V0A32,32,0,1,0,58.724,14.4c1.966-2.127,3.85-3.01,6.448-.769l1.309-1.52c-3.389-2.923-6.177-1.735-7.938-.313a7,7,0,0,1,7.127-5.922M3.754,42.079H15.821V40.071H3.119a29.608,29.608,0,0,1-.86-4.241h9.563V33.822H2.068c-.035-.6-.061-1.209-.061-1.822,0-.458.015-.912.037-1.366H55.8a12.021,12.021,0,0,1-3.114,1.444c-2.411.716-5.371,1.353-8.231,1.968-4.82,1.038-8.983,1.933-10.7,3.167-1.638,1.176-2.52,2.374-2.7,3.666-.253,1.852.981,3.386,2.175,4.869,1.248,1.554,2.429,3.024,2,4.741-.6,2.428-4.405,4.312-10.7,5.3a68.683,68.683,0,0,1-9.751.745A30.137,30.137,0,0,1,3.754,42.079M57.532,12.648l.078,0c-.015.017-.031.032-.046.048-.011-.017-.021-.032-.032-.051m-2.554.823.035.048-.06.028Z" transform="translate(0 0)" fill="#4ca2cb"/>
        <path id="Path_203989" data-name="Path 203989" d="M58.919,22.4V20.525a4.572,4.572,0,0,0,2.546.783c1.825,0,2.593-.913,2.593-1.825,0-.768-.464-1.392-1.473-1.873l-1.378-.673a3.369,3.369,0,0,1-2.256-2.993c0-1.92,1.681-3.282,4.354-3.282a4.743,4.743,0,0,1,2.146.417V12.95a4.414,4.414,0,0,0-2.114-.543c-1.505,0-2.337.624-2.337,1.536,0,.608.368,1.041,1.232,1.458l1.378.656A3.578,3.578,0,0,1,66,19.418c0,1.89-1.329,3.666-4.434,3.666a4.976,4.976,0,0,1-2.642-.688" transform="translate(31.387 5.68)" fill="#1a1311"/>
        <path id="Path_203990" data-name="Path 203990" d="M82.419,10.766V22.774h-1.97v-5.46H73.79v5.46H71.82V10.766h1.97v4.722h6.66V10.766Z" transform="translate(38.26 5.736)" fill="#1a1311"/>
        <path id="Path_203991" data-name="Path 203991" d="M86.006,16.874a6.2,6.2,0,1,1,12.392,0,6.2,6.2,0,1,1-12.392,0m10.407,0a4.208,4.208,0,1,0-8.405,0,4.206,4.206,0,1,0,8.405,0" transform="translate(45.817 5.68)" fill="#1a1311"/>
        <path id="Path_203992" data-name="Path 203992" d="M112.212,10.794V22.866h-.32l-8.373-8.005V22.8h-1.936V10.714h.287l8.39,7.909V10.794Z" transform="translate(54.115 5.708)" fill="#1a1311"/>
        <rect id="Rectangle_2320" data-name="Rectangle 2320" width="1.937" height="12.007" transform="translate(179.026 16.503)" fill="#1a1311"/>
        <path id="Path_203993" data-name="Path 203993" d="M136.563,10.794V22.866h-.32l-8.373-8.005V22.8h-1.936V10.714h.287l8.39,7.909V10.794Z" transform="translate(67.086 5.708)" fill="#1a1311"/>
        <path id="Path_203994" data-name="Path 203994" d="M81.673,32.43c0,2.866-2.049,4.61-5.476,4.61a9.736,9.736,0,0,1-1.744-.127v3.234h-1.97V28.14H76.6c3.219,0,5.076,1.793,5.076,4.29m-2.066.017c0-1.361-.864-2.531-3.154-2.531h-2v5.253a11.928,11.928,0,0,0,1.729.11c2.514,0,3.426-1.136,3.426-2.832" transform="translate(38.613 14.991)" fill="#1a1311"/>
        <path id="Path_203995" data-name="Path 203995" d="M94.167,37.722H89.2L88.163,40.2H85.97l5.587-12.168h.256L97.4,40.2H95.208Zm-2.481-5.907-1.778,4.21h3.539Z" transform="translate(45.797 14.935)" fill="#1a1311"/>
        <path id="Path_203996-2" data-name="Path 203996" d="M109.323,40.146l-2.337-3.826a10.3,10.3,0,0,1-1.264.08,9.4,9.4,0,0,1-1.841-.161v3.907h-1.97V28.139h4.483c3.17,0,4.883,1.473,4.883,3.939a3.8,3.8,0,0,1-2.419,3.761l2.675,4.307Zm-.112-8.036c0-1.33-.72-2.193-2.978-2.193h-2.353v4.61a9.4,9.4,0,0,0,1.825.144c2.465,0,3.505-.912,3.505-2.561" transform="translate(54.289 14.99)" fill="#1a1311"/>
        <path id="Path_203997-2" data-name="Path 203997" d="M124.3,40.147l-5.443-6.116v6.116h-1.97V28.14h1.97v5.314l5.234-5.314h2.5l-5.476,5.539,5.732,6.468Z" transform="translate(62.269 14.991)" fill="#1a1311"/>
      </g>
    </g>
    <path id="Path_203998" data-name="Path 203998" d="M4.2.14A1.95,1.95,0,0,1,3.178-.1,1.78,1.78,0,0,1,2.59-.63H2.52L2.03,0H.84V-7.42A2.479,2.479,0,0,0,.665-8.435Q.49-8.82-.14-8.82H-.28v-.42H1.4a1.457,1.457,0,0,1,.763.168.918.918,0,0,1,.385.56A4.16,4.16,0,0,1,2.66-7.42V-6.3a3.407,3.407,0,0,1,.623-.287A2.5,2.5,0,0,1,4.13-6.72a2.923,2.923,0,0,1,1.687.455,2.76,2.76,0,0,1,.994,1.232A4.429,4.429,0,0,1,7.14-3.29a4.444,4.444,0,0,1-.329,1.736,2.789,2.789,0,0,1-.98,1.239A2.779,2.779,0,0,1,4.2.14ZM3.92-.49A.937.937,0,0,0,4.7-.854a2.392,2.392,0,0,0,.42-1A7.05,7.05,0,0,0,5.25-3.29a7.025,7.025,0,0,0-.133-1.442,2.277,2.277,0,0,0-.434-.994A1.022,1.022,0,0,0,3.85-6.09a1.594,1.594,0,0,0-.707.147,3.786,3.786,0,0,0-.483.273V-1.4a1.757,1.757,0,0,0,.483.63A1.161,1.161,0,0,0,3.92-.49ZM8.736,2.8V2.31a2.424,2.424,0,0,0,1.218-.28,2.011,2.011,0,0,0,.8-1.078L11.046.2,8.526-5.32a2.075,2.075,0,0,0-.553-.791,1.452,1.452,0,0,0-.749-.329v-.28H8.456a2.025,2.025,0,0,1,1.106.3,1.873,1.873,0,0,1,.714.819l1.61,3.528L13.594-6.58h.742L11.508.91A4.279,4.279,0,0,1,10.9,2.079a1.759,1.759,0,0,1-.721.567A2.4,2.4,0,0,1,9.3,2.8Z" transform="translate(15411.228 7203.95)" fill="#1a1311"/>
    <g id="Group_4361" data-name="Group 4361" transform="translate(15430.228 7185.95)">
      <g id="Group_4348" data-name="Group 4348">
        <g id="Group_4347" data-name="Group 4347" clip-path="url(#clip-path-2)">
          <path id="Path_203994-2" data-name="Path 203994" d="M6.892,8.6c-.167.246-.706,1.032-1.194,1.776A110.377,110.377,0,0,0,.043,22.762c-.01.027-.017.051,0,.072a.053.053,0,0,0,.064.01,21.171,21.171,0,0,1,7.261-2.326c7.98-1.057,17.349.476,24.353,1.116,6.786.619,9.725.257,11.487-.249,2.166-.628,4.465-1.909,6.459-6.813C51.116,11.017,53.389,3.328,54.079.633A205.946,205.946,0,0,0,30.6.151C22.24.569,16.091,1.976,13.369,3.221A14.773,14.773,0,0,0,8.323,6.736C8.3,6.763,8,7.1,7.8,7.34c0,0-.658.887-.909,1.255" transform="translate(-0.029 0)" fill="#fff"/>
          <path id="Path_203995-2" data-name="Path 203995" d="M52.718,53.274c-.9,2.969-1.967,6.238-2.777,8.223-2,4.9-4.293,6.185-6.459,6.811-1.763.51-4.7.868-11.487.249-7.007-.637-16.376-2.17-24.357-1.116A21.266,21.266,0,0,0,.377,69.767a.051.051,0,0,1-.033.008s.008.008.093-.022c.815-.294,5.805-2.394,17.748-.958,8.891,1.071,20.936,4.542,27.669,1.571a13,13,0,0,0,6.695-7.69c1.338-3.644,2.259-6.962,2.825-9.137-.775-.073-1.615-.18-2.656-.266" transform="translate(-0.303 -46.922)" fill="#e0e0e0"/>
        </g>
      </g>
      <g id="Group_4350" data-name="Group 4350" transform="translate(39.093 5.5)">
        <g id="Group_4349" data-name="Group 4349" clip-path="url(#clip-path-3)">
          <rect id="Rectangle_2320-2" data-name="Rectangle 2320" width="5.639" height="4.474" transform="translate(0 0)" fill="url(#linear-gradient)"/>
        </g>
      </g>
      <g id="Group_4352" data-name="Group 4352">
        <g id="Group_4351" data-name="Group 4351" clip-path="url(#clip-path-4)">
          <rect id="Rectangle_2321-2" data-name="Rectangle 2321" width="54.051" height="22.858" transform="translate(0)" fill="url(#linear-gradient-2)"/>
        </g>
      </g>
    </g>
  </g>
</svg>
