<svg width="162" height="36" viewBox="0 0 162 36" fill="none" xmlns="http://www.w3.org/2000/svg">
<g clip-path="url(#clip0_4418_16235)">
<mask id="mask0_4418_16235" style="mask-type:luminance" maskUnits="userSpaceOnUse" x="0" y="3" width="4" height="15">
<path d="M0.252073 17.3883L0.827554 17.3984L1.3963 17.4052L1.96842 17.3782L2.54053 17.3883L3.12948 17.3984L3.12611 16.8364L3.13621 16.2946L3.11265 15.7494L3.10255 15.2076L3.079 14.6657L3.12948 14.1239L3.11938 13.5854V13.0436L3.12948 12.5051L3.11602 11.96L3.08573 11.4181L3.13284 10.8763L3.10928 10.3345L3.079 9.78928L3.10255 9.24409L3.13957 8.70227L3.13284 8.15707L3.13621 7.61188L3.08236 7.06669L3.13957 6.5215L3.08573 5.97967L3.09246 5.43111L3.12275 4.88592L3.09246 4.33736L3.12275 3.77534L2.5439 3.76525L1.97515 3.7989H1.4064L0.834285 3.76861L0.238611 3.76188L0.258804 4.33063L0.255439 4.87246L0.248708 5.41428L0.275631 5.95948L0.282362 6.50131L0.238611 7.04313L0.252073 7.58159V8.12005L0.248708 8.66188L0.289093 9.20371L0.292458 9.7489L0.272265 10.2907L0.295823 10.8326L0.282362 11.3744L0.231881 11.9196L0.26217 12.4648L0.255439 13.01L0.241977 13.5552L0.289093 14.1003L0.265535 14.6422L0.289093 15.1874L0.241977 15.7326L0.228516 16.2811L0.248708 16.8297L0.252073 17.3883Z" fill="white"/>
</mask>
<g mask="url(#mask0_4418_16235)">
<path d="M1.33687 2.35124L-6.39453 12.215L2.03363 18.8212L9.76503 8.95739L1.33687 2.35124Z" fill="url(#paint0_linear_4418_16235)"/>
</g>
<mask id="mask1_4418_16235" style="mask-type:luminance" maskUnits="userSpaceOnUse" x="0" y="0" width="18" height="4">
<path d="M3.10862 0.642608L2.54324 0.582031L1.97449 0.652705L1.40574 0.608954L0.833624 0.582031L0.248047 0.605589L0.261509 1.20799L0.278335 1.8003L0.268239 2.39597V2.98155L0.820162 3.0253L1.37882 2.99501L1.9341 2.95126L2.49276 2.95799L3.04805 3.02194L3.6067 3.00847L4.16535 3.00174L4.72401 3.0253L5.28266 3.03203L5.83795 2.98492L6.3966 2.98155H6.95189L7.50382 3.00511L8.0591 2.98492L8.61776 3.00511L9.17978 3.01184L9.73507 2.96809L10.2937 3.03203L10.8524 2.95799L11.411 2.98492L11.9697 3.0354L12.5317 2.96472L13.0904 3.00174L13.6524 2.98828L14.211 2.97819L14.7697 2.96809L15.3317 2.99165L15.8937 2.98828L16.4591 2.98492L17.0514 3.0253L17.011 2.40607L16.9976 1.8104L16.9841 1.21472L16.9976 0.639243L16.4692 0.625782L15.9139 0.649339L15.3553 0.582031L14.8 0.632512L14.2447 0.659435L13.6894 0.639243H13.1375L12.5855 0.652705L12.0336 0.595493L11.4783 0.602223L10.9197 0.652705L10.3644 0.635877L9.81247 0.656069L9.25382 0.619051H8.69853L8.13987 0.652705L7.58459 0.615685L7.02593 0.635877L6.46728 0.608954L5.90862 0.629146L5.35333 0.622416L4.79468 0.585397H4.23266L3.67064 0.595493L3.10862 0.642608Z" fill="white"/>
</mask>
<g mask="url(#mask1_4418_16235)">
<path d="M6.64467 -7.57679L-0.941406 2.10156L10.6573 11.1928L18.2433 1.51445L6.64467 -7.57679Z" fill="url(#paint1_linear_4418_16235)"/>
</g>
<mask id="mask2_4418_16235" style="mask-type:luminance" maskUnits="userSpaceOnUse" x="3" y="3" width="15" height="15">
<path d="M17.0227 3.77513L16.4775 3.7583L15.9323 3.74821L15.3871 3.76504H14.8419H14.2967L13.7549 3.79196L13.2131 3.77177L12.6712 3.79532L12.1261 3.7684H11.5775L11.0323 3.80879L10.4871 3.7583L9.94192 3.77177L9.39336 3.76167H8.84817L8.30297 3.7583H7.75442L7.20586 3.78859L6.6573 3.75494L6.11211 3.79196L5.56355 3.81552L5.01499 3.80879L4.46307 3.79869H3.91115L3.94144 4.33715L3.91788 4.87898L3.88086 5.4208L3.90105 5.96263L3.88422 6.50446L3.89769 7.04629L3.90442 7.58475L3.93134 8.12321L3.91788 8.66167L3.90778 9.2035L3.9448 9.74869L3.89096 10.2905L3.91115 10.8323L3.89432 11.3742L3.9448 11.9194L3.90778 12.4646L3.93471 13.0064L3.90778 13.5516L3.93471 14.0968L3.92797 14.642L3.93471 15.1838L3.92797 15.729V16.2742L3.89096 16.8227L3.91451 17.3713L4.45971 17.3847L5.0049 17.3511L5.55009 17.3444H6.09528H6.64047L7.1823 17.3982L7.72413 17.3713L8.26596 17.4083L8.81115 17.3444L9.35634 17.3679L9.90153 17.3915L10.4467 17.378L10.9919 17.3948H11.5405H12.0857L12.6309 17.4117L13.1794 17.3948L13.728 17.4117L14.2765 17.3612L14.8217 17.3545L15.3703 17.3881H15.9188L16.4708 17.3679L17.0361 17.3915L17.053 16.8362L17.0193 16.2944L17.0496 15.7525L17.0025 15.2107L17.0261 14.6689L17.016 14.1271L17.0429 13.5886L17.0126 13.0501L17.0227 12.5083L17.0025 11.9665L17.0126 11.4213V10.8795L17.0395 10.3376L17.0059 9.7958V9.25061L17.0092 8.70879L17.0294 8.16696L16.9857 7.62177L17.0261 7.07657L17.0092 6.53138L16.989 5.98956V5.44436L16.9924 4.89917L16.9857 4.35061L17.0328 3.80206H17.0126V3.78186L17.0227 3.77513ZM14.364 15.867L13.8222 15.8501L13.2804 15.8367L12.7386 15.8501H12.1967H11.6549L11.1131 15.8771L10.5712 15.8569L10.0294 15.8771L9.48422 15.8501H8.9424L8.40057 15.8872L7.85874 15.8367L7.31355 15.8468L6.76836 15.8367H6.2198H5.69144L5.7049 15.3184L5.67124 14.7867L5.7049 14.2549L5.66788 13.7232L5.64769 13.1881L5.65442 12.653L5.66788 12.1179L5.67461 11.5828L5.64432 11.0477L5.66788 10.5126L5.7049 9.97754L5.68471 9.43907L5.70153 8.90061L5.68807 8.36215L5.67797 7.82705L6.22653 7.8035L6.78182 7.81696L7.34048 7.82705L7.89576 7.79004L8.45105 7.84388L9.00634 7.82369L9.56499 7.84052L10.1236 7.79004L10.6823 7.82705L11.241 7.80013L11.7996 7.82705L12.3583 7.80013L12.9136 7.80686L13.4722 7.80013L14.0342 7.80686H14.5962L15.1414 7.83715L15.1583 8.37225L15.1448 8.92754L15.1785 9.48282L15.1852 10.0381V10.5934L15.1886 11.1487L15.1347 11.704L15.1616 12.2593L15.1246 12.8146L15.1886 13.3732L15.165 13.9319L15.1414 14.4905L15.1549 15.0492L15.1448 15.8367L14.364 15.8636V15.867Z" fill="white"/>
</mask>
<g mask="url(#mask2_4418_16235)">
<path d="M8.89302 -2.64746L-2.75391 12.2118L12.0391 23.8068L23.686 8.94756L8.89302 -2.64746Z" fill="url(#paint2_linear_4418_16235)"/>
</g>
<mask id="mask3_4418_16235" style="mask-type:luminance" maskUnits="userSpaceOnUse" x="6" y="8" width="9" height="8">
<path d="M6.46463 8.61405L6.4579 9.15251L6.4781 9.69097L6.46127 10.2261L6.48146 10.7578L6.45117 11.2963L6.46463 11.8314L6.45454 12.3665L6.4579 12.9015L6.47136 13.4366L6.4781 13.9751L6.48146 14.5136L6.468 15.0554L7.03002 15.0386L7.58867 15.0554L8.15069 15.0722L8.71608 15.0588L9.2781 15.0453L9.84012 15.0352L10.4055 15.0419L10.9709 15.0453L11.5329 15.0722L12.0949 15.0655L12.6603 15.0554L13.2257 15.0689L13.7944 15.052L14.3497 15.0386L14.3699 14.5203L14.3767 13.9852L14.3531 13.4501L14.3632 12.915L14.3464 12.3799L14.3733 11.8448L14.3497 11.3097L14.3598 10.7746L14.3497 10.2362L14.3699 9.6977L14.3632 9.15924L14.3598 8.62414H13.8012L13.2392 8.63424L12.6805 8.60059L12.1151 8.63087L11.5531 8.63761L10.9911 8.62414L10.4257 8.64097L9.86031 8.62414L9.29829 8.60732L8.73627 8.61405L8.17088 8.60395L7.6055 8.61405L7.03675 8.63761L6.46463 8.61405Z" fill="white"/>
</mask>
<g mask="url(#mask3_4418_16235)">
<path d="M9.46631 4.75528L3.30859 12.6113L11.3606 18.9227L17.5184 11.0666L9.46631 4.75528Z" fill="url(#paint3_linear_4418_16235)"/>
</g>
<path d="M30.084 16.2024C30.5114 16.2024 30.7234 16.0476 30.7234 15.7347V3.95918C30.7234 3.64956 30.508 3.49139 30.084 3.49139V3.0236H34.1729V3.49139C33.7455 3.49139 33.5335 3.6462 33.5335 3.95918V15.7347C33.5335 16.0443 33.7489 16.2024 34.1729 16.2024V16.6702H30.084V16.2024Z" fill="#231816"/>
<path d="M42.0139 12.911C42.0139 12.911 42.6601 13.2913 43.0505 13.5168C43.3904 13.712 43.9861 13.9206 44.4202 14.0754C44.8543 14.2302 45.312 14.3581 45.7865 14.4524C46.2644 14.5466 46.6885 14.5937 47.0688 14.5937C47.3481 14.5937 47.7082 14.5735 48.1524 14.5298C48.5966 14.486 49.0308 14.3951 49.4582 14.2572C49.8856 14.1192 50.2558 13.9274 50.5654 13.6851C50.8784 13.4427 51.0332 13.123 51.0332 12.7259C51.0332 12.3288 50.8885 12.036 50.6024 11.8442C50.3163 11.6557 49.9361 11.5177 49.4683 11.4302C49.0005 11.3427 48.4654 11.2889 47.8663 11.262C47.2673 11.2351 46.6548 11.198 46.0322 11.1442C45.4062 11.0937 44.7971 11.0062 44.1981 10.8851C43.599 10.7639 43.0639 10.562 42.5962 10.2759C42.1284 9.98986 41.7481 9.60284 41.462 9.10813C41.1726 8.61678 41.0312 7.97063 41.0312 7.1764C41.0312 6.6413 41.149 6.11294 41.388 5.59467C41.6269 5.0764 41.9904 4.61871 42.4851 4.22159C42.9764 3.82447 43.6024 3.5014 44.3563 3.24899C45.1135 2.99995 45.9986 2.87207 47.0183 2.87207C47.8899 2.87207 48.6437 2.93938 49.2865 3.08072C49.926 3.21871 50.4813 3.36678 50.949 3.52159C51.4168 3.6764 51.8106 3.82447 52.1303 3.96246C52.45 4.10044 53.4731 4.69274 53.4731 4.69274L52.3524 6.82976C52.3524 6.82976 51.4303 6.34851 51.1375 6.1937C50.7942 6.01197 50.2625 5.7764 49.8519 5.62159C49.4413 5.46678 48.9971 5.3389 48.5226 5.24467C48.0447 5.15044 47.5702 5.10332 47.0923 5.10332C46.7322 5.10332 46.3587 5.13361 45.9716 5.19419C45.5846 5.25476 45.2346 5.34563 44.925 5.46678C44.612 5.58794 44.3529 5.74611 44.1476 5.94803C43.9423 6.14659 43.8413 6.39226 43.8413 6.68842C43.8413 7.10236 43.9861 7.41534 44.2721 7.62063C44.5582 7.82928 44.9385 7.98409 45.4062 8.08842C45.874 8.19274 46.4091 8.26342 47.0082 8.29707C47.6072 8.33072 48.2197 8.37448 48.8457 8.42832C49.4683 8.4788 50.0808 8.56967 50.6798 8.70092C51.2788 8.8288 51.8139 9.03746 52.2817 9.32351C52.7495 9.60957 53.1264 9.99323 53.4159 10.4778C53.7053 10.9625 53.8466 11.5918 53.8466 12.3726C53.8466 13.2711 53.6212 14.0048 53.1702 14.5769C52.7192 15.149 52.1538 15.5966 51.4808 15.9264C50.8077 16.2562 50.0808 16.475 49.3 16.586C48.5192 16.6971 47.7923 16.7543 47.1192 16.7543C46.1837 16.7543 45.3995 16.6971 44.7668 16.586C44.1341 16.475 43.6091 16.337 43.1885 16.1721C42.7712 16.0072 42.438 15.8591 42.1923 15.7312C41.9466 15.6033 41.112 15.0144 41.112 15.0144L42.0173 12.9177L42.0139 12.911Z" fill="#231816"/>
<path d="M71.1246 3.02816H74.3789V3.49595C74.2645 3.49595 74.1602 3.53633 74.0693 3.61374C73.9784 3.69114 73.9347 3.80893 73.9347 3.96374V15.7392C73.9347 15.894 73.9784 16.0118 74.0693 16.0892C74.1602 16.1666 74.2611 16.207 74.3789 16.207V16.6748H71.1246V10.8661H63.189V15.7426C63.189 15.8974 63.2361 16.0152 63.3236 16.0926C63.4145 16.17 63.5154 16.2104 63.6332 16.2104V16.6782H60.3789V3.02816H63.6332V3.49595C63.5188 3.49595 63.4145 3.53633 63.3236 3.61374C63.2328 3.69114 63.189 3.80893 63.189 3.96374V8.37239H71.1246V3.02816Z" fill="#231816"/>
<path d="M81.5879 16.2024C82.0153 16.2024 82.2273 16.0476 82.2273 15.7347V3.95918C82.2273 3.64956 82.0119 3.49139 81.5879 3.49139V3.0236H85.6768V3.49139C85.2494 3.49139 85.0374 3.6462 85.0374 3.95918V15.7347C85.0374 16.0443 85.2528 16.2024 85.6768 16.2024V16.6702H81.5879V16.2024Z" fill="#231816"/>
<path d="M93.4291 3.02816H96.2729L104.542 12.2089V3.02816H107.621V3.49595C107.308 3.49595 107.153 3.65075 107.153 3.96374V15.7392C107.153 16.0522 107.308 16.207 107.621 16.207V16.6748H104.71C104.71 16.6748 103.818 15.6551 103.556 15.3791L96.0407 7.13056V15.7426C96.0407 16.0556 96.2292 16.2104 96.6061 16.2104V16.6782H93.4258V3.02816H93.4291Z" fill="#231816"/>
<path d="M120.736 2.87207C121.608 2.87207 122.493 3.01342 123.395 3.29947C124.297 3.58553 125.121 4.01294 125.865 4.58505C126.609 5.1538 127.218 5.87736 127.692 6.74899C128.167 7.62399 128.406 8.6538 128.406 9.84851C128.406 11.0432 128.17 12.0764 127.692 12.948C127.218 13.8197 126.609 14.5432 125.865 15.112C125.121 15.6841 124.297 16.098 123.395 16.3572C122.493 16.6163 121.604 16.7476 120.736 16.7476C119.868 16.7476 118.979 16.6163 118.077 16.3572C117.176 16.098 116.351 15.6841 115.607 15.112C114.864 14.5399 114.254 13.8197 113.78 12.948C113.305 12.0764 113.066 11.0432 113.066 9.84851C113.066 8.6538 113.302 7.62399 113.78 6.74899C114.254 5.87736 114.864 5.1538 115.607 4.58505C116.351 4.01294 117.176 3.58553 118.077 3.29947C118.979 3.01342 119.868 2.87207 120.736 2.87207ZM120.736 5.25813C120.134 5.25813 119.531 5.36246 118.932 5.56774C118.33 5.7764 117.788 6.07255 117.307 6.46294C116.822 6.85332 116.432 7.3312 116.132 7.90332C115.829 8.47544 115.681 9.12159 115.681 9.84851C115.681 10.5754 115.833 11.225 116.132 11.7937C116.432 12.3658 116.826 12.8437 117.307 13.2341C117.788 13.6211 118.333 13.9206 118.932 14.1293C119.535 14.3379 120.134 14.4389 120.736 14.4389C121.339 14.4389 121.938 14.3346 122.54 14.1293C123.142 13.9206 123.684 13.6245 124.165 13.2341C124.647 12.8437 125.04 12.3658 125.34 11.7937C125.639 11.2216 125.791 10.5754 125.791 9.84851C125.791 9.12159 125.639 8.47544 125.34 7.90332C125.04 7.3312 124.647 6.85332 124.165 6.46294C123.684 6.07255 123.139 5.7764 122.54 5.56774C121.938 5.35909 121.335 5.25813 120.736 5.25813Z" fill="#231816"/>
<path d="M134.322 3.02816C134.322 3.02816 136.906 6.94547 137.253 7.46373C137.596 7.982 137.876 8.42287 138.091 8.78633L142.012 3.02816H145.064V3.49595C144.933 3.49595 144.808 3.50941 144.694 3.53633C144.579 3.56325 144.458 3.62383 144.337 3.71806C144.213 3.81229 144.081 3.95027 143.943 4.132C143.802 4.31374 143.634 4.55941 143.439 4.87239L139.249 11.1219V15.7392C139.249 16.0522 139.437 16.207 139.814 16.207V16.6748H136.321V11.1253L131.098 3.03152H134.322V3.02816Z" fill="#231816"/>
<path d="M152.532 3.02816H155.655V3.49595C155.541 3.5296 155.427 3.57672 155.309 3.63729C155.194 3.69787 155.137 3.82239 155.137 4.01422C155.137 4.1522 155.164 4.29018 155.225 4.42816C155.282 4.56614 155.369 4.74787 155.484 4.97335L160.609 15.5306C160.69 15.7224 160.801 15.8604 160.943 15.9445C161.081 16.032 161.242 16.1195 161.424 16.2036V16.6714H158.048L156.349 13.2993H150.338L149.45 15.1402C149.285 15.5036 149.204 15.7628 149.204 15.9176C149.204 16.1094 149.359 16.2036 149.672 16.2036V16.6714H146.232L152.536 3.02816H152.532ZM155.46 11.381L153.391 6.55845L151.075 11.381H155.46Z" fill="#231816"/>
<path d="M79.0399 27.8837H75.2976C75.2606 27.8972 75.2202 27.9073 75.1765 27.9073C74.9544 28.5635 74.6481 29.2669 74.2611 29.9299H78.5755V33.8707H78.0404V33.3828H74.2241V33.8775H73.7058V30.7712C73.3255 31.2895 72.888 31.7573 72.4 32.1443C72.3159 32.0299 72.1409 31.838 72.0332 31.7404C73.2616 30.8082 74.1399 29.3039 74.6077 27.8837H72.3327V27.3789H79.0433V27.8837H79.0399ZM78.0371 32.8779V30.4279H74.2207V32.8779H78.0371Z" fill="#231816"/>
<path d="M94.7861 28.1769C94.7559 28.2442 94.6953 28.298 94.5943 28.298C94.3184 30.674 93.5241 32.7437 92.2587 32.7437C91.616 32.7437 91.0371 32.1009 91.0371 30.8961C91.0371 29.062 92.464 27.5273 94.4732 27.5273C96.6809 27.5273 97.6333 28.924 97.6333 30.4148C97.6333 32.2322 96.5799 33.1105 94.7323 33.5379C94.665 33.4168 94.5337 33.2081 94.4126 33.0735C96.1693 32.737 97.0712 31.8822 97.0712 30.4384C97.0712 29.1797 96.2602 28.0322 94.4765 28.0322C94.3991 28.0322 94.315 28.0389 94.2477 28.049L94.7895 28.1802L94.7861 28.1769ZM94.0559 28.0759C92.5145 28.2677 91.5587 29.5432 91.5587 30.8793C91.5587 31.6971 91.9087 32.2086 92.2756 32.2086C93.201 32.2086 93.864 30.1692 94.0559 28.0759Z" fill="#231816"/>
<path d="M114.271 28.3756C114.355 28.3688 114.422 28.3587 114.499 28.3587C115.331 28.3587 116.155 28.8568 116.155 29.8866C116.155 30.9164 115.475 31.4583 114.429 31.4583C113.978 31.4583 113.382 31.29 112.901 30.9097C112.955 30.7953 113.015 30.5967 113.052 30.452C113.497 30.7953 114.022 30.9568 114.425 30.9568C115.142 30.9568 115.593 30.5664 115.593 29.8799C115.593 29.3145 115.203 28.8703 114.395 28.8703C113.752 28.8703 112.746 29.2001 111.885 29.503C112.245 30.7179 112.733 32.4578 113.029 33.602L112.44 33.7333C112.204 32.6328 111.699 30.8155 111.37 29.6948C110.882 29.8698 110.195 30.0986 109.781 30.2535C109.774 30.3208 109.721 30.3914 109.65 30.4217L109.404 29.8092C109.892 29.6578 110.663 29.4054 111.222 29.2068C110.993 28.4294 110.777 27.7395 110.643 27.2986L111.43 27.1539C111.437 27.2515 111.4 27.2919 111.269 27.3592C111.437 27.9482 111.575 28.4429 111.743 29.0251C112.568 28.7424 113.345 28.49 113.941 28.4059C113.598 28.0155 112.995 27.4972 112.574 27.2448L112.924 26.9015C113.436 27.191 114.116 27.7631 114.476 28.2006L114.261 28.3756H114.271Z" fill="#231816"/>
<path d="M133.949 30.1454L134.11 30.132L134.511 30.1791C134.511 30.2632 134.501 30.3473 134.501 30.4449C134.363 33.5478 134.238 34.6416 133.939 35.0151C133.686 35.3146 133.491 35.3517 132.667 35.3517C132.391 35.3517 132.081 35.3517 131.761 35.3281C131.738 35.0993 131.657 34.7997 131.556 34.6079C132.142 34.6685 132.714 34.6685 132.909 34.6685C133.114 34.6685 133.219 34.6449 133.309 34.5372C133.528 34.2983 133.653 33.3594 133.757 30.8824H131.755C131.492 32.5315 130.977 34.2512 129.806 35.3449C129.692 35.1767 129.453 34.9478 129.268 34.8166C130.779 33.4469 131.112 30.7512 131.236 28.7084H129.931V24.7507H134.487V28.7084H132.004C131.957 29.1526 131.923 29.6473 131.856 30.1521H133.952L133.949 30.1454ZM130.641 25.4911V27.968H133.744V25.4911H130.641ZM135.726 25.6594L136.698 25.7199C136.688 25.8041 136.631 25.8646 136.48 25.8882V32.3834H135.722V25.6594H135.726ZM138.6 24.4209L139.586 24.4815C139.576 24.5791 139.519 24.6262 139.367 24.6497V34.2579C139.367 34.8334 139.206 35.0892 138.862 35.2204C138.495 35.3651 137.866 35.3752 136.803 35.3752C136.756 35.1598 136.631 34.7863 136.507 34.5574C136.931 34.5709 137.321 34.5709 137.641 34.5709C138.556 34.5709 138.603 34.5709 138.603 34.2579V24.4209H138.6Z" fill="#231816"/>
<path d="M152.64 28.9677C152.64 29.5196 152.63 30.159 152.583 30.8321C153.67 29.7249 154.633 28.0422 155.114 26.622L156.053 26.9115C156.006 26.9956 155.928 27.0326 155.8 27.0326C155.548 27.6687 155.205 28.3922 154.804 29.0889L155.228 29.2437C155.205 29.3042 155.137 29.3749 154.999 29.3884V35.3788H154.266V29.9302C153.865 30.5191 153.418 31.0845 152.95 31.5422C152.859 31.411 152.697 31.2191 152.573 31.061C152.459 32.5518 152.183 34.1773 151.553 35.4023C151.405 35.2576 151.085 35.0288 150.9 34.9446C151.806 33.1879 151.886 30.7345 151.886 28.9677V25.5754H156.285V24.1922L157.305 24.2629C157.295 24.347 157.237 24.4076 157.076 24.4312V25.572H161.552V26.3292H152.644V28.9643L152.64 28.9677ZM161.582 28.5336V29.2908H160.266V34.3422C160.266 35.3283 159.933 35.4124 157.85 35.3889C157.816 35.1735 157.702 34.8369 157.587 34.6081C158.035 34.6215 158.459 34.6316 158.779 34.6316C159.442 34.6316 159.512 34.6316 159.512 34.3422V29.2908H155.871V28.5336H159.512V26.6927L160.485 26.7533C160.475 26.8509 160.418 26.898 160.266 26.9216V28.5336H161.582ZM157.574 32.959C157.322 32.286 156.726 31.2393 156.177 30.4821L156.797 30.2062C157.382 30.9533 157.964 31.9629 158.227 32.6225L157.574 32.959Z" fill="#231816"/>
</g>
<defs>
<linearGradient id="paint0_linear_4418_16235" x1="2.187" y1="9.64793" x2="5.02087" y2="6.03246" gradientUnits="userSpaceOnUse">
<stop stop-color="#E60012"/>
<stop offset="0.08" stop-color="#E10213"/>
<stop offset="1" stop-color="#B81C22"/>
</linearGradient>
<linearGradient id="paint1_linear_4418_16235" x1="2.46847" y1="8.88244" x2="5.28574" y2="5.28815" gradientUnits="userSpaceOnUse">
<stop stop-color="#E60012"/>
<stop offset="0.08" stop-color="#E10213"/>
<stop offset="1" stop-color="#B81C22"/>
</linearGradient>
<linearGradient id="paint2_linear_4418_16235" x1="7.9009" y1="12.8348" x2="10.7265" y2="9.22988" gradientUnits="userSpaceOnUse">
<stop stop-color="#E60012"/>
<stop offset="0.08" stop-color="#E10213"/>
<stop offset="1" stop-color="#B81C22"/>
</linearGradient>
<linearGradient id="paint3_linear_4418_16235" x1="6.11928" y1="8.60396" x2="14.1237" y2="14.8779" gradientUnits="userSpaceOnUse">
<stop stop-color="#E60012"/>
<stop offset="0.08" stop-color="#E10213"/>
<stop offset="1" stop-color="#B81C22"/>
</linearGradient>
<clipPath id="clip0_4418_16235">
<rect width="161.7" height="35" fill="white" transform="translate(0 0.5)"/>
</clipPath>
</defs>
</svg>
