<svg width="231" height="50" viewBox="0 0 231 50" fill="none" xmlns="http://www.w3.org/2000/svg">
<g clip-path="url(#clip0_4413_12367)">
<mask id="mask0_4413_12367" style="mask-type:luminance" maskUnits="userSpaceOnUse" x="0" y="4" width="5" height="21">
<path d="M0.36031 24.1263L1.18243 24.1407L1.99493 24.1503L2.81223 24.1119L3.62954 24.1263L4.47089 24.1407L4.46608 23.3378L4.4805 22.5638L4.44685 21.7849L4.43243 21.0109L4.39877 20.2369L4.47089 19.4628L4.45646 18.6936V17.9195L4.47089 17.1503L4.45166 16.3715L4.40839 15.5974L4.47569 14.8234L4.44204 14.0494L4.39877 13.2705L4.43243 12.4917L4.48531 11.7176L4.47569 10.9388L4.4805 10.1599L4.40358 9.38108L4.48531 8.60224L4.40839 7.8282L4.418 7.04455L4.46127 6.2657L4.418 5.48205L4.46127 4.67916L3.63435 4.66474L2.82185 4.71282H2.00935L1.19204 4.66955L0.341079 4.65993L0.369926 5.47243L0.365118 6.24647L0.355502 7.02051L0.393964 7.79936L0.403579 8.57339L0.341079 9.34743L0.36031 10.1167V10.8859L0.355502 11.6599L0.413195 12.434L0.418003 13.2128L0.389156 13.9869L0.42281 14.7609L0.403579 15.5349L0.331464 16.3138L0.374733 17.0926L0.365118 17.8715L0.345887 18.6503L0.413195 19.4292L0.379541 20.2032L0.413195 20.982L0.345887 21.7609L0.326656 22.5445L0.355502 23.3282L0.36031 24.1263Z" fill="white"/>
</mask>
<g mask="url(#mask0_4413_12367)">
<path d="M1.91006 2.64306L-9.1348 16.7341L2.90544 26.1715L13.9503 12.0804L1.91006 2.64306Z" fill="url(#paint0_linear_4413_12367)"/>
</g>
<mask id="mask1_4413_12367" style="mask-type:luminance" maskUnits="userSpaceOnUse" x="0" y="0" width="25" height="4">
<path d="M4.44224 0.202917L3.63455 0.116379L2.82205 0.217341L2.00955 0.15484L1.19224 0.116379L0.355701 0.150032L0.374933 1.01061L0.398971 1.85676L0.384547 2.70772V3.54426L1.17301 3.60676L1.97109 3.56349L2.76436 3.50099L3.56243 3.51061L4.3557 3.60196L5.15378 3.58273L5.95185 3.57311L6.74993 3.60676L7.54801 3.61638L8.34128 3.54907L9.13935 3.54426H9.93262L10.7211 3.57792L11.5144 3.54907L12.3124 3.57792L13.1153 3.58753L13.9086 3.52503L14.7067 3.61638L15.5047 3.51061L16.3028 3.54907L17.1009 3.62119L17.9038 3.52023L18.7019 3.57311L19.5047 3.55388L20.3028 3.53946L21.1009 3.52503L21.9038 3.55869L22.7067 3.55388L23.5144 3.54907L24.3605 3.60676L24.3028 2.72215L24.2836 1.87119L24.2644 1.02023L24.2836 0.19811L23.5288 0.178879L22.7355 0.212533L21.9374 0.116379L21.1442 0.188494L20.3509 0.226955L19.5576 0.19811H18.7692L17.9807 0.217341L17.1922 0.13561L16.399 0.145225L15.6009 0.217341L14.8076 0.193302L14.0192 0.222148L13.2211 0.169264H12.4278L11.6297 0.217341L10.8365 0.164456L10.0384 0.193302L9.24032 0.15484L8.44224 0.183686L7.64897 0.174071L6.85089 0.121187H6.04801L5.24512 0.13561L4.44224 0.202917Z" fill="white"/>
</mask>
<g mask="url(#mask1_4413_12367)">
<path d="M9.49335 -11.5389L-1.3439 2.28733L15.2256 15.2748L26.0629 1.4486L9.49335 -11.5389Z" fill="url(#paint1_linear_4413_12367)"/>
</g>
<mask id="mask2_4413_12367" style="mask-type:luminance" maskUnits="userSpaceOnUse" x="5" y="4" width="20" height="21">
<path d="M24.3175 4.67932L23.5387 4.65528L22.7598 4.64086L21.981 4.6649H21.2022H20.4233L19.6493 4.70336L18.8752 4.67452L18.1012 4.70817L17.3223 4.66971H16.5387L15.7598 4.7274L14.981 4.65528L14.2022 4.67452L13.4185 4.66009H12.6397L11.8608 4.65528H11.0772L10.2935 4.69855L9.50985 4.65048L8.731 4.70336L7.94735 4.73701L7.1637 4.7274L6.37523 4.71298H5.58677L5.63004 5.48221L5.59639 6.25624L5.5435 7.03028L5.57235 7.80432L5.54831 8.57836L5.56754 9.3524L5.57716 10.1216L5.61562 10.8909L5.59639 11.6601L5.58196 12.4341L5.63485 13.213L5.55793 13.987L5.58677 14.7611L5.56273 15.5351L5.63485 16.3139L5.58196 17.0928L5.62043 17.8668L5.58196 18.6457L5.62043 19.4245L5.61081 20.2034L5.62043 20.9774L5.61081 21.7562V22.5351L5.55793 23.3187L5.59158 24.1024L6.37043 24.1216L7.14927 24.0736L7.92812 24.0639H8.70696H9.48581L10.2598 24.1409L11.0339 24.1024L11.8079 24.1553L12.5868 24.0639L13.3656 24.0976L14.1445 24.1312L14.9233 24.112L15.7022 24.1361H16.4858H17.2647L18.0435 24.1601L18.8272 24.1361L19.6108 24.1601L20.3945 24.088L21.1733 24.0784L21.957 24.1264H22.7406L23.5291 24.0976L24.3368 24.1312L24.3608 23.338L24.3127 22.5639L24.356 21.7899L24.2887 21.0159L24.3223 20.2418L24.3079 19.4678L24.3464 18.6986L24.3031 17.9293L24.3175 17.1553L24.2887 16.3812L24.3031 15.6024V14.8284L24.3416 14.0543L24.2935 13.2803V12.5014L24.2983 11.7274L24.3272 10.9534L24.2647 10.1745L24.3223 9.39567L24.2983 8.61682L24.2695 7.84278V7.06394L24.2743 6.28509L24.2647 5.50144L24.332 4.71778H24.3031V4.68894L24.3175 4.67932ZM20.5195 21.9534L19.7454 21.9293L18.9714 21.9101L18.1973 21.9293H17.4233H16.6493L15.8752 21.9678L15.1012 21.9389L14.3272 21.9678L13.5483 21.9293H12.7743L12.0002 21.9822L11.2262 21.9101L10.4473 21.9245L9.6685 21.9101H8.88485H8.13004L8.14927 21.1697L8.10119 20.4101L8.14927 19.6505L8.09639 18.8909L8.06754 18.1264L8.07716 17.362L8.09639 16.5976L8.106 15.8332L8.06273 15.0687L8.09639 14.3043L8.14927 13.5399L8.12043 12.7707L8.14446 12.0014L8.12523 11.2322L8.11081 10.4678L8.89446 10.4341L9.68773 10.4534L10.4858 10.4678L11.2791 10.4149L12.0723 10.4918L12.8656 10.463L13.6637 10.487L14.4618 10.4149L15.2598 10.4678L16.0579 10.4293L16.856 10.4678L17.6541 10.4293L18.4473 10.4389L19.2454 10.4293L20.0483 10.4389H20.8512L21.63 10.4822L21.6541 11.2466L21.6348 12.0399L21.6829 12.8332L21.6925 13.6264V14.4197L21.6973 15.213L21.6204 16.0062L21.6589 16.7995L21.606 17.5928L21.6973 18.3909L21.6637 19.1889L21.63 19.987L21.6493 20.7851L21.6348 21.9101L20.5195 21.9486V21.9534Z" fill="white"/>
</mask>
<g mask="url(#mask2_4413_12367)">
<path d="M12.7047 -4.49604L-3.93378 16.7314L17.1991 33.2957L33.8375 12.0683L12.7047 -4.49604Z" fill="url(#paint2_linear_4413_12367)"/>
</g>
<mask id="mask3_4413_12367" style="mask-type:luminance" maskUnits="userSpaceOnUse" x="9" y="11" width="12" height="10">
<path d="M9.23541 11.5916L9.2258 12.3609L9.25465 13.1301L9.23061 13.8945L9.25945 14.6541L9.21618 15.4234L9.23541 16.1878L9.22099 16.9522L9.2258 17.7166L9.24503 18.4811L9.25465 19.2503L9.25945 20.0195L9.24022 20.7936L10.0431 20.7695L10.8412 20.7936L11.6441 20.8176L12.4518 20.7984L13.2546 20.7791L14.0575 20.7647L14.8652 20.7743L15.6729 20.7791L16.4758 20.8176L17.2787 20.808L18.0864 20.7936L18.8941 20.8128L19.7066 20.7887L20.4998 20.7695L20.5287 20.0291L20.5383 19.2647L20.5046 18.5003L20.5191 17.7359L20.495 16.9714L20.5335 16.207L20.4998 15.4426L20.5143 14.6782L20.4998 13.9089L20.5287 13.1397L20.5191 12.3705L20.5143 11.6061H19.7162L18.9133 11.6205L18.1152 11.5724L17.3075 11.6157L16.5046 11.6253L15.7018 11.6061L14.8941 11.6301L14.0864 11.6061L13.2835 11.582L12.4806 11.5916L11.6729 11.5772L10.8652 11.5916L10.0527 11.6253L9.23541 11.5916Z" fill="white"/>
</mask>
<g mask="url(#mask3_4413_12367)">
<path d="M13.5229 6.07897L4.72619 17.3019L16.2291 26.3181L25.0259 15.0952L13.5229 6.07897Z" fill="url(#paint3_linear_4413_12367)"/>
</g>
<path d="M42.9758 22.4324C43.5863 22.4324 43.8892 22.2112 43.8892 21.7641V4.94201C43.8892 4.4997 43.5815 4.27374 42.9758 4.27374V3.60547H48.8171V4.27374C48.2065 4.27374 47.9037 4.49489 47.9037 4.94201V21.7641C47.9037 22.2064 48.2113 22.4324 48.8171 22.4324V23.1007H42.9758V22.4324Z" fill="white"/>
<path d="M60.019 17.73C60.019 17.73 60.9421 18.2733 61.4998 18.5954C61.9854 18.8742 62.8363 19.1723 63.4565 19.3935C64.0767 19.6146 64.7306 19.7973 65.4085 19.9319C66.0912 20.0666 66.6969 20.1339 67.2402 20.1339C67.6392 20.1339 68.1537 20.105 68.7883 20.0425C69.4229 19.98 70.0431 19.8502 70.6537 19.6531C71.2642 19.456 71.7931 19.1819 72.2354 18.8358C72.6825 18.4896 72.9037 18.0329 72.9037 17.4656C72.9037 16.8983 72.6969 16.48 72.2883 16.206C71.8796 15.9367 71.3363 15.7396 70.6681 15.6146C69.9998 15.4896 69.2354 15.4127 68.3796 15.3742C67.5238 15.3358 66.6488 15.2829 65.7594 15.206C64.8652 15.1339 63.995 15.0089 63.1392 14.8358C62.2835 14.6627 61.519 14.3742 60.8508 13.9656C60.1825 13.5569 59.6392 13.0041 59.2306 12.2973C58.8171 11.5954 58.6152 10.6723 58.6152 9.53771C58.6152 8.77329 58.7835 8.01848 59.1248 7.2781C59.4661 6.53771 59.9854 5.88387 60.6921 5.31656C61.394 4.74925 62.2883 4.28771 63.3652 3.92713C64.4469 3.57136 65.7113 3.38867 67.1681 3.38867C68.4133 3.38867 69.4902 3.48483 70.4085 3.68675C71.3219 3.88386 72.1152 4.0954 72.7835 4.31656C73.4517 4.53771 74.0142 4.74925 74.471 4.94636C74.9277 5.14348 76.3892 5.98963 76.3892 5.98963L74.7883 9.04252C74.7883 9.04252 73.471 8.35502 73.0527 8.13386C72.5623 7.87425 71.8027 7.53771 71.2162 7.31656C70.6296 7.0954 69.995 6.91271 69.3171 6.77809C68.6344 6.64348 67.9565 6.57617 67.2738 6.57617C66.7594 6.57617 66.2258 6.61944 65.6729 6.70598C65.12 6.79252 64.62 6.92233 64.1777 7.0954C63.7306 7.26848 63.3604 7.49444 63.0671 7.7829C62.7738 8.06656 62.6296 8.41752 62.6296 8.84059C62.6296 9.43194 62.8363 9.87906 63.245 10.1723C63.6537 10.4704 64.1969 10.6916 64.8652 10.8406C65.5335 10.9896 66.2979 11.0906 67.1536 11.1387C68.0094 11.1867 68.8844 11.2492 69.7787 11.3262C70.6681 11.3983 71.5431 11.5281 72.3988 11.7156C73.2546 11.8983 74.019 12.1964 74.6873 12.605C75.3556 13.0137 75.894 13.5617 76.3075 14.2541C76.721 14.9464 76.9229 15.8454 76.9229 16.9608C76.9229 18.2444 76.6008 19.2925 75.9565 20.1098C75.3123 20.9271 74.5046 21.5666 73.5431 22.0377C72.5815 22.5089 71.5431 22.8214 70.4277 22.98C69.3123 23.1387 68.2738 23.2204 67.3123 23.2204C65.9758 23.2204 64.8556 23.1387 63.9517 22.98C63.0479 22.8214 62.2979 22.6242 61.6969 22.3887C61.1008 22.1531 60.6248 21.9416 60.2738 21.7589C59.9229 21.5762 58.7306 20.7348 58.7306 20.7348L60.0238 17.7396L60.019 17.73Z" fill="white"/>
<path d="M101.606 3.61133H106.255V4.2796C106.091 4.2796 105.942 4.33729 105.812 4.44787C105.683 4.55844 105.62 4.72671 105.62 4.94787V21.77C105.62 21.9911 105.683 22.1594 105.812 22.27C105.942 22.3806 106.086 22.4382 106.255 22.4382V23.1065H101.606V14.8084H90.2691V21.7748C90.2691 21.9959 90.3364 22.1642 90.4614 22.2748C90.5912 22.3854 90.7355 22.4431 90.9037 22.4431V23.1113H86.2547V3.61133H90.9037V4.2796C90.7403 4.2796 90.5912 4.33729 90.4614 4.44787C90.3316 4.55844 90.2691 4.72671 90.2691 4.94787V11.2459H101.606V3.61133Z" fill="white"/>
<path d="M116.553 22.4324C117.163 22.4324 117.466 22.2112 117.466 21.7641V4.94201C117.466 4.4997 117.159 4.27374 116.553 4.27374V3.60547H122.394V4.27374C121.784 4.27374 121.481 4.49489 121.481 4.94201V21.7641C121.481 22.2064 121.788 22.4324 122.394 22.4324V23.1007H116.553V22.4324Z" fill="white"/>
<path d="M133.471 3.61133H137.533L149.346 16.7267V3.61133H153.745V4.2796C153.298 4.2796 153.077 4.50075 153.077 4.94787V21.77C153.077 22.2171 153.298 22.4382 153.745 22.4382V23.1065H149.586C149.586 23.1065 148.312 21.6498 147.937 21.2556L137.202 9.47191V21.7748C137.202 22.2219 137.471 22.4431 138.009 22.4431V23.1113H133.466V3.61133H133.471Z" fill="white"/>
<path d="M172.481 3.38867C173.726 3.38867 174.99 3.5906 176.279 3.99925C177.567 4.4079 178.745 5.01848 179.808 5.83579C180.87 6.64829 181.74 7.68194 182.418 8.92713C183.096 10.1771 183.437 11.6483 183.437 13.355C183.437 15.0617 183.101 16.5377 182.418 17.7829C181.74 19.0281 180.87 20.0617 179.808 20.8742C178.745 21.6916 177.567 22.2829 176.279 22.6531C174.99 23.0233 173.721 23.2108 172.481 23.2108C171.24 23.2108 169.971 23.0233 168.683 22.6531C167.394 22.2829 166.216 21.6916 165.154 20.8742C164.091 20.0569 163.221 19.0281 162.543 17.7829C161.865 16.5377 161.524 15.0617 161.524 13.355C161.524 11.6483 161.86 10.1771 162.543 8.92713C163.221 7.68194 164.091 6.64829 165.154 5.83579C166.216 5.01848 167.394 4.4079 168.683 3.99925C169.971 3.5906 171.24 3.38867 172.481 3.38867ZM172.481 6.79733C171.62 6.79733 170.759 6.94637 169.904 7.23963C169.043 7.53771 168.269 7.96079 167.582 8.51848C166.889 9.07617 166.332 9.75886 165.904 10.5762C165.471 11.3935 165.259 12.3166 165.259 13.355C165.259 14.3935 165.476 15.3214 165.904 16.1339C166.332 16.9512 166.894 17.6339 167.582 18.1916C168.269 18.7444 169.048 19.1723 169.904 19.4704C170.764 19.7685 171.62 19.9127 172.481 19.9127C173.341 19.9127 174.197 19.7637 175.058 19.4704C175.918 19.1723 176.692 18.7492 177.38 18.1916C178.067 17.6339 178.63 16.9512 179.058 16.1339C179.485 15.3166 179.702 14.3935 179.702 13.355C179.702 12.3166 179.485 11.3935 179.058 10.5762C178.63 9.75886 178.067 9.07617 177.38 8.51848C176.692 7.96079 175.913 7.53771 175.058 7.23963C174.197 6.94156 173.336 6.79733 172.481 6.79733Z" fill="white"/>
<path d="M191.889 3.61133C191.889 3.61133 195.582 9.20748 196.077 9.94787C196.567 10.6883 196.966 11.3181 197.274 11.8373L202.875 3.61133H207.235V4.2796C207.048 4.2796 206.87 4.29883 206.707 4.33729C206.543 4.37575 206.37 4.46229 206.197 4.59691C206.019 4.73152 205.832 4.92864 205.634 5.18825C205.433 5.44787 205.192 5.79883 204.913 6.24594L198.928 15.1738V21.77C198.928 22.2171 199.197 22.4382 199.735 22.4382V23.1065H194.745V15.1786L187.284 3.61614H191.889V3.61133Z" fill="white"/>
<path d="M217.904 3.61133H222.365V4.2796C222.202 4.32767 222.038 4.39498 221.87 4.48152C221.707 4.56806 221.625 4.74594 221.625 5.01998C221.625 5.2171 221.663 5.41421 221.75 5.61133C221.832 5.80844 221.957 6.06806 222.12 6.39017L229.442 21.4719C229.558 21.7459 229.716 21.9431 229.918 22.0632C230.115 22.1882 230.346 22.3133 230.606 22.4334V23.1017H225.784L223.356 18.2844H214.769L213.5 20.9142C213.264 21.4334 213.149 21.8036 213.149 22.0248C213.149 22.2988 213.37 22.4334 213.817 22.4334V23.1017H208.904L217.909 3.61133H217.904ZM222.086 15.544L219.13 8.6546L215.822 15.544H222.086Z" fill="white"/>
<path d="M112.913 39.1196H107.567C107.514 39.1388 107.457 39.1532 107.394 39.1532C107.077 40.0907 106.639 41.0956 106.086 42.0427H112.25V47.6725H111.485V46.9754H106.034V47.6821H105.293V43.2446C104.75 43.985 104.125 44.6532 103.428 45.2061C103.308 45.0427 103.058 44.7686 102.904 44.6292C104.659 43.2975 105.913 41.1484 106.582 39.1196H103.332V38.3984H112.918V39.1196H112.913ZM111.481 46.2542V42.7542H106.029V46.2542H111.481Z" fill="white"/>
<path d="M135.409 39.5382C135.365 39.6344 135.279 39.7113 135.135 39.7113C134.74 43.1055 133.606 46.0623 131.798 46.0623C130.88 46.0623 130.053 45.144 130.053 43.4229C130.053 40.8027 132.091 38.6104 134.962 38.6104C138.115 38.6104 139.476 40.6055 139.476 42.7354C139.476 45.3315 137.971 46.5863 135.332 47.1969C135.236 47.0238 135.048 46.7257 134.875 46.5334C137.385 46.0527 138.673 44.8315 138.673 42.769C138.673 40.9709 137.514 39.3315 134.966 39.3315C134.856 39.3315 134.736 39.3411 134.639 39.3555L135.413 39.543L135.409 39.5382ZM134.365 39.394C132.163 39.668 130.798 41.4902 130.798 43.3988C130.798 44.5671 131.298 45.2979 131.822 45.2979C133.144 45.2979 134.091 42.3844 134.365 39.394Z" fill="white"/>
<path d="M163.245 39.8226C163.365 39.813 163.461 39.7985 163.572 39.7985C164.76 39.7985 165.937 40.5101 165.937 41.9812C165.937 43.4524 164.966 44.2264 163.471 44.2264C162.827 44.2264 161.976 43.986 161.288 43.4428C161.365 43.2793 161.452 42.9956 161.505 42.7889C162.139 43.2793 162.889 43.5101 163.466 43.5101C164.49 43.5101 165.135 42.9524 165.135 41.9716C165.135 41.1639 164.577 40.5293 163.423 40.5293C162.505 40.5293 161.067 41.0005 159.836 41.4331C160.351 43.1687 161.048 45.6543 161.471 47.2889L160.63 47.4764C160.293 45.9043 159.572 43.3081 159.101 41.7072C158.404 41.9572 157.423 42.2841 156.832 42.5053C156.822 42.6014 156.745 42.7024 156.644 42.7456L156.293 41.8706C156.99 41.6543 158.091 41.2937 158.889 41.0101C158.562 39.8995 158.255 38.9139 158.062 38.2841L159.187 38.0774C159.197 38.2168 159.144 38.2745 158.957 38.3706C159.197 39.212 159.394 39.9187 159.635 40.7505C160.812 40.3466 161.923 39.986 162.774 39.8658C162.284 39.3081 161.423 38.5678 160.822 38.2072L161.322 37.7168C162.053 38.1303 163.024 38.9476 163.538 39.5726L163.231 39.8226H163.245Z" fill="white"/>
<path d="M191.356 42.3509L191.586 42.3317L192.159 42.399C192.159 42.5192 192.144 42.6394 192.144 42.7788C191.947 47.2115 191.769 48.774 191.341 49.3077C190.981 49.7355 190.702 49.7884 189.524 49.7884C189.13 49.7884 188.687 49.7884 188.231 49.7548C188.197 49.4279 188.082 49 187.937 48.7259C188.774 48.8125 189.591 48.8125 189.87 48.8125C190.163 48.8125 190.312 48.7788 190.442 48.625C190.755 48.2836 190.933 46.9423 191.082 43.4038H188.221C187.846 45.7596 187.11 48.2163 185.437 49.7788C185.274 49.5384 184.933 49.2115 184.668 49.024C186.827 47.0673 187.303 43.2163 187.481 40.298H185.615V34.6442H192.125V40.298H188.577C188.51 40.9327 188.461 41.6394 188.365 42.3605H191.36L191.356 42.3509ZM186.63 35.7019V39.2404H191.062V35.7019H186.63ZM193.894 35.9423L195.284 36.0288C195.269 36.149 195.187 36.2356 194.971 36.2692V45.548H193.889V35.9423H193.894ZM198 34.173L199.409 34.2596C199.394 34.399 199.312 34.4663 199.096 34.5V48.2259C199.096 49.048 198.865 49.4134 198.375 49.6009C197.851 49.8077 196.952 49.8221 195.433 49.8221C195.365 49.5144 195.187 48.9807 195.01 48.6538C195.615 48.673 196.173 48.673 196.63 48.673C197.937 48.673 198.005 48.673 198.005 48.2259V34.173H198Z" fill="white"/>
<path d="M218.058 40.6686C218.058 41.4571 218.043 42.3705 217.976 43.3321C219.529 41.7503 220.904 39.3465 221.591 37.3177L222.933 37.7311C222.865 37.8513 222.755 37.9042 222.572 37.9042C222.211 38.8128 221.721 39.8465 221.149 40.8417L221.755 41.0628C221.721 41.1494 221.625 41.2503 221.428 41.2696V49.8273H220.38V42.0436C219.808 42.885 219.168 43.6926 218.5 44.3465C218.37 44.159 218.139 43.885 217.961 43.659C217.798 45.7888 217.404 48.1109 216.505 49.8609C216.293 49.6542 215.836 49.3273 215.572 49.2071C216.865 46.6975 216.981 43.1926 216.981 40.6686V35.8225H223.264V33.8465L224.721 33.9475C224.707 34.0677 224.625 34.1542 224.394 34.1878V35.8176H230.788V36.8994H218.062V40.6638L218.058 40.6686ZM230.832 40.0484V41.1302H228.952V48.3465C228.952 49.7551 228.476 49.8753 225.5 49.8417C225.452 49.534 225.288 49.0532 225.125 48.7263C225.764 48.7455 226.37 48.76 226.827 48.76C227.774 48.76 227.875 48.76 227.875 48.3465V41.1302H222.673V40.0484H227.875V37.4186L229.264 37.5052C229.25 37.6446 229.168 37.7119 228.952 37.7455V40.0484H230.832ZM225.106 46.3705C224.745 45.409 223.894 43.9138 223.11 42.8321L223.995 42.4378C224.832 43.5051 225.663 44.9475 226.038 45.8898L225.106 46.3705Z" fill="white"/>
</g>
<defs>
<linearGradient id="paint0_linear_4413_12367" x1="3.12453" y1="13.0669" x2="7.17292" y2="7.90194" gradientUnits="userSpaceOnUse">
<stop stop-color="#E60012"/>
<stop offset="0.08" stop-color="#E10213"/>
<stop offset="1" stop-color="#B81C22"/>
</linearGradient>
<linearGradient id="paint1_linear_4413_12367" x1="3.52735" y1="11.9743" x2="7.55202" y2="6.8396" gradientUnits="userSpaceOnUse">
<stop stop-color="#E60012"/>
<stop offset="0.08" stop-color="#E10213"/>
<stop offset="1" stop-color="#B81C22"/>
</linearGradient>
<linearGradient id="paint2_linear_4413_12367" x1="11.2874" y1="17.6214" x2="15.3239" y2="12.4716" gradientUnits="userSpaceOnUse">
<stop stop-color="#E60012"/>
<stop offset="0.08" stop-color="#E10213"/>
<stop offset="1" stop-color="#B81C22"/>
</linearGradient>
<linearGradient id="paint3_linear_4413_12367" x1="8.74146" y1="11.5771" x2="20.1763" y2="20.5399" gradientUnits="userSpaceOnUse">
<stop stop-color="#E60012"/>
<stop offset="0.08" stop-color="#E10213"/>
<stop offset="1" stop-color="#B81C22"/>
</linearGradient>
<clipPath id="clip0_4413_12367">
<rect width="231" height="50" fill="white"/>
</clipPath>
</defs>
</svg>
