<svg xmlns="http://www.w3.org/2000/svg" xmlns:xlink="http://www.w3.org/1999/xlink" width="190.921" height="60" viewBox="0 0 190.921 60">
  <defs>
    <clipPath id="clip-path">
      <rect id="Rectangle_2321" data-name="Rectangle 2321" width="190.921" height="60" fill="#fff"/>
    </clipPath>
  </defs>
  <g id="Group_4360" data-name="Group 4360" transform="translate(0 0)">
    <g id="Group_4335" data-name="Group 4335" transform="translate(0 0)" clip-path="url(#clip-path)">
      <path id="Path_203987" data-name="Path 203987" d="M18.252,4.368a7.468,7.468,0,1,0,7.468,7.468,7.476,7.476,0,0,0-7.468-7.468m0,13.054a5.586,5.586,0,1,1,5.587-5.587,5.593,5.593,0,0,1-5.587,5.587" transform="translate(4.712 1.909)" fill="#fff"/>
      <rect id="Rectangle_2318" data-name="Rectangle 2318" width="3.64" height="1.882" transform="translate(14.129 31.71)" fill="#fff"/>
      <rect id="Rectangle_2319" data-name="Rectangle 2319" width="3.64" height="1.882" transform="translate(17.878 37.567)" fill="#fff"/>
      <path id="Path_203988" data-name="Path 203988" d="M61.566,5.509a6.564,6.564,0,0,1,2.545.592l.782-1.711A8.454,8.454,0,0,0,53.18,10.012a6.579,6.579,0,0,1,2.565-6.879L54.652,1.6a8.457,8.457,0,0,0-3.431,8.16,8.459,8.459,0,0,0-9.512-.129L42.747,11.2a6.58,6.58,0,0,1,7.337.059A8.454,8.454,0,0,0,40.655,20.2l1.878-.121a6.568,6.568,0,0,1,7.929-6.845c-1.836,1.066-3.811,3.109-2.387,7.057l1.77-.639c-1.147-3.178.461-4.513,3.23-5.541l-.135-.359A28.108,28.108,0,0,1,16.8,54.818c5.729-.253,16.677-1.47,18.056-7.032.624-2.515-.964-4.489-2.24-6.077-.908-1.129-1.766-2.2-1.64-3.131a3.733,3.733,0,0,1,1.762-2.164c1.29-.927,5.377-1.806,9.328-2.655,2.717-.585,5.526-1.19,7.857-1.882a12.625,12.625,0,0,0,5.7-3.49.942.942,0,0,0-.718-1.549H2.065A28.155,28.155,0,0,1,30,1.881V0A30,30,0,1,0,55.054,13.5c1.844-1.994,3.61-2.822,6.045-.721l1.227-1.425c-3.177-2.74-5.791-1.627-7.442-.293a6.56,6.56,0,0,1,6.682-5.552M3.519,39.449H14.832V37.567H2.924a27.757,27.757,0,0,1-.806-3.976h8.965V31.709H1.938c-.033-.565-.057-1.134-.057-1.708,0-.43.014-.855.034-1.28H52.31a11.27,11.27,0,0,1-2.92,1.354c-2.26.671-5.035,1.269-7.716,1.845-4.519.973-8.422,1.812-10.031,2.969a5.332,5.332,0,0,0-2.528,3.437c-.237,1.736.92,3.174,2.039,4.565,1.17,1.457,2.278,2.835,1.878,4.444C32.467,49.61,28.9,51.376,23,52.3a64.39,64.39,0,0,1-9.142.7A28.253,28.253,0,0,1,3.519,39.449M53.936,11.857l.073,0-.043.045c-.01-.016-.02-.03-.03-.047m-2.394.772.033.045-.056.026Z" transform="translate(0 0)" fill="#fff"/>
      <path id="Path_203989" data-name="Path 203989" d="M58.919,21.663V19.909a4.287,4.287,0,0,0,2.387.734c1.711,0,2.431-.856,2.431-1.711,0-.72-.435-1.3-1.381-1.756l-1.292-.631a3.158,3.158,0,0,1-2.115-2.806c0-1.8,1.576-3.076,4.082-3.076a4.446,4.446,0,0,1,2.012.391v1.754a4.138,4.138,0,0,0-1.982-.509c-1.411,0-2.191.585-2.191,1.44,0,.57.345.976,1.155,1.367l1.292.615a3.355,3.355,0,0,1,2.236,3.151c0,1.772-1.246,3.437-4.157,3.437a4.665,4.665,0,0,1-2.477-.645" transform="translate(25.743 4.659)" fill="#fff"/>
      <path id="Path_203990" data-name="Path 203990" d="M81.756,10.766V22.023H79.91V16.9H73.666v5.118H71.82V10.766h1.846v4.427H79.91V10.766Z" transform="translate(31.38 4.704)" fill="#fff"/>
      <path id="Path_203991" data-name="Path 203991" d="M86.006,16.486a5.809,5.809,0,1,1,11.618,0,5.809,5.809,0,1,1-11.618,0m9.757,0a3.945,3.945,0,1,0-7.88,0,3.943,3.943,0,1,0,7.88,0" transform="translate(37.578 4.659)" fill="#fff"/>
      <path id="Path_203992" data-name="Path 203992" d="M111.548,10.789V22.106h-.3L103.4,14.6v7.445h-1.815V10.714h.269l7.866,7.415v-7.34Z" transform="translate(44.383 4.682)" fill="#fff"/>
      <rect id="Rectangle_2320" data-name="Rectangle 2320" width="1.816" height="11.257" transform="translate(167.837 15.471)" fill="#fff"/>
      <path id="Path_203993" data-name="Path 203993" d="M135.9,10.789V22.106h-.3l-7.85-7.505v7.445h-1.815V10.714h.269l7.866,7.415v-7.34Z" transform="translate(55.023 4.682)" fill="#fff"/>
      <path id="Path_203994" data-name="Path 203994" d="M81.1,32.162c0,2.687-1.921,4.322-5.134,4.322a9.128,9.128,0,0,1-1.635-.119V39.4H72.483V28.14H76.34c3.018,0,4.759,1.681,4.759,4.022m-1.937.016c0-1.276-.81-2.372-2.957-2.372H74.329V34.73a11.184,11.184,0,0,0,1.621.1c2.357,0,3.212-1.065,3.212-2.655" transform="translate(31.669 12.295)" fill="#fff"/>
      <path id="Path_203995" data-name="Path 203995" d="M93.655,37.116H89l-.976,2.326H85.97l5.238-11.408h.24l5.239,11.408H94.63Zm-2.326-5.538-1.667,3.947h3.318Z" transform="translate(37.562 12.249)" fill="#fff"/>
      <path id="Path_203996" data-name="Path 203996" d="M108.86,39.4l-2.191-3.587a9.66,9.66,0,0,1-1.185.075,8.814,8.814,0,0,1-1.726-.151V39.4h-1.846V28.139h4.2c2.972,0,4.578,1.381,4.578,3.693a3.567,3.567,0,0,1-2.267,3.526l2.507,4.038Zm-.1-7.534c0-1.247-.675-2.056-2.792-2.056h-2.206v4.322a8.817,8.817,0,0,0,1.711.135c2.311,0,3.286-.855,3.286-2.4" transform="translate(44.527 12.295)" fill="#fff"/>
      <path id="Path_203997" data-name="Path 203997" d="M123.84,39.4l-5.1-5.733V39.4h-1.846V28.14h1.846v4.982l4.907-4.982h2.342l-5.134,5.193,5.374,6.064Z" transform="translate(51.072 12.295)" fill="#fff"/>
    </g>
  </g>
</svg>
