<svg width="254" height="100" viewBox="0 0 254 100" fill="none" xmlns="http://www.w3.org/2000/svg">
<g clip-path="url(#clip0_1968_10159)">
<path d="M36.3891 59.7544C36.3891 58.8089 35.5072 58.0116 34.4629 58.0116C33.9126 58.0116 33.4187 58.188 32.9671 58.3856C28.7549 60.1424 23.8653 61.1655 17.5576 61.603C16.6897 61.6665 15.7584 62.2592 15.7584 63.1058C15.7584 64.3053 17.1272 64.7286 18.2913 64.7286C21.9956 64.7286 25.9256 63.882 28.642 63.2117C25.2412 68.4117 15.9771 74.9805 10.516 74.9805C6.88939 74.9805 4.72329 72.9062 4.72329 69.4277C4.72329 63.2117 7.69373 55.775 12.668 49.5378C17.741 43.1806 23.9853 39.3776 29.3546 39.3776C31.3584 39.3776 34.724 39.8856 34.724 43.2865C34.724 43.858 34.5335 44.4295 34.3642 44.9304C34.2301 45.3326 34.1172 45.6783 34.1172 45.9606C34.1172 46.5673 34.8369 46.9766 35.3167 46.9766C37.257 46.9766 37.9132 43.985 37.9132 42.6162C37.9132 38.8837 34.7804 37.3385 32.9178 36.7459C31.8171 36.4142 30.6105 36.252 29.2417 36.252C21.7275 36.252 14.3755 40.8029 8.54041 49.065C3.94717 55.5563 0.743896 63.9243 0.743896 69.4207C0.743896 74.917 4.75152 78.459 10.2691 78.459C14.6577 78.459 19.9565 76.1235 26.0173 71.5091C25.8974 71.9395 25.7774 72.384 25.6504 72.8215C25.0013 75.1216 24.331 77.5065 24.331 79.6302C24.331 80.6392 25.3894 81.3165 26.3771 81.3165C27.753 81.3165 28.9101 79.8772 28.9101 78.1767C28.9101 78.078 28.896 77.9792 28.8819 77.8875C28.8678 77.7957 28.8537 77.7111 28.8537 77.6335C28.8537 73.5059 32.0076 63.8608 34.5123 61.5042C35.098 61.3701 36.3891 60.9538 36.3891 59.7685V59.7544Z" fill="#ED7C9F"/>
<path d="M61.5426 58.9571C61.719 58.6184 62.1 57.7788 61.7543 57.2073C61.5426 56.8545 61.1122 56.6781 60.4772 56.6781C59.7928 56.6781 59.2425 57.0309 58.805 57.7647C58.2688 58.7242 58.1347 59.0629 57.9372 59.578C57.8172 59.8814 57.6761 60.2624 57.4009 60.8762C57.3022 61.0949 57.3092 61.3137 57.4221 61.5112C57.662 61.9275 58.2829 62.1392 58.6427 62.1815C58.678 62.1815 58.7133 62.1815 58.7486 62.1815C59.6517 62.1815 60.2585 61.3419 61.5356 58.9641L61.5426 58.9571Z" fill="#ED7C9F"/>
<path d="M57.6125 64.1502C57.041 63.8892 56.1873 64.1361 55.644 65.1169C54.7902 66.6903 54.1552 68.1931 53.5485 69.823C53.492 69.8371 53.4426 69.8653 53.4003 69.9006C51.848 71.6928 47.7699 73.8165 45.8789 73.8165C45.4556 73.8165 45.1522 73.6683 44.9405 73.365C43.9245 71.8762 45.632 67.1912 46.1753 65.7942C46.1964 65.7378 46.2106 65.7025 46.2176 65.6743C46.2811 65.3285 46.2106 65.0251 46.013 64.7923C45.7661 64.496 45.3357 64.3408 44.7783 64.3408C44.2491 64.3408 43.7411 64.63 43.2048 64.9334C42.6757 65.2368 42.1183 65.5543 41.5538 65.5543C40.9894 65.5543 40.686 64.9123 40.686 63.6563C40.7424 62.598 40.8553 62.3652 41.321 61.3703L41.3421 61.328V61.2856C41.3492 60.7212 40.8341 60.3331 40.0933 60.3331C38.2588 60.3331 37.8637 63.2895 37.8637 64.0232C37.8637 65.0251 38.1671 65.9777 38.7033 66.655C38.0471 68.4119 35.6129 74.7479 34.8509 75.6863L34.8086 75.7427L34.8439 75.8062C35.2249 76.4765 35.7047 76.8504 36.1986 76.8504H36.2338C36.7489 76.8293 37.2287 76.4201 37.5815 75.6792C38.2024 74.3175 39.7476 69.4773 40.2908 67.6992C40.6154 67.8333 41.0458 67.9039 41.5609 67.9039C41.8784 67.9039 42.464 67.8615 42.8591 67.8051C42.2594 69.3856 41.1799 72.8781 42.5204 74.8325C43.1555 75.7568 44.242 76.2296 45.759 76.2296C47.664 76.2296 50.2252 75.277 52.1797 73.7177C52.095 73.9647 52.0103 74.1975 51.9256 74.4515C51.7422 74.9313 51.4811 75.8274 51.7422 76.3495C51.968 76.9139 52.5607 77.2667 53.2733 77.2667C53.3086 77.2667 53.3368 77.2667 53.3721 77.2667C54.127 77.2315 54.7338 76.8222 54.9173 76.2225C55.1854 75.3829 55.4676 74.4162 55.7639 73.3932C56.4201 71.1424 57.161 68.5883 58.0782 66.2599C58.5156 65.0816 58.0994 64.3972 57.6055 64.1714L57.6125 64.1502Z" fill="#ED7C9F"/>
<path d="M76.8605 36.2521C76.6065 35.871 76.2749 35.6453 75.9785 35.6453C74.6944 35.6453 73.9818 37.7126 73.4103 39.3636C73.2974 39.6882 73.1915 39.9986 73.0857 40.2667C66.4463 57.7718 62.1776 71.4669 59.6447 83.3769C59.567 83.7649 59.4753 84.1671 59.3907 84.5481C59.186 85.4301 58.9744 86.3473 58.9744 87.1587C58.9744 88.1888 59.9763 88.6616 60.9006 88.6616C62.4599 88.6616 62.6715 87.3704 62.855 86.2344C62.8832 86.058 62.9114 85.8816 62.9467 85.7194C66.1923 68.306 74.9343 43.3853 77.1004 37.6632C77.2979 37.1905 77.1004 36.6189 76.8534 36.245L76.8605 36.2521Z" fill="#ED7C9F"/>
<path d="M88.5586 35.6454C87.2745 35.6454 86.5619 37.7127 85.9903 39.3637C85.8775 39.6883 85.7716 39.9987 85.6658 40.2668C79.0264 57.7719 74.7577 71.467 72.2247 83.377C72.1471 83.765 72.0554 84.1672 71.9707 84.5482C71.7661 85.4302 71.5544 86.3474 71.5544 87.1588C71.5544 88.1889 72.5563 88.6617 73.4806 88.6617C75.0399 88.6617 75.2516 87.3705 75.4351 86.2345C75.4633 86.0581 75.4915 85.8817 75.5268 85.7194C78.7724 68.3061 87.5144 43.3854 89.6805 37.6633C89.878 37.1906 89.6805 36.619 89.4335 36.2451C89.1795 35.8641 88.8479 35.6383 88.5515 35.6383L88.5586 35.6454Z" fill="#ED7C9F"/>
<path d="M140.347 10.7529C141.504 10.7529 142.542 9.82863 142.542 8.6715C142.542 7.51437 141.963 6.35724 141.384 5.32006C149.244 5.5529 156.18 6.01152 163.236 6.01152C164.626 6.01152 172.02 6.70297 172.02 2.77296C172.02 0.691541 168.549 0.345813 165.43 0.345813C156.187 0.345813 147.629 8.55774e-05 139.077 8.55774e-05C126.934 8.55774e-05 106.939 -0.345642 103.587 8.90434C103.474 9.13718 103.474 9.36296 103.474 9.5958C103.474 10.7529 104.744 11.5643 106.014 11.5643C107.976 11.5643 108.442 9.25007 109.944 8.44572C114.566 5.90568 131.097 4.98139 135.147 5.20717C127.167 21.16 122.087 39.3072 116.767 56.6501C112.604 70.0629 108.907 83.2358 107.637 97.46C107.637 99.0758 108.907 99.8872 110.643 100C115.151 100.233 115.039 91.6744 115.73 88.7886C121.05 67.1701 127.061 45.6714 134.456 24.7443C136.424 19.3115 139.31 10.9858 140.354 10.7529H140.347Z" fill="#ED7C9F"/>
<path d="M253.062 74.5644C247.509 74.3316 250.98 62.4286 252.024 59.7686C251.333 57.4544 249.71 57.8001 248.786 57.2286C248.553 54.9143 246.126 53.5314 244.164 53.5314C239.769 53.5314 235.726 56.8829 232.833 59.6558C230.49 61.9206 227.633 64.8628 226.017 68.0661C223.442 70.719 220.097 72.998 216.534 73.8729C213.994 74.4515 212.139 73.4073 209.246 69.4772C211.094 68.4401 215.257 64.3901 215.257 61.5043C215.257 60.4672 214.333 58.6186 211.906 58.6186C207.63 58.6186 203.009 63.36 200.116 66.4786C200.899 62.5768 201.894 58.4069 203.009 54.5051C205.535 45.8901 209.091 34.0578 216.697 10.76C217.042 9.72278 217.621 8.44571 217.621 7.28858C217.621 6.25139 216.929 4.86143 214.961 4.86143C211.722 4.86143 210.805 11.4514 209.408 15.1486C203.672 32.4985 199.841 44.4226 196.842 54.2299C192.355 61.709 185.384 72.5959 180.007 72.5959C177.813 72.5959 176.536 70.5144 175.611 68.9057C179.541 67.4029 187.98 59.6558 187.98 56.0644C187.98 54.6815 186.477 53.7572 184.981 53.7572C180.353 53.7572 173.65 59.1901 171.343 63.4658C174.341 53.2915 177.121 43.0044 187.641 10.7529C187.987 9.71573 188.573 8.43865 188.573 7.28152C188.573 6.24434 187.881 4.85437 185.913 4.85437C182.674 4.85437 181.75 11.4444 180.36 15.1415C172.705 38.2841 168.436 51.7887 165.028 63.4658C165.014 63.4658 165 63.4658 164.986 63.4658C162.904 66.7044 157.126 72.7158 151.693 72.7158C149.957 72.7158 149.378 70.6344 149.378 69.0186C149.378 65.6672 150.07 63.1201 151.347 59.7686C150.656 57.4544 149.033 57.8001 148.108 57.2286C147.876 54.9143 145.448 53.5314 143.487 53.5314C139.091 53.5314 135.048 56.8829 132.156 59.6558C128.691 63.0072 124.063 67.8615 124.063 72.8357C124.063 76.1872 126.723 78.7343 130.074 78.7343C135.394 78.7343 140.248 73.3014 143.6 69.6042C143.713 73.3014 146.027 77.0056 150.768 77.0056C155.51 77.0056 159.68 74.6491 162.643 71.8338C162.615 71.9397 162.587 72.0455 162.551 72.1514C160.59 79.4328 159.898 80.8157 159.898 81.9728C159.898 83.9414 161.747 84.7528 163.137 84.7528C165.451 84.7528 166.143 82.7842 166.834 81.1614C168.217 77.9229 169.494 73.9999 171.343 71.1071C173.304 74.1058 176.896 77.4572 180.24 77.4572C186.026 77.4572 190.647 71.5587 194.118 67.4029C193.54 69.9429 192.383 72.7158 192.383 75.3758C192.383 76.9986 193.427 78.2616 195.163 78.2616C197.703 78.2616 199.438 75.2558 200.941 73.5201L203.376 70.6344C207.186 75.0301 209.966 78.2616 215.97 78.2616C218.538 78.2616 221.96 76.5894 224.924 74.2116C225.544 76.8575 227.901 78.7202 230.773 78.7202C236.093 78.7202 240.947 73.2873 244.298 69.5901C244.411 73.2873 246.267 78.8401 251.001 78.8401C253.316 78.8401 253.548 76.3001 253.083 74.5644H253.062ZM130.519 75.0301C125.319 75.0301 133.757 61.7372 142.309 57.9201C143.924 57.2286 144.277 58.1529 144.277 59.4229C144.277 61.6172 135.726 75.0301 130.519 75.0301ZM231.21 75.0301C226.01 75.0301 234.449 61.7372 243 57.9201C244.616 57.2286 244.962 58.1529 244.962 59.4229C244.962 61.6172 236.41 75.0301 231.203 75.0301H231.21Z" fill="#ED7C9F"/>
</g>
<defs>
<clipPath id="clip0_1968_10159">
<rect width="252.508" height="100" fill="white" transform="translate(0.743896)"/>
</clipPath>
</defs>
</svg>
