<svg width="8" height="8" viewBox="0 0 8 8" fill="none" xmlns="http://www.w3.org/2000/svg">
<path fill-rule="evenodd" clip-rule="evenodd" d="M6.57883 0.800122L3.6564 3.72255C3.48485 3.89411 3.4846 4.17295 3.65643 4.34478C3.82791 4.51626 4.10684 4.51662 4.27866 4.34481L7.2 1.42346V2.40044C7.2 2.62071 7.37909 2.80012 7.6 2.80012C7.82047 2.80012 8 2.62118 8 2.40044V0.399806C8 0.289723 7.95527 0.189844 7.88295 0.117466C7.81051 0.0449631 7.71063 0.00012207 7.60032 0.00012207H5.59968C5.37941 0.00012207 5.2 0.179208 5.2 0.400122C5.2 0.620587 5.37894 0.800122 5.59968 0.800122H6.57883ZM8 4.80012V2.89864V7.00309C8 7.55374 7.60328 8.00012 7.11329 8.00012H0.886706C0.396992 8.00012 0 7.55287 0 7.00309V0.997152C0 0.446508 0.396721 0.00012207 0.886706 0.00012207H5.15665H3.2C3.42091 0.00012207 3.6 0.179208 3.6 0.400122C3.6 0.621036 3.42091 0.800122 3.2 0.800122H1.02778C0.900529 0.800122 0.8 0.919596 0.8 1.06697V6.93327C0.8 7.07799 0.90198 7.20012 1.02778 7.20012H6.97222C7.09947 7.20012 7.2 7.08065 7.2 6.93327V4.80012C7.2 4.57921 7.37909 4.40012 7.6 4.40012C7.82091 4.40012 8 4.57921 8 4.80012Z" fill="#65B0D4"/>
</svg>
