<svg width="32" height="32" viewBox="0 0 32 32" fill="none" xmlns="http://www.w3.org/2000/svg">
<path d="M19.9653 8.0267L19.3982 8.12257L18.8312 8.29219L18.2642 7.85217L17.6971 8.21537L17.1301 8.23872L16.563 8.38376L15.996 7.82821L15.429 8.1576L14.8619 7.91916L14.2949 7.87983L13.7279 8.01503L13.1608 7.94804L12.5938 7.8786L12.0268 7.87L11.4996 8.3266L10.8534 7.99291L10.3435 8.30325L10.0164 8.86064L9.33459 8.88215L8.88722 9.2687L8.70189 9.85313L8.27293 10.2759L8.50613 10.9575L8.39628 11.4694L8.36744 11.9924L8.45581 11.9942L8.20175 12.5621L8.27784 13.1299L8.18088 13.6977L7.90105 14.2656L7.92989 14.8334L8.20359 15.4013L8.42574 15.9691L8.19009 16.5369L8.1146 17.1048L8.00414 17.6726L8.26618 18.2405L8.09742 18.8083L8.39996 19.3761L7.98021 19.944L8.36498 20.4713L8.03483 21.1171L8.5675 21.5252L8.54847 22.1815L9.01057 22.5595L9.46223 22.9049L9.81325 23.3879L10.4466 23.4026L10.9173 23.7173L11.4683 23.8113L12.0231 23.9643L12.0268 23.8629L12.5938 23.7013L13.1608 23.5839L13.7279 23.7634L14.2949 23.9293L14.8619 23.7345L15.429 23.5618L15.996 23.7093L16.563 23.9016L17.1301 23.8414L17.6971 23.5262L18.2642 23.9342L18.8312 23.7351L19.3982 23.7781L19.9659 23.791L20.5176 23.7886L20.9999 23.4727L21.6418 23.622L21.9112 22.978L22.3844 22.7414L22.871 22.4673L22.9845 21.889L23.4884 21.5578L23.4429 20.9696L23.7234 20.4885L23.8075 19.9477L23.8418 19.944L23.5467 19.3761L24.1511 18.8083L23.5509 18.2405V17.6726L24.0695 17.1048L23.6117 16.5369L23.8191 15.9691L23.8032 15.4013L23.8983 14.8334L23.9952 14.2656L23.6976 13.6977L23.9192 13.1299L23.581 12.5621L24.0456 11.9942L23.9431 11.4221L23.4049 10.9833L23.3098 10.4658L23.3945 9.78861L22.9183 9.43401L22.3365 9.25641L22.1941 8.52572L21.6209 8.36962L21.0214 8.40096L20.5286 8.08816L19.9677 7.9124L19.9659 8.02732L19.9653 8.0267ZM15.9966 20.9666L15.4271 21.0305L14.827 21.1012L14.4054 20.5229L13.7487 20.6433L13.2283 20.3815L12.6625 20.156L12.6079 19.3632L11.9924 19.1672L11.8611 18.5717L11.631 18.0751L11.2953 17.6173L11.2063 17.0654L11.1836 16.5136L11.1621 15.9703L10.7761 15.3816L11.326 14.9029L11.3683 14.3491L11.2793 13.6959L11.8954 13.3911L12.2434 12.9744L12.4588 12.4293L12.9853 12.1909L13.1829 11.4891L13.7009 11.2002L14.2458 10.9655L14.7969 10.7147L15.4204 10.8671L15.9948 10.759L16.5667 10.8874L17.0693 11.2561L17.5989 11.3791L18.2206 11.3409L18.8422 11.4319L19.1847 11.9641L19.559 12.4004L19.8499 12.8914L20.3918 13.203L20.5219 13.7868L21.0232 14.2078L20.779 14.8764L21.2159 15.381L20.7882 15.9703H21.146L20.7833 16.5105L20.8336 17.0759L20.7514 17.6364L20.3764 18.0825L20.3586 18.7161L19.9217 19.1063L19.5633 19.5445L19.0705 19.834L18.6735 20.2408L18.2494 20.6605L17.7499 20.9955L17.1368 20.9862L16.5502 20.918L15.9936 20.966L15.9966 20.9666ZM21.1042 12.0489H20.6237L20.0966 11.8965L20.1935 11.2654L19.756 10.8874L19.8364 10.3614L20.0321 9.81319L20.7366 9.99694L21.1048 9.59441L21.508 9.91274L21.8216 10.1696L22.1665 10.4474L22.1868 10.888H22.1174L22.0327 11.2727L22.1107 11.8953L21.4718 11.776L21.1048 11.9616L20.9502 12.1399L21.1048 12.0501L21.1042 12.0489ZM15.9966 12.7716L15.4584 12.9142L14.9945 13.2135L14.3121 13.0488L14.0648 13.6645L13.7119 14.0511L13.5383 14.5501L12.808 14.8088L12.9792 15.4381L12.6951 15.9709L12.7061 16.5517L12.9835 17.0691L13.1621 17.6099L13.4364 18.1225L13.8426 18.541L14.5306 18.5139L14.8349 19.1666L15.4265 19.209L15.9966 18.9257L16.5772 19.268L17.1552 19.1574L17.5885 18.7315L18.1543 18.5459L18.2175 17.8373L18.5066 17.4225L18.7127 16.9616L18.7557 16.4595L19.0521 15.9722H18.976L19.0263 15.4369L19.1509 14.8223L18.8784 14.3055L18.336 14.0062L17.8168 13.7991L17.5302 13.3112L17.0712 13.0137L16.5606 12.763L15.996 12.7728L15.9966 12.7716ZM19.9653 8.0267L19.3982 8.12257L18.8312 8.29219L18.2642 7.85217L17.6971 8.21537L17.1301 8.23872L16.563 8.38376L15.996 7.82821L15.429 8.1576L14.8619 7.91916L14.2949 7.87983L13.7279 8.01503L13.1608 7.94804L12.5938 7.8786L12.0268 7.87L11.4996 8.3266L10.8534 7.99291L10.3435 8.30325L10.0164 8.86064L9.33459 8.88215L8.88722 9.2687L8.70189 9.85313L8.27293 10.2759L8.50613 10.9575L8.39628 11.4694L8.36744 11.9924L8.45581 11.9942L8.20175 12.5621L8.27784 13.1299L8.18088 13.6977L7.90105 14.2656L7.92989 14.8334L8.20359 15.4013L8.42574 15.9691L8.19009 16.5369L8.1146 17.1048L8.00414 17.6726L8.26618 18.2405L8.09742 18.8083L8.39996 19.3761L7.98021 19.944L8.36498 20.4713L8.03483 21.1171L8.5675 21.5252L8.54847 22.1815L9.01057 22.5595L9.46223 22.9049L9.81325 23.3879L10.4466 23.4026L10.9173 23.7173L11.4683 23.8113L12.0231 23.9643L12.0268 23.8629L12.5938 23.7013L13.1608 23.5839L13.7279 23.7634L14.2949 23.9293L14.8619 23.7345L15.429 23.5618L15.996 23.7093L16.563 23.9016L17.1301 23.8414L17.6971 23.5262L18.2642 23.9342L18.8312 23.7351L19.3982 23.7781L19.9659 23.791L20.5176 23.7886L20.9999 23.4727L21.6418 23.622L21.9112 22.978L22.3844 22.7414L22.871 22.4673L22.9845 21.889L23.4884 21.5578L23.4429 20.9696L23.7234 20.4885L23.8075 19.9477L23.8418 19.944L23.5467 19.3761L24.1511 18.8083L23.5509 18.2405V17.6726L24.0695 17.1048L23.6117 16.5369L23.8191 15.9691L23.8032 15.4013L23.8983 14.8334L23.9952 14.2656L23.6976 13.6977L23.9192 13.1299L23.581 12.5621L24.0456 11.9942L23.9431 11.4221L23.4049 10.9833L23.3098 10.4658L23.3945 9.78861L22.9183 9.43401L22.3365 9.25641L22.1941 8.52572L21.6209 8.36962L21.0214 8.40096L20.5286 8.08816L19.9677 7.9124L19.6603 8.1195L19.9659 8.02732L19.9653 8.0267ZM15.9966 20.9666L15.4271 21.0305L14.827 21.1012L14.4054 20.5229L13.7487 20.6433L13.2283 20.3815L12.6625 20.156L12.6079 19.3632L11.9924 19.1672L11.8611 18.5717L11.631 18.0751L11.2953 17.6173L11.2063 17.0654L11.1836 16.5136L11.1621 15.9703L10.7761 15.3816L11.326 14.9029L11.3683 14.3491L11.2793 13.6959L11.8954 13.3911L12.2434 12.9744L12.4588 12.4293L12.9853 12.1909L13.1829 11.4891L13.7009 11.2002L14.2458 10.9655L14.7969 10.7147L15.4204 10.8671L15.9948 10.759L16.5667 10.8874L17.0693 11.2561L17.5989 11.3791L18.2206 11.3409L18.8422 11.4319L19.1847 11.9641L19.559 12.4004L19.8499 12.8914L20.3918 13.203L20.5219 13.7868L21.0232 14.2078L20.779 14.8764L21.2159 15.381L20.7882 15.9703H21.146L20.7833 16.5105L20.8336 17.0759L20.7514 17.6364L20.3764 18.0825L20.3586 18.7161L19.9217 19.1063L19.5633 19.5445L19.0705 19.834L18.6735 20.2408L18.2494 20.6605L17.7499 20.9955L17.1368 20.9862L16.5502 20.918L15.9936 20.966L15.9966 20.9666ZM21.1042 12.0489H20.6237L20.0966 11.8965L20.1935 11.2654L19.756 10.8874L19.8364 10.3614L20.0321 9.81319L20.7366 9.99694L21.1048 9.59441L21.508 9.91274L21.8216 10.1696L22.1665 10.4474L22.1868 10.888H22.1174L22.0327 11.2727L22.1107 11.8953L21.4718 11.776L21.1048 11.9616L20.9502 12.1399L21.1048 12.0501L21.1042 12.0489ZM15.9966 12.7716L15.4584 12.9142L14.9945 13.2135L14.3121 13.0488L14.0648 13.6645L13.7119 14.0511L13.5383 14.5501L12.808 14.8088L12.9792 15.4381L12.6951 15.9709L12.7061 16.5517L12.9835 17.0691L13.1621 17.6099L13.4364 18.1225L13.8426 18.541L14.5306 18.5139L14.8349 19.1666L15.4265 19.209L15.9966 18.9257L16.5772 19.268L17.1552 19.1574L17.5885 18.7315L18.1543 18.5459L18.2175 17.8373L18.5066 17.4225L18.7127 16.9616L18.7557 16.4595L19.0521 15.9722H18.976L19.0263 15.4369L19.1509 14.8223L18.8784 14.3055L18.336 14.0062L17.8168 13.7991L17.5302 13.3112L17.0712 13.0137L16.5606 12.763L15.996 12.7728L15.9966 12.7716ZM31.2587 5.8549L31.0801 5.31595L30.7831 4.82738L30.9966 4.15384L30.4327 3.79925L30.1314 3.34448L29.6969 2.99849L29.7257 2.21986L29.0894 2.0779L28.7776 1.55431L28.3045 1.22369L27.7319 1.09648L27.2207 0.84021L26.6813 0.631264L26.1118 0.534166L25.5257 0.88753L25.0262 0.38053L24.4708 0.440141L23.8983 0.71853L23.3846 0.290192L22.8415 0.207228L22.2819 0.368239L21.7467 0.162981L21.1754 0.580872L20.6311 0.553832L20.0861 0.536624L19.5381 0.601152L19.0018 0.332595L18.4544 0.391592L17.9107 0.284046L17.3688 -0.000488281L16.8208 0.0210208L16.2728 0.287119L15.7272 0.505283L15.1804 0.276672L14.6337 0.209072L14.085 0.11013L13.545 0.38053L12.9945 0.230581L12.4594 0.547072L11.8973 0.156221L11.3671 0.523104L10.7982 0.0996826L10.2723 0.482544L9.70586 0.19125L9.16951 0.370697L8.63009 0.486232L8.07103 0.357792L7.55125 0.690875L6.99588 0.613443L6.45462 0.690875L5.89924 0.636795L5.35676 0.821159L4.86152 1.11122L4.39452 1.40313L3.83055 1.47749L3.26904 1.62683L2.93643 2.11232L2.65046 2.60027L2.18161 2.9014L1.69926 3.23325L1.45993 3.74394L1.50411 4.36709L0.941989 4.74442L0.99231 5.33315L0.866507 5.87026L0.797776 6.41291L0.709406 6.95371L0.861598 7.51663L0.457187 8.03039L0.840119 8.60991L0.706338 9.14702L0.521009 9.68168L0.738249 10.2428L0.428958 10.7719L0.644357 11.3299L0.450436 11.8676L0.383546 12.4121L0.331384 12.9578L0.605696 13.5121L0 14.0456L0.579921 14.603L0.573171 15.1481L0.0613673 15.6919L0.51119 16.2389L0.311132 16.7864L0.332611 17.3334L0.248538 17.8822L0.165692 18.4316L0.473756 18.9699L0.274926 19.5242L0.629015 20.057L0.19883 20.6243L0.288427 21.1681L0.745613 21.6893L0.689769 22.2393L0.335679 22.8121L0.541874 23.3461L0.865893 23.8678L0.424048 24.4554L0.609991 24.9888L0.897191 25.5099L0.756659 26.0741L0.711248 26.6573L1.33229 27.0678L1.01808 27.7702L1.61273 28.107L1.76861 28.6527L2.23254 28.9889L2.31355 29.6679L2.86524 29.9039L3.39055 30.1208L3.87596 30.3654L4.39697 30.5172L4.89159 30.712L5.39419 30.9075L5.90661 31.1748L6.45339 31.1981L7.01552 31.0543L7.51995 31.5343L8.08024 31.4046L8.60677 31.6793L9.17933 31.3518L9.70831 31.6203L10.2698 31.396L10.7945 31.7949L11.3536 31.5693L11.8875 31.8631L12.4478 31.5398L12.9945 31.5159L13.5407 31.5005L14.0832 31.6351L14.6251 31.9295L15.1718 32.0026L15.7205 31.8508L16.2673 31.7414L16.8116 31.5238L17.3559 31.4464L17.9107 31.9301L18.4562 31.8367L18.9907 31.4323L19.5516 31.8557L20.1003 31.8735L20.6243 31.3764L21.1908 31.7525L21.7247 31.5183L22.2518 31.2154L22.8072 31.3462L23.346 31.2405L23.9302 31.6842L24.4205 31.0162L24.9808 31.1594L25.5313 31.1822L26.0535 30.9277L26.6758 31.3143L27.1974 31.0445L27.5938 30.5271L28.0792 30.3083L28.5978 30.1251L29.0587 29.8302L29.6251 29.6231L29.7896 29.0208L30.2823 28.6994L30.4763 28.1654L30.583 27.6123L30.7573 27.104L31.0519 26.6167L30.9617 26.0513L31.5385 25.5609L30.9727 24.9556L31.0586 24.4154L31.5471 23.9084L31.4999 23.3547L31.6484 22.8164L31.4299 22.2522L31.3679 21.701L31.6103 21.1669L31.7797 20.6273L31.3826 20.0613L31.4999 19.5193L31.6692 18.9779L31.4354 18.4242L31.5348 17.8803L31.5833 17.3346L32 16.7914L31.7496 16.2419L31.9632 15.6938L31.4802 15.1493L31.4538 14.6036L31.3808 14.0591L31.39 13.5134L31.5305 12.9633L31.9399 12.401L31.3587 11.8768L31.9037 11.3041L31.7668 10.762L31.7085 10.2163L31.5858 9.67492L31.2906 9.14702L31.4072 8.59024L31.4109 8.04084L31.4569 7.48713L31.228 6.95862L31.5152 6.37972L31.2575 5.85552L31.2587 5.8549ZM25.727 19.9427L25.7958 20.4842L25.8847 21.0514L25.3429 21.4754L25.511 22.0949L25.3091 22.6086L25.1606 23.166L24.407 23.3031L24.3168 23.917L23.7749 24.1296L23.3497 24.4338L22.9919 24.8407L22.4985 25.041L21.9934 25.1903L21.4994 25.3477L21.0705 25.8713L20.4777 25.4945L19.964 25.6291L19.397 25.9561L18.83 25.5701L18.2629 25.5277L17.6959 25.7268L17.1289 25.556L16.5618 26.0058L15.9948 26.0071L15.4278 26.0151L14.8607 26.1017L14.2937 25.8522L13.7266 25.9272L13.1596 25.8319L12.5926 25.5566L12.0255 25.5849L11.4812 25.8282L10.9013 25.9671L10.4147 25.615L9.92617 25.3729L9.48371 25.0582L8.88783 25.0195L8.53374 24.5752L7.92191 24.4523L7.82863 23.7757L7.2211 23.5778L7.29044 22.8803L6.72525 22.5877L6.80748 21.9689L6.50678 21.5172L6.31225 21.0145L6.40982 20.4663L6.0993 19.9452L6.22694 19.3774L6.2024 18.8095L6.31347 18.2417L6.21406 17.6738L6.05573 17.106L5.94036 16.5382L6.11648 15.9703L6.27911 15.4025L6.08825 14.8346L5.91888 14.2668L6.06371 13.699L6.25272 13.1311L6.19319 12.5633L5.8839 11.9948L6.30856 11.4645L6.19012 10.9028L6.35582 10.3798L6.54115 9.86788L6.79275 9.38669L6.88358 8.80718L7.48559 8.56259L7.50523 7.86877L7.96732 7.53814L8.48465 7.30031L8.79946 6.77856L9.41805 6.75152L9.82368 6.30475L10.4036 6.28877L10.9449 6.20765L11.4861 6.16586L12.0255 5.8506L12.5926 6.44486L13.1596 5.8549H13.7266L14.2937 6.36497L14.8607 5.91451L15.4278 6.11793L15.9948 6.10256L16.5618 6.19597L17.1289 6.29123L17.6959 5.9987L18.2629 6.21687L18.83 5.8844L19.397 6.34101L19.964 6.27955L20.5298 5.87825L21.0748 6.04541L21.5105 6.5518L22.0652 6.56286L22.682 6.52844L22.9152 7.22104L23.4245 7.4054L23.991 7.57133L24.2352 8.09615L24.4702 8.58778L25.1913 8.75371L24.99 9.48932L25.5656 9.82179L25.6 10.389L25.8933 10.885L25.5761 11.4737L25.797 11.9942L25.9375 12.5621L25.9799 13.1299L26.0682 13.6977L26.0541 14.2656L25.9903 14.8334L25.805 15.4013L25.8387 15.9691L26.0363 16.5369L25.6055 17.1048L25.7829 17.6726L25.5515 18.2405L25.921 18.8083L25.6902 19.3669L25.7246 19.9446L25.727 19.9427ZM19.9653 8.02855L19.3982 8.12257L18.8312 8.28912L18.2642 7.85709L17.6971 8.21414L17.1301 8.23749L16.563 8.37945L15.996 7.83435L15.429 8.1576L14.8619 7.92346L14.2949 7.88474L13.7279 8.01749L13.1608 7.95173L12.5938 7.88352L12.0268 7.87553L11.4996 8.32415L10.8559 7.99844L10.3453 8.30632L10.0152 8.8588L9.33827 8.88584L8.89213 9.273L8.70434 9.85498L8.27845 10.279L8.50367 10.9575L8.39383 11.47L8.36437 11.993L8.4509 11.9948L8.20175 12.5627L8.27661 13.1305L8.18149 13.6983L7.90657 14.2662L7.9348 14.834L8.20359 15.4019L8.42144 15.9697L8.19009 16.5375L8.11645 17.1054L8.00844 17.6732L8.26557 18.2411L8.09988 18.8089L8.39751 19.3767L7.98512 19.9446L8.36314 20.4725L8.04096 21.1165L8.5675 21.5264L8.55338 22.1797L9.01302 22.5589L9.46407 22.9049L9.81693 23.3854L10.4472 23.4045L10.9185 23.7173L11.4689 23.8119L12.0237 23.9631L12.0274 23.8635L12.5944 23.705L13.1615 23.5895L13.7285 23.7658L14.2955 23.9287L14.8626 23.7376L15.4296 23.5679L15.9966 23.713L16.5637 23.9023L17.1307 23.8426L17.6977 23.5329L18.2648 23.9336L18.8318 23.7382L19.3988 23.78L19.9665 23.7929L20.5182 23.7892L21.0017 23.477L21.6418 23.6202L21.9149 22.9829L22.3874 22.7451L22.8722 22.4691L22.99 21.8933L23.4896 21.559L23.4485 20.9721L23.7258 20.4897L23.8093 19.9483L23.8431 19.9446L23.5534 19.3767L24.1468 18.8089L23.5577 18.2411V17.6732L24.067 17.1054L23.6172 16.5375L23.8204 15.9697L23.805 15.4019L23.8983 14.834L23.9934 14.2662L23.7013 13.6983L23.9192 13.1305L23.5872 12.5627L24.0431 11.9948L23.9419 11.4227L23.411 10.9821L23.3141 10.4646L23.3926 9.79045L22.9189 9.43401L22.3408 9.25211L22.1929 8.52817L21.6209 8.37024L21.0232 8.39728L20.5292 8.08755L19.9683 7.91424L19.9665 8.02732L19.9653 8.02855ZM15.9966 20.9684L15.4271 21.0311L14.8276 21.0987L14.4041 20.5278L13.75 20.6421L13.2296 20.3803L12.6656 20.1529L12.6042 19.3675L11.993 19.1678L11.858 18.5748L11.6273 18.0782L11.294 17.6191L11.2038 17.0673L11.1799 16.5154L11.1578 15.9715L10.7792 15.3828L11.3204 14.9022L11.3646 14.3485L11.2812 13.6977L11.8912 13.3892L12.2391 12.972L12.4576 12.4287L12.9823 12.1878L13.1848 11.4927L13.7027 11.2045L14.2477 10.9698L14.7987 10.7209L15.421 10.8684L15.9954 10.762L16.5673 10.8886L17.0712 11.2525L17.6008 11.376L18.2206 11.3428L18.8398 11.4374L19.184 11.9659L19.5596 12.401L19.8517 12.8908L20.3899 13.2055L20.5231 13.7875L21.0195 14.2103L20.7827 14.8764L21.2135 15.3822L20.7943 15.9709H21.1453L20.7888 16.5117L20.8361 17.0771L20.752 17.6376L20.3801 18.085L20.358 18.7161L19.9229 19.1076L19.5645 19.5457L19.073 19.837L18.6747 20.2426L18.2494 20.6599L17.7493 20.9924L17.1374 20.9856L16.5514 20.9205L15.9942 20.9678L15.9966 20.9684ZM21.1042 12.0507L20.6237 12.0495L20.099 11.8947L20.1892 11.2672L19.7578 10.8874L19.8388 10.362L20.0358 9.81626L20.7348 9.99141L21.1048 9.59441L21.5093 9.90844L21.8247 10.1653L22.1683 10.4449L22.1898 10.8862H22.1217L22.037 11.2727L22.1088 11.8916L21.4743 11.7791L21.1048 11.9629L20.9533 12.1374L21.1048 12.0489L21.1042 12.0507ZM15.9966 12.7728L15.4584 12.9136L14.9933 13.2098L14.3139 13.0525L14.0629 13.6627L13.7101 14.0486L13.534 14.5464L12.8129 14.8094L12.9786 15.4369L12.6987 15.9697L12.7104 16.5498L12.9853 17.0673L13.1645 17.6069L13.4394 18.1182L13.8457 18.536L14.5293 18.5152L14.8374 19.1598L15.4278 19.2041L15.9972 18.9269L16.5765 19.2624L17.1534 19.1512L17.5879 18.729L18.1518 18.541L18.2206 17.8379L18.5102 17.4225L18.717 16.961L18.7618 16.4583L19.0533 15.9697H18.9785L19.0269 15.4344L19.1466 14.8211L18.8748 14.3049L18.3366 14.0032L17.8199 13.793L17.5308 13.3081L17.0718 13.0119L16.5612 12.7636L15.9966 12.7722V12.7728Z" fill="black"/>
</svg>
