<svg width="32" height="32" viewBox="0 0 32 32" fill="none" xmlns="http://www.w3.org/2000/svg">
<g clip-path="url(#clip0_4150_1667)">
<path d="M11.4618 13.6163L10.9251 13.6249L10.3963 13.599L9.86821 13.6476L9.33884 13.6083L8.81008 13.62L8.28133 13.5947L7.74151 13.6027L7.63638 14.1558L7.50357 14.6695L7.49497 15.2017L7.46484 15.7271L7.39844 16.2562L7.48144 16.781L7.52509 17.3083L7.59088 17.8349L7.7575 18.324L8.28072 18.3529L8.80947 18.3615L9.33822 18.3652L9.86698 18.3677L10.3957 18.3523L10.9245 18.3382L11.4409 18.3031L11.412 17.8195L11.3905 17.2972L11.3389 16.7755L11.3247 16.2525L11.3795 15.7296L11.3087 15.2048L11.3702 14.6831L11.3905 14.1595L11.4618 13.6163Z" fill="black"/>
<path d="M13.1233 7.88843L12.6069 8.05823L12.1457 8.34677L11.6391 8.54611L11.1786 8.83281L10.7747 9.19764L10.3394 9.51817L9.94466 9.88793L9.56654 10.2755L9.26712 10.7283L8.90621 11.1332L8.60864 11.5853L8.375 12.064L8.9222 12.0308L9.47185 12.0419L10.0227 12.0769L10.573 12.064L11.1233 12.08L11.6723 12.0677L11.8094 11.5331L11.8918 10.9818L12.0277 10.4423L12.2404 9.92669L12.4138 9.39882L12.6259 8.8851L12.854 8.37754L13.1233 7.88843Z" fill="black"/>
<path d="M16.0319 7.35938L15.4761 7.51011L15.0322 7.87986L14.6873 8.33944L14.3565 8.81009L14.0921 9.32196L13.9188 9.87259L13.7128 10.4078L13.5947 10.9702L13.425 11.5177L13.2578 12.1225L13.8278 12.0345L14.3786 12.0241L14.9295 12.0228L15.4804 12.064L16.0313 12.117L16.5822 12.0277L17.1337 12.0917L17.6846 12.1231L18.2361 12.0241L18.7777 12.0462L18.7144 11.4999L18.5072 10.9603L18.308 10.422L18.1359 9.87567L17.8949 9.35703L17.7184 8.80394L17.3839 8.3339L17.0132 7.89709L16.5576 7.56302L16.0319 7.35938Z" fill="black"/>
<path d="M13.0402 18.3309L13.5819 18.3863L14.1272 18.2804L14.672 18.3032L15.2173 18.3087L15.7627 18.3007L16.3074 18.326L16.8528 18.3364L17.3981 18.3838L17.9435 18.3327L18.4888 18.2958L19.0243 18.3106L19.0957 17.7557L19.1289 17.1675L19.1879 16.5806L19.2192 15.9906H19.1528L19.1879 15.4012L19.1614 14.8118L19.1338 14.2224L19.0428 13.617L18.4894 13.6945L17.9441 13.6275L17.3987 13.6582L16.854 13.657L16.3086 13.6656L15.7639 13.6619L15.2185 13.5838L14.6732 13.6281L14.1278 13.6268L13.5825 13.6447L13.0181 13.5801L12.9713 14.1596L12.8828 14.6789L12.9099 15.2055L12.9062 15.7291L12.9074 16.2526L12.897 16.7762L12.9246 17.2998L13.0365 17.8159L13.0402 18.3309Z" fill="black"/>
<path d="M8.36328 19.8954L8.64979 20.3691L8.90064 20.8502L9.21482 21.2919L9.56773 21.7029L9.94155 22.0954L10.3602 22.4381L10.7777 22.7796L11.2235 23.0823L11.6551 23.4083L12.1137 23.6987L12.6222 23.8901L13.1356 24.1042L12.8989 23.5824L12.5865 23.1155L12.3849 22.595L12.1967 22.0702L12.0584 21.53L11.917 20.9929L11.7528 20.4595L11.6834 19.8665L11.1196 19.9163L10.5693 19.9471L10.019 19.9507L9.46874 19.9089L8.91847 19.9126L8.36328 19.8954Z" fill="black"/>
<path d="M18.918 24.1115L19.435 23.8746L19.9343 23.6685L20.404 23.4015L20.8688 23.1246L21.2801 22.7727L21.7056 22.4411L22.0973 22.0701L22.4987 21.7059L22.8437 21.2876L23.116 20.8181L23.3939 20.3573L23.6909 19.9217H23.1455L22.5953 19.8621L22.045 19.9445L21.4947 19.8934L20.9444 19.8867L20.3991 19.9248L20.2675 20.4502L20.1685 20.9984L20.0671 21.5484L19.8863 22.0769L19.6693 22.5912L19.4572 23.1062L19.2094 23.6057L18.918 24.1115Z" fill="black"/>
<path d="M30.945 5.90326L31.0919 5.33417L31.0599 4.76816L30.9825 4.1923L30.632 3.73088L30.1242 3.39619L30.1678 2.66591L29.4085 2.60316L29.3599 1.82612L28.7543 1.68093L28.1954 1.53758L27.7761 1.13214L27.2886 0.80853L26.7168 0.735933L26.164 0.563669L25.6033 0.659029L25.0444 0.75439L24.5206 0.47323L23.95 0.715631L23.4053 0.672564L22.8864 0.267743L22.3287 0.385252L21.7656 0.622731L21.246 0.121933L20.6915 0.23329L20.1313 0.497839L19.5884 0.396941L19.0523 0.0579489L18.4953 0.38033L17.9561 0.000732422L17.404 0.244979L16.8574 0.184071L16.3096 0.214833L15.7624 0.384021L15.2152 0.309578L14.6704 0.466462L14.1202 0.254207L13.5699 0.135468L13.0208 0.116396L12.4786 0.286199L11.9387 0.480612L11.3829 0.295428L10.8444 0.477536L10.2738 0.103476L9.7352 0.275741L9.22305 0.798687L8.63958 0.328035L8.13296 0.852827L7.56731 0.653492L7.01581 0.635651L6.47968 0.775923L5.95585 1.02263L5.43078 1.11368L4.76185 0.745777L4.20051 0.911889L3.84453 1.4859L3.40062 1.81136L2.8608 2.01254L2.2638 2.20757L2.20478 2.91816L1.86416 3.3439L1.51309 3.77394L1.25241 4.26428L0.992334 4.76508L0.616059 5.26157L0.525064 5.84112L0.777144 6.41882L0.453129 6.93807L0.739639 7.51516L0.711972 8.0621L0.445136 8.58997L0.421773 9.13814L0.488174 9.69185L0.662171 10.2511L0.672623 10.7993L0.157396 11.321L0.480181 11.8845L0.26868 12.4241L0.43038 12.9778L0.456203 13.526L0 14.0637L0.456818 14.6198L0.364594 15.1656L0.0411935 15.7119L0.415624 16.2601L0.444521 16.807L0.334467 17.3552L0.217035 17.9052L0.422387 18.4484L0.100832 19.0058L0.273599 19.5485L0.626511 20.0819L0.553346 20.6325L0.571176 21.1788L0.61237 21.7239L0.219494 22.2979L0.787596 22.808L0.458048 23.3813L0.726728 23.9092L0.849079 24.4475L0.546583 25.0252L0.846619 25.5463L1.07534 26.0724L1.1983 26.591L1.33479 27.1016L0.975733 27.8233L1.57888 28.1623L1.59487 28.8083L2.10333 29.1362L2.36463 29.661L2.7114 30.1384L3.30716 30.2959L3.77566 30.6072L4.27245 30.8773L4.75939 31.2151L5.39574 30.9985L5.91281 31.2815L6.47722 31.1468L6.98569 31.575L7.55871 31.3283L8.10529 31.3541L8.62543 31.719L9.18062 31.6513L9.72167 31.7762L10.2941 31.404L10.8321 31.5725L11.367 31.8297L11.9185 31.7712L12.4736 31.5811L13.0092 31.9367L13.5582 31.93L14.114 31.5627L14.6588 31.6919L15.2029 32.0026L15.7525 31.6088L16.2997 31.8525L16.8482 31.9287L17.3972 31.957L17.9364 31.4889L18.4873 31.6617L19.0339 31.6445L19.5768 31.5313L20.1424 31.97L20.6828 31.7799L21.2251 31.658L21.784 31.8242L22.2968 31.2686L22.8421 31.2452L23.4022 31.4095L23.9587 31.4975L24.5077 31.4864L25.0205 31.0933L25.6101 31.4975L26.1511 31.399L26.6448 30.9431L27.1797 30.8496L27.7515 30.8103L28.3485 30.7426L28.5699 30.0363L29.1533 29.912L29.7553 29.7311L29.9004 29.0993L30.249 28.6717L30.4808 28.1697L30.7224 27.6793L31.2634 27.2745L31.1737 26.6611L31.0765 26.0884L31.3188 25.563L31.1337 24.9951L31.1817 24.4506L31.3606 23.9172L31.4983 23.3789L31.2198 22.8098L31.8537 22.3047L31.4325 21.7288L31.9256 21.2084L31.6649 20.6454L31.7276 20.0997L31.4749 19.5417L31.593 18.9984L31.8039 18.4564L31.4768 17.9015L31.9065 17.3613L31.9779 16.8131L31.4688 16.2625L31.7166 15.7156L31.4897 15.1699L31.8684 14.618L31.5475 14.076L31.9951 13.5174L31.7295 12.9759L31.778 12.4259L31.6053 11.8845L31.9281 11.321L31.8635 10.774L31.716 10.2326L31.3919 9.70415L31.3089 9.16213L31.2007 8.62258L31.5862 8.04241L31.4214 7.50655L31.3766 6.96022L31.2948 6.41759L30.94 5.90449L30.945 5.90326ZM23.4367 23.3998L22.8544 23.6299L22.3472 23.9148L21.8215 24.1553L21.417 24.5663L21.0548 25.0843L20.333 24.9268L20.025 25.6356L19.2989 25.3316L18.8384 25.7365L18.325 26.041L17.7274 25.9715L17.15 25.9143L16.5961 26.0336L16.0323 25.9647L15.4648 26.1013L14.8825 26.2022L14.3513 25.8927L13.7347 26.0662L13.1733 25.9222L12.7417 25.4018L12.1601 25.3464L11.5237 25.3599L11.2335 24.6807L10.6802 24.5158L10.0432 24.4383L9.62884 24.0273L9.40196 23.4164L8.75762 23.2718L8.63466 22.6074L8.07762 22.3398L7.77882 21.8519L7.43451 21.3978L6.99675 20.9887L6.80062 20.4405L6.42681 19.973L6.42804 19.3547L6.38069 18.7739L6.27433 18.2202L6.01549 17.6948L5.76464 17.1497L5.92634 16.5597L5.75664 15.9918L6.1778 15.4381L6.08742 14.8709L5.68655 14.2329L6.30138 13.7696L5.97798 13.0935L6.3893 12.6154L6.65675 12.106L6.81046 11.548L6.90699 10.9451L7.19596 10.4357L7.94728 10.2511L8.30941 9.82843L8.39426 9.16152L8.75393 8.70871L9.28084 8.43186L9.87538 8.26574L10.0666 7.57791L10.5572 7.27214L11.0921 7.04697L11.611 6.80457L12.1607 6.63907L12.7706 6.6643L13.2987 6.49634L13.766 6.05522L14.3722 6.2121L14.885 5.79805L15.4568 5.73038L16.0329 5.93771V5.92048L16.6028 5.8325L17.1949 5.67316L17.7784 5.71377L18.2426 6.30377L18.8783 6.10874L19.3647 6.46373L19.9623 6.4988L20.5058 6.6969L20.8046 7.35151L21.5295 7.23831L21.9617 7.63082L22.2211 8.22698L22.8962 8.30696L23.334 8.68594L23.6451 9.1849L23.9156 9.70169L24.413 10.0425L24.4474 10.7014L24.8655 11.1075L25.4238 11.4668L25.572 12.0383L25.7693 12.5828L25.955 13.1316L25.6826 13.7881L26.3159 14.2433L26.0294 14.8647L26.3024 15.4141L26.3952 15.9912L26.0257 16.5529L26.2249 17.1404L26.3153 17.7397L26.2427 18.3235L26.1019 18.8945L25.3721 19.2618L25.5431 19.9336L25.0192 20.3224L24.9485 20.9229L24.5237 21.3308L24.1136 21.7295L23.9593 22.3176L23.575 22.7366L23.4379 23.4016L23.4367 23.3998Z" fill="black"/>
<path d="M18.9492 7.89648L19.2031 8.37759L19.4312 8.88516L19.695 9.37858L19.8272 9.92367L20.0375 10.4405L20.1869 10.9776L20.2656 11.5307L20.391 12.0727L20.9406 12.0308L21.4909 12.1071L22.0412 12.0979L22.5915 12.0524L23.1424 12.0942L23.6926 12.0708L23.7283 12.0548L23.4116 11.6112L23.1694 11.1246L22.8073 10.7192L22.4925 10.278L22.1254 9.87937L21.7196 9.52069L21.2911 9.19093L20.865 8.85747L20.426 8.53755L19.9299 8.31607L19.4368 8.0952L18.9492 7.89648Z" fill="black"/>
<path d="M16.0321 24.5884L16.5646 24.4291L17.0263 24.0956L17.3805 23.644L17.6682 23.1488L17.9221 22.6363L18.2111 22.1343L18.355 21.575L18.5056 21.0213L18.6452 20.4645L18.7743 19.9434L18.2363 19.8991L17.6854 19.909L17.1345 19.8628L16.5836 19.9164L16.0328 19.8868L15.4819 19.9041L14.9304 19.8579L14.3795 19.8856L13.828 19.8591L13.2617 19.8684L13.3994 20.4694L13.4923 21.0392L13.6773 21.5855L13.9362 22.1023L14.1698 22.6234L14.4114 23.1408L14.6629 23.6594L15.0521 24.0827L15.4628 24.4937L16.0321 24.5884Z" fill="black"/>
<path d="M20.7709 15.9905L20.6867 16.578L20.7051 17.1674L20.6375 17.7531L20.6172 18.3222L21.1386 18.377L21.6667 18.3665L22.1955 18.3714H22.7242L23.253 18.3376L23.7823 18.3228L24.3154 18.3561L24.4525 17.8306L24.5515 17.3102L24.5884 16.7817L24.6062 16.2544L24.64 15.7259L24.5613 15.2018L24.5761 14.6671L24.4144 14.159L24.3178 13.6182L23.7829 13.684L23.2542 13.6311L22.7254 13.628L22.1967 13.6698L21.6679 13.6538L21.1386 13.684L20.6172 13.6588L20.6375 14.2285L20.6977 14.8136L20.683 15.4029L20.7709 15.9905Z" fill="black"/>
</g>
<defs>
<clipPath id="clip0_4150_1667">
<rect width="32" height="32" fill="white"/>
</clipPath>
</defs>
</svg>
