<svg width="24" height="22" viewBox="0 0 24 22" fill="none" xmlns="http://www.w3.org/2000/svg">
<path fill-rule="evenodd" clip-rule="evenodd" d="M3.97655 1.8385C4.73124 1.65522 5.49922 2.10839 5.70119 2.86272C5.83883 3.37591 5.67999 3.89916 5.32888 4.24991L9.65755 20.4052C9.76033 20.7883 9.53249 21.1829 9.1494 21.2857C8.7663 21.3881 8.37171 21.1607 8.26893 20.7772L3.94026 4.62186C3.46085 4.49392 3.06158 4.12017 2.9243 3.60698C2.72521 2.86451 3.14676 2.10084 3.87054 1.86905L3.94061 1.84641L3.97655 1.8385Z" fill="#F5BB1E"/>
<path d="M22.1836 5.94043C22.2688 5.94844 22.3329 5.99189 22.3682 6.04492L22.3936 6.10059C22.4081 6.15356 22.3983 6.21481 22.3584 6.26562L22.3076 6.3125L10.6055 14.3545C10.5403 14.3994 10.45 14.4132 10.3672 14.3848H10.3662C10.3068 14.364 10.2639 14.3259 10.2393 14.2832L10.2207 14.2393L7.60645 4.8584V4.85742L7.59961 4.81348C7.59895 4.78362 7.60626 4.75322 7.62109 4.72461L7.64941 4.68262C7.69782 4.62785 7.77857 4.59349 7.86719 4.60156L22.1836 5.94043Z" stroke="white" stroke-width="1.2"/>
</svg>
