<svg width="24" height="22" viewBox="0 0 24 22" fill="none" xmlns="http://www.w3.org/2000/svg">
<path d="M6.37243 14.3377C6.14216 14.3377 5.91385 14.2368 5.75824 14.043C3.65003 11.4098 3.26847 7.76203 4.78607 4.75002C4.98097 4.36296 5.45291 4.20578 5.84194 4.40186C6.22939 4.59716 6.3854 5.06989 6.1901 5.45734C4.94836 7.92157 5.26076 10.9065 6.98544 13.0606C7.25658 13.3994 7.20196 13.8941 6.86284 14.1652C6.71823 14.2812 6.54494 14.3377 6.37243 14.3377Z" fill="white"/>
<path d="M6.84852 3.97294C6.64576 3.97294 6.44339 3.89513 6.28935 3.73952C5.98441 3.43066 5.98716 2.93317 6.29603 2.62824L6.57542 2.35199C6.88428 2.04706 7.38176 2.04942 7.68709 2.35867C7.99202 2.66754 7.98927 3.16502 7.68041 3.46995L7.40102 3.7462C7.24816 3.89749 7.04814 3.97294 6.84852 3.97294Z" fill="#F5BB1E"/>
<path d="M18.6413 14.3374C18.4692 14.3374 18.2955 14.2808 18.1505 14.1649C17.8118 13.8937 17.7568 13.399 18.0279 13.0603C19.9334 10.6809 20.0835 7.24963 18.3946 4.71624C16.4707 1.83038 12.5222 0.761537 9.40413 2.28306C9.01354 2.47325 8.54395 2.31096 8.35337 1.92154C8.16279 1.53134 8.32468 1.06097 8.71489 0.870386C12.5883 -1.02052 17.3116 0.258554 19.7023 3.84388C21.7673 6.94076 21.5834 11.1344 19.2551 14.0423C19.0999 14.2364 18.8716 14.3374 18.6413 14.3374Z" fill="white"/>
<path d="M12.5146 13.3459C12.5142 13.3459 12.5142 13.3459 12.5146 13.3459C11.3573 13.3459 10.25 12.9333 9.39688 12.1839C7.77555 10.7599 7.32954 8.34397 8.3359 6.43932C9.14264 4.91308 10.7887 3.92676 12.5299 3.92676C12.9111 3.92676 13.2911 3.97352 13.6585 4.06586C15.7243 4.58417 17.223 6.50769 17.223 8.63987C17.223 10.1657 16.4787 11.6043 15.2331 12.4881C14.4416 13.0492 13.5021 13.3459 12.5146 13.3459ZM12.5299 5.49858C11.3644 5.49858 10.2633 6.15599 9.72579 7.17375C9.05501 8.4426 9.35326 10.0533 10.4343 11.0031C11.0001 11.5002 11.7389 11.7741 12.5142 11.7741C13.174 11.7741 13.8 11.5776 14.3238 11.2063C15.1553 10.6168 15.6516 9.65762 15.6516 8.63987C15.6516 7.21855 14.6527 5.93594 13.2761 5.59053C13.0333 5.52962 12.7822 5.49858 12.5299 5.49858Z" fill="#F5BB1E"/>
<path d="M12.5083 22.0001C12.3362 22.0001 12.1625 21.9435 12.0175 21.8276C11.6788 21.5564 11.6237 21.0617 11.8949 20.723L18.0297 13.0603C18.3012 12.7212 18.7952 12.667 19.1347 12.9381C19.4734 13.2093 19.5284 13.704 19.2573 14.0427L13.1225 21.7054C12.9669 21.8991 12.7386 22.0001 12.5083 22.0001Z" fill="white"/>
<path d="M12.5073 22.0001C12.277 22.0001 12.0487 21.8991 11.8931 21.7054L5.75829 14.0427C5.48715 13.704 5.54177 13.2093 5.8809 12.9381C6.21923 12.667 6.71396 12.7212 6.98589 13.0603L13.1207 20.723C13.3918 21.0617 13.3372 21.5564 12.9981 21.8276C12.8527 21.9435 12.6794 22.0001 12.5073 22.0001Z" fill="white"/>
</svg>
