<svg width="24" height="24" viewBox="0 0 24 24" fill="none" xmlns="http://www.w3.org/2000/svg">
<path d="M12 20.0488C7.56203 20.0488 3.95117 16.438 3.95117 12C3.95117 7.56213 7.56203 3.95127 12 3.95127C16.4379 3.95127 20.0487 7.56213 20.0487 12C20.0487 16.438 16.4379 20.0488 12 20.0488Z" stroke="#65B0D4" stroke-width="1.14472" stroke-miterlimit="10" stroke-linecap="round" stroke-linejoin="round"/>
<path d="M12 7V12H16" stroke="#65B0D4" stroke-width="1.14" stroke-linecap="round" stroke-linejoin="round"/>
<path d="M5.08919 19.2233C5.43846 19.5726 5.43846 20.1388 5.08919 20.488C4.73991 20.8373 4.17368 20.8373 3.82445 20.488C3.47518 20.1388 3.47518 19.5726 3.82445 19.2233C4.17368 18.874 4.73991 18.874 5.08919 19.2233Z" fill="#F5BB1E" stroke="#F5BB1E" stroke-width="1.14472" stroke-miterlimit="10" stroke-linecap="round" stroke-linejoin="round"/>
<path d="M19.9525 3.50945C20.3017 3.85872 20.3017 4.42495 19.9525 4.77418C19.6032 5.12345 19.037 5.12345 18.6877 4.77418C18.3385 4.42495 18.3385 3.85872 18.6877 3.50945C19.037 3.16017 19.6032 3.16017 19.9525 3.50945Z" fill="#F5BB1E" stroke="#F5BB1E" stroke-width="1.14472" stroke-miterlimit="10" stroke-linecap="round" stroke-linejoin="round"/>
<path d="M21.91 7.22342C22.6093 8.66853 23.0016 10.2888 23.0016 11.999C23.0016 18.0645 18.0671 22.999 12.0016 22.999C9.36937 22.999 6.95009 22.0697 5.05469 20.5218" stroke="#F5BB1E" stroke-width="1.14472" stroke-miterlimit="10" stroke-linecap="round" stroke-linejoin="round"/>
<path d="M1.98799 16.5537C1.35365 15.165 1 13.6223 1 11.9985C1 5.93312 5.93457 0.998553 12 0.998553C14.5822 0.998553 16.9595 1.89291 18.8383 3.38815" stroke="#F5BB1E" stroke-width="1.14472" stroke-miterlimit="10" stroke-linecap="round" stroke-linejoin="round"/>
</svg>
