<svg width="24" height="24" viewBox="0 0 24 24" fill="none" xmlns="http://www.w3.org/2000/svg">
<path d="M12.291 13.377C12.531 13.377 12.7369 13.4636 12.8975 13.6367L12.9551 13.7021C13.0811 13.8597 13.1426 14.0495 13.1426 14.2637C13.1425 14.4775 13.0808 14.6672 12.9561 14.8271L12.8994 14.8945C12.738 15.0653 12.531 15.1504 12.291 15.1504C12.0541 15.1504 11.8486 15.0642 11.6846 14.8955L11.6836 14.8945C11.5204 14.7218 11.4395 14.5081 11.4395 14.2637C11.4395 14.0496 11.501 13.8597 11.627 13.7021L11.6846 13.6367C11.848 13.4645 12.0534 13.377 12.291 13.377ZM12.4941 5.84961C13.0044 5.84961 13.4612 5.94996 13.8604 6.1543L14.0068 6.2334C14.3368 6.42669 14.6025 6.68448 14.8018 7.00586L14.8838 7.14551C15.0621 7.47736 15.1503 7.84965 15.1504 8.25879C15.1504 8.7646 15.0335 9.20508 14.7949 9.57324L14.7959 9.57422C14.5663 9.93003 14.2537 10.2318 13.8623 10.4795H13.8613C13.6801 10.5934 13.532 10.7011 13.415 10.8018L13.3076 10.9004C13.1852 11.0225 13.1021 11.1507 13.0527 11.2832L13.0518 11.2822C13.0049 11.4139 12.9783 11.5787 12.9746 11.7793V11.7803C12.9703 11.993 12.9199 12.1802 12.8145 12.333L12.8154 12.334C12.6983 12.5052 12.5101 12.5781 12.291 12.5781C12.0676 12.5781 11.8793 12.4987 11.7529 12.3262L11.749 12.3213C11.6408 12.1617 11.5898 11.9736 11.5898 11.7646V11.6055C11.5898 11.3167 11.6329 11.0542 11.7217 10.8213C11.8104 10.5846 11.9471 10.3692 12.1299 10.1758C12.3104 9.98064 12.5355 9.79872 12.8027 9.62988C13.0241 9.4868 13.1956 9.35092 13.3203 9.22266L13.4082 9.12402C13.4892 9.02384 13.5496 8.92002 13.5898 8.81348L13.625 8.70215C13.6561 8.58569 13.6729 8.45679 13.6729 8.31445C13.6729 8.07996 13.6203 7.88242 13.5205 7.7168L13.5186 7.71484C13.4213 7.54798 13.2842 7.41805 13.1035 7.32422L13.1016 7.32324C12.9225 7.22669 12.7065 7.17486 12.4482 7.1748C12.1038 7.1748 11.8329 7.26384 11.625 7.43066L11.624 7.43164C11.4146 7.59607 11.2619 7.83828 11.1719 8.16992L11.1709 8.17188C11.1284 8.31963 11.0739 8.44855 11.002 8.54688L10.9248 8.63477H10.9238C10.8108 8.73637 10.6624 8.77731 10.499 8.77734C10.3093 8.77734 10.142 8.72032 10.0186 8.58984L10.0166 8.58691C9.89892 8.4567 9.84961 8.28263 9.84961 8.08691C9.84963 7.94737 9.86235 7.81474 9.8877 7.68945L9.88867 7.68457L9.94238 7.49902C9.96315 7.43749 9.98686 7.37558 10.0137 7.31445C10.2004 6.85178 10.5141 6.49045 10.9502 6.2334L10.9512 6.23242L11.1201 6.14258C11.522 5.94638 11.9812 5.84962 12.4941 5.84961Z" fill="#F5BB1E" stroke="#F5BB1E" stroke-width="0.3"/>
<path d="M12.5 0C6.69627 0 2 4.61006 2 10.3065C2 14.958 5.11817 18.8203 9.32218 20.132L11.7101 23.5889C11.8877 23.846 12.1836 24 12.5 24C12.8164 24 13.1123 23.846 13.2899 23.5889L15.6778 20.132C19.8837 18.8197 23 14.956 23 10.3065C23 4.60645 18.3 0 12.5 0ZM14.8217 18.4265C14.6043 18.4862 14.4155 18.6196 14.2888 18.8031L12.5 21.3926L10.7112 18.8031C10.5845 18.6197 10.3957 18.4862 10.1783 18.4266C6.59981 17.4438 3.90909 14.2116 3.90909 10.3065C3.90909 5.65734 7.76297 1.875 12.5 1.875C17.237 1.875 21.0909 5.65734 21.0909 10.3065C21.0909 14.2155 18.3962 17.4449 14.8217 18.4265Z" fill="white"/>
</svg>
