<svg width="35" height="36" viewBox="0 0 35 36" fill="none" xmlns="http://www.w3.org/2000/svg">
<path d="M7.92734 26.297H27.0756C28.5117 26.297 29.6788 25.1332 29.6788 23.6949V7.96789C29.6788 4.37273 26.765 1.45898 23.1709 1.45898H11.8309C8.23797 1.45898 5.32422 4.37273 5.32422 7.96789V23.6949C5.32422 25.1321 6.49016 26.297 7.92734 26.297ZM24.5512 22.7182C23.5931 22.7182 22.8155 21.9405 22.8155 20.9813C22.8155 20.0243 23.5931 19.2466 24.5512 19.2466C25.5105 19.2466 26.287 20.0243 26.287 20.9813C26.287 21.9416 25.5105 22.7182 24.5512 22.7182ZM26.2859 8.18336V15.342H18.8681V8.18336H26.2859ZM8.71594 8.18336H16.1327V15.342H8.71594V8.18336ZM10.4517 19.2477C11.4098 19.2477 12.1864 20.0254 12.1864 20.9824C12.1864 21.9416 11.4098 22.7193 10.4517 22.7193C9.4925 22.7193 8.71594 21.9416 8.71594 20.9824C8.71594 20.0254 9.4925 19.2477 10.4517 19.2477Z" fill="black"/>
<path d="M27.62 34.5403H30.8914L26.0844 28.249H22.8119L24.1178 29.9586H10.878L12.1839 28.249H8.9125L4.10547 34.5403H7.37578L9.06672 32.3276H25.9302L27.62 34.5403Z" fill="black"/>
</svg>
