<svg width="32" height="22" viewBox="0 0 32 22" fill="none" xmlns="http://www.w3.org/2000/svg">
<g clip-path="url(#clip0_4180_6783)">
<ellipse cx="14.1394" cy="6.74346" rx="6.13938" ry="6.24346" fill="black"/>
<path d="M16.7945 6.12949H14.6362V4.03433C14.6362 3.64863 14.314 3.33594 13.9167 3.33594C13.5194 3.33594 13.1973 3.64863 13.1973 4.03433V6.82788C13.1973 7.21357 13.5194 7.52626 13.9167 7.52626H16.7945C17.1918 7.52626 17.5139 7.21357 17.5139 6.82788C17.5139 6.44218 17.1918 6.12949 16.7945 6.12949Z" fill="#F2F2F2"/>
<path d="M26.9771 15.8235C27.9018 15.8235 28.6515 15.0611 28.6515 14.1207C28.6515 13.1803 27.9018 12.418 26.9771 12.418C26.0524 12.418 25.3027 13.1803 25.3027 14.1207C25.3027 15.0611 26.0524 15.8235 26.9771 15.8235Z" fill="black"/>
<path d="M30.5291 17.8413C31.4778 16.8644 32.0004 15.5656 32.0004 14.184C32.0004 11.332 29.747 9.01172 26.9772 9.01172C24.2075 9.01172 21.9541 11.332 21.9541 14.184C21.9541 15.5656 22.4766 16.8644 23.4254 17.8413L25.861 20.3635L26.4191 21.4986H26.9772L30.5291 17.8413ZM24.009 14.1841C24.009 12.4988 25.3406 11.1278 26.9772 11.1278C28.6139 11.1278 29.9454 12.4988 29.9454 14.1841C29.9454 15.8693 28.6139 17.2404 26.9772 17.2404C25.3406 17.2404 24.009 15.8693 24.009 14.1841Z" fill="black"/>
<path d="M21.1119 20.1055H18.2341C17.8368 20.1055 17.5146 20.4182 17.5146 20.8039C17.5146 21.1896 17.8368 21.5022 18.2341 21.5022H21.1119C21.5092 21.5022 21.8313 21.1896 21.8313 20.8039C21.8313 20.4182 21.5092 20.1055 21.1119 20.1055Z" fill="black"/>
<path d="M13.2021 12.5829L13.2021 15.3211C13.2021 15.7252 13.5096 16.0527 13.8889 16.0527C14.2682 16.0527 14.5756 15.7252 14.5756 15.3211L14.5756 12.5829C14.5756 12.1788 14.2682 11.8513 13.8889 11.8513C13.5096 11.8513 13.2021 12.1788 13.2021 12.5829Z" fill="black"/>
<path d="M26.6656 20.1055H23.7878C23.3905 20.1055 23.0684 20.4182 23.0684 20.8039C23.0684 21.1896 23.3905 21.5022 23.7878 21.5022H26.6656C27.0629 21.5022 27.385 21.1896 27.385 20.8039C27.385 20.4182 27.0629 20.1055 26.6656 20.1055Z" fill="black"/>
<path d="M13.9167 17.3125C13.5194 17.3125 13.1973 17.6252 13.1973 18.0109V19.4062C13.1973 20.5615 14.1655 21.5014 15.3556 21.5014C15.7529 21.5014 16.0751 21.1887 16.0751 20.803C16.0751 20.4173 15.7529 20.1046 15.3556 20.1046C14.9589 20.1046 14.6362 19.7913 14.6362 19.4062V18.0109C14.6362 17.6252 14.314 17.3125 13.9167 17.3125Z" fill="black"/>
</g>
<defs>
<clipPath id="clip0_4180_6783">
<rect width="32" height="21" fill="white" transform="translate(0 0.5)"/>
</clipPath>
</defs>
</svg>
