<svg width="24" height="24" viewBox="0 0 24 24" fill="none" xmlns="http://www.w3.org/2000/svg">
<g clip-path="url(#clip0_1401_14401)">
<path d="M0.0550299 19.0244C0.170761 17.8338 0.361397 17.6019 0.433408 17.5147C0.598968 17.3131 0.863863 17.1814 1.14419 17.0432C1.16004 17.0355 1.17373 17.0246 1.18417 17.0112C1.19462 16.9979 1.20153 16.9825 1.20437 16.9662C1.2072 16.95 1.20589 16.9334 1.20052 16.9177C1.19516 16.902 1.18589 16.8877 1.17344 16.8759C1.12153 16.8276 1.08163 16.7696 1.05649 16.7059C1.03136 16.6422 1.02157 16.5742 1.02782 16.5067C1.03991 16.3869 1.10066 16.2757 1.19801 16.1951C1.29537 16.1145 1.42223 16.0704 1.55343 16.0715H2.05493C2.07643 16.0716 2.0979 16.0729 2.11923 16.0753C2.13387 16.0695 2.14903 16.0649 2.16455 16.0615C2.4616 15.486 2.86827 14.6982 3.71117 14.3137C4.9614 13.7438 7.26445 13.7144 7.71451 13.7144C8.16458 13.7144 10.4676 13.7438 11.7162 14.3128C12.5592 14.6973 12.9658 15.4852 13.2629 16.0606L13.2654 16.0653C13.2803 16.0672 13.2948 16.0706 13.3088 16.0753C13.3302 16.0729 13.3516 16.0716 13.3731 16.0715H13.8756C14.0068 16.0704 14.1337 16.1145 14.231 16.1951C14.3284 16.2757 14.3891 16.3869 14.4012 16.5067C14.4069 16.5741 14.3967 16.6418 14.3712 16.7052C14.3458 16.7686 14.3057 16.8262 14.2537 16.8741C14.2412 16.8859 14.2319 16.9003 14.2266 16.916C14.2212 16.9316 14.2199 16.9482 14.2227 16.9645C14.2256 16.9807 14.2325 16.9961 14.2429 17.0095C14.2534 17.0228 14.2671 17.0338 14.2829 17.0415C14.5632 17.1805 14.8294 17.3122 14.9937 17.5129C15.0657 17.6013 15.256 17.832 15.3721 19.0226C15.4364 19.6927 15.446 20.3862 15.3955 20.8329C15.2898 21.7611 15.0914 22.3221 15.0831 22.3453C15.0526 22.43 14.9966 22.5051 14.9215 22.5618C14.8464 22.6185 14.7553 22.6545 14.6587 22.6656V22.6715C14.6587 22.7965 14.6045 22.9164 14.5081 23.0048C14.4116 23.0933 14.2808 23.1429 14.1444 23.1429H12.3441C12.2077 23.1429 12.0768 23.0933 11.9804 23.0048C11.8839 22.9164 11.8297 22.7965 11.8297 22.6715C11.5529 22.6715 11.3604 22.6261 11.1562 22.5778C10.8615 22.505 10.5603 22.4566 10.2561 22.4331C9.27528 22.3474 8.29992 22.3179 7.71451 22.3179C7.141 22.3179 6.12257 22.3474 5.14014 22.4331C4.83477 22.4567 4.53234 22.5053 4.23647 22.5784C4.04101 22.6244 3.85552 22.6668 3.59866 22.6712C3.59866 22.7962 3.54447 22.9161 3.44801 23.0046C3.35154 23.093 3.22071 23.1426 3.0843 23.1426H1.28403C1.14762 23.1426 1.01679 23.093 0.920323 23.0046C0.823862 22.9161 0.769671 22.7962 0.769671 22.6712V22.6677C0.672899 22.6567 0.581508 22.6208 0.506149 22.5641C0.43079 22.5074 0.374568 22.4323 0.344037 22.3474C0.335679 22.3241 0.137328 21.7631 0.0315628 20.835C-0.0189085 20.388 -0.00990772 19.6956 0.0550299 19.0244ZM12.3332 16.4637C12.076 15.9628 11.7818 15.3959 11.2581 15.1569C10.5014 14.8116 8.93291 14.656 7.71451 14.656C6.49612 14.656 4.92764 14.8104 4.17089 15.1569C3.6472 15.3959 3.35434 15.9631 3.09587 16.4637L3.06372 16.5276C3.04492 16.564 3.03661 16.6042 3.03958 16.6444C3.04255 16.6846 3.05671 16.7234 3.08069 16.7571C3.10468 16.7909 3.13769 16.8184 3.17659 16.8371C3.21549 16.8559 3.25898 16.8651 3.3029 16.8641C4.37117 16.8376 6.6215 16.7527 7.71451 16.7527C8.80753 16.7527 11.0579 16.8396 12.1277 16.8662C12.1717 16.8672 12.2151 16.8579 12.254 16.8392C12.2929 16.8205 12.326 16.7929 12.3499 16.7592C12.3739 16.7254 12.3881 16.6866 12.3911 16.6465C12.394 16.6063 12.3857 16.5661 12.3669 16.5297C12.3557 16.5079 12.3438 16.4858 12.3332 16.4637ZM11.9496 18.8099C12.5026 18.8709 13.0592 18.901 13.6162 18.9001C13.9569 18.9001 14.3083 18.8117 14.3736 18.5335C14.4183 18.3464 14.4134 18.2412 14.3893 18.1355C14.3691 18.0456 14.3369 17.9802 14.1762 17.9572C13.7583 17.8983 13.5245 17.9722 12.8404 18.157C12.3868 18.2793 12.0596 18.4422 11.8731 18.5712C11.7796 18.6349 11.8294 18.8011 11.9496 18.8099ZM4.8328 21.226C5.25587 21.2702 6.10199 21.254 7.70487 21.254C9.30775 21.254 10.1536 21.2702 10.5766 21.226C11.0132 21.1815 11.5697 20.8032 11.1897 20.4661C10.9367 20.2439 10.3464 20.0778 9.56043 19.9844C8.77442 19.891 8.44169 19.8429 7.70808 19.8429C6.97448 19.8429 6.6755 19.8724 5.85574 19.9847C5.03598 20.0969 4.41649 20.2652 4.2265 20.4664C3.87995 20.827 4.39656 21.1791 4.8328 21.2277V21.226ZM1.05546 18.5332C1.11976 18.8126 1.47338 18.8998 1.81286 18.8998C2.38051 18.8999 2.9477 18.8698 3.51154 18.8096C3.60991 18.8011 3.65556 18.6428 3.5559 18.571C3.37234 18.4387 3.04154 18.279 2.58858 18.1567C1.90448 17.9719 1.51003 17.898 1.17119 17.9596C1.08858 17.9746 1.04485 18.0559 1.03971 18.1069C1.01704 18.2488 1.02237 18.3933 1.05546 18.5335V18.5332Z" fill="black"/>
<path d="M21.3066 3.56811C17.7134 -0.0464649 11.8857 -0.0464649 8.29247 3.56811C6.00891 5.86522 5.17919 9.06842 5.79763 12.0212C5.88823 12.4536 6.31219 12.7308 6.74463 12.6402C7.17711 12.5496 7.45423 12.1256 7.36367 11.6932C6.85055 9.2433 7.54027 6.59426 9.42719 4.69614C12.3948 1.71087 17.2043 1.71087 20.1719 4.69614C23.1421 7.68402 23.1421 12.5303 20.1719 15.5181L16.714 19.2857C16.4025 19.5991 16.404 20.1056 16.7174 20.4171C17.0307 20.7286 17.5372 20.7271 17.8487 20.4137L21.3066 16.6462C24.8972 13.0342 24.8972 7.18006 21.3066 3.56811Z" fill="black"/>
<path fill-rule="evenodd" clip-rule="evenodd" d="M14.0004 11.6571H15.2004C16.7468 11.6571 18.0004 10.4035 18.0004 8.85713C18.0004 7.31073 16.7468 6.05713 15.2004 6.05713H13.2004C12.7586 6.05713 12.4004 6.41529 12.4004 6.85713V13.2571C12.4004 13.699 12.7586 14.0571 13.2004 14.0571C13.6422 14.0571 14.0004 13.699 14.0004 13.2571V11.6571ZM14.0004 7.65713V10.0571H15.2004C15.8632 10.0571 16.4004 9.51989 16.4004 8.85713C16.4004 8.19437 15.8632 7.65713 15.2004 7.65713H14.0004Z" fill="black"/>
</g>
<defs>
<clipPath id="clip0_1401_14401">
<rect width="24" height="24" fill="white"/>
</clipPath>
</defs>
</svg>
