<svg width="54" height="20" viewBox="0 0 54 20" fill="none" xmlns="http://www.w3.org/2000/svg">
<g clip-path="url(#clip0_4413_12800)">
<path d="M1.18516 16.709C0.530089 16.709 0 17.2391 0 17.8941C0 18.5492 0.530089 19.0793 1.18516 19.0793C1.84023 19.0793 2.37032 18.5492 2.37032 17.8941C2.37032 17.2391 1.84023 16.709 1.18516 16.709Z" fill="#928DAB"/>
<path d="M7.86092 12.2179C8.69398 12.2179 9.36931 11.5426 9.36931 10.7096C9.36931 9.8765 8.69398 9.20117 7.86092 9.20117C7.02787 9.20117 6.35254 9.8765 6.35254 10.7096C6.35254 11.5426 7.02787 12.2179 7.86092 12.2179Z" fill="#928DAB"/>
<path d="M8.36482 15.665C7.13656 15.665 6.13672 16.6606 6.13672 17.8931C6.13672 19.1257 7.13225 20.1212 8.36482 20.1212C9.59738 20.1212 10.5929 19.1257 10.5929 17.8931C10.5929 16.6606 9.59738 15.665 8.36482 15.665Z" fill="#928DAB"/>
<path d="M15.0406 12.8644C16.2307 12.8644 17.1954 11.8996 17.1954 10.7095C17.1954 9.51944 16.2307 8.55469 15.0406 8.55469C13.8505 8.55469 12.8857 9.51944 12.8857 10.7095C12.8857 11.8996 13.8505 12.8644 15.0406 12.8644Z" fill="#928DAB"/>
<path d="M15.5497 15.9551C14.4809 15.9551 13.6104 16.8213 13.6104 17.8944C13.6104 18.9675 14.4766 19.8338 15.5497 19.8338C16.6228 19.8338 17.4891 18.9675 17.4891 17.8944C17.4891 16.8213 16.6228 15.9551 15.5497 15.9551Z" fill="#928DAB"/>
<path d="M22.225 9.01562C21.2898 9.01562 20.5312 9.77413 20.5312 10.7093C20.5312 11.6445 21.2898 12.403 22.225 12.403C23.1601 12.403 23.9187 11.6445 23.9187 10.7093C23.9187 9.77413 23.1601 9.01562 22.225 9.01562Z" fill="#928DAB"/>
<path d="M22.7332 19.0709C23.383 19.0709 23.9097 18.5441 23.9097 17.8943C23.9097 17.2445 23.383 16.7178 22.7332 16.7178C22.0834 16.7178 21.5566 17.2445 21.5566 17.8943C21.5566 18.5441 22.0834 19.0709 22.7332 19.0709Z" fill="#928DAB"/>
<path d="M29.4095 8.34766C28.1037 8.34766 27.0479 9.40353 27.0479 10.7094C27.0479 12.0152 28.1037 13.0711 29.4095 13.0711C30.7154 13.0711 31.7713 12.0152 31.7713 10.7094C31.7713 9.40353 30.7154 8.34766 29.4095 8.34766Z" fill="#928DAB"/>
<path d="M29.918 15.7129C28.7156 15.7129 27.7373 16.6869 27.7373 17.8936C27.7373 19.1003 28.7113 20.0743 29.918 20.0743C31.1247 20.0743 32.0987 19.1003 32.0987 17.8936C32.0987 16.6869 31.1247 15.7129 29.918 15.7129Z" fill="#928DAB"/>
<path d="M22.3238 4.03427C23.2401 4.03427 23.983 3.29141 23.983 2.37504C23.983 1.45868 23.2401 0.71582 22.3238 0.71582C21.4074 0.71582 20.6646 1.45868 20.6646 2.37504C20.6646 3.29141 21.4074 4.03427 22.3238 4.03427Z" fill="#928DAB"/>
<path d="M36.5935 8.33887C35.2833 8.33887 34.2231 9.39905 34.2231 10.7092C34.2231 12.0193 35.2833 13.0795 36.5935 13.0795C37.9036 13.0795 38.9638 12.0193 38.9638 10.7092C38.9638 9.39905 37.9036 8.33887 36.5935 8.33887Z" fill="#928DAB"/>
<path d="M37.0977 15.7646C35.9212 15.7646 34.9688 16.7171 34.9688 17.8936C34.9688 19.0702 35.9212 20.0226 37.0977 20.0226C38.2743 20.0226 39.2267 19.0702 39.2267 17.8936C39.2267 16.7171 38.2743 15.7646 37.0977 15.7646Z" fill="#928DAB"/>
<path d="M29.5084 0C28.1983 0 27.1338 1.06449 27.1338 2.37463C27.1338 3.68477 28.1983 4.74926 29.5084 4.74926C30.8186 4.74926 31.883 3.68477 31.883 2.37463C31.883 1.06449 30.8186 0 29.5084 0Z" fill="#928DAB"/>
<path d="M43.7732 9.43359C43.0707 9.43359 42.4976 10.0025 42.4976 10.7093C42.4976 11.416 43.0664 11.9849 43.7732 11.9849C44.48 11.9849 45.0489 11.416 45.0489 10.7093C45.0489 10.0025 44.48 9.43359 43.7732 9.43359Z" fill="#928DAB"/>
<path d="M44.2819 16.8125C43.6829 16.8125 43.2002 17.2952 43.2002 17.8942C43.2002 18.4933 43.6829 18.976 44.2819 18.976C44.881 18.976 45.3637 18.4933 45.3637 17.8942C45.3637 17.2952 44.881 16.8125 44.2819 16.8125Z" fill="#928DAB"/>
<path d="M51.4658 16.5059C50.6987 16.5059 50.0781 17.1265 50.0781 17.8936C50.0781 18.6607 50.6987 19.2813 51.4658 19.2813C52.233 19.2813 52.8536 18.6607 52.8536 17.8936C52.8536 17.1265 52.233 16.5059 51.4658 16.5059Z" fill="#928DAB"/>
</g>
<defs>
<clipPath id="clip0_4413_12800">
<rect width="54" height="20" fill="white"/>
</clipPath>
</defs>
</svg>
