<svg width="54" height="20" viewBox="0 0 54 20" fill="none" xmlns="http://www.w3.org/2000/svg">
<g clip-path="url(#clip0_4418_15268)">
<path d="M1.18516 16.709C0.530089 16.709 0 17.2391 0 17.8941C0 18.5492 0.530089 19.0793 1.18516 19.0793C1.84023 19.0793 2.37032 18.5492 2.37032 17.8941C2.37032 17.2391 1.84023 16.709 1.18516 16.709Z" fill="white"/>
<path d="M7.85995 12.2179C8.693 12.2179 9.36833 11.5426 9.36833 10.7096C9.36833 9.8765 8.693 9.20117 7.85995 9.20117C7.02689 9.20117 6.35156 9.8765 6.35156 10.7096C6.35156 11.5426 7.02689 12.2179 7.85995 12.2179Z" fill="white"/>
<path d="M8.36482 15.665C7.13656 15.665 6.13672 16.6606 6.13672 17.8931C6.13672 19.1257 7.13225 20.1212 8.36482 20.1212C9.59738 20.1212 10.5929 19.1257 10.5929 17.8931C10.5929 16.6606 9.59738 15.665 8.36482 15.665Z" fill="white"/>
<path d="M15.0416 12.8644C16.2316 12.8644 17.1964 11.8996 17.1964 10.7095C17.1964 9.51944 16.2316 8.55469 15.0416 8.55469C13.8515 8.55469 12.8867 9.51944 12.8867 10.7095C12.8867 11.8996 13.8515 12.8644 15.0416 12.8644Z" fill="white"/>
<path d="M15.5487 15.9551C14.4799 15.9551 13.6094 16.8213 13.6094 17.8944C13.6094 18.9675 14.4756 19.8338 15.5487 19.8338C16.6218 19.8338 17.4881 18.9675 17.4881 17.8944C17.4881 16.8213 16.6218 15.9551 15.5487 15.9551Z" fill="white"/>
<path d="M22.225 9.01562C21.2898 9.01562 20.5312 9.77413 20.5312 10.7093C20.5312 11.6445 21.2898 12.403 22.225 12.403C23.1601 12.403 23.9187 11.6445 23.9187 10.7093C23.9187 9.77413 23.1601 9.01562 22.225 9.01562Z" fill="white"/>
<path d="M22.7332 19.0709C23.383 19.0709 23.9097 18.5441 23.9097 17.8943C23.9097 17.2445 23.383 16.7178 22.7332 16.7178C22.0834 16.7178 21.5566 17.2445 21.5566 17.8943C21.5566 18.5441 22.0834 19.0709 22.7332 19.0709Z" fill="white"/>
<path d="M29.4086 8.34766C28.1027 8.34766 27.0469 9.40353 27.0469 10.7094C27.0469 12.0152 28.1027 13.0711 29.4086 13.0711C30.7144 13.0711 31.7703 12.0152 31.7703 10.7094C31.7703 9.40353 30.7144 8.34766 29.4086 8.34766Z" fill="white"/>
<path d="M29.917 15.7129C28.7146 15.7129 27.7363 16.6869 27.7363 17.8936C27.7363 19.1003 28.7103 20.0743 29.917 20.0743C31.1237 20.0743 32.0977 19.1003 32.0977 17.8936C32.0977 16.6869 31.1237 15.7129 29.917 15.7129Z" fill="white"/>
<path d="M22.3233 4.03427C23.2396 4.03427 23.9825 3.29141 23.9825 2.37504C23.9825 1.45868 23.2396 0.71582 22.3233 0.71582C21.4069 0.71582 20.6641 1.45868 20.6641 2.37504C20.6641 3.29141 21.4069 4.03427 22.3233 4.03427Z" fill="white"/>
<path d="M36.593 8.33887C35.2828 8.33887 34.2227 9.39905 34.2227 10.7092C34.2227 12.0193 35.2828 13.0795 36.593 13.0795C37.9031 13.0795 38.9633 12.0193 38.9633 10.7092C38.9633 9.39905 37.9031 8.33887 36.593 8.33887Z" fill="white"/>
<path d="M37.0977 15.7646C35.9212 15.7646 34.9688 16.7171 34.9688 17.8936C34.9688 19.0702 35.9212 20.0226 37.0977 20.0226C38.2743 20.0226 39.2267 19.0702 39.2267 17.8936C39.2267 16.7171 38.2743 15.7646 37.0977 15.7646Z" fill="white"/>
<path d="M29.5074 0C28.1973 0 27.1328 1.06449 27.1328 2.37463C27.1328 3.68477 28.1973 4.74926 29.5074 4.74926C30.8176 4.74926 31.8821 3.68477 31.8821 2.37463C31.8821 1.06449 30.8176 0 29.5074 0Z" fill="white"/>
<path d="M43.7737 9.43359C43.0712 9.43359 42.498 10.0025 42.498 10.7093C42.498 11.416 43.0669 11.9849 43.7737 11.9849C44.4805 11.9849 45.0494 11.416 45.0494 10.7093C45.0494 10.0025 44.4805 9.43359 43.7737 9.43359Z" fill="white"/>
<path d="M44.2809 16.8125C43.6819 16.8125 43.1992 17.2952 43.1992 17.8942C43.1992 18.4933 43.6819 18.976 44.2809 18.976C44.88 18.976 45.3627 18.4933 45.3627 17.8942C45.3627 17.2952 44.88 16.8125 44.2809 16.8125Z" fill="white"/>
<path d="M51.4658 16.5059C50.6987 16.5059 50.0781 17.1265 50.0781 17.8936C50.0781 18.6607 50.6987 19.2813 51.4658 19.2813C52.233 19.2813 52.8536 18.6607 52.8536 17.8936C52.8536 17.1265 52.233 16.5059 51.4658 16.5059Z" fill="white"/>
</g>
<defs>
<clipPath id="clip0_4418_15268">
<rect width="54" height="20" fill="white"/>
</clipPath>
</defs>
</svg>
