<?xml version="1.0" encoding="utf-8"?>
<!-- Generator: Adobe Illustrator 27.9.0, SVG Export Plug-In . SVG Version: 6.00 Build 0)  -->
<svg version="1.1" id="Layer_1" xmlns="http://www.w3.org/2000/svg" xmlns:xlink="http://www.w3.org/1999/xlink" x="0px" y="0px"
	 viewBox="0 0 14 18" style="enable-background:new 0 0 14 18;" xml:space="preserve">
<style type="text/css">
	.st0{fill:none;stroke:#B2A46F;stroke-width:0.7;stroke-linecap:round;}
	.st1{fill:#FFFFFF;stroke:#B2A46F;stroke-width:0.7;}
</style>
<path class="st0" d="M9.2,1.8c0,0-0.8,1.2,0,1.5c0.9,0.3,0,1.5,0,1.5"/>
<path class="st0" d="M7,1.8c0,0-0.8,1.2,0,1.5c0.9,0.3,0,1.5,0,1.5"/>
<path class="st0" d="M4.8,1.8c0,0-0.8,1.2,0,1.5c0.9,0.3,0,1.5,0,1.5"/>
<path class="st1" d="M7,5.9c0.8,0,1.4,0.6,1.4,1.1c0,0.3-0.1,0.4-0.3,0.6C7.8,7.8,7.4,7.8,7,7.8c-0.4,0-0.8-0.1-1-0.2
	C5.8,7.5,5.6,7.4,5.6,7.1C5.6,6.5,6.2,5.9,7,5.9z"/>
<path class="st1" d="M9.6,6.7c0.8,0,1.4,0.6,1.4,1.1c0,0.3-0.1,0.4-0.3,0.6c-0.2,0.1-0.6,0.2-1,0.2c-0.4,0-0.8-0.1-1-0.2
	C8.3,8.3,8.2,8.1,8.2,7.8C8.2,7.2,8.8,6.7,9.6,6.7z"/>
<path class="st1" d="M11.3,8.2c0.8,0,1.4,0.6,1.4,1.1c0,0.3-0.1,0.4-0.3,0.6c-0.2,0.1-0.6,0.2-1,0.2c-0.4,0-0.8-0.1-1-0.2
	C10,9.8,9.9,9.6,9.9,9.3C9.9,8.7,10.5,8.2,11.3,8.2z"/>
<path class="st1" d="M4.4,6.7c0.8,0,1.4,0.6,1.4,1.1c0,0.3-0.1,0.4-0.3,0.6c-0.2,0.1-0.6,0.2-1,0.2c-0.4,0-0.8-0.1-1-0.2
	C3.2,8.3,3.1,8.1,3.1,7.8C3.1,7.2,3.6,6.7,4.4,6.7z"/>
<path class="st1" d="M2.7,8.2c0.8,0,1.4,0.6,1.4,1.1c0,0.3-0.1,0.4-0.3,0.6c-0.2,0.1-0.6,0.2-1,0.2c-0.4,0-0.8-0.1-1-0.2
	C1.5,9.8,1.3,9.6,1.3,9.3C1.3,8.7,1.9,8.2,2.7,8.2z"/>
<path class="st1" d="M11.3,10c0.8,0,1.4,0.6,1.4,1.1c0,0.3-0.1,0.4-0.3,0.6c-0.2,0.1-0.6,0.2-1,0.2c-0.4,0-0.8-0.1-1-0.2
	c-0.2-0.1-0.3-0.3-0.3-0.6C9.9,10.6,10.5,10,11.3,10z"/>
<path class="st1" d="M2.7,10c0.8,0,1.4,0.6,1.4,1.1c0,0.3-0.1,0.4-0.3,0.6c-0.2,0.1-0.6,0.2-1,0.2c-0.4,0-0.8-0.1-1-0.2
	c-0.2-0.1-0.3-0.3-0.3-0.6C1.3,10.6,1.9,10,2.7,10z"/>
<path class="st1" d="M7,11.9c0.8,0,1.4,0.6,1.4,1.1c0,0.3-0.1,0.4-0.3,0.6c-0.2,0.1-0.6,0.2-1,0.2c-0.4,0-0.8-0.1-1-0.2
	c-0.2-0.1-0.3-0.3-0.3-0.6C5.6,12.5,6.2,11.9,7,11.9z"/>
<path class="st1" d="M9.6,11.5c0.8,0,1.4,0.6,1.4,1.1c0,0.3-0.1,0.4-0.3,0.6c-0.2,0.1-0.6,0.2-1,0.2c-0.4,0-0.8-0.1-1-0.2
	c-0.2-0.1-0.3-0.3-0.3-0.6C8.2,12.1,8.8,11.5,9.6,11.5z"/>
<path class="st1" d="M4.4,11.5c0.8,0,1.4,0.6,1.4,1.1c0,0.3-0.1,0.4-0.3,0.6c-0.2,0.1-0.6,0.2-1,0.2c-0.4,0-0.8-0.1-1-0.2
	c-0.2-0.1-0.3-0.3-0.3-0.6C3.1,12.1,3.6,11.5,4.4,11.5z"/>
</svg>
