<?xml version="1.0" encoding="utf-8"?>
<!-- Generator: Adobe Illustrator 27.9.0, SVG Export Plug-In . SVG Version: 6.00 Build 0)  -->
<svg version="1.1" id="Layer_1" xmlns="http://www.w3.org/2000/svg" xmlns:xlink="http://www.w3.org/1999/xlink" x="0px" y="0px"
	 viewBox="0 0 20 22" style="enable-background:new 0 0 20 22;" xml:space="preserve">
<style type="text/css">
	.st0{fill:none;stroke:#B2A46F;stroke-width:1.125;stroke-linecap:round;}
	.st1{fill:#FFFFFF;stroke:#B2A46F;stroke-width:1.125;}
</style>
<path class="st0" d="M13.3,1.2c0,0-1.2,1.8,0,2.2c1.3,0.4,0,2.2,0,2.2"/>
<path class="st0" d="M10,1.2c0,0-1.2,1.8,0,2.2c1.3,0.4,0,2.2,0,2.2"/>
<path class="st0" d="M6.7,1.2c0,0-1.2,1.8,0,2.2c1.3,0.4,0,2.2,0,2.2"/>
<path class="st1" d="M10,7.4c1.2,0,2,0.8,2,1.7c0,0.4-0.2,0.6-0.5,0.8s-0.9,0.3-1.5,0.3c-0.7,0-1.2-0.1-1.5-0.3C8.2,9.8,8,9.5,8,9.1
	C8,8.3,8.8,7.4,10,7.4z"/>
<path class="st1" d="M13.9,8.6c1.2,0,2,0.8,2,1.7c0,0.4-0.2,0.6-0.5,0.8s-0.9,0.3-1.5,0.3c-0.7,0-1.2-0.1-1.5-0.3s-0.5-0.4-0.5-0.8
	C11.8,9.4,12.7,8.6,13.9,8.6z"/>
<path class="st1" d="M16.4,10.8c1.2,0,2,0.8,2,1.7c0,0.4-0.2,0.6-0.5,0.8s-0.9,0.3-1.5,0.3c-0.7,0-1.2-0.1-1.5-0.3s-0.5-0.4-0.5-0.8
	C14.4,11.6,15.2,10.8,16.4,10.8z"/>
<path class="st1" d="M6.1,8.6c1.2,0,2,0.8,2,1.7c0,0.4-0.2,0.6-0.5,0.8s-0.9,0.3-1.5,0.3c-0.7,0-1.2-0.1-1.5-0.3s-0.5-0.4-0.5-0.8
	C4.1,9.4,5,8.6,6.1,8.6z"/>
<path class="st1" d="M3.6,10.8c1.2,0,2,0.8,2,1.7c0,0.4-0.2,0.6-0.5,0.8s-0.9,0.3-1.5,0.3c-0.7,0-1.2-0.1-1.5-0.3s-0.5-0.4-0.5-0.8
	C1.6,11.6,2.4,10.8,3.6,10.8z"/>
<path class="st1" d="M16.4,13.6c1.2,0,2,0.8,2,1.7c0,0.4-0.2,0.6-0.5,0.8c-0.3,0.2-0.9,0.3-1.5,0.3c-0.7,0-1.2-0.1-1.5-0.3
	c-0.3-0.2-0.5-0.4-0.5-0.8C14.4,14.4,15.2,13.6,16.4,13.6z"/>
<path class="st1" d="M3.6,13.6c1.2,0,2,0.8,2,1.7c0,0.4-0.2,0.6-0.5,0.8c-0.3,0.2-0.9,0.3-1.5,0.3c-0.7,0-1.2-0.1-1.5-0.3
	c-0.3-0.2-0.5-0.4-0.5-0.8C1.6,14.4,2.4,13.6,3.6,13.6z"/>
<path class="st1" d="M10,16.4c1.2,0,2,0.8,2,1.7c0,0.4-0.2,0.6-0.5,0.8c-0.3,0.2-0.9,0.3-1.5,0.3c-0.7,0-1.2-0.1-1.5-0.3
	S8,18.5,8,18.1C8,17.2,8.8,16.4,10,16.4z"/>
<path class="st1" d="M13.9,15.8c1.2,0,2,0.8,2,1.7c0,0.4-0.2,0.6-0.5,0.8c-0.3,0.2-0.9,0.3-1.5,0.3c-0.7,0-1.2-0.1-1.5-0.3
	c-0.3-0.2-0.5-0.4-0.5-0.8C11.8,16.7,12.7,15.8,13.9,15.8z"/>
<path class="st1" d="M6.1,15.8c1.2,0,2,0.8,2,1.7c0,0.4-0.2,0.6-0.5,0.8c-0.3,0.2-0.9,0.3-1.5,0.3c-0.7,0-1.2-0.1-1.5-0.3
	c-0.3-0.2-0.5-0.4-0.5-0.8C4.1,16.7,5,15.8,6.1,15.8z"/>
</svg>
