<?xml version="1.0" encoding="utf-8"?>
<!-- Generator: Adobe Illustrator 27.9.0, SVG Export Plug-In . SVG Version: 6.00 Build 0)  -->
<svg version="1.1" id="Layer_1" xmlns="http://www.w3.org/2000/svg" xmlns:xlink="http://www.w3.org/1999/xlink" x="0px" y="0px"
	 viewBox="0 0 20 22" style="enable-background:new 0 0 20 22;" xml:space="preserve">
<style type="text/css">
	.st0{fill:none;stroke:#B2A46F;stroke-width:1.0386;stroke-linecap:round;stroke-linejoin:round;stroke-miterlimit:10;}
</style>
<path class="st0" d="M17.3,10c0,4.1-3.3,7.3-7.3,7.3c-4.1,0-7.3-3.3-7.3-7.3c0-4.1,3.3-7.3,7.3-7.3C14.1,2.7,17.3,5.9,17.3,10z"/>
<path class="st0" d="M12.9,9c0,1.6-1.3,2.9-2.9,2.9C8.4,12,7.1,10.6,7.1,9c0-1.6,1.3-2.9,2.9-2.9C11.6,6.1,12.9,7.4,12.9,9z"/>
<path class="st0" d="M5.6,15.9C5.9,13.7,7.7,12,10,12c2.3,0,4.1,1.7,4.4,3.9"/>
</svg>
