<?xml version="1.0" encoding="utf-8"?>
<!-- Generator: Adobe Illustrator 27.9.0, SVG Export Plug-In . SVG Version: 6.00 Build 0)  -->
<svg version="1.1" id="Layer_1" xmlns="http://www.w3.org/2000/svg" xmlns:xlink="http://www.w3.org/1999/xlink" x="0px" y="0px"
	 viewBox="0 0 14 18" style="enable-background:new 0 0 14 18;" xml:space="preserve">
<style type="text/css">
	.st0{clip-path:url(#SVGID_00000026872715034706055520000004826397297800047538_);}
	.st1{fill:#B2A46F;}
</style>
<g>
	<defs>
		<rect id="SVGID_1_" x="2" y="2.5" width="10" height="13"/>
	</defs>
	<clipPath id="SVGID_00000049192410320642523340000017784809209713736603_">
		<use xlink:href="#SVGID_1_"  style="overflow:visible;"/>
	</clipPath>
	<g style="clip-path:url(#SVGID_00000049192410320642523340000017784809209713736603_);">
		<path class="st1" d="M10.1,3H3.9c-0.5,0-1,0.2-1.3,0.6C2.2,3.9,2,4.4,2,4.9v6.2c0,0.5,0.2,1,0.6,1.3C2.9,12.8,3.4,13,3.9,13h6.2
			c0.5,0,1-0.2,1.3-0.6c0.4-0.4,0.6-0.8,0.6-1.3V4.9c0-0.5-0.2-1-0.6-1.3C11.1,3.2,10.6,3,10.1,3z M11.3,11.1c0,0.3-0.1,0.6-0.4,0.9
			c-0.2,0.2-0.5,0.4-0.9,0.4H3.9c-0.3,0-0.6-0.1-0.9-0.4c-0.2-0.2-0.4-0.5-0.4-0.9V4.9C2.7,4.6,2.8,4.3,3,4c0.2-0.2,0.5-0.4,0.9-0.4
			h6.2c0.3,0,0.6,0.1,0.9,0.4c0.2,0.2,0.4,0.5,0.4,0.9V11.1z"/>
		<path class="st1" d="M10,8.6c-0.1,0-0.2,0-0.2,0.1C9.7,8.8,9.7,8.9,9.7,8.9v1.2L4.8,5.3h1.2c0.1,0,0.2,0,0.2-0.1S6.4,5.1,6.4,5
			c0-0.1,0-0.2-0.1-0.2C6.2,4.7,6.1,4.7,6.1,4.7H3.9c-0.1,0-0.1,0-0.2,0.1c0,0-0.1,0.1-0.1,0.2v2.2c0,0.1,0,0.2,0.1,0.2
			C3.8,7.4,3.9,7.4,4,7.4c0.1,0,0.2,0,0.2-0.1s0.1-0.1,0.1-0.2V5.8l4.9,4.9H7.9c-0.1,0-0.2,0-0.2,0.1c-0.1,0.1-0.1,0.1-0.1,0.2
			c0,0.1,0,0.2,0.1,0.2c0.1,0.1,0.1,0.1,0.2,0.1h2.2c0.1,0,0.1,0,0.2-0.1c0,0,0.1-0.1,0.1-0.2V8.9c0-0.1,0-0.2-0.1-0.2
			C10.2,8.6,10.1,8.6,10,8.6z"/>
	</g>
</g>
</svg>
