<?xml version="1.0" encoding="utf-8"?>
<!-- Generator: Adobe Illustrator 27.9.0, SVG Export Plug-In . SVG Version: 6.00 Build 0)  -->
<svg version="1.1" id="Layer_1" xmlns="http://www.w3.org/2000/svg" xmlns:xlink="http://www.w3.org/1999/xlink" x="0px" y="0px"
	 viewBox="0 0 20 22" style="enable-background:new 0 0 20 22;" xml:space="preserve">
<style type="text/css">
	.st0{fill:#B2A46F;}
</style>
<path class="st0" d="M14.6,2.5H5.4c-0.8,0-1.5,0.3-2,0.8c-0.5,0.5-0.8,1.3-0.8,2v9.3c0,0.8,0.3,1.5,0.8,2c0.5,0.5,1.3,0.8,2,0.8h9.3
	c0.8,0,1.5-0.3,2-0.8c0.5-0.5,0.8-1.3,0.8-2V5.4c0-0.8-0.3-1.5-0.8-2C16.1,2.8,15.4,2.5,14.6,2.5z M16.5,14.6c0,0.5-0.2,1-0.5,1.3
	c-0.3,0.3-0.8,0.5-1.3,0.5H5.4c-0.5,0-1-0.2-1.3-0.5c-0.3-0.3-0.5-0.8-0.5-1.3V5.4c0-0.5,0.2-1,0.5-1.3s0.8-0.5,1.3-0.5h9.3
	c0.5,0,1,0.2,1.3,0.5c0.3,0.3,0.5,0.8,0.5,1.3V14.6z"/>
<path class="st0" d="M14.5,10.9c-0.1,0-0.3,0.1-0.4,0.1c-0.1,0.1-0.1,0.2-0.1,0.4v1.9L6.7,6h1.9c0.1,0,0.3-0.1,0.4-0.1
	C9,5.8,9.1,5.6,9.1,5.5c0-0.1-0.1-0.3-0.1-0.4C8.8,5.1,8.7,5,8.6,5H5.3C5.3,5,5.2,5,5.1,5.1C5,5.2,5,5.3,5,5.3v3.2
	c0,0.1,0.1,0.3,0.1,0.4C5.2,9,5.4,9.1,5.5,9.1c0.1,0,0.3-0.1,0.4-0.1C5.9,8.8,6,8.7,6,8.6V6.7l7.3,7.3h-1.9c-0.1,0-0.3,0.1-0.4,0.1
	c-0.1,0.1-0.1,0.2-0.1,0.4s0.1,0.3,0.1,0.4c0.1,0.1,0.2,0.1,0.4,0.1h3.2c0.1,0,0.2,0,0.2-0.1s0.1-0.2,0.1-0.2v-3.2
	c0-0.1-0.1-0.3-0.1-0.4C14.8,11,14.6,10.9,14.5,10.9z"/>
</svg>
