<svg width="22" height="28" viewBox="0 0 22 28" fill="none" xmlns="http://www.w3.org/2000/svg">
<path d="M16.7148 9.82751L21.3496 18.8656V21.7269H0.650391V18.8656L5.28516 9.82751H16.7148Z" stroke="#B2A46F" stroke-width="1.3" stroke-linejoin="round"/>
<path d="M18.4972 18.7108H3.83052" stroke="#B2A46F" stroke-width="1.3" stroke-linecap="round"/>
<path d="M14.6665 13.2839L16.615 18.1552" stroke="#B2A46F" stroke-width="1.3" stroke-linecap="round"/>
<path d="M7.3335 13.2839L5.38501 18.1552" stroke="#B2A46F" stroke-width="1.3" stroke-linecap="round"/>
<path d="M15.1708 1.14624C15.1708 1.14624 13.6434 3.44645 15.1708 3.93989C16.7863 4.46179 15.1708 6.73354 15.1708 6.73354" stroke="#B2A46F" stroke-width="1.3" stroke-linecap="round"/>
<path d="M10.9801 1.14624C10.9801 1.14624 9.45272 3.44645 10.9801 3.93989C12.5956 4.46179 10.9801 6.73354 10.9801 6.73354" stroke="#B2A46F" stroke-width="1.3" stroke-linecap="round"/>
<path d="M6.79017 1.14648C6.79017 1.14648 5.26278 3.4467 6.79017 3.94014C8.40564 4.46203 6.79017 6.73379 6.79017 6.73379" stroke="#B2A46F" stroke-width="1.3" stroke-linecap="round"/>
</svg>
