<svg width="21" height="28" viewBox="0 0 21 28" fill="none" xmlns="http://www.w3.org/2000/svg">
<path d="M20 13C20 18.2467 15.7467 22.5 10.5 22.5C5.2532 22.5 1 18.2467 1 13C1 7.7532 5.2532 3.5 10.5 3.5C15.7467 3.5 20 7.7532 20 13Z" stroke="#B2A46F" stroke-width="1.3" stroke-miterlimit="10" stroke-linecap="round" stroke-linejoin="round"/>
<path d="M14.3 11.7313C14.3 13.8299 12.5987 15.5312 10.5 15.5312C8.40116 15.5312 6.69995 13.8299 6.69995 11.7313C6.69995 9.63262 8.40116 7.93129 10.5 7.93129C12.5987 7.93129 14.3 9.63262 14.3 11.7313Z" stroke="#B2A46F" stroke-width="1.3" stroke-miterlimit="10" stroke-linecap="round" stroke-linejoin="round"/>
<path d="M4.83203 20.6238C5.13595 17.7619 7.55755 15.5325 10.5 15.5325C13.4425 15.5325 15.8641 17.7621 16.1679 20.6239" stroke="#B2A46F" stroke-width="1.3" stroke-miterlimit="10" stroke-linecap="round" stroke-linejoin="round"/>
</svg>
