<svg width="22" height="28" viewBox="0 0 22 28" fill="none" xmlns="http://www.w3.org/2000/svg">
<path d="M15.0515 1.47168C15.0515 1.47168 13.5678 3.70612 15.0515 4.18544C16.6208 4.69241 15.0515 6.89921 15.0515 6.89921" stroke="#B2A46F" stroke-width="1.3" stroke-linecap="round"/>
<path d="M10.9807 1.47168C10.9807 1.47168 9.49701 3.70612 10.9807 4.18544C12.55 4.69241 10.9807 6.89921 10.9807 6.89921" stroke="#B2A46F" stroke-width="1.3" stroke-linecap="round"/>
<path d="M6.9104 1.47168C6.9104 1.47168 5.42669 3.70612 6.9104 4.18544C8.47968 4.69241 6.9104 6.89921 6.9104 6.89921" stroke="#B2A46F" stroke-width="1.3" stroke-linecap="round"/>
<path d="M10.9998 9.03076C12.4648 9.03076 13.4929 10.0457 13.4929 11.1138C13.4928 11.6173 13.2819 11.9223 12.9011 12.1392C12.4741 12.3823 11.8189 12.5132 10.9998 12.5132C10.1807 12.5132 9.52638 12.3822 9.09937 12.1392C8.71842 11.9223 8.5077 11.6174 8.50757 11.1138C8.50757 10.0458 9.53486 9.0309 10.9998 9.03076Z" fill="white" stroke="#B2A46F" stroke-width="1.3"/>
<path d="M15.7139 10.3972C17.1789 10.3972 18.207 11.4122 18.207 12.4802C18.2069 12.9837 17.996 13.2888 17.6152 13.5056C17.1882 13.7487 16.5331 13.8796 15.7139 13.8796C14.8948 13.8796 14.2405 13.7487 13.8135 13.5056C13.4325 13.2888 13.2218 12.9838 13.2217 12.4802C13.2217 11.4123 14.249 10.3974 15.7139 10.3972Z" fill="white" stroke="#B2A46F" stroke-width="1.3"/>
<path d="M18.8567 13.1289C20.3217 13.1289 21.3499 14.1439 21.3499 15.2119C21.3497 15.7154 21.1388 16.0205 20.7581 16.2373C20.331 16.4804 19.6759 16.6113 18.8567 16.6113C18.0377 16.6113 17.3833 16.4804 16.9563 16.2373C16.5754 16.0205 16.3646 15.7155 16.3645 15.2119C16.3645 14.1439 17.3918 13.129 18.8567 13.1289Z" fill="white" stroke="#B2A46F" stroke-width="1.3"/>
<path d="M6.28516 10.3972C7.75021 10.3972 8.77832 11.4122 8.77832 12.4802C8.77819 12.9837 8.56731 13.2888 8.18652 13.5056C7.75946 13.7487 7.10435 13.8796 6.28516 13.8796C5.46612 13.8796 4.81178 13.7487 4.38477 13.5056C4.00382 13.2888 3.7931 12.9838 3.79297 12.4802C3.79297 11.4123 4.82026 10.3974 6.28516 10.3972Z" fill="white" stroke="#B2A46F" stroke-width="1.3"/>
<path d="M3.14258 13.1289C4.60763 13.1289 5.63574 14.1439 5.63574 15.2119C5.63561 15.7154 5.42473 16.0205 5.04395 16.2373C4.61688 16.4804 3.96177 16.6113 3.14258 16.6113C2.32354 16.6113 1.6692 16.4804 1.24219 16.2373C0.86124 16.0205 0.650519 15.7155 0.650391 15.2119C0.650391 14.1439 1.67768 13.129 3.14258 13.1289Z" fill="white" stroke="#B2A46F" stroke-width="1.3"/>
<path d="M18.8567 16.5471C20.3217 16.5471 21.3499 17.5621 21.3499 18.6301C21.3497 19.1336 21.1388 19.4387 20.7581 19.6555C20.331 19.8986 19.6759 20.0295 18.8567 20.0295C18.0377 20.0295 17.3833 19.8986 16.9563 19.6555C16.5754 19.4387 16.3646 19.1337 16.3645 18.6301C16.3645 17.5622 17.3918 16.5473 18.8567 16.5471Z" fill="white" stroke="#B2A46F" stroke-width="1.3"/>
<path d="M3.14258 16.5471C4.60763 16.5471 5.63574 17.5621 5.63574 18.6301C5.63561 19.1336 5.42473 19.4387 5.04395 19.6555C4.61688 19.8986 3.96177 20.0295 3.14258 20.0295C2.32354 20.0295 1.6692 19.8986 1.24219 19.6555C0.86124 19.4387 0.650519 19.1337 0.650391 18.6301C0.650391 17.5622 1.67768 16.5473 3.14258 16.5471Z" fill="white" stroke="#B2A46F" stroke-width="1.3"/>
<path d="M10.9998 19.9609C12.4648 19.9609 13.4929 20.9759 13.4929 22.0439C13.4928 22.5474 13.2819 22.8525 12.9011 23.0693C12.4741 23.3124 11.8189 23.4434 10.9998 23.4434C10.1807 23.4433 9.52638 23.3124 9.09937 23.0693C8.71842 22.8525 8.5077 22.5476 8.50757 22.0439C8.50757 20.976 9.53486 19.9611 10.9998 19.9609Z" fill="white" stroke="#B2A46F" stroke-width="1.3"/>
<path d="M15.7139 19.2788C17.1789 19.2788 18.207 20.2938 18.207 21.3618C18.2069 21.8653 17.996 22.1704 17.6152 22.3872C17.1882 22.6303 16.5331 22.7612 15.7139 22.7612C14.8948 22.7612 14.2405 22.6303 13.8135 22.3872C13.4325 22.1704 13.2218 21.8654 13.2217 21.3618C13.2217 20.2938 14.249 19.2789 15.7139 19.2788Z" fill="white" stroke="#B2A46F" stroke-width="1.3"/>
<path d="M6.28516 19.2788C7.75021 19.2788 8.77832 20.2938 8.77832 21.3618C8.77819 21.8653 8.56731 22.1704 8.18652 22.3872C7.75946 22.6303 7.10435 22.7612 6.28516 22.7612C5.46612 22.7612 4.81178 22.6303 4.38477 22.3872C4.00382 22.1704 3.7931 21.8654 3.79297 21.3618C3.79297 20.2938 4.82026 19.2789 6.28516 19.2788Z" fill="white" stroke="#B2A46F" stroke-width="1.3"/>
</svg>
