<svg width="22" height="28" viewBox="0 0 22 28" fill="none" xmlns="http://www.w3.org/2000/svg">
<g clip-path="url(#clip0_1_5)">
<path d="M16.7147 9.7981L21.3497 18.8361V21.6971H0.649658V18.8361L5.28466 9.7981H16.7147Z" stroke="white" stroke-width="1.3" stroke-linejoin="round"/>
<path d="M18.4996 18.6811H3.83057" stroke="white" stroke-width="1.3" stroke-linecap="round"/>
<path d="M14.6667 13.2541L16.6147 18.1251" stroke="white" stroke-width="1.3" stroke-linecap="round"/>
<path d="M7.33277 13.2541L5.38477 18.1251" stroke="white" stroke-width="1.3" stroke-linecap="round"/>
<path d="M15.1706 1.11609C15.1706 1.11609 13.6436 3.41609 15.1706 3.91009C16.7866 4.43209 15.1706 6.70409 15.1706 6.70409" stroke="white" stroke-width="1.3" stroke-linecap="round"/>
<path d="M10.9797 1.11609C10.9797 1.11609 9.45269 3.41609 10.9797 3.91009C12.5957 4.43209 10.9797 6.70409 10.9797 6.70409" stroke="white" stroke-width="1.3" stroke-linecap="round"/>
<path d="M6.78975 1.11609C6.78975 1.11609 5.26275 3.41609 6.78975 3.91009C8.40475 4.43209 6.78975 6.70409 6.78975 6.70409" stroke="white" stroke-width="1.3" stroke-linecap="round"/>
</g>
<defs>
<clipPath id="clip0_1_5">
<rect width="22" height="28" fill="white"/>
</clipPath>
</defs>
</svg>
