<svg width="18" height="28" viewBox="0 0 18 28" fill="none" xmlns="http://www.w3.org/2000/svg">
<path d="M14.568 4H3.432C2.52226 4.00159 1.65024 4.36368 1.00696 5.00696C0.36368 5.65024 0.00158629 6.52226 0 7.432V18.568C0.00158629 19.4777 0.36368 20.3498 1.00696 20.993C1.65024 21.6363 2.52226 21.9984 3.432 22H14.568C15.4777 21.9984 16.3498 21.6363 16.993 20.993C17.6363 20.3498 17.9984 19.4777 18 18.568V7.432C17.9984 6.52226 17.6363 5.65024 16.993 5.00696C16.3498 4.36368 15.4777 4.00159 14.568 4ZM16.8 18.568C16.7984 19.1595 16.5628 19.7263 16.1445 20.1445C15.7263 20.5628 15.1595 20.7984 14.568 20.8H3.432C2.84052 20.7984 2.27373 20.5628 1.85549 20.1445C1.43725 19.7263 1.20158 19.1595 1.2 18.568V7.432C1.20158 6.84052 1.43725 6.27373 1.85549 5.85549C2.27373 5.43725 2.84052 5.20158 3.432 5.2H14.568C15.1595 5.20158 15.7263 5.43725 16.1445 5.85549C16.5628 6.27373 16.7984 6.84052 16.8 7.432V18.568Z" fill="#B2A46F"/>
<path d="M14.4 14.104C14.2409 14.104 14.0883 14.1672 13.9757 14.2797C13.8632 14.3923 13.8 14.5449 13.8 14.704V16.954L5.046 8.2H7.296C7.45513 8.2 7.60774 8.13679 7.72026 8.02426C7.83279 7.91174 7.896 7.75913 7.896 7.6C7.896 7.44087 7.83279 7.28826 7.72026 7.17574C7.60774 7.06321 7.45513 7 7.296 7H3.414C3.3042 7 3.1989 7.04362 3.12126 7.12126C3.04362 7.1989 3 7.3042 3 7.414V11.296C3 11.4551 3.06321 11.6077 3.17574 11.7203C3.28826 11.8328 3.44087 11.896 3.6 11.896C3.75913 11.896 3.91174 11.8328 4.02426 11.7203C4.13679 11.6077 4.2 11.4551 4.2 11.296V9.046L12.954 17.8H10.704C10.5449 17.8 10.3923 17.8632 10.2797 17.9757C10.1672 18.0883 10.104 18.2409 10.104 18.4C10.104 18.5591 10.1672 18.7117 10.2797 18.8243C10.3923 18.9368 10.5449 19 10.704 19H14.586C14.6958 19 14.8011 18.9564 14.8787 18.8787C14.9564 18.8011 15 18.6958 15 18.586V14.704C15 14.5449 14.9368 14.3923 14.8243 14.2797C14.7117 14.1672 14.5591 14.104 14.4 14.104Z" fill="#B2A46F"/>
</svg>
