<svg width="24" height="24" viewBox="0 0 24 24" fill="none" xmlns="http://www.w3.org/2000/svg">
<path d="M5.0887 19.2243C5.43797 19.5736 5.43797 20.1399 5.0887 20.4891C4.73943 20.8383 4.17319 20.8383 3.82397 20.4891C3.47469 20.1399 3.47469 19.5736 3.82397 19.2243C4.17319 18.8751 4.73943 18.8751 5.0887 19.2243Z" fill="#F5BB1E" stroke="#F5BB1E" stroke-width="1.14472" stroke-miterlimit="10" stroke-linecap="round" stroke-linejoin="round"/>
<path d="M19.953 3.51082C20.3022 3.86009 20.3022 4.42632 19.953 4.77555C19.6037 5.12482 19.0375 5.12482 18.6882 4.77555C18.339 4.42632 18.339 3.86009 18.6882 3.51082C19.0375 3.16155 19.6037 3.16155 19.953 3.51082Z" fill="#F5BB1E" stroke="#F5BB1E" stroke-width="1.14472" stroke-miterlimit="10" stroke-linecap="round" stroke-linejoin="round"/>
<path d="M21.9085 7.22437C22.6079 8.66949 23.0002 10.2898 23.0002 12C23.0002 18.0654 18.0656 23 12.0002 23C9.3679 23 6.94862 22.0707 5.05322 20.5228" stroke="#F5BB1E" stroke-width="1.14472" stroke-miterlimit="10" stroke-linecap="round" stroke-linejoin="round"/>
<path d="M1.98799 16.5551C1.35365 15.1665 1 13.6237 1 12C1 5.93455 5.93457 0.99998 12 0.99998C14.5822 0.99998 16.9595 1.89433 18.8383 3.38957" stroke="#F5BB1E" stroke-width="1.14472" stroke-miterlimit="10" stroke-linecap="round" stroke-linejoin="round"/>
</svg>
