<svg width="40" height="40" viewBox="0 0 40 40" fill="none" xmlns="http://www.w3.org/2000/svg">
<path d="M24.9546 10.0332L24.2459 10.153L23.5372 10.365L22.8284 9.81507L22.1197 10.269L21.411 10.2982L20.7022 10.4795L19.9935 9.78512L19.2847 10.1968L18.576 9.8988L17.8673 9.84964L17.1585 10.0186L16.4498 9.9349L15.7411 9.8481L15.0323 9.83735L14.3734 10.4081L13.5657 9.99097L12.9283 10.3789L12.5195 11.0756L11.6673 11.1024L11.1082 11.5856L10.8765 12.3161L10.3404 12.8445L10.6318 13.6964L10.4945 14.3362L10.4585 14.9899L10.5689 14.9922L10.2514 15.702L10.3465 16.4117L10.2253 17.1215L9.87555 17.8312L9.9116 18.5409L10.2537 19.2507L10.5314 19.9604L10.2368 20.6702L10.1425 21.3799L10.0044 22.0897L10.3319 22.7994L10.121 23.5092L10.4991 24.2189L9.9745 24.9287L10.4554 25.5877L10.0428 26.395L10.7085 26.905L10.6848 27.7254L11.2623 28.1978L11.8269 28.6295L12.2656 29.2332L13.0572 29.2517L13.6455 29.6449L14.3343 29.7625L15.0277 29.9537L15.0323 29.827L15.7411 29.625L16.4498 29.4782L17.1585 29.7025L17.8673 29.9099L18.576 29.6664L19.2847 29.4506L19.9935 29.6349L20.7022 29.8754L21.411 29.8001L22.1197 29.406L22.8284 29.9161L23.5372 29.6672L24.2459 29.721L24.9554 29.7371L25.645 29.734L26.2479 29.3392L27.0502 29.5259L27.3869 28.7209L27.9783 28.4252L28.5866 28.0826L28.7285 27.3598L29.3582 26.9457L29.3014 26.2107L29.652 25.6092L29.757 24.9333L29.8 24.9287L29.4311 24.2189L30.1866 23.5092L29.4364 22.7994V22.0897L30.0846 21.3799L29.5124 20.6702L29.7716 19.9604L29.7517 19.2507L29.8706 18.5409L29.9918 17.8312L29.6197 17.1215L29.8966 16.4117L29.474 15.702L30.0547 14.9922L29.9266 14.2771L29.2539 13.7287L29.135 13.0819L29.2408 12.2354L28.6456 11.7922L27.9185 11.5702L27.7405 10.6569L27.0241 10.4618L26.2747 10.501L25.6588 10.11L24.9577 9.89035L24.9554 10.034L24.9546 10.0332ZM19.9942 26.2068L19.2824 26.2867L18.5323 26.375L18.0053 25.6522L17.1846 25.8028L16.5342 25.4756L15.827 25.1937L15.7587 24.2028L14.9894 23.9578L14.8252 23.2134L14.5376 22.5928L14.118 22.0205L14.0068 21.3308L13.9784 20.641L13.9516 19.962L13.4691 19.2261L14.1564 18.6277L14.2093 17.9357L14.0981 17.1192L14.8682 16.7382L15.3031 16.2174L15.5723 15.5361L16.2304 15.238L16.4774 14.3608L17.1248 13.9998L17.8059 13.7064L18.4947 13.393L19.274 13.5835L19.9919 13.4483L20.7068 13.6088L21.335 14.0697L21.997 14.2233L22.774 14.1757L23.551 14.2894L23.979 14.9546L24.4469 15.4999L24.8104 16.1137L25.4877 16.5031L25.6503 17.2328L26.277 17.759L25.9717 18.5947L26.5179 19.2253L25.9832 19.962H26.4304L25.9771 20.6372L26.04 21.3438L25.9372 22.0444L25.4686 22.602L25.4463 23.3939L24.9002 23.8817L24.4522 24.4294L23.8363 24.7912L23.34 25.2997L22.81 25.8243L22.1857 26.2429L21.4194 26.2314L20.6861 26.1461L19.9904 26.206L19.9942 26.2068ZM26.3783 15.0606H25.7777L25.1188 14.8701L25.24 14.0812L24.6931 13.6088L24.7936 12.9513L25.0383 12.2662L25.9188 12.4958L26.379 11.9927L26.883 12.3906L27.2749 12.7117L27.706 13.0589L27.7313 13.6096H27.6446L27.5388 14.0904L27.6362 14.8686L26.8377 14.7195L26.379 14.9515L26.1857 15.1743L26.379 15.0621L26.3783 15.0606ZM19.9942 15.9639L19.3216 16.1421L18.7417 16.5162L17.8887 16.3103L17.5796 17.08L17.1386 17.5631L16.9215 18.1868L16.0087 18.5102L16.2227 19.2968L15.8676 19.9627L15.8814 20.6886L16.2281 21.3354L16.4513 22.0113L16.7942 22.6519L17.302 23.175L18.1618 23.1412L18.5423 23.957L19.2817 24.01L19.9942 23.6559L20.7199 24.0837L21.4424 23.9455L21.9839 23.4132L22.6911 23.1812L22.7701 22.2955L23.1314 21.7771L23.3891 21.201L23.4428 20.5734L23.8133 19.9643H23.7182L23.7811 19.2952L23.9368 18.5271L23.5962 17.8811L22.9182 17.5071L22.2693 17.2482L21.9111 16.6383L21.3373 16.2665L20.6992 15.9531L19.9935 15.9654L19.9942 15.9639ZM24.9546 10.0332L24.2459 10.153L23.5372 10.365L22.8284 9.81507L22.1197 10.269L21.411 10.2982L20.7022 10.4795L19.9935 9.78512L19.2847 10.1968L18.576 9.8988L17.8673 9.84964L17.1585 10.0186L16.4498 9.9349L15.7411 9.8481L15.0323 9.83735L14.3734 10.4081L13.5657 9.99097L12.9283 10.3789L12.5195 11.0756L11.6673 11.1024L11.1082 11.5856L10.8765 12.3161L10.3404 12.8445L10.6318 13.6964L10.4945 14.3362L10.4585 14.9899L10.5689 14.9922L10.2514 15.702L10.3465 16.4117L10.2253 17.1215L9.87555 17.8312L9.9116 18.5409L10.2537 19.2507L10.5314 19.9604L10.2368 20.6702L10.1425 21.3799L10.0044 22.0897L10.3319 22.7994L10.121 23.5092L10.4991 24.2189L9.9745 24.9287L10.4554 25.5877L10.0428 26.395L10.7085 26.905L10.6848 27.7254L11.2623 28.1978L11.8269 28.6295L12.2656 29.2332L13.0572 29.2517L13.6455 29.6449L14.3343 29.7625L15.0277 29.9537L15.0323 29.827L15.7411 29.625L16.4498 29.4782L17.1585 29.7025L17.8673 29.9099L18.576 29.6664L19.2847 29.4506L19.9935 29.6349L20.7022 29.8754L21.411 29.8001L22.1197 29.406L22.8284 29.9161L23.5372 29.6672L24.2459 29.721L24.9554 29.7371L25.645 29.734L26.2479 29.3392L27.0502 29.5259L27.3869 28.7209L27.9783 28.4252L28.5866 28.0826L28.7285 27.3598L29.3582 26.9457L29.3014 26.2107L29.652 25.6092L29.757 24.9333L29.8 24.9287L29.4311 24.2189L30.1866 23.5092L29.4364 22.7994V22.0897L30.0846 21.3799L29.5124 20.6702L29.7716 19.9604L29.7517 19.2507L29.8706 18.5409L29.9918 17.8312L29.6197 17.1215L29.8966 16.4117L29.474 15.702L30.0547 14.9922L29.9266 14.2771L29.2539 13.7287L29.135 13.0819L29.2408 12.2354L28.6456 11.7922L27.9185 11.5702L27.7405 10.6569L27.0241 10.4618L26.2747 10.501L25.6588 10.11L24.9577 9.89035L24.5734 10.1492L24.9554 10.034L24.9546 10.0332ZM19.9942 26.2068L19.2824 26.2867L18.5323 26.375L18.0053 25.6522L17.1846 25.8028L16.5342 25.4756L15.827 25.1937L15.7587 24.2028L14.9894 23.9578L14.8252 23.2134L14.5376 22.5928L14.118 22.0205L14.0068 21.3308L13.9784 20.641L13.9516 19.962L13.4691 19.2261L14.1564 18.6277L14.2093 17.9357L14.0981 17.1192L14.8682 16.7382L15.3031 16.2174L15.5723 15.5361L16.2304 15.238L16.4774 14.3608L17.1248 13.9998L17.8059 13.7064L18.4947 13.393L19.274 13.5835L19.9919 13.4483L20.7068 13.6088L21.335 14.0697L21.997 14.2233L22.774 14.1757L23.551 14.2894L23.979 14.9546L24.4469 15.4999L24.8104 16.1137L25.4877 16.5031L25.6503 17.2328L26.277 17.759L25.9717 18.5947L26.5179 19.2253L25.9832 19.962H26.4304L25.9771 20.6372L26.04 21.3438L25.9372 22.0444L25.4686 22.602L25.4463 23.3939L24.9002 23.8817L24.4522 24.4294L23.8363 24.7912L23.34 25.2997L22.81 25.8243L22.1857 26.2429L21.4194 26.2314L20.6861 26.1461L19.9904 26.206L19.9942 26.2068ZM26.3783 15.0606H25.7777L25.1188 14.8701L25.24 14.0812L24.6931 13.6088L24.7936 12.9513L25.0383 12.2662L25.9188 12.4958L26.379 11.9927L26.883 12.3906L27.2749 12.7117L27.706 13.0589L27.7313 13.6096H27.6446L27.5388 14.0904L27.6362 14.8686L26.8377 14.7195L26.379 14.9515L26.1857 15.1743L26.379 15.0621L26.3783 15.0606ZM19.9942 15.9639L19.3216 16.1421L18.7417 16.5162L17.8887 16.3103L17.5796 17.08L17.1386 17.5631L16.9215 18.1868L16.0087 18.5102L16.2227 19.2968L15.8676 19.9627L15.8814 20.6886L16.2281 21.3354L16.4513 22.0113L16.7942 22.6519L17.302 23.175L18.1618 23.1412L18.5423 23.957L19.2817 24.01L19.9942 23.6559L20.7199 24.0837L21.4424 23.9455L21.9839 23.4132L22.6911 23.1812L22.7701 22.2955L23.1314 21.7771L23.3891 21.201L23.4428 20.5734L23.8133 19.9643H23.7182L23.7811 19.2952L23.9368 18.5271L23.5962 17.8811L22.9182 17.5071L22.2693 17.2482L21.9111 16.6383L21.3373 16.2665L20.6992 15.9531L19.9935 15.9654L19.9942 15.9639ZM39.0704 7.31867L38.8472 6.64503L38.4759 6.03437L38.7428 5.19251L38.0379 4.7493L37.6613 4.18089L37.1183 3.74844L37.1543 2.77523L36.3589 2.59779L35.9692 1.94335L35.3779 1.5301L34.6622 1.3711L34.0233 1.05079L33.3491 0.78963L32.6373 0.668267L31.9047 1.10994L31.2804 0.476236L30.5862 0.550744L29.8706 0.898704L29.2286 0.363322L28.5497 0.259626L27.8502 0.460874L27.1813 0.204321L26.4672 0.726644L25.7869 0.692847L25.1058 0.671339L24.4208 0.751992L23.7504 0.416323L23.0662 0.490062L22.3866 0.355641L21.7093 0L21.0244 0.0268843L20.3394 0.359481L19.6575 0.632165L18.9741 0.346423L18.2907 0.26193L17.6049 0.138262L16.93 0.476236L16.2419 0.288814L15.5731 0.684397L14.8705 0.195871L14.2078 0.654441L13.4967 0.125204L12.8394 0.603745L12.1314 0.239654L11.461 0.463946L10.7868 0.608353L10.088 0.447816L9.43834 0.864138L8.74418 0.767355L8.06765 0.864138L7.37349 0.796543L6.69543 1.02698L6.07644 1.38953L5.49272 1.75439L4.78782 1.84734L4.08598 2.03399L3.67025 2.64081L3.31282 3.2507L2.7268 3.62708L2.12391 4.04186L1.82477 4.68017L1.88 5.45905L1.1774 5.93068L1.24029 6.66654L1.08305 7.33788L0.997143 8.01613L0.88669 8.69208L1.07691 9.39568L0.57144 10.0378L1.05007 10.7622L0.882855 11.4335L0.651211 12.1018L0.922741 12.8031L0.536156 13.4644L0.805385 14.1619L0.563002 14.834L0.479396 15.5145L0.414198 16.1966L0.757062 16.8895L0 17.5562L0.724846 18.2529L0.716409 18.9342L0.0767033 19.614L0.638938 20.2976L0.388886 20.982L0.415732 21.6657L0.310648 22.3516L0.207099 23.0383L0.592149 23.7112L0.343631 24.404L0.786209 25.07L0.248519 25.779L0.360505 26.4588L0.931945 27.1101L0.862145 27.7976L0.419567 28.5135L0.67729 29.181L1.08228 29.8331L0.53002 30.5674L0.762431 31.2342L1.1214 31.8855L0.945752 32.5907L0.888991 33.3196L1.66523 33.8327L1.27251 34.7107L2.01576 35.1316L2.21059 35.8137L2.79047 36.2339L2.89171 37.0827L3.58128 37.3776L4.23786 37.6488L4.84458 37.9545L5.49579 38.1442L6.11402 38.3877L6.74222 38.632L7.38269 38.9661L8.06612 38.9953L8.76872 38.8155L9.39922 39.4155L10.0995 39.2534L10.7576 39.5967L11.4733 39.1873L12.1345 39.523L12.8363 39.2426L13.4921 39.7411L14.1909 39.4592L14.8582 39.8264L15.5585 39.4224L16.2419 39.3924L16.9246 39.3732L17.6026 39.5414L18.2799 39.9094L18.9634 40.0008L19.6491 39.811L20.3325 39.6743L21.0129 39.4024L21.6932 39.3056L22.3866 39.9101L23.0685 39.7934L23.7366 39.2879L24.4377 39.8172L25.1234 39.8395L25.7784 39.218L26.4864 39.6881L27.1537 39.3955L27.8126 39.0168L28.5068 39.1804L29.1802 39.0483L29.9105 39.6029L30.5233 38.7679L31.2236 38.9469L31.9116 38.9753L32.5644 38.6573L33.3422 39.1405L33.9941 38.8033L34.4896 38.1565L35.0964 37.883L35.7445 37.6541L36.3205 37.2855L37.0285 37.0266L37.2341 36.2738L37.85 35.8721L38.0924 35.2046L38.2259 34.5133L38.4437 33.8781L38.8119 33.2689L38.6991 32.5623L39.4201 31.9493L38.7129 31.1927L38.8203 30.5175L39.4309 29.8838L39.3718 29.1917L39.5574 28.5189L39.2844 27.8137L39.2069 27.1247L39.5099 26.4572L39.7216 25.7828L39.2253 25.0754L39.3718 24.3979L39.5835 23.7212L39.2913 23.0291L39.4155 22.3493L39.4761 21.6672L39.9969 20.9882L39.684 20.3015L39.9509 19.6163L39.3473 18.9358L39.3143 18.2537L39.223 17.5731L39.2345 16.891L39.4102 16.2036L39.9218 15.5007L39.1954 14.8455L39.8765 14.1296L39.7055 13.4521L39.6326 12.77L39.4792 12.0933L39.1102 11.4335L39.256 10.7376L39.2606 10.0509L39.3181 9.35881L39.032 8.69822L39.391 7.97465L39.0688 7.31944L39.0704 7.31867ZM32.1563 24.9271L32.2422 25.6038L32.3535 26.3128L31.6762 26.8428L31.8863 27.6171L31.634 28.2592L31.4484 28.9559L30.5064 29.1272L30.3937 29.8946L29.7164 30.1603L29.1848 30.5406L28.7377 31.0491L28.121 31.2995L27.4897 31.4861L26.8722 31.6828L26.3361 32.3372L25.5951 31.8663L24.9531 32.0346L24.2444 32.4432L23.5356 31.9608L22.8269 31.9078L22.1182 32.1567L21.4094 31.9432L20.7007 32.5054L19.9919 32.507L19.2832 32.5169L18.5745 32.6252L17.8657 32.3134L17.157 32.4071L16.4483 32.288L15.7395 31.9439L15.0308 31.9793L14.3504 32.2834L13.6256 32.457L13.0173 32.0169L12.4068 31.7143L11.8537 31.321L11.1089 31.2726L10.6664 30.7172L9.90163 30.5636L9.78504 29.7179L9.02568 29.4706L9.11235 28.5987L8.40591 28.2331L8.5087 27.4596L8.13285 26.8951L7.8897 26.2667L8.01166 25.5816L7.62354 24.9302L7.78308 24.2204L7.7524 23.5107L7.89124 22.801L7.76698 22.0912L7.56908 21.3815L7.42488 20.6717L7.64502 19.962L7.84828 19.2522L7.60973 18.5425L7.39803 17.8327L7.57905 17.123L7.8153 16.4132L7.7409 15.7035L7.35431 14.993L7.8851 14.3301L7.73706 13.628L7.94416 12.9744L8.1758 12.3345L8.49029 11.7331L8.60381 11.0087L9.35627 10.703L9.38081 9.83581L9.95839 9.42256L10.605 9.1253L10.9985 8.47316L11.7717 8.43937L12.2787 7.88094L13.0035 7.86097L13.68 7.75958L14.3566 7.70734L15.0308 7.3133L15.7395 8.05607L16.4483 7.31867H17.157L17.8657 7.95622L18.5745 7.39318L19.2832 7.64743L19.9919 7.62823L20.7007 7.74498L21.4094 7.86404L22.1182 7.49842L22.8269 7.7711L23.5356 7.35554L24.2444 7.92626L24.9531 7.84945L25.6603 7.34786L26.3414 7.55679L26.886 8.18973L27.5794 8.20355L28.3503 8.16054L28.6418 9.02621L29.2784 9.25665L29.9864 9.46404L30.2917 10.12L30.5854 10.7345L31.4867 10.9419L31.2351 11.8614L31.9546 12.2769L31.9975 12.9859L32.3642 13.6058L31.9676 14.3416L32.2438 14.9922L32.4194 15.702L32.4723 16.4117L32.5828 17.1215L32.5652 17.8312L32.4854 18.5409L32.2537 19.2507L32.2959 19.9604L32.5429 20.6702L32.0044 21.3799L32.2261 22.0897L31.937 22.7994L32.3987 23.5092L32.1103 24.2074L32.1533 24.9294L32.1563 24.9271ZM24.9546 10.0355L24.2459 10.153L23.5372 10.3612L22.8284 9.82122L22.1197 10.2675L21.411 10.2967L20.7022 10.4741L19.9935 9.7928L19.2847 10.1968L18.576 9.90418L17.8673 9.85578L17.1585 10.0217L16.4498 9.93951L15.7411 9.85425L15.0323 9.84426L14.3734 10.405L13.5688 9.99789L12.9306 10.3827L12.518 11.0733L11.6719 11.1071L11.1143 11.591L10.8796 12.3184L10.3473 12.8484L10.6288 13.6964L10.4915 14.337L10.4547 14.9907L10.5628 14.993L10.2514 15.7027L10.345 16.4125L10.2261 17.1222L9.88245 17.832L9.91774 18.5417L10.2537 19.2515L10.526 19.9612L10.2368 20.671L10.1448 21.3807L10.0098 22.0904L10.3312 22.8002L10.1241 23.5099L10.4961 24.2197L9.98063 24.9294L10.4531 25.5892L10.0504 26.3942L10.7085 26.9066L10.6909 27.7231L11.2654 28.197L11.8292 28.6295L12.2702 29.2301L13.058 29.254L13.6471 29.6449L14.3351 29.7632L15.0285 29.9522L15.0331 29.8277L15.7418 29.6296L16.4506 29.4852L17.1593 29.7056L17.868 29.9092L18.5768 29.6703L19.2855 29.4583L19.9942 29.6396L20.703 29.8761L21.4117 29.8016L22.1205 29.4145L22.8292 29.9153L23.5379 29.671L24.2467 29.7233L24.9562 29.7394L25.6457 29.7348L26.2502 29.3446L27.0502 29.5236L27.3915 28.727L27.9821 28.4298L28.5881 28.0849L28.7354 27.3651L29.3597 26.9473L29.3083 26.2137L29.655 25.6108L29.7593 24.934L29.8015 24.9294L29.4395 24.2197L30.1812 23.5099L29.4449 22.8002V22.0904L30.0815 21.3807L29.5193 20.671L29.7732 19.9612L29.754 19.2515L29.8706 18.5417L29.9895 17.832L29.6243 17.1222L29.8966 16.4125L29.4817 15.7027L30.0516 14.993L29.925 14.2779L29.2615 13.7271L29.1403 13.0804L29.2385 12.2377L28.6464 11.7922L27.9238 11.5649L27.739 10.66L27.0241 10.4626L26.277 10.4964L25.6596 10.1093L24.9585 9.89265L24.9562 10.034L24.9546 10.0355ZM19.9942 26.2091L19.2824 26.2875L18.533 26.372L18.0038 25.6584L17.1861 25.8012L16.5357 25.474L15.8308 25.1898L15.7541 24.2082L14.9901 23.9585L14.8214 23.2173L14.533 22.5966L14.1165 22.0228L14.0037 21.3331L13.9738 20.6433L13.9462 19.9635L13.4729 19.2277L14.1495 18.627L14.2047 17.9349L14.1004 17.1215L14.8628 16.7359L15.2977 16.2143L15.5708 15.5353L16.2266 15.2342L16.4797 14.3654L17.1271 14.0052L17.8082 13.7118L18.497 13.4007L19.2748 13.585L19.9927 13.4521L20.7076 13.6104L21.3373 14.0651L21.9993 14.2195L22.774 14.178L23.5479 14.2963L23.9782 14.9569L24.4476 15.5007L24.8128 16.1129L25.4854 16.5062L25.6519 17.2336L26.2724 17.7621L25.9763 18.5947L26.5148 19.2269L25.9909 19.9627H26.4297L25.984 20.6387L26.0431 21.3454L25.938 22.0459L25.4732 22.6051L25.4456 23.3939L24.9017 23.8832L24.4538 24.4309L23.8394 24.795L23.3416 25.302L22.81 25.8235L22.1849 26.2391L21.4202 26.2306L20.6876 26.1492L19.9912 26.2084L19.9942 26.2091ZM26.3783 15.0629L25.7777 15.0614L25.1219 14.8678L25.2346 14.0835L24.6954 13.6088L24.7966 12.9521L25.0429 12.27L25.9165 12.4889L26.379 11.9927L26.8845 12.3852L27.2788 12.7063L27.7083 13.0558L27.7351 13.6073H27.65L27.5442 14.0904L27.6339 14.8639L26.8408 14.7234L26.379 14.953L26.1896 15.1712L26.379 15.0606L26.3783 15.0629ZM19.9942 15.9654L19.3216 16.1413L18.7401 16.5116L17.891 16.3149L17.5773 17.0777L17.1363 17.5601L16.9161 18.1822L16.0149 18.511L16.222 19.2952L15.8722 19.9612L15.8868 20.6863L16.2304 21.3331L16.4544 22.0075L16.798 22.6466L17.3058 23.1689L18.1603 23.1428L18.5453 23.9485L19.2832 24.0038L19.995 23.6574L20.7191 24.0768L21.4401 23.9378L21.9832 23.4101L22.6881 23.175L22.774 22.2963L23.136 21.7771L23.3945 21.2002L23.4505 20.5719L23.8148 19.9612H23.7213L23.7819 19.2922L23.9314 18.5256L23.5916 17.8804L22.9189 17.5032L22.2731 17.2405L21.9118 16.6345L21.3381 16.2642L20.6999 15.9539L19.9942 15.9647V15.9654Z" fill="white"/>
</svg>
