<svg width="40" height="40" viewBox="0 0 40 40" fill="none" xmlns="http://www.w3.org/2000/svg">
<path d="M23.7656 0.0507812L24.4463 0.191406L25.1289 0.276367L25.8125 0.328125L26.4717 0.825195L27.1748 0.515625L27.8389 0.844727L28.5625 0.295898L29.2461 0.367188L29.915 0.599609L30.5957 0.681641L31.2549 0.987305L31.9883 0.532227L32.6035 1.24023L33.3916 0.736328L33.9775 1.31934L34.5312 1.7832L35.1523 2.0332L35.7393 2.36133L36.2383 2.8125L36.748 3.24414L37.4805 3.50684L37.5283 4.32129L38.1973 4.70898L38.2344 5.44727L38.4326 6.08496L38.7539 6.69629L39.1484 7.33789L38.7734 8.06348L38.9951 8.72656L39.0732 9.4043L39.5342 10.0508L39.2969 10.7559L39.6846 11.4121L39.5381 12.1084L39.4014 12.8018L39.21 13.4961L39.752 14.1523L39.1992 14.8613L39.7803 15.5205L39.3164 16.2197L39.5625 16.8955L39.2969 17.584L39.6797 18.2588L39.6914 18.9424L40 19.624L39.5059 20.3086L39.4307 20.9893L39.9814 21.6797L39.9658 22.3643L39.6143 23.04L39.2461 23.7119L39.793 24.4141L39.6201 25.0908L39.5342 25.7715L39.1738 26.4355L39.293 27.126L39.1465 27.7998L39.5303 28.5098L39.0488 29.1592L38.9414 29.834L38.9678 30.5205L39.0107 31.209L39.0684 31.9004L39.29 32.6113L39.0449 33.2979L38.8018 33.9639L38.5889 34.6348L38.4746 35.374L37.9238 35.877L37.2607 36.2451L36.7314 36.6709L36.4199 37.3379L35.6943 37.5L35.459 38.459L34.5703 38.2334L34.0322 38.7725L33.252 38.4863L32.7246 39.1055L32.6484 39.0479L31.9424 38.873L31.2607 38.9268L30.6172 39.4033L29.9023 39.0879L29.2334 39.2969L28.5303 39.0732L27.8574 39.249L27.1865 39.4893L26.5195 39.8203L25.7988 39.1494L25.1221 39.2959L24.4404 39.3496L23.7598 39.4473L23.0713 39.2529L22.3936 39.5186L21.7158 39.9336L21.0293 39.9521L20.3418 39.6035L19.6562 40L18.9766 39.2725L18.291 39.4775L17.5977 39.9443L16.9209 39.5312L16.2432 39.3516L15.5615 39.2959L14.8711 39.4629L14.1885 39.4043L13.5205 39.0967L12.8281 39.2285L12.1104 39.7266L11.4707 39.0518L10.7578 39.415L10.0869 39.2119L9.3877 39.3457L8.74316 38.8799L8.04395 39.0029L7.3584 38.9824L6.73828 38.5254L6.07617 38.4209L5.42188 38.25L4.79102 37.9971L4.13086 37.7617L3.7793 37.0986L3.21973 36.7217L2.81543 36.1855L2.35645 35.6934L1.5498 35.3652L1.36719 34.6592L1.00684 34.0293L1.4707 33.1982L0.694336 32.6211L1.29492 31.8721L0.629883 31.252L1.14258 30.5186L0.62207 29.8789L0.827148 29.1768L0.638672 28.5059L0.396484 27.8379L0.405273 27.1514L0.331055 26.4707L0.479492 25.7793L0.297852 25.1035L0 24.4307L0.661133 23.7236L0.739258 23.04L0.485352 22.3633L0.507812 21.6807L0.310547 21L0.164062 20.3184L0.283203 19.6348L0.683594 18.9541L0.0234375 18.2637L0.5625 17.5898L0.210938 16.8984L0.547852 16.2256L0.478516 15.54L0.755859 14.8682L0.581055 14.1777L0.276367 13.4775L0.587891 12.8105L0.603516 12.1279L0.606445 11.4434L1.03613 10.791L0.435547 10.0576L1.09277 9.42871L1.03809 8.73926L0.648438 8.01465L0.633789 7.3252L1.11523 6.67969L1.29492 6.01172L1.27148 5.25293L1.84473 4.74609L1.89844 3.95312L2.87305 3.81543L3.2207 3.2334L3.44043 2.44629L4.25488 2.38184L4.56152 1.54004L5.4541 1.78906L5.94922 1.13867L6.71973 1.36426L7.35645 1.03418L8.00391 0.625977L8.71289 0.829102L9.37793 0.580078L10.085 0.818359L10.7871 1.02051L11.416 0.250977L12.1387 0.774414L12.7939 0.291992L13.5059 0.755859L14.1709 0.367188L14.8496 0.208008L15.5361 0.203125L16.2158 0.0332031L16.9043 0.0966797L17.5977 0.427734L18.2793 0.277344L18.9639 0.324219L19.6484 0.398438L20.333 0.423828L21.0186 0.181641L21.7061 0.0517578L22.3916 0.0947266L23.0801 0L23.7656 0.0507812ZM21.043 7.68359L20.8193 8.39062L20.8262 9.08789L21.0654 9.78516L21.2725 10.4824L21.1289 11.1797L21.1406 11.876L20.8545 12.5742L21.0938 13.2705L21.2422 13.9678L21.2939 14.665L20.9678 15.3623L20.8828 16.0586L20.9531 16.7559L20.9453 17.4531L20.8438 18.1504L20.8564 18.8467L21.1924 19.5439L21.2031 20.2412L20.9277 20.9375L21.1914 21.6348L21.126 22.3311L20.9688 23.0273L21.1182 23.7246L20.8809 24.4209H20.8223L21.1895 25.1543L20.916 25.834L20.4473 26.3926L20.042 26.9453L19.5137 27.3789L19.1377 28.0703L18.3643 28.0879L17.7441 28.4775L17.0273 28.6689L16.2959 28.5576L15.6299 28.252L14.9951 27.9355L14.457 27.4785L13.7891 27.1348L13.5234 26.4404L13.0938 25.8506L12.9863 25.1328L12.9648 24.4209L13.1943 23.7471L13.1182 23.001L13.458 22.3643L13.9473 21.8418L14.3779 21.2705L14.9141 20.7686L15.6885 20.75L16.3662 20.6826L17.0273 20.582L17.666 20.6455L18.3057 20.6416L18.9775 20.4355L18.7207 19.7646L18.7578 19.127L19.0732 18.4902L18.8398 17.8525L18.7109 17.2158L19.0137 16.5088L18.3057 16.5586L17.666 16.8125L17.0273 16.752L16.3389 16.5576L15.6631 16.6953L14.9902 16.8262L14.3027 16.9443L13.6152 17.1113L13.0664 17.5674L12.3916 17.8076L12.1016 18.5566L11.4814 18.8789L11.1104 19.459L10.5264 19.8721L10.2549 20.5117L10.0928 21.1875L9.65332 21.7363L9.31543 22.3525L9.07031 23.0146L9.31543 23.7412L9.23242 24.415L9.19043 25.0986L9.21777 25.7891L9.20801 26.5059L9.53223 27.1377L10.0361 27.6689L10.1064 28.4033L10.5527 28.9404L11.0352 29.4326L11.5068 29.9248L12.1133 30.2598L12.5488 30.7979L13.0732 31.249L13.71 31.5137L14.3428 31.7744L15.002 31.9561H15.6953L16.3506 32.125L17.0273 32.4248L17.1602 32.4287L17.7051 32.1484L18.3789 32.0732L19.0391 31.9131L19.6865 31.7119L20.4424 31.7266L20.9453 31.1924L21.6416 30.9951L22.1416 30.5L22.6035 29.9834L23.1582 29.5518L23.5117 28.9482L23.8604 28.3535L24.0449 27.6816L24.498 27.1299L24.5439 26.4258L24.6914 25.7646L24.7676 25.0908L24.8535 24.415L24.6865 23.7402L24.7578 23.0654L24.7529 22.3916L24.7998 21.7168L24.7207 21.042L24.7021 20.3682L24.7607 19.6943L24.9668 19.0205L24.7607 18.3457L25.0098 17.6719L24.8359 16.9971L24.8389 16.3115L25.5645 16.5078L26.0635 17.1357L26.7822 17.25L27.5127 17.2178L28.1836 17.5264L28.8975 17.5898L29.541 17.3701L30.1846 17.6816L30.9219 17.5352L30.7412 16.8037L30.6699 16.167L30.7148 15.5312L30.6396 14.8936L30.8574 14.2588L30.8184 13.6318L30.1895 13.6104L29.5498 13.4238L28.9111 13.8467L28.2275 13.4746L27.5791 13.2578L26.877 13.1201L26.2139 12.8115L25.8369 12.1787L25.4062 11.624L24.915 11.0547L24.8496 10.3184L24.8125 9.60352L24.7461 8.96582L24.709 8.3291L24.75 7.82715L24.2461 7.57715L23.6074 7.53125L22.9688 7.84766L22.3301 7.75L21.6914 7.46777L21.043 7.68359Z" fill="white"/>
</svg>
