<svg width="25" height="24" viewBox="0 0 25 24" fill="none" xmlns="http://www.w3.org/2000/svg">
<path d="M11.1419 9.21629H16.4676C16.9492 9.21629 17.3175 8.84802 17.3175 8.36643C17.3175 7.88485 16.9492 7.51658 16.4676 7.51658H11.1419C10.6603 7.51658 10.292 7.88485 10.292 8.36643C10.292 8.84802 10.6886 9.21629 11.1419 9.21629Z" fill="#F5BB1E"/>
<path d="M11.1419 13.3239H18.5073C18.9889 13.3239 19.3571 12.9557 19.3571 12.4741C19.3571 11.9925 18.9889 11.6242 18.5073 11.6242H11.1419C10.6603 11.6242 10.292 11.9925 10.292 12.4741C10.292 12.9557 10.6886 13.3239 11.1419 13.3239Z" fill="#F5BB1E"/>
<path d="M22.3884 2.1908H7.31754C6.83596 2.1908 6.46769 2.55907 6.46769 3.04065V11.0577H4.96627C3.2099 11.0577 1.76514 12.5024 1.76514 14.2588V18.9897C1.76514 20.746 3.2099 22.1908 4.96627 22.1908C5.10791 22.1908 5.24956 22.1908 5.3912 22.1625H19.4139C21.5102 22.1625 23.2099 20.4627 23.2099 18.3664V3.04065C23.2382 2.55907 22.8416 2.1908 22.3884 2.1908ZM6.46769 18.9897C6.46769 19.7262 5.95777 20.3211 5.24956 20.4627H4.96627V20.4911C4.14474 20.4911 3.46485 19.8112 3.46485 18.9897V14.2588C3.46485 13.4373 4.14474 12.7574 4.96627 12.7574H6.46769V18.9897ZM21.5385 18.3664C21.5385 19.4996 20.5753 20.4627 19.4422 20.4627H7.82746C8.05409 20.0095 8.19573 19.5279 8.19573 18.9897V3.89051H21.5385V18.3664Z" fill="#65B0D4"/>
<path d="M11.1419 17.1766H16.4676C16.9492 17.1766 17.3175 16.8084 17.3175 16.3268C17.3175 15.8452 16.9492 15.4769 16.4676 15.4769H11.1419C10.6603 15.4769 10.292 15.8452 10.292 16.3268C10.292 16.8084 10.6886 17.1766 11.1419 17.1766Z" fill="#F5BB1E"/>
</svg>
