<svg width="24" height="24" viewBox="0 0 24 24" fill="none" xmlns="http://www.w3.org/2000/svg">
<path d="M12 20.0488C7.56203 20.0488 3.95117 16.4379 3.95117 12C3.95117 7.56206 7.56203 3.95119 12 3.95119C16.4379 3.95119 20.0487 7.56206 20.0487 12C20.0487 16.4379 16.4379 20.0488 12 20.0488Z" stroke="#65B0D4" stroke-width="1.14472" stroke-miterlimit="10" stroke-linecap="round" stroke-linejoin="round"/>
<path d="M12 20.0488V3.95119" stroke="#65B0D4" stroke-width="1.14472" stroke-miterlimit="10" stroke-linecap="round" stroke-linejoin="round"/>
<path d="M16.0244 12C16.0244 16.4452 14.2226 20.0488 12 20.0488C9.77735 20.0488 7.97559 16.4452 7.97559 12C7.97559 7.55477 9.77735 3.95119 12 3.95119C14.2226 3.95119 16.0244 7.55477 16.0244 12Z" stroke="#65B0D4" stroke-width="1.14472" stroke-miterlimit="10" stroke-linecap="round" stroke-linejoin="round"/>
<path d="M4.41113 14.6829H19.5892" stroke="#65B0D4" stroke-width="1.14472" stroke-miterlimit="10" stroke-linecap="round" stroke-linejoin="round"/>
<path d="M4.41113 9.31703H19.5892" stroke="#65B0D4" stroke-width="1.14472" stroke-miterlimit="10" stroke-linecap="round" stroke-linejoin="round"/>
</svg>
