<svg width="25" height="24" viewBox="0 0 25 24" fill="none" xmlns="http://www.w3.org/2000/svg">
<path d="M6.37243 15.3374C6.14216 15.3374 5.91385 15.2364 5.75824 15.0426C3.65003 12.4094 3.26847 8.76164 4.78607 5.74963C4.98097 5.36257 5.45291 5.20539 5.84194 5.40147C6.22939 5.59677 6.3854 6.0695 6.1901 6.45695C4.94836 8.92118 5.26076 11.9061 6.98544 14.0602C7.25658 14.399 7.20196 14.8937 6.86284 15.1648C6.71823 15.2808 6.54494 15.3374 6.37243 15.3374Z" fill="#65B0D4"/>
<path d="M6.84706 4.97276C6.64429 4.97276 6.44192 4.89495 6.28788 4.73934C5.98295 4.43048 5.9857 3.933 6.29456 3.62806L6.57395 3.35182C6.88282 3.04688 7.3803 3.04924 7.68562 3.3585C7.99056 3.66736 7.98781 4.16484 7.67895 4.46977L7.39955 4.74602C7.24669 4.89731 7.04668 4.97276 6.84706 4.97276Z" fill="#F5BB1E"/>
<path d="M18.6418 15.3374C18.4697 15.3374 18.296 15.2808 18.151 15.1648C17.8123 14.8937 17.7573 14.399 18.0284 14.0602C19.9339 11.6809 20.084 8.24962 18.3951 5.71623C16.4711 2.83037 12.5227 1.76153 9.40462 3.28305C9.01402 3.47324 8.54444 3.31095 8.35386 2.92153C8.16327 2.53133 8.32517 2.06096 8.71538 1.87037C12.5887 -0.0205278 17.3121 1.25854 19.7028 4.84387C21.7678 7.94075 21.5839 12.1344 19.2556 15.0422C19.1004 15.2364 18.8721 15.3374 18.6418 15.3374Z" fill="#65B0D4"/>
<path d="M12.5141 14.3455C12.5137 14.3455 12.5137 14.3455 12.5141 14.3455C11.3568 14.3455 10.2495 13.9329 9.39639 13.1836C7.77506 11.7595 7.32905 9.3436 8.33541 7.43895C9.14215 5.91271 10.7882 4.92639 12.5294 4.92639C12.9106 4.92639 13.2906 4.97315 13.658 5.0655C15.7238 5.5838 17.2225 7.50732 17.2225 9.6395C17.2225 11.1653 16.4782 12.604 15.2326 13.4877C14.4412 14.0489 13.5016 14.3455 12.5141 14.3455ZM12.5294 6.49821C11.3639 6.49821 10.2629 7.15563 9.7253 8.17338C9.05452 9.44223 9.35278 11.053 10.4338 12.0027C10.9997 12.4998 11.7384 12.7737 12.5137 12.7737C13.1735 12.7737 13.7995 12.5772 14.3233 12.2059C15.1548 11.6165 15.6511 10.6573 15.6511 9.6395C15.6511 8.21818 14.6522 6.93557 13.2757 6.59016C13.0328 6.52926 12.7817 6.49821 12.5294 6.49821Z" fill="#F5BB1E"/>
<path d="M12.5068 23C12.3347 23 12.161 22.9434 12.016 22.8275C11.6773 22.5563 11.6223 22.0616 11.8934 21.7229L18.0282 14.0602C18.2998 13.7211 18.7937 13.6669 19.1332 13.938C19.472 14.2092 19.527 14.7039 19.2558 15.0426L13.121 22.7053C12.9654 22.899 12.7371 23 12.5068 23Z" fill="#65B0D4"/>
<path d="M12.5078 23C12.2775 23 12.0492 22.899 11.8936 22.7053L5.75878 15.0426C5.48764 14.7039 5.54226 14.2092 5.88138 13.938C6.21972 13.6669 6.71445 13.7211 6.98637 14.0602L13.1212 21.7229C13.3923 22.0616 13.3377 22.5563 12.9986 22.8275C12.8532 22.9434 12.6799 23 12.5078 23Z" fill="#65B0D4"/>
</svg>
