<svg width="25" height="24" viewBox="0 0 25 24" fill="none" xmlns="http://www.w3.org/2000/svg">
<g clip-path="url(#clip0_4049_5195)">
<path fill-rule="evenodd" clip-rule="evenodd" d="M1.30393 7.57555C2.21925 7.3927 2.77616 6.76902 3.17383 6.32366C3.21591 6.27655 3.25624 6.23137 3.29499 6.18897C3.71249 5.73218 4.0314 5.45455 4.64347 5.45455C5.3135 5.45455 5.62575 5.78019 6.11432 6.3229L6.13425 6.34507C6.62772 6.89348 7.29617 7.63636 8.57173 7.63636C9.84096 7.63636 10.507 6.89393 10.9976 6.34705L11.0199 6.32215C11.5064 5.78018 11.8188 5.45455 12.4887 5.45455C13.1587 5.45455 13.471 5.78019 13.9596 6.3229L13.9795 6.34507C14.4729 6.89347 15.1413 7.63636 16.4169 7.63636C17.6843 7.63636 18.3504 6.89594 18.8415 6.34999L18.8659 6.3229C19.3525 5.78232 19.6682 5.45455 20.3452 5.45455C20.9636 5.45455 21.2828 5.73318 21.6994 6.18897C21.7378 6.23116 21.7779 6.27602 21.8198 6.32285C22.2183 6.76896 22.7756 7.39304 23.697 7.57572C24.0658 7.64886 24.4202 7.38799 24.4885 6.99304C24.5568 6.59809 24.3132 6.21863 23.9444 6.14549C23.4707 6.05158 23.2091 5.76398 22.7743 5.28576L22.6702 5.17164C22.1812 4.63652 21.5267 4 20.3452 4C19.0696 4 18.4012 4.7429 17.9077 5.29131L17.8878 5.31347C17.3992 5.85617 17.087 6.18182 16.4169 6.18182C15.7399 6.18182 15.4242 5.85405 14.9377 5.31347L14.9132 5.28639C14.4221 4.74044 13.756 4 12.4887 4C11.2195 4 10.5534 4.74244 10.0628 5.28932L10.0405 5.31422C9.55399 5.85618 9.24161 6.18182 8.57173 6.18182C7.89477 6.18182 7.57905 5.85405 7.0924 5.31347L7.06804 5.28639C6.5769 4.74042 5.91083 4 4.64347 4C3.46689 4 2.81222 4.63753 2.32407 5.17164L2.21936 5.28658C1.78411 5.76519 1.52318 6.05211 1.05479 6.14567C0.686016 6.21933 0.442838 6.59914 0.511644 6.99399C0.58044 7.38884 0.935161 7.64921 1.30393 7.57555ZM3.17383 12.5056C2.77616 12.9509 2.21925 13.5747 1.30393 13.7575C0.935161 13.8312 0.58044 13.5708 0.511644 13.1759C0.442838 12.7811 0.686016 12.4013 1.05479 12.3276C1.52318 12.2341 1.78411 11.9472 2.21936 11.4685L2.32407 11.3536C2.81222 10.8195 3.46689 10.1819 4.64347 10.1819C5.91083 10.1819 6.5769 10.9223 7.06804 11.4684L7.0924 11.4954C7.57905 12.036 7.89477 12.3638 8.57173 12.3638C9.24161 12.3638 9.55399 12.0382 10.0405 11.4961L10.0628 11.4713C10.5534 10.9244 11.2195 10.1819 12.4887 10.1819C13.756 10.1819 14.4221 10.9223 14.9132 11.4684L14.9377 11.4954C15.4242 12.036 15.7399 12.3638 16.4169 12.3638C17.087 12.3638 17.3992 12.0381 17.8878 11.4954L17.9077 11.4732C18.4012 10.9248 19.0696 10.1819 20.3452 10.1819C21.5267 10.1819 22.1812 10.8184 22.6702 11.3536L22.7743 11.4676C23.2091 11.9459 23.4707 12.2335 23.9444 12.3274C24.3132 12.4006 24.5568 12.78 24.4885 13.175C24.4202 13.5699 24.0658 13.8308 23.697 13.7577C22.7756 13.575 22.2183 12.9509 21.8198 12.5048C21.778 12.4581 21.738 12.4131 21.6994 12.3709C21.2828 11.9152 20.9636 11.6365 20.3452 11.6365C19.6682 11.6365 19.3525 11.9642 18.8659 12.5048L18.8415 12.5319C18.3504 13.0779 17.6843 13.8183 16.4169 13.8183C15.1413 13.8183 14.4729 13.0754 13.9795 12.527L13.9596 12.5048C13.471 11.9622 13.1587 11.6365 12.4887 11.6365C11.8188 11.6365 11.5064 11.9621 11.0199 12.5041L10.9976 12.529C10.507 13.0759 9.84096 13.8183 8.57173 13.8183C7.29617 13.8183 6.62772 13.0754 6.13425 12.527L6.11432 12.5048C5.62575 11.9622 5.3135 11.6365 4.64347 11.6365C4.0314 11.6365 3.71249 11.9141 3.29499 12.3709C3.25623 12.4133 3.21592 12.4584 3.17383 12.5056Z" fill="#65B0D4"/>
<path fill-rule="evenodd" clip-rule="evenodd" d="M3.17383 18.6873C2.77616 19.1326 2.21925 19.7562 1.30393 19.9392C0.935161 20.0129 0.58044 19.7524 0.511644 19.3576C0.442838 18.9627 0.686016 18.5829 1.05479 18.5092C1.52318 18.4156 1.78411 18.1287 2.21936 17.6502L2.32407 17.5353C2.81222 17.0011 3.46689 16.3636 4.64347 16.3636C5.91083 16.3636 6.5769 17.104 7.06804 17.6499L7.0924 17.6771C7.57905 18.2176 7.89477 18.5455 8.57173 18.5455C9.24161 18.5455 9.55399 18.2198 10.0405 17.6778L10.0628 17.6529C10.5534 17.1061 11.2195 16.3636 12.4887 16.3636C13.756 16.3636 14.4221 17.104 14.9132 17.6499L14.9377 17.6771C15.4242 18.2176 15.7399 18.5455 16.4169 18.5455C17.087 18.5455 17.3992 18.2198 17.8878 17.6771L17.9077 17.6549C18.4012 17.1064 19.0696 16.3636 20.3452 16.3636C21.5267 16.3636 22.1812 17.0001 22.6702 17.5353L22.7743 17.6493C23.2091 18.1275 23.4707 18.4152 23.9444 18.5091C24.3132 18.5822 24.5568 18.9617 24.4885 19.3566C24.4202 19.7515 24.0658 20.0125 23.697 19.9393C22.7756 19.7566 22.2183 19.1326 21.8198 18.6865C21.778 18.6396 21.738 18.5948 21.6994 18.5526C21.2828 18.0967 20.9636 17.8182 20.3452 17.8182C19.6682 17.8182 19.3525 18.1459 18.8659 18.6864L18.8415 18.7136C18.3504 19.2595 17.6843 20 16.4169 20C15.1413 20 14.4729 19.2571 13.9795 18.7086L13.9596 18.6864C13.471 18.1438 13.1587 17.8182 12.4887 17.8182C11.8188 17.8182 11.5064 18.1438 11.0199 18.6857L10.9976 18.7107C10.507 19.2575 9.84096 20 8.57173 20C7.29617 20 6.62772 19.2571 6.13425 18.7086L6.11432 18.6864C5.62575 18.1438 5.3135 17.8182 4.64347 17.8182C4.0314 17.8182 3.71249 18.0958 3.29499 18.5526C3.25631 18.5949 3.21583 18.6402 3.17383 18.6873Z" fill="#F5BB1E"/>
</g>
<defs>
<clipPath id="clip0_4049_5195">
<rect width="24" height="24" fill="white" transform="translate(0.5)"/>
</clipPath>
</defs>
</svg>
