<svg width="40" height="40" viewBox="0 0 40 40" fill="none" xmlns="http://www.w3.org/2000/svg">
<path d="M17.1006 15.8973C17.0703 15.6391 17.3576 15.4649 17.5725 15.6112L17.6262 15.6478L18.2094 16.0215V16.0215C18.5924 16.2794 18.997 16.5098 19.414 16.7082V16.7082L19.7562 16.899C19.9311 16.9965 20.0938 17.1144 20.2411 17.2501V17.2501C20.4378 17.4314 20.6618 17.5806 20.905 17.692L21.1726 17.8146V17.8146C21.5962 18.0007 21.9989 18.2387 22.3657 18.5205V18.5205L22.9504 18.8934L23.2262 19.0238C23.4616 19.135 23.6836 19.2725 23.888 19.4338L24.1013 19.6021C24.1197 19.6166 24.1393 19.6294 24.16 19.6404V19.6404C24.4357 19.7875 24.4351 20.1837 24.162 20.3356V20.3356C24.1452 20.3449 24.1289 20.3556 24.1137 20.3672L23.5835 20.7725L22.9873 21.1254L22.6963 21.2667C22.4735 21.3747 22.2634 21.5071 22.0697 21.6613V21.6613C21.9008 21.7958 21.7193 21.9138 21.5277 22.0135L21.1995 22.1843L20.5949 22.5234V22.5234C20.1763 22.7179 19.7692 22.945 19.384 23.1994V23.1994L19.0842 23.3576C18.8755 23.4676 18.6796 23.6006 18.5003 23.7539V23.7539C18.3253 23.9035 18.1346 24.0337 17.9316 24.1422L17.6239 24.3066L17.608 24.318C17.3504 24.5015 16.9918 24.3278 16.9762 24.012V24.012L16.9908 23.3398V23.3398C17.0581 22.8951 17.0621 22.4421 17.0024 21.9963V21.9963V21.9963C16.9778 21.5488 16.9869 21.0982 17.0293 20.652V20.652L17.0443 20.1835C17.0486 20.048 17.041 19.9124 17.0215 19.7783L17.0137 19.7248C16.9738 19.4497 16.9904 19.1692 17.0626 18.9007V18.9007C17.1099 18.7248 17.1335 18.5433 17.1326 18.361L17.1308 17.9635L17.1085 17.4756C17.1029 17.3529 17.0883 17.2308 17.0648 17.1103L17.042 16.9932C16.994 16.7463 16.9951 16.4923 17.0452 16.2458L17.0965 15.9931C17.1029 15.9616 17.1043 15.9292 17.1006 15.8973V15.8973Z" fill="white"/>
<path d="M39.1937 7.34367L39.1107 6.6347L38.3645 6.11755L38.2098 5.47073L38.0791 4.78708L37.5852 4.29755L37.2144 3.74127L36.9005 3.1098L36.6774 2.29955L35.7258 2.40313L35.1704 2.02409L34.7589 1.26909L33.9388 1.47702L33.2588 1.43175L32.6626 0.76805L31.9602 0.893885L31.2748 0.864728L30.5602 1.16704L29.9094 0.756541L29.2524 0.36983L28.52 0.981355L27.8715 0.437351L27.1584 0.864728L26.4792 0.778025L25.7907 0.866263L25.1229 0.506407L24.4429 0.378271L23.7513 0.571626L23.0659 0.617663L22.3843 0.50564L21.7073 0L21.0165 0.441188L20.3319 0.481854L19.648 0.520218L18.9618 0.200261L18.2802 0.46881L17.5986 0.58467L16.9125 0.472646L16.2224 0.293869L15.5278 0.0590808L14.86 0.520985L14.1631 0.281593L13.4684 0.144249L12.8245 0.876237L12.1406 0.886979L11.4583 0.919205L10.739 0.47725L10.0813 0.840942L9.37356 0.606154L8.71506 0.925343L7.99271 0.581601L7.38806 1.39032L6.59417 0.795673L6.03183 1.43866L5.29178 1.42945L4.61405 1.65733L4.2648 2.41464L3.66707 2.73767L2.99934 3.02616L2.83933 3.79959L2.16853 4.14333L1.8862 4.77634L1.34002 5.28735L1.21847 5.99171L0.897684 6.637L0.961534 7.35901L0.916916 8.04113L0.990767 8.73398L0.416118 9.36776L1.04154 10.1074L0.375346 10.7389L0.649978 11.4448L0.439966 12.1154L0.500738 12.8037L0.170719 13.4697L0.323036 14.1625L0.439196 14.8515L0.282264 15.529L0.209952 16.2104L0.135333 16.8925L0.0714827 17.5754L0.419964 18.2652L0.249955 18.9458L0.479199 19.6294L0.589974 20.3108L0.159949 20.9959L0.443043 21.6757L-0.00390625 22.3671L0.539971 23.0384L0.450735 23.7236L0.483045 24.405L0.0214798 25.1078L0.391501 25.7761L0.549203 26.4521L0.407656 27.1442L0.352268 27.8332L0.490738 28.5092L0.590743 29.1874L1.03769 29.8358L0.739983 30.5463L0.71075 31.2353L1.07308 31.886L0.81691 32.5988L0.883837 33.3078L1.27232 33.9339L1.18693 34.718L1.67773 35.2774L2.03852 35.8851L2.36931 36.5273L2.85318 37.059L3.40321 37.5209L3.88401 38.0879L4.78099 37.9698L5.35333 38.3565L5.90797 38.889L6.71033 38.5514L7.33883 38.945L8.04887 38.7325L8.69352 39.1621L9.4051 38.9013L10.0659 39.1944L10.7652 39.0378L11.4037 39.6877L12.1091 39.4353L12.8114 39.1775L13.4823 39.4284L14.1838 39.1077L14.8516 39.4729L15.5324 39.5834L16.2178 39.591L16.8978 39.7921L17.5902 39.489L18.2695 39.8335L18.9572 39.6125L19.6426 39.2933L20.3273 40L21.0104 39.5811L21.6935 39.4928L22.3812 39.6501L23.0743 39.9555L23.739 39.2488L24.4321 39.5135L25.1129 39.4199L25.8053 39.5711L26.4869 39.4821L27.1492 39.0854L27.8631 39.5327L28.5485 39.5013L29.197 38.9941L29.8955 39.1506L30.6125 39.4859L31.2471 38.9105L31.9764 39.324L32.5995 38.6979L33.3911 39.2166L33.8919 38.3557L34.6504 38.4501L35.1204 37.8547L35.7697 37.6306L36.3113 37.2224L37.1282 37.082L37.3559 36.3378L37.7652 35.7853L38.3914 35.3426L38.2345 34.5001L38.896 34.006L38.5606 33.2118L38.9845 32.5927L38.726 31.8798L38.9414 31.2161L39.2253 30.5563L39.0076 29.8527L39.3976 29.199L39.6353 28.5307L39.7715 27.8531L39.3807 27.1434L39.8392 26.4843L39.8915 25.8007L39.9592 25.1178L39.9776 24.4326L39.6799 23.7374L39.8553 23.0584L39.9699 22.3763L39.3622 21.6827L39.5284 21.0028L39.7953 20.3215L39.7369 19.6378L39.5722 18.9557L39.9969 18.2667L39.4214 17.593L39.9161 16.8979L39.2799 16.2326L39.7238 15.5344L39.3214 14.8669L39.4984 14.1756L39.5522 13.4888L39.7707 12.7906L39.3614 12.1315L39.5715 11.4317L39.5245 10.7489L39.2991 10.0806L39.5515 9.3716L39.5376 8.68488L39.1014 8.03959L39.2745 7.53319L39.1914 7.3429L39.1937 7.34367ZM31.5479 25.8352L31.2648 26.393L31.3341 27.2946L30.7486 27.7381L30.0655 27.9859L29.5116 28.4455L28.8308 28.6404L28.1116 28.5928L27.3631 28.2153L26.7199 28.9281L26.0099 28.9481L25.2683 28.4969L24.5937 29.0163L23.8929 29.1798L23.1605 28.648L22.4628 28.8713L21.7574 28.9281L21.0558 29.3079L20.3442 28.9619L19.6388 28.6289L18.9256 29.2864L18.2271 28.7754L17.5071 29.2273L16.8001 29.1537L16.0855 29.2442L15.3962 28.8767L14.6977 28.7309L13.9761 28.8951L13.2646 28.902L12.5676 28.7417L11.9214 28.18L11.1929 28.4869L10.5267 28.3081L9.88513 28.0381L9.50664 27.3928L8.83814 27.1235L8.33658 26.6147L8.16195 25.9127L8.22888 25.1838L8.37427 24.4571L7.84732 23.8264L8.0381 23.1021L8.14733 22.3962L7.40498 21.7463V21.0389L7.40344 20.333L7.89963 19.6332L7.60499 18.9281L7.93194 18.2445L7.72192 17.5309L8.19657 16.8756L7.5373 16.0961L8.33734 15.4991L7.96886 14.7334L8.35119 14.0973L8.69121 13.5548L8.71737 12.7308L9.30355 12.3141L10.0005 12.1238L10.4452 11.4578L11.2121 11.5453L11.8645 11.322L12.5968 11.52L13.2884 11.3289L14.0038 11.4195L14.6946 11.1931L15.3985 11.121L16.097 10.9415L16.8255 11.421L17.5063 10.7105L18.2302 11.3021L18.9295 10.9637L19.6372 11.1195L20.3434 11.0151L21.0458 11.3121L21.7543 11.1371L22.4643 11.009L23.1659 11.164L23.8682 11.2445L24.5691 11.3381L25.2691 11.431L25.9999 11.1241L26.6915 11.3435L27.4177 11.1762L28.1393 11.1379L28.7262 11.6995L29.4524 11.6566L29.8447 12.3571L30.6917 12.2934L31.1271 12.8497L31.5433 13.4029L31.3556 14.164L31.8102 14.7641L32.0426 15.4354L31.9587 16.1528L31.9395 16.8557L32.0941 17.5401L32.1903 18.2322L32.6149 18.9158L32.2726 19.6263L32.1803 20.3238L32.461 21.0305L32.1003 21.7141L32.0103 22.4047L32.1672 23.119L31.7418 23.7712L31.8464 24.4863L31.7302 25.173L31.571 25.6955L31.5479 25.8291V25.8352Z" fill="white"/>
</svg>
