<svg width="40" height="40" viewBox="0 0 40 40" fill="none" xmlns="http://www.w3.org/2000/svg">
<path d="M38.9553 7.33597L38.7974 6.67179L38.591 6.02683L38.5016 5.3342L38.5178 4.54318L38.2121 3.87746L37.6244 3.41392L37.0476 2.98266L36.3576 2.71976L35.7668 2.39151L35.4904 1.50517L34.7957 1.28608L33.9786 1.50671L33.4425 0.798709L32.734 0.638044L31.9908 1.15463L31.3585 0.583465L30.6523 0.773341L29.9414 1.04931L29.2768 0.783334L28.5883 0.813314L27.946 0.155283L27.2128 0.889418L26.5435 0.608064L25.8643 0.47738L25.1688 0.69493L24.508 0.0699543L23.8157 0.2114L23.1179 0.631126L22.4348 0.600377L21.7532 0.448937L21.0693 0.392051L20.3854 0.10301L19.7 0.458162L19.013 0.207557L18.3291 0.352846L17.6476 0.542722L16.9637 0.570396L16.2736 0.383595L15.5966 0.627282L14.885 0L14.2358 0.809471L13.5511 0.799477L12.8349 0.285198L12.1572 0.442787L11.4633 0.355152L10.8032 0.726448L10.1301 0.901718L9.42467 0.696468L8.72461 0.582696L8.09462 1.17615L7.40149 1.12772L6.69141 1.04701L6.10687 1.51901L5.43684 1.64585L4.80147 1.89415L3.92889 1.81881L3.54227 2.50067L2.8322 2.78203L2.80678 3.70219L2.4271 4.2526L2.15215 4.86067L1.84178 5.44413L1.42744 6.00761L0.731229 6.55802L1.31654 7.35596L0.534071 7.96325L0.602614 8.65972L0.573348 9.34543L0.624948 10.0373L0.89296 10.7453L0.644202 11.4125L0.537151 12.0913L0.37696 12.767L0.562566 13.4635L0.0981662 14.1254L0.155157 14.8149L0.489402 15.5137L0.621097 16.2017L0.538691 16.8828L0.212148 17.5593L0.330751 18.2458L0.258357 18.9292L0.0835334 19.6133L0.400835 20.2983L0.536381 20.9809L0.241414 21.6681L0.556405 22.3469L-0.00195312 23.0449L0.138214 23.7276L0.765885 24.3902L0.140524 25.0997L0.192124 25.7839L0.589521 26.4489L0.421629 27.1438L0.611856 27.818L0.773587 28.4921L1.01541 29.1586L1.0208 29.8428L1.09705 30.5216L0.89296 31.2265L0.99539 31.9038L1.37045 32.5518L1.16174 33.2667L1.43283 33.9048L1.77247 34.499L1.78556 35.25L2.26074 35.772L2.4579 36.4961L2.97005 36.9904L3.81876 37.0735L4.30934 37.5239L4.75757 38.0928L5.23891 38.727L5.97748 38.7946L6.73377 38.6271L7.36914 39.0214L8.09077 38.7047L8.75772 38.9153L9.42082 39.1844L10.1116 39.1536L10.8071 39.0506L11.4525 39.6087L12.1733 39.1175L12.8372 39.4665L13.5265 39.4165L14.2073 39.5172L14.885 39.7094L15.5874 39.3058L16.2644 39.5372L16.9436 39.774L17.6352 39.5388L18.316 39.8532L19.0022 39.9554L19.6908 39.4327L20.3746 39.2551L21.0632 39.8878L21.7424 39.3274L22.4402 40L23.1195 39.6764L23.8111 39.8386L24.5011 39.9131L25.1889 39.9078L25.862 39.5857L26.5366 39.3643L27.2059 39.0868L27.909 39.365L28.586 39.2244L29.2737 39.239L29.9753 39.4042L30.6669 39.4265L31.3454 39.3028L32.0124 39.0729L32.7309 39.3466L33.441 39.1605L34.1603 39.0299L34.6255 38.2504L35.4241 38.3096L35.9648 37.8353L36.2759 37.1119L36.8628 36.7629L37.3326 36.2755L37.8393 35.8004L38.172 35.1978L38.2344 34.4805L39.0839 34.0516L39.1663 33.329L38.9668 32.5895L39.529 31.9591L39.0377 31.2227L39.1208 30.5439L39.633 29.9005L39.4158 29.1955L39.0538 28.4829L39.6761 27.8403L39.797 27.1607L39.4181 26.4527L39.2487 25.7601L39.4397 25.0851L39.8895 24.4179L39.4281 23.7176L39.7986 23.0442L39.6807 22.3569L39.8017 21.6743L39.9957 20.9909L39.5152 20.3036L39.8794 19.6195L39.9364 18.9338L39.767 18.2504L39.4289 17.5724L39.4112 16.8897L39.7015 16.1971L39.5467 15.5175L39.5668 14.8326L39.8794 14.1323L39.4366 13.4697L39.3434 12.7901L39.4381 12.099L39.7747 11.3887L39.5259 10.7199L39.6084 10.0258L38.9599 9.39463L39.5891 8.64896L38.7681 8.04166L39.3203 7.15378L38.9537 7.3352L38.9553 7.33597ZM26.4072 17.6485L26.3818 18.3395L26.3418 19.0291L26.1099 19.6964L25.6756 20.3405L25.5131 21.0178L25.2535 21.4529L24.5373 21.5897L23.8203 21.858L23.1033 21.9472L22.3863 21.3307L21.5299 21.4867L21.9527 22.3116L21.3974 22.988L21.3458 23.6653L21.9365 24.3441L21.4274 25.0206L21.6808 25.6986L22.0158 26.3766L21.8025 27.0539L21.8826 27.7311L21.268 28.4076L22.0474 29.0864L21.8033 29.7636L21.7062 30.4409L21.9542 31.1197L21.3543 31.7977L21.201 32.1298L20.4755 32.5695L19.7493 32.5541L19.023 32.415L18.2968 32.3658L17.5698 32.0806L16.9452 31.8123L17.2009 31.7938L17.063 31.1166L16.8843 30.4393L16.872 29.7621L17.0784 29.0848L16.8574 28.4076L17.5143 27.7303L16.7342 27.0531L16.7796 26.3758L17.3356 25.6986L17.2209 25.0213L17.3564 24.3441L17.0345 23.6661L16.9136 22.9888L17.1793 22.3108L17.2894 21.469L16.4515 21.9295L15.7799 21.8096L15.1076 21.6212L14.4345 21.9341L13.6074 20.9824L13.6566 20.9847L14.1696 20.2975L13.8492 19.6133L14.1149 18.9269L13.5103 18.2435L13.4826 17.5585L14.4175 16.5192L14.4229 16.5461L15.0984 16.7421L15.7738 17.2787L16.4492 16.5776L17.398 17.1811L17.3788 16.2417L17.3449 15.5798L17.234 14.9179L16.9097 14.2561L17.1077 13.5942L17.1955 12.8862L17.398 12.2028L17.3333 11.4633L17.9649 10.9459L18.1805 10.3056L18.2729 9.52531L18.658 8.87804L19.278 8.46139L20.0527 8.36837L20.655 7.98247L21.3566 7.86255L22.0713 7.92943L22.7613 7.5812L23.4483 7.44974L24.1345 7.75185L24.8215 7.44898L25.5069 8.02245L25.9051 8.30918L26.5089 8.31379L25.855 9.03563L25.8751 9.75747L26.2378 10.4793L26.0299 11.2019L25.51 11.8861L25.5069 12.0006L24.6644 12.1913L23.8218 12.1413L23.1595 12.2112L22.4471 12.1767L21.9873 12.6817L22.0705 13.3836L21.7093 14.0377L21.8141 14.7542L21.9304 15.4699L21.6177 16.1863L21.7255 16.829L22.3131 17.0688L22.9801 17.0219L23.6478 16.513L24.3147 16.5815L24.9825 16.8375L25.6486 17.2026L26.1762 17.5577L26.3541 17.4032L26.4065 17.6462L26.4072 17.6485Z" fill="white"/>
</svg>
