<svg width="253" height="100" viewBox="0 0 253 100" fill="none" xmlns="http://www.w3.org/2000/svg">
<g clip-path="url(#clip0_4413_12908)">
<path d="M35.6452 59.7544C35.6452 58.8089 34.7633 58.0116 33.719 58.0116C33.1687 58.0116 32.6748 58.188 32.2232 58.3856C28.011 60.1424 23.1214 61.1655 16.8137 61.603C15.9458 61.6665 15.0145 62.2592 15.0145 63.1058C15.0145 64.3053 16.3833 64.7286 17.5475 64.7286C21.2517 64.7286 25.1817 63.882 27.8981 63.2117C24.4973 68.4117 15.2332 74.9805 9.7721 74.9805C6.14549 74.9805 3.9794 72.9062 3.9794 69.4277C3.9794 63.2117 6.94983 55.775 11.9241 49.5378C16.9971 43.1806 23.2414 39.3776 28.6107 39.3776C30.6146 39.3776 33.9801 39.8856 33.9801 43.2865C33.9801 43.858 33.7896 44.4295 33.6203 44.9304C33.4862 45.3326 33.3733 45.6783 33.3733 45.9606C33.3733 46.5673 34.093 46.9766 34.5728 46.9766C36.5131 46.9766 37.1693 43.985 37.1693 42.6162C37.1693 38.8837 34.0366 37.3385 32.1739 36.7459C31.0732 36.4142 29.8667 36.252 28.4979 36.252C20.9836 36.252 13.6316 40.8029 7.79652 49.065C3.20327 55.5563 0 63.9243 0 69.4207C0 74.917 4.00762 78.459 9.52515 78.459C13.9138 78.459 19.2126 76.1235 25.2734 71.5091C25.1535 71.9395 25.0335 72.384 24.9065 72.8215C24.2574 75.1216 23.5871 77.5065 23.5871 79.6302C23.5871 80.6392 24.6455 81.3165 25.6333 81.3165C27.0091 81.3165 28.1662 79.8772 28.1662 78.1767C28.1662 78.078 28.1521 77.9792 28.138 77.8875C28.1239 77.7957 28.1098 77.7111 28.1098 77.6335C28.1098 73.5059 31.2637 63.8608 33.7684 61.5042C34.3541 61.3701 35.6452 60.9538 35.6452 59.7685V59.7544Z" fill="#ED7C9F"/>
<path d="M60.7987 58.9567C60.9751 58.618 61.3561 57.7784 61.0104 57.2069C60.7987 56.8541 60.3683 56.6777 59.7333 56.6777C59.0489 56.6777 58.4986 57.0305 58.0611 57.7643C57.5249 58.7239 57.3908 59.0626 57.1933 59.5776C57.0733 59.881 56.9322 60.262 56.657 60.8759C56.5583 61.0946 56.5653 61.3133 56.6782 61.5109C56.9181 61.9272 57.539 62.1388 57.8988 62.1812C57.9341 62.1812 57.9694 62.1812 58.0047 62.1812C58.9078 62.1812 59.5146 61.3415 60.7917 58.9638L60.7987 58.9567Z" fill="#ED7C9F"/>
<path d="M56.8684 64.1501C56.2969 63.8891 55.4431 64.136 54.8998 65.1168C54.0461 66.6902 53.4111 68.193 52.8043 69.8229C52.7479 69.837 52.6985 69.8652 52.6561 69.9005C51.1039 71.6926 47.0257 73.8164 45.1348 73.8164C44.7115 73.8164 44.4081 73.6682 44.1964 73.3648C43.1804 71.8761 44.8879 67.1911 45.4311 65.7941C45.4523 65.7376 45.4664 65.7024 45.4735 65.6741C45.537 65.3284 45.4664 65.025 45.2689 64.7922C45.0219 64.4959 44.5915 64.3406 44.0341 64.3406C43.5049 64.3406 42.9969 64.6299 42.4607 64.9333C41.9315 65.2367 41.3741 65.5542 40.8097 65.5542C40.2452 65.5542 39.9418 64.9121 39.9418 63.6562C39.9983 62.5979 40.1112 62.365 40.5768 61.3702L40.598 61.3279V61.2855C40.6051 60.7211 40.09 60.333 39.3492 60.333C37.5147 60.333 37.1196 63.2893 37.1196 64.0231C37.1196 65.025 37.423 65.9775 37.9592 66.6549C37.303 68.4117 34.8688 74.7477 34.1068 75.6861L34.0645 75.7426L34.0997 75.8061C34.4807 76.4764 34.9605 76.8503 35.4544 76.8503H35.4897C36.0048 76.8292 36.4845 76.4199 36.8373 75.6791C37.4582 74.3173 39.0034 69.4772 39.5467 67.6991C39.8713 67.8332 40.3017 67.9037 40.8167 67.9037C41.1342 67.9037 41.7199 67.8614 42.115 67.805C41.5152 69.3854 40.4357 72.878 41.7763 74.8324C42.4113 75.7567 43.4979 76.2294 45.0149 76.2294C46.9199 76.2294 49.4811 75.2769 51.4355 73.7176C51.3508 73.9646 51.2662 74.1974 51.1815 74.4514C50.9981 74.9312 50.737 75.8273 50.9981 76.3494C51.2238 76.9138 51.8165 77.2666 52.5291 77.2666C52.5644 77.2666 52.5926 77.2666 52.6279 77.2666C53.3829 77.2313 53.9897 76.8221 54.1731 76.2224C54.4412 75.3827 54.7235 74.4161 55.0198 73.393C55.676 71.1423 56.4168 68.5881 57.3341 66.2598C57.7715 65.0815 57.3552 64.3971 56.8613 64.1713L56.8684 64.1501Z" fill="#ED7C9F"/>
<path d="M76.1166 36.2523C75.8626 35.8713 75.531 35.6455 75.2346 35.6455C73.9505 35.6455 73.2379 37.7128 72.6664 39.3638C72.5535 39.6884 72.4476 39.9989 72.3418 40.267C65.7024 57.7721 61.4337 71.4671 58.9008 83.3771C58.8231 83.7652 58.7314 84.1673 58.6468 84.5484C58.4421 85.4303 58.2305 86.3475 58.2305 87.159C58.2305 88.1891 59.2324 88.6618 60.1567 88.6618C61.716 88.6618 61.9276 87.3706 62.1111 86.2347C62.1393 86.0583 62.1675 85.8819 62.2028 85.7196C65.4484 68.3062 74.1904 43.3856 76.3565 37.6634C76.554 37.1907 76.3565 36.6192 76.1095 36.2452L76.1166 36.2523Z" fill="#ED7C9F"/>
<path d="M87.8147 35.6457C86.5306 35.6457 85.818 37.713 85.2464 39.3641C85.1336 39.6886 85.0277 39.9991 84.9219 40.2672C78.2825 57.7723 74.0138 71.4674 71.4808 83.3773C71.4032 83.7654 71.3115 84.1676 71.2268 84.5486C71.0222 85.4305 70.8105 86.3478 70.8105 87.1592C70.8105 88.1893 71.8124 88.662 72.7367 88.662C74.296 88.662 74.5077 87.3708 74.6912 86.2349C74.7194 86.0585 74.7476 85.8821 74.7829 85.7198C78.0285 68.3064 86.7705 43.3858 88.9366 37.6637C89.1341 37.1909 88.9366 36.6194 88.6896 36.2455C88.4356 35.8645 88.104 35.6387 87.8077 35.6387L87.8147 35.6457Z" fill="#ED7C9F"/>
<path d="M139.603 10.7526C140.761 10.7526 141.798 9.82827 141.798 8.67114C141.798 7.51401 141.219 6.35688 140.641 5.31969C148.501 5.55253 155.436 6.01115 162.492 6.01115C163.882 6.01115 171.276 6.70261 171.276 2.7726C171.276 0.691175 167.805 0.345447 164.686 0.345447C155.443 0.345447 146.885 -0.000280634 138.333 -0.000280634C126.191 -0.000280634 106.195 -0.346008 102.843 8.90397C102.73 9.13681 102.73 9.36259 102.73 9.59543C102.73 10.7526 104 11.564 105.271 11.564C107.232 11.564 107.698 9.2497 109.201 8.44536C113.822 5.90532 130.353 4.98102 134.403 5.2068C126.423 21.1597 121.343 39.3069 116.023 56.6497C111.861 70.0625 108.163 83.2355 106.893 97.4597C106.893 99.0754 108.163 99.8868 109.899 99.9997C114.408 100.233 114.295 91.674 114.986 88.7883C120.306 67.1697 126.318 45.6711 133.712 24.7439C135.68 19.3111 138.566 10.9854 139.61 10.7526H139.603Z" fill="#ED7C9F"/>
<path d="M252.317 74.5645C246.764 74.3317 250.236 62.4288 251.28 59.7688C250.589 57.4545 248.966 57.8002 248.041 57.2287C247.809 54.9145 245.381 53.5316 243.42 53.5316C239.024 53.5316 234.981 56.883 232.089 59.6559C229.746 61.9207 226.889 64.863 225.273 68.0662C222.697 70.7192 219.353 72.9981 215.79 73.873C213.25 74.4516 211.394 73.4074 208.501 69.4774C210.35 68.4402 214.513 64.3902 214.513 61.5045C214.513 60.4673 213.589 58.6187 211.161 58.6187C206.886 58.6187 202.264 63.3601 199.371 66.4787C200.155 62.5769 201.149 58.407 202.264 54.5052C204.79 45.8903 208.346 34.0579 215.952 10.7601C216.298 9.7229 216.877 8.44583 216.877 7.2887C216.877 6.25151 216.185 4.86155 214.217 4.86155C210.978 4.86155 210.061 11.4515 208.664 15.1487C202.927 32.4986 199.096 44.4227 196.098 54.2301C191.61 61.7091 184.639 72.596 179.263 72.596C177.068 72.596 175.791 70.5146 174.867 68.9059C178.797 67.403 187.236 59.6559 187.236 56.0645C187.236 54.6816 185.733 53.7573 184.237 53.7573C179.608 53.7573 172.906 59.1902 170.598 63.4659C173.597 53.2917 176.377 43.0045 186.897 10.753C187.243 9.71585 187.828 8.43877 187.828 7.28164C187.828 6.24446 187.137 4.85449 185.168 4.85449C181.93 4.85449 181.006 11.4445 179.616 15.1417C171.96 38.2843 167.691 51.7888 164.284 63.4659C164.269 63.4659 164.255 63.4659 164.241 63.4659C162.16 66.7045 156.381 72.7159 150.948 72.7159C149.213 72.7159 148.634 70.6345 148.634 69.0188C148.634 65.6673 149.326 63.1202 150.603 59.7688C149.911 57.4545 148.288 57.8002 147.364 57.2287C147.131 54.9145 144.704 53.5316 142.743 53.5316C138.347 53.5316 134.304 56.883 131.411 59.6559C127.947 63.0073 123.318 67.8616 123.318 72.8359C123.318 76.1873 125.978 78.7344 129.33 78.7344C134.65 78.7344 139.504 73.3015 142.856 69.6044C142.968 73.3015 145.283 77.0058 150.024 77.0058C154.765 77.0058 158.935 74.6492 161.899 71.834C161.871 71.9398 161.842 72.0456 161.807 72.1515C159.846 79.4329 159.154 80.8158 159.154 81.973C159.154 83.9415 161.003 84.7529 162.393 84.7529C164.707 84.7529 165.398 82.7844 166.09 81.1616C167.473 77.923 168.75 74.0001 170.598 71.1072C172.56 74.1059 176.151 77.4573 179.496 77.4573C185.281 77.4573 189.903 71.5588 193.374 67.403C192.796 69.943 191.638 72.7159 191.638 75.3759C191.638 76.9987 192.683 78.2617 194.418 78.2617C196.958 78.2617 198.694 75.256 200.197 73.5203L202.631 70.6345C206.441 75.0302 209.221 78.2617 215.226 78.2617C217.794 78.2617 221.216 76.5895 224.179 74.2117C224.8 76.8576 227.157 78.7203 230.028 78.7203C235.348 78.7203 240.203 73.2874 243.554 69.5903C243.667 73.2874 245.523 78.8402 250.257 78.8402C252.571 78.8402 252.804 76.3002 252.338 74.5645H252.317ZM129.774 75.0302C124.574 75.0302 133.013 61.7373 141.564 57.9202C143.18 57.2287 143.533 58.153 143.533 59.423C143.533 61.6174 134.981 75.0302 129.774 75.0302ZM230.466 75.0302C225.266 75.0302 233.704 61.7373 242.256 57.9202C243.872 57.2287 244.217 58.153 244.217 59.423C244.217 61.6174 235.666 75.0302 230.459 75.0302H230.466Z" fill="#ED7C9F"/>
</g>
<defs>
<clipPath id="clip0_4413_12908">
<rect width="252.508" height="100" fill="white"/>
</clipPath>
</defs>
</svg>
