<svg width="30" height="30" viewBox="0 0 30 30" fill="none" xmlns="http://www.w3.org/2000/svg">
<path d="M29.2196 5.50279L29.1012 5.00462L28.9464 4.52087L28.8794 4.00137L28.8915 3.40807L28.6622 2.90875L28.2214 2.56108L27.7888 2.23762L27.2712 2.04043L26.8282 1.79423L26.6208 1.12943L26.0997 0.965106L25.4869 1.13058L25.0848 0.599554L24.5534 0.479049L23.996 0.866511L23.5217 0.438112L22.992 0.580527L22.4588 0.787519L21.9603 0.588023L21.4439 0.610509L20.9622 0.116957L20.4122 0.667591L19.9103 0.456563L19.4008 0.358544L18.8792 0.521716L18.3836 0.052957L17.8643 0.159048L17.3409 0.47386L16.8285 0.450797L16.3173 0.337211L15.8044 0.294544L15.2914 0.0777499L14.7773 0.34413L14.2621 0.156165L13.7491 0.265138L13.2379 0.407553L12.7249 0.42831L12.2074 0.288201L11.6996 0.470977L11.1659 0.000488281L10.6789 0.607626L10.1654 0.600131L9.62819 0.214399L9.11986 0.332598L8.5994 0.266868L8.10436 0.545356L7.5995 0.676816L7.07038 0.522869L6.5453 0.437535L6.07278 0.882655L5.5529 0.84633L5.02031 0.785789L4.58188 1.13981L4.07933 1.23494L3.60277 1.42118L2.9483 1.36468L2.65832 1.8761L2.12573 2.08713L2.10667 2.77729L1.82189 3.19013L1.61567 3.6462L1.38288 4.08382L1.07211 4.50646L0.549918 4.91929L0.988928 5.51778L0.402041 5.97327L0.453451 6.49566L0.431501 7.00996L0.470203 7.52888L0.671224 8.05991L0.484644 8.56039L0.404352 9.0695L0.284201 9.57632L0.423414 10.0987L0.0750939 10.5951L0.11784 11.1123L0.368538 11.6364L0.467315 12.1525L0.405507 12.6633L0.160585 13.1707L0.249543 13.6856L0.195244 14.1982L0.0641186 14.7113L0.302108 15.2251L0.403774 15.7371L0.182536 16.2525L0.418793 16.7617L0 17.2852L0.105131 17.7972L0.575912 18.2942L0.106864 18.8264L0.145567 19.3395L0.443631 19.8383L0.317705 20.3595L0.460383 20.8652L0.581689 21.3708L0.763069 21.8707L0.767113 22.3839L0.8243 22.893L0.671224 23.4217L0.74805 23.9297L1.02936 24.4157L0.872822 24.952L1.07615 25.4305L1.33089 25.8762L1.34071 26.4395L1.69712 26.831L1.845 27.3742L2.22913 27.7449L2.8657 27.8072L3.23366 28.1451L3.56985 28.5717L3.93088 29.0474L4.48484 29.0981L5.05208 28.9725L5.52864 29.2682L6.06989 29.0307L6.57014 29.1887L7.06749 29.3905L7.58564 29.3674L8.10725 29.2901L8.59132 29.7087L9.13199 29.3403L9.62992 29.6021L10.1469 29.5646L10.6576 29.6401L11.1659 29.7843L11.6927 29.4816L12.2004 29.6551L12.7099 29.8327L13.2287 29.6563L13.7393 29.8921L14.254 29.9688L14.7704 29.5767L15.2833 29.4435L15.7997 29.918L16.3092 29.4977L16.8326 30.0022L17.3421 29.7595L17.8608 29.8811L18.3784 29.9371L18.8942 29.933L19.3991 29.6914L19.9051 29.5254L20.407 29.3172L20.9344 29.526L21.4422 29.4205L21.958 29.4314L22.4843 29.5554L23.003 29.5721L23.5119 29.4793L24.0121 29.3069L24.5511 29.5121L25.0837 29.3726L25.6232 29.2746L25.9721 28.6899L26.5711 28.7343L26.9766 28.3786L27.21 27.836L27.6501 27.5742L28.0025 27.2087L28.3826 26.8524L28.6321 26.4003L28.6789 25.8624L29.3161 25.5406L29.3779 24.9987L29.2283 24.444L29.6499 23.9712L29.2814 23.4188L29.3438 22.9097L29.7279 22.4271L29.565 21.8984L29.2935 21.3639L29.7603 20.8819L29.851 20.3722L29.5668 19.8412L29.4397 19.3217L29.5829 18.8154L29.9203 18.315L29.5743 17.7897L29.8521 17.2846L29.7637 16.7691L29.8544 16.2571L30 15.7446L29.6395 15.2291L29.9128 14.7159L29.9555 14.2016L29.8284 13.6891L29.5749 13.1805L29.5616 12.6685L29.7793 12.149L29.6632 11.6393L29.6783 11.1256L29.9128 10.6003L29.5806 10.1033L29.5107 9.59362L29.5818 9.07527L29.8342 8.54251L29.6476 8.04089L29.7094 7.52024L29.2231 7.04686L29.695 6.48758L29.0792 6.03209L29.4934 5.36614L29.2184 5.50221L29.2196 5.50279ZM19.808 13.2376L19.789 13.7559L19.7589 14.2731L19.5851 14.7736L19.2593 15.2568L19.1374 15.7647L18.9427 16.0911L18.4055 16.1937L17.8677 16.3949L17.3299 16.4618L16.7921 15.9994L16.1498 16.1165L16.4669 16.7351L16.0504 17.2425L16.0117 17.7505L16.4548 18.2596L16.073 18.767L16.263 19.2755L16.5143 19.7841L16.3543 20.292L16.4144 20.8L15.9534 21.3074L16.538 21.8165L16.3549 22.3245L16.2821 22.8325L16.4681 23.3416L16.0181 23.8501L15.9031 24.0992L15.359 24.429L14.8143 24.4175L14.2696 24.3131L13.7248 24.2762L13.1796 24.0623L12.7111 23.8611L12.9029 23.8472L12.7995 23.3393L12.6654 22.8313L12.6562 22.3233L12.811 21.8154L12.6452 21.3074L13.138 20.7994L12.5528 20.2915L12.5869 19.7835L13.0039 19.2755L12.9179 18.7676L13.0195 18.2596L12.7781 17.7511L12.6874 17.2431L12.8867 16.7346L12.9693 16.1032L12.3408 16.4486L11.8371 16.3586L11.3328 16.2174L10.828 16.452L10.2076 15.7382L10.2445 15.74L10.6292 15.2245L10.3889 14.7113L10.5882 14.1964L10.1348 13.6839L10.114 13.1701L10.8153 12.3906L10.8193 12.4108L11.3259 12.5578L11.8325 12.9603L12.3391 12.4344L13.0507 12.887L13.0363 12.1825L13.0109 11.686L12.9277 11.1896L12.6845 10.6932L12.833 10.1967L12.8988 9.66569L13.0507 9.15311L13.0022 8.59844L13.4759 8.2104L13.6376 7.73011L13.7069 7.14488L13.9958 6.6594L14.4608 6.3469L15.0419 6.27713L15.4936 5.98769L16.0198 5.89774L16.5559 5.9479L17.0735 5.68671L17.5887 5.58812L18.1034 5.81471L18.6187 5.58754L19.1328 6.01767L19.4314 6.23274L19.8843 6.23619L19.3939 6.7776L19.4089 7.31901L19.6809 7.86042L19.525 8.4024L19.1351 8.91556L19.1328 9.00147L18.5008 9.14446L17.8689 9.10698L17.3721 9.15945L16.8378 9.13351L16.4929 9.51232L16.5553 10.0387L16.2844 10.5294L16.363 11.0668L16.4502 11.6036L16.2157 12.1409L16.2965 12.623L16.7373 12.8029L17.2375 12.7677L17.7383 12.386L18.2386 12.4373L18.7394 12.6293L19.239 12.9032L19.6347 13.1696L19.7682 13.0537L19.8075 13.2359L19.808 13.2376Z" fill="black"/>
</svg>
