<svg width="345" height="109" viewBox="0 0 345 109" fill="none" xmlns="http://www.w3.org/2000/svg">
<g clip-path="url(#clip0_22_644)">
<path d="M41.4926 11.4062C34.0406 11.4062 27.9907 17.4879 27.9907 24.979C27.9907 32.4702 34.0406 38.5518 41.4926 38.5518C48.9447 38.5518 54.9946 32.4702 54.9946 24.979C54.9946 17.4879 48.9447 11.4062 41.4926 11.4062ZM41.4926 35.1064C35.9361 35.1064 31.3922 30.5648 31.3922 24.9529C31.3922 19.3411 35.9101 14.7995 41.4926 14.7995C47.0752 14.7995 51.5931 19.3411 51.5931 24.9529C51.5931 30.5648 47.0752 35.1064 41.4926 35.1064Z" fill="#65B0D4"/>
<path d="M32.0931 57.606H25.5239V61.0253H32.0931V57.606Z" fill="#65B0D4"/>
<path d="M38.87 68.2295H32.3008V71.6488H38.87V68.2295Z" fill="#65B0D4"/>
<path d="M111.261 9.99689C112.871 10.0491 114.403 10.4145 115.857 11.067L117.285 7.96097C115.415 7.09962 113.442 6.62979 111.365 6.57759C104.121 6.39488 97.837 11.3542 96.0973 18.1667C95.0068 13.5728 96.6945 8.58741 100.719 5.66403L98.7458 2.87117C93.9162 6.34267 91.7092 12.1633 92.5401 17.6968C87.5547 14.1992 80.7259 13.886 75.3511 17.4619L77.2206 20.307C81.375 17.5402 86.62 17.749 90.4888 20.4114C87.6326 20.0721 84.7245 20.5419 82.0501 21.8209C78.3631 23.5958 75.6107 26.728 74.2606 30.591C73.5855 32.5486 73.2998 34.5845 73.4297 36.6205L76.8311 36.4116C76.7272 34.8194 76.935 33.2273 77.4802 31.7134C78.5189 28.7117 80.674 26.2842 83.5301 24.9009C85.9449 23.7263 88.5934 23.4392 91.1639 23.9873C87.8404 25.9188 84.2831 29.6252 86.8537 36.8032L90.0474 35.6547C87.9702 29.8863 90.8783 27.4588 95.8896 25.5795L95.6559 24.927C101.784 33.5927 105.003 43.7723 105.003 54.4478C105.003 82.6114 82.2059 105.529 54.1894 105.529C45.569 105.529 37.4678 103.362 30.3534 99.5252C40.7135 99.0553 60.499 96.8628 62.9916 86.7615C64.1081 82.1937 61.252 78.6178 58.9411 75.7206C57.3053 73.6585 55.7473 71.727 55.981 70.0304C56.1368 68.8297 57.2274 67.4986 59.1748 66.0891C61.5116 64.3925 68.8858 62.8003 76.0262 61.2603C80.9336 60.1901 86.0228 59.0939 90.2292 57.841C96.7724 55.8834 100.382 51.681 100.511 51.4983C100.927 51.0024 101.031 50.2716 100.745 49.6712C100.459 49.0709 99.8623 48.6794 99.2131 48.6794H3.73899C6.5692 23.2826 28.1203 3.4193 54.2154 3.4193V0C24.3294 0 0 24.4571 0 54.5C0 84.5429 24.3294 109 54.2154 109C84.1014 109 108.431 84.5429 108.431 54.5C108.431 43.7462 105.341 33.4361 99.4988 24.5354C102.822 20.9073 106.016 19.4195 110.43 23.2304L112.663 20.6463C106.925 15.6609 102.199 17.6968 99.2131 20.1243C99.6026 17.5141 100.849 15.1128 102.796 13.2857C105.107 11.0932 108.119 9.94468 111.287 10.0491L111.261 9.99689ZM6.36148 71.6487H26.7961V68.2294H5.29691C4.64778 65.8803 4.15444 63.4789 3.84285 60.9993H20.0452V57.58H3.50531C3.45338 56.562 3.40144 55.518 3.40144 54.4739C3.40144 53.6909 3.40144 52.9078 3.45338 52.1509H94.5134C93.1373 53.0383 91.3716 53.978 89.2425 54.6044C85.1659 55.8312 80.1547 56.9013 75.2992 57.9454C67.1461 59.7203 60.0835 61.2342 57.1754 63.3484C54.3972 65.3582 52.9171 67.3942 52.6056 69.5867C52.1901 72.745 54.2673 75.3551 56.2926 77.887C58.4218 80.5232 60.4211 83.029 59.6941 85.9524C58.6814 90.0764 52.242 93.2869 41.5703 94.9835C34.2222 96.1319 27.0558 96.2364 25.0564 96.2625C16.5398 90.233 9.94468 81.6717 6.38745 71.6487H6.36148ZM97.4735 21.5338H97.6033C97.6033 21.5338 97.5514 21.586 97.5254 21.6121C97.5254 21.586 97.4994 21.5599 97.4735 21.5338ZM93.1373 22.9432C93.1373 22.9432 93.1892 22.9955 93.1892 23.0216C93.1632 23.0216 93.1113 23.0477 93.0853 23.0738L93.1373 22.9432Z" fill="#65B0D4"/>
<path d="M152.987 47.8178V44.6334C154.026 45.312 155.454 45.9646 157.298 45.9646C160.387 45.9646 161.686 44.3985 161.686 42.8585C161.686 41.5534 160.907 40.4832 159.193 39.6741L156.856 38.5256C154.519 37.3772 153.039 35.7589 153.039 33.4358C153.039 30.1731 155.895 27.8501 160.413 27.8501C162.049 27.8501 163.399 28.1894 164.048 28.5548V31.7392C163.244 31.2433 161.841 30.8257 160.465 30.8257C157.921 30.8257 156.519 31.8958 156.519 33.4358C156.519 34.4799 157.142 35.2107 158.596 35.9155L160.933 37.0378C163.685 38.3429 164.983 40.2222 164.983 42.7541C164.983 45.9646 162.724 48.9923 157.479 48.9923C155.636 48.9923 154.052 48.4964 153.013 47.8178H152.987Z" fill="#231916"/>
<path d="M204.424 28.1113V48.5488H201.101V39.2567H189.806V48.5488H186.482V28.1113H189.806V36.1506H201.101V28.1113H204.424Z" fill="#231916"/>
<path d="M223.327 38.3953C223.327 32.392 227.845 27.8242 233.817 27.8242C239.789 27.8242 244.307 32.4181 244.307 38.3953C244.307 44.3726 239.841 48.9665 233.817 48.9665C227.793 48.9665 223.327 44.3726 223.327 38.3953ZM240.958 38.3953C240.958 34.1147 237.92 30.8781 233.817 30.8781C229.715 30.8781 226.703 34.1147 226.703 38.3953C226.703 42.676 229.689 45.8343 233.817 45.8343C237.946 45.8343 240.958 42.6238 240.958 38.3953Z" fill="#231916"/>
<path d="M281.775 28.1115V48.6795H281.229L267.052 35.0545V48.5751H263.781V27.981H264.274L278.477 41.4493V28.1115H281.775Z" fill="#231916"/>
<path d="M303.274 28.1113H306.546V48.5488H303.274V28.1113Z" fill="#231916"/>
<path d="M345 28.1115V48.6795H344.454L330.277 35.0545V48.5751H327.006V27.981H327.499L341.702 41.4493V28.1115H345Z" fill="#231916"/>
<path d="M203.775 80.7579C203.775 85.6389 200.296 88.6145 194.505 88.6145C193.233 88.6145 192.298 88.5362 191.545 88.4057V93.9131H188.222V73.4756H195.18C200.633 73.4756 203.775 76.5295 203.775 80.784V80.7579ZM200.27 80.784C200.27 78.461 198.815 76.4773 194.921 76.4773H191.519V85.4301C192.272 85.5345 193.207 85.6128 194.453 85.6128C198.712 85.6128 200.27 83.6813 200.27 80.784Z" fill="#231916"/>
<path d="M237.115 89.6588H228.702L226.936 93.8872H223.223L232.7 73.1626H233.142L242.619 93.8872H238.906L237.141 89.6588H237.115ZM232.908 79.6097L229.896 86.7876H235.894L232.908 79.6097Z" fill="#231916"/>
<path d="M277.179 93.8872L273.232 87.3618C272.557 87.4401 271.856 87.4923 271.103 87.4923C269.805 87.4923 268.818 87.3879 267.987 87.2313V93.8872H264.664V73.4497H272.245C277.62 73.4497 280.528 75.9555 280.528 80.1578C280.528 83.29 279.048 85.4564 276.426 86.5527L280.944 93.8872H277.205H277.179ZM276.971 80.21C276.971 77.9392 275.751 76.4775 271.934 76.4775H267.935V84.3341C268.74 84.4907 269.753 84.569 271.025 84.569C275.205 84.569 276.971 83.0029 276.971 80.21Z" fill="#231916"/>
<path d="M316.075 93.8872L306.857 83.4727V93.8872H303.534V73.4497H306.857V82.5069L315.737 73.4497H319.97L310.7 82.8724L320.411 93.8872H316.101H316.075Z" fill="#231916"/>
</g>
<defs>
<clipPath id="clip0_22_644">
<rect width="345" height="109" fill="white"/>
</clipPath>
</defs>
</svg>
