<svg width="30" height="30" viewBox="0 0 30 30" fill="none" xmlns="http://www.w3.org/2000/svg">
<path fill-rule="evenodd" clip-rule="evenodd" d="M23.957 29.1559L24.4864 29.2871L24.5435 29.3303L24.9391 28.8664L25.5238 29.0805L25.9281 28.6764L26.5941 28.8456L26.7706 28.1261L27.315 28.0047L27.5485 27.5045L27.9459 27.1856L28.443 26.9093L28.8559 26.5317L28.9418 25.9774L29.1015 25.4743L29.2838 24.9747L29.4677 24.4601L29.3011 23.9271L29.2578 23.4085L29.2261 22.8916L29.2059 22.377L29.2867 21.871L29.6477 21.3841L29.3599 20.8511L29.4695 20.3457L29.3806 19.8282L29.6505 19.3297L29.7151 18.8197L29.8449 18.3121L29.4343 17.7854L29.7105 17.2817L29.9741 16.7746L29.9862 16.2612L29.5727 15.7437L29.6292 15.2326L30 14.7197L29.7688 14.208L29.7601 13.6957L29.4723 13.1892L29.6719 12.6729L29.4873 12.1663L29.8351 11.6419L29.3991 11.1475L29.8137 10.6156L29.4072 10.1235L29.5513 9.60315L29.6534 9.0828L29.7636 8.56072L29.4729 8.068L29.6505 7.5396L29.3051 7.05494L29.2463 6.5461L29.0802 6.04878L29.3616 5.50483L29.0652 5.02363L28.8242 4.56487L28.6759 4.08712L28.6477 3.53338L28.1466 3.24213L28.1102 2.63141L27.5612 2.43455L27.1789 2.11106L26.8046 1.7726L26.3646 1.52624L25.8981 1.3386L25.4829 0.990931L25.0434 0.554046L24.4523 0.931644L23.991 0.400935L23.4409 0.74227L22.9466 0.512603L22.4363 0.451013L21.9346 0.276604L21.4219 0.223649L20.8792 0.635207L20.381 0.388272L19.8539 0.620241L19.3597 0.247824L18.847 0.208683L18.3349 0.145366L17.824 0.0394548L17.3102 0.00146484L16.7935 0.07284L16.2797 0.0400304L15.7641 0.137883L15.2497 0.319199L14.7365 0.300204L14.2232 0.24437L13.7094 0.209259L13.1979 0.322077L12.6783 0.0739912L12.1622 0.0262159L11.6518 0.154L11.1374 0.157454L10.6282 0.276604L10.1294 0.568437L9.59536 0.220771L9.10403 0.582251L8.56196 0.189688L8.09023 0.767021L7.56372 0.615061L7.03318 0.436623L6.53435 0.623119L6.00265 0.470584L5.51767 0.776806L5.0396 1.02489L4.46177 0.855664L4.09039 1.3432L3.42144 1.15671L3.19134 1.78757L2.58006 1.8365L2.41571 2.42649L2.15505 2.8628L1.42382 2.96641L1.38345 3.56101L0.953251 3.94149L0.971128 4.51019L0.836761 5.01154L0.475184 5.49505L0.486141 6.01252L0.778517 6.55589L0.819461 7.07336L0.326977 7.54478L0.777363 8.09506L0.455 8.58375L0.452693 9.09719L0.44116 9.60948L0.207604 10.1097L0.435969 10.6346L0.566876 11.1527L0.358694 11.6563L0.410596 12.1703L0.15801 12.6752L0.422129 13.1938L0.0173004 13.6992L0.512668 14.2172L0.212218 14.7272L0.123409 15.2401L0.232978 15.7518L0.380608 16.2623L0.363885 16.774L0.554765 17.2812L0.495944 17.794L0 18.3242L0.223752 18.829L0.359271 19.3361L0.247972 19.8547L0.30391 20.3652L0.297566 20.8798L0.478644 21.3812L0.620507 21.8843L0.466533 22.4104L0.856945 22.8904L0.4723 23.4401L0.971128 23.9058L0.520741 24.4676L1.10319 24.9004L0.754873 25.5233L1.02534 25.9958L1.16201 26.5254L1.76752 26.7712L2.1118 27.1407L2.41513 27.5425L2.83438 27.8251L3.09792 28.3224L3.59329 28.4991L4.06674 28.6891L4.5575 28.8169L5.05402 28.8951L5.51882 29.2382L6.03322 29.2538L6.55742 29.1611L7.04068 29.5105L7.56545 29.4103L8.06832 29.5629L8.6029 29.2906L9.0827 29.7965L9.62132 29.423L10.1403 29.324L10.6415 29.5548L11.153 29.5985L11.6708 29.4731L12.1823 29.5151L12.691 29.6498L13.1985 29.9594L13.718 29.6095L14.2324 29.4558L14.7422 30.0015L15.2566 29.7045L15.7722 29.9658L16.2866 29.9514L16.7952 29.6406L17.3033 29.4414L17.82 29.587L18.3303 29.5134L18.8418 29.4731L19.3493 29.3637L19.8897 29.8668L20.3902 29.6181L20.8931 29.4385L21.3977 29.3061L21.9248 29.4742L22.4271 29.3171L22.9628 29.5542L23.4455 29.1968L23.957 29.1559ZM12.2631 24.0954L12.7706 24.3198L12.8703 24.3227L13.2786 24.1126L13.7844 24.0562L14.2792 23.9359L14.7647 23.7857L15.3316 23.7966L15.7088 23.3954L16.2312 23.2475L16.6061 22.8768L16.9527 22.4888L17.369 22.1654L17.6337 21.7124L17.8949 21.2663L18.0333 20.7626L18.3736 20.3487L18.4076 19.8209L18.5189 19.3247L18.5754 18.8194L18.64 18.3128L18.5149 17.8063L18.5685 17.3003L18.5645 16.795L18.5996 16.289L18.5403 15.783L18.5264 15.2777L18.5702 14.7723L18.7248 14.2669L18.5708 13.7609L18.7571 13.2555L18.6268 12.7496L18.6291 12.235L19.1734 12.3824L19.5477 12.8532L20.0869 12.939L20.6348 12.9148L21.1376 13.1462L21.6733 13.194L22.156 13.0293L22.6387 13.263L23.1917 13.1525L23.0562 12.604L23.0026 12.1268L23.036 11.6496L22.9795 11.1719L23.1433 10.6953L23.1139 10.2256L22.6422 10.2089L22.1624 10.0696L21.6837 10.3862L21.1705 10.1076L20.6843 9.94466L20.1578 9.84163L19.6607 9.61024L19.3776 9.13536L19.0546 8.7192L18.6862 8.29268L18.6371 7.74009L18.6095 7.20421L18.5599 6.72588L18.5316 6.24812L18.5627 5.87168L18.1844 5.68461L17.7052 5.65007L17.2266 5.88722L16.7479 5.81412L16.2687 5.60229L15.7826 5.76404L15.6148 6.29417L15.6194 6.8174L15.7993 7.34005L15.9544 7.86327L15.8466 8.38592L15.8558 8.90858L15.6407 9.4318L15.8201 9.95445L15.9319 10.4771L15.9706 11.0003L15.7261 11.523L15.662 12.0456L15.7145 12.5683L15.7088 13.0915L15.6326 13.6142L15.6424 14.1368L15.8944 14.6595L15.9025 15.1821L15.6955 15.7048L15.8939 16.2274L15.8449 16.7501L15.7266 17.2721L15.8385 17.7948L15.6603 18.3174H15.6165L15.8921 18.8671L15.6868 19.3771L15.3356 19.7956L15.0312 20.2106L14.635 20.5358L14.353 21.0539L13.7734 21.0677L13.308 21.3595L12.7706 21.5034L12.2222 21.4199L11.7228 21.1903L11.2464 20.9531L10.8427 20.6106L10.3416 20.3522L10.1426 19.8318L9.82029 19.3892L9.73955 18.851L9.72398 18.3174L9.89583 17.8115L9.83874 17.2526L10.0936 16.7748L10.4604 16.3828L10.7833 15.954L11.1859 15.5781L11.7666 15.5643L12.2746 15.5131L12.7706 15.4382L13.2498 15.4854L13.729 15.4826L14.233 15.3283L14.0404 14.8252L14.0687 14.3469L14.3051 13.8691L14.1298 13.3908L14.0335 12.9131L14.2601 12.3829L13.729 12.4203L13.2492 12.6109L12.7706 12.5654L12.2539 12.4198L11.7475 12.5228L11.2424 12.6212L10.7274 12.7099L10.2113 12.8348L9.8001 13.1767L9.29378 13.3569L9.07637 13.9186L8.61099 14.1604L8.33245 14.5956L7.89475 14.9052L7.69119 15.3853L7.56951 15.8918L7.23965 16.3034L6.98648 16.7656L6.8031 17.2623L6.98648 17.8074L6.9242 18.3128L6.89306 18.8257L6.91325 19.3432L6.90633 19.8808L7.14911 20.3545L7.52683 20.7528L7.57989 21.3037L7.91436 21.7066L8.27652 22.0761L8.63002 22.4451L9.08502 22.6966L9.412 23.1001L9.80529 23.4386L10.2828 23.6366L10.7574 23.8323L11.2516 23.9687L11.7712 23.9682L12.2631 24.0954Z" fill="black"/>
</svg>
