<svg width="30" height="30" viewBox="0 0 30 30" fill="none" xmlns="http://www.w3.org/2000/svg">
<path d="M12.8288 11.9247C12.8061 11.731 13.0216 11.6004 13.1828 11.7101L13.2231 11.7376L13.6604 12.0178C13.9477 12.2113 14.2511 12.3841 14.5639 12.5328L14.8205 12.6759C14.9517 12.7491 15.0738 12.8375 15.1842 12.9393C15.3317 13.0753 15.4997 13.1871 15.6821 13.2707L15.8828 13.3626C16.2005 13.5022 16.5025 13.6807 16.7776 13.892L17.2161 14.1717L17.423 14.2695C17.5995 14.3529 17.766 14.456 17.9193 14.577L18.0793 14.7032C18.0931 14.7141 18.1078 14.7237 18.1233 14.732C18.3301 14.8423 18.3297 15.1394 18.1248 15.2533C18.1122 15.2603 18.1 15.2683 18.0886 15.2771L17.691 15.581L17.2438 15.8457L17.0255 15.9516C16.8585 16.0327 16.7009 16.1319 16.5556 16.2476C16.4289 16.3485 16.2928 16.4369 16.1491 16.5117L15.903 16.6398L15.4495 16.8942C15.1356 17.0401 14.8303 17.2104 14.5414 17.4011L14.3165 17.5198C14.16 17.6023 14.0131 17.702 13.8786 17.817C13.7474 17.9292 13.6044 18.0268 13.4521 18.1082L13.2214 18.2315L13.2094 18.2401C13.0162 18.3777 12.7473 18.2474 12.7356 18.0105L12.7465 17.5065C12.797 17.1729 12.8 16.8332 12.7552 16.4988C12.7367 16.1632 12.7436 15.8252 12.7754 15.4906L12.7866 15.1392C12.7899 15.0376 12.7842 14.936 12.7696 14.8354L12.7637 14.7953C12.7337 14.5889 12.7462 14.3786 12.8004 14.1772C12.8359 14.0452 12.8535 13.9091 12.8529 13.7724L12.8515 13.4743L12.8348 13.1084C12.8306 13.0164 12.8196 12.9248 12.802 12.8344L12.7849 12.7466C12.7489 12.5614 12.7497 12.3709 12.7873 12.1861L12.8258 11.9965C12.8306 11.9729 12.8316 11.9486 12.8288 11.9247Z" fill="black"/>
<path d="M29.3977 5.5096L29.3354 4.97788L28.7757 4.59003L28.6598 4.10492L28.5617 3.59219L28.1913 3.22506L27.9132 2.80785L27.6778 2.33426L27.5105 1.72658L26.7968 1.80427L26.3802 1.51999L26.0716 0.953749L25.4566 1.1097L24.9465 1.07575L24.4994 0.57798L23.9727 0.672354L23.4586 0.650487L22.9226 0.877214L22.4345 0.569348L21.9418 0.279321L21.3926 0.737955L20.9062 0.32996L20.3714 0.650487L19.8619 0.585461L19.3456 0.651637L18.8448 0.381751L18.3347 0.285651L17.8161 0.430664L17.302 0.465191L16.7908 0.381175L16.2831 0.00195312L15.765 0.332838L15.2515 0.363336L14.7386 0.392109L14.224 0.152146L13.7128 0.353554L13.2017 0.440447L12.687 0.356431L12.1695 0.222351L11.6485 0.0462629L11.1477 0.392684L10.625 0.213144L10.104 0.110138L9.62114 0.659118L9.10823 0.667175L8.59648 0.691344L8.05704 0.359884L7.56375 0.632648L7.03296 0.45656L6.5391 0.695947L5.99735 0.438145L5.54387 1.04467L4.94846 0.598696L4.52671 1.08092L3.97169 1.07402L3.4634 1.24493L3.20147 1.8129L2.75318 2.05516L2.25239 2.27153L2.13239 2.85159L1.62929 3.10939L1.41755 3.58414L1.00792 3.96739L0.916766 4.49565L0.67618 4.97961L0.724066 5.52111L0.690603 6.03268L0.74599 6.55231L0.315012 7.02764L0.784069 7.58237L0.284434 8.05597L0.490403 8.58538L0.332897 9.08833L0.378476 9.60451L0.130967 10.104L0.245202 10.6236L0.33232 11.1404L0.214624 11.6485L0.160391 12.1595L0.104427 12.6711L0.0565406 13.1832L0.317897 13.7006L0.190392 14.211L0.362322 14.7237L0.445402 15.2347L0.122889 15.7486L0.335205 16.2584L0 16.7769L0.4079 17.2804L0.340975 17.7943L0.365206 18.3053L0.0190392 18.8324L0.29655 19.3337L0.414824 19.8406L0.308666 20.3597L0.267126 20.8764L0.370976 21.3834L0.445979 21.8921L0.781184 22.3784L0.557906 22.9112L0.535982 23.428L0.807723 23.916L0.615601 24.4506L0.665795 24.9823L0.957152 25.4519L0.893111 26.04L1.2612 26.4595L1.53179 26.9152L1.77988 27.3969L2.14277 27.7957L2.55529 28.1421L2.91588 28.5673L3.5886 28.4787L4.01785 28.7688L4.43382 29.1681L5.03558 28.9149L5.50694 29.2101L6.03946 29.0507L6.52294 29.373L7.05662 29.1773L7.55221 29.3971L8.07666 29.2798L8.55552 29.7672L9.08458 29.5778L9.61133 29.3845L10.1144 29.5727L10.6406 29.3321L11.1414 29.606L11.652 29.6889L12.166 29.6947L12.6761 29.8454L13.1953 29.6181L13.7048 29.8765L14.2205 29.7108L14.7346 29.4714L15.2481 30.0014L15.7604 29.6872L16.2727 29.621L16.7885 29.739L17.3084 29.968L17.8068 29.438L18.3267 29.6365L18.8373 29.5663L19.3565 29.6797L19.8677 29.6129L20.3644 29.3154L20.8998 29.6509L21.4139 29.6273L21.9003 29.247L22.4241 29.3643L22.9618 29.6158L23.4378 29.1842L23.9848 29.4944L24.4521 29.0248L25.0458 29.4138L25.4214 28.7682L25.9902 28.839L26.3427 28.3924L26.8297 28.2244L27.2359 27.9182L27.8486 27.8129L28.0193 27.2547L28.3263 26.8404L28.7959 26.5084L28.6782 25.8765L29.1744 25.5059L28.9228 24.9104L29.2407 24.446L29.0469 23.9114L29.2084 23.4136L29.4213 22.9187L29.258 22.391L29.5506 21.9007L29.7288 21.3995L29.831 20.8914L29.5379 20.3591L29.8817 19.8648L29.921 19.3521L29.9717 18.8399L29.9856 18.326L29.7623 17.8047L29.8938 17.2954L29.9798 16.7838L29.524 16.2636L29.6486 15.7538L29.8488 15.2428L29.805 14.73L29.6815 14.2185L30 13.7017L29.5684 13.1965L29.9394 12.6751L29.4623 12.1762L29.7952 11.6525L29.4934 11.1519L29.6261 10.6334L29.6665 10.1184L29.8304 9.59472L29.5234 9.10041L29.6809 8.5756L29.6458 8.06345L29.4767 7.56223L29.6659 7.03051L29.6556 6.51548L29.3284 6.03153L29.4582 5.65173L29.3959 5.50902L29.3977 5.5096ZM23.6634 19.378L23.4511 19.7963L23.503 20.4725L23.064 20.8051L22.5516 20.991L22.1362 21.3357L21.6256 21.4818L21.0862 21.4461L20.5248 21.163L20.0425 21.6976L19.51 21.7126L18.9538 21.3742L18.4478 21.7638L17.9222 21.8864L17.373 21.4876L16.8497 21.655L16.3206 21.6976L15.7945 21.9825L15.2608 21.7229L14.7317 21.4732L14.1969 21.9663L13.673 21.5831L13.133 21.922L12.6028 21.8668L12.0668 21.9347L11.5499 21.6591L11.026 21.5497L10.4848 21.6729L9.95115 21.678L9.42844 21.5578L8.94381 21.1365L8.39744 21.3667L7.8978 21.2326L7.41663 21.0301L7.13277 20.5461L6.63141 20.3442L6.25524 19.9626L6.12427 19.4361L6.17447 18.8894L6.28351 18.3445L5.8883 17.8714L6.03139 17.3282L6.11331 16.7988L5.55656 16.3114V15.7808L5.55541 15.2514L5.92754 14.7266L5.70657 14.1978L5.95177 13.685L5.79426 13.1499L6.15024 12.6584L5.65579 12.0738L6.25582 11.6261L5.97946 11.0518L6.2662 10.5747L6.52121 10.1679L6.54083 9.54984L6.98046 9.23737L7.50317 9.09466L7.83665 8.59516L8.41186 8.66077L8.90111 8.49331L9.45036 8.64178L9.96904 8.49849L10.5056 8.56639L11.0237 8.39663L11.5516 8.34254L12.0755 8.20789L12.6218 8.56754L13.1324 8.03468L13.6753 8.47835L14.1998 8.22457L14.7306 8.34139L15.2602 8.26313L15.787 8.48583L16.3183 8.35463L16.8508 8.25853L17.377 8.37477L17.9038 8.43519L18.4294 8.50539L18.9544 8.57502L19.5025 8.34484L20.0212 8.50942L20.5658 8.38397L21.107 8.3552L21.5472 8.77643L22.0918 8.74421L22.3861 9.26959L23.0213 9.22183L23.3478 9.63903L23.6599 10.0539L23.5192 10.6248L23.8601 11.0748L24.0344 11.5783L23.9715 12.1164L23.9571 12.6435L24.073 13.1568L24.1452 13.6758L24.4636 14.1885L24.2069 14.7214L24.1377 15.2445L24.3482 15.7745L24.0777 16.2872L24.0102 16.8051L24.1279 17.3409L23.8088 17.83L23.8873 18.3663L23.8001 18.8814L23.6807 19.2732L23.6634 19.3734V19.378Z" fill="black"/>
</svg>
