<svg xmlns="http://www.w3.org/2000/svg" xmlns:xlink="http://www.w3.org/1999/xlink" width="227.531" height="281.702" viewBox="0 0 227.531 281.702">
  <defs>
    <clipPath id="clip-path">
      <rect id="Rectangle_59" data-name="Rectangle 59" width="215.794" height="220" transform="translate(6.604)" fill="#fff"/>
    </clipPath>
  </defs>
  <g id="Group_30" data-name="Group 30" transform="translate(548 -3149)">
    <g id="txt_spa" transform="translate(-548.734 3149)" opacity="0.004">
      <g id="Group_29" data-name="Group 29" clip-path="url(#clip-path)">
        <path id="Path_356" data-name="Path 356" d="M11.344,66.834a4.741,4.741,0,1,0,4.741,4.741A4.738,4.738,0,0,0,11.344,66.834Z" fill="#928dab"/>
        <path id="Path_357" data-name="Path 357" d="M38.047,48.871a6.034,6.034,0,1,0-6.034-6.034A6.034,6.034,0,0,0,38.047,48.871Z" fill="#928dab"/>
        <path id="Path_358" data-name="Path 358" d="M40.065,62.661a8.912,8.912,0,1,0,8.912,8.912A8.913,8.913,0,0,0,40.065,62.661Z" fill="#928dab"/>
        <path id="Path_359" data-name="Path 359" d="M66.768,51.458a8.619,8.619,0,1,0-8.619-8.619A8.619,8.619,0,0,0,66.768,51.458Z" fill="#928dab"/>
        <path id="Path_360" data-name="Path 360" d="M68.8,63.818a7.757,7.757,0,1,0,7.757,7.757A7.758,7.758,0,0,0,68.8,63.818Z" fill="#928dab"/>
        <path id="Path_361" data-name="Path 361" d="M95.5,36.063a6.775,6.775,0,1,0,6.775,6.775A6.776,6.776,0,0,0,95.5,36.063Z" fill="#928dab"/>
        <path id="Path_362" data-name="Path 362" d="M97.538,76.282a4.706,4.706,0,1,0-4.706-4.706A4.706,4.706,0,0,0,97.538,76.282Z" fill="#928dab"/>
        <path id="Path_363" data-name="Path 363" d="M124.24,33.392a9.447,9.447,0,1,0,9.447,9.447A9.439,9.439,0,0,0,124.24,33.392Z" fill="#928dab"/>
        <path id="Path_364" data-name="Path 364" d="M126.276,62.853A8.723,8.723,0,1,0,135,71.575,8.722,8.722,0,0,0,126.276,62.853Z" fill="#928dab"/>
        <path id="Path_365" data-name="Path 365" d="M95.9,16.136A6.637,6.637,0,1,0,89.262,9.5,6.637,6.637,0,0,0,95.9,16.136Z" fill="#928dab"/>
        <path id="Path_366" data-name="Path 366" d="M152.977,33.356a9.481,9.481,0,1,0,9.482,9.481A9.476,9.476,0,0,0,152.977,33.356Z" fill="#928dab"/>
        <path id="Path_367" data-name="Path 367" d="M154.994,63.059a8.516,8.516,0,1,0,8.516,8.516A8.511,8.511,0,0,0,154.994,63.059Z" fill="#928dab"/>
        <path id="Path_368" data-name="Path 368" d="M124.637,0a9.5,9.5,0,1,0,9.5,9.5A9.505,9.505,0,0,0,124.637,0Z" fill="#928dab"/>
        <path id="Path_369" data-name="Path 369" d="M181.7,37.736a5.1,5.1,0,1,0,5.1,5.1A5.1,5.1,0,0,0,181.7,37.736Z" fill="#928dab"/>
        <path id="Path_370" data-name="Path 370" d="M183.731,67.248a4.327,4.327,0,1,0,4.327,4.327A4.319,4.319,0,0,0,183.731,67.248Z" fill="#928dab"/>
        <path id="Path_371" data-name="Path 371" d="M212.467,66.023a5.551,5.551,0,1,0,5.551,5.551A5.547,5.547,0,0,0,212.467,66.023Z" fill="#928dab"/>
        <path id="Path_372" data-name="Path 372" d="M222.4,172.371v-.4s-23.151-1.827-23.91-2a1.316,1.316,0,0,1-.862-1.259c-.052-1.155.052-1.844.052-2.534l.155-29.03a1.124,1.124,0,0,0-1.19-1.189c-.1,0-4.671.638-5.412,1.086a.712.712,0,0,0-.4.689c0,.9.5.949,1.534,1,.742.052,1.483.19,1.483,1.983v9.136a10.664,10.664,0,0,0-6.31-2.189c-6.05,0-11.7,4.31-11.7,12.808,0,4.741,2.086,9.551,6.155,11.481,0,0-34.529-1.517-35.5-2.086-.689-.4-.845-.931-.9-2.154-.069-1.586.293-8.585.293-10.016,0-3.431,0-10.171-8.085-10.171-4.12,0-7.637,3.224-8.637,4.224l.052-3.224a1.227,1.227,0,0,0-1.241-1.19c-.4,0-3.724.6-4.362.742-1,.207-1.344.4-1.344,1.034,0,.741.345.793,1.844,1.034.948.155,1.19.793,1.242,1.69.051.793.1,3.172.1,7.343,0,1.293-.155,6.9-.155,8.034,0,.655-.1,3.93-.121,4.74,0,0-29.788-1.448-30.685-2-.69-.4-.741-.552-.9-2.155-.086-1.672-.138-5.344-.138-7.241,0-.741.052-3.913.052-4.568,0-3.516-1.293-8.929-8.533-8.929-2.189,0-5.258.448-6.258,1.241a8.4,8.4,0,0,0-2.241,4.309,1.125,1.125,0,0,0,1.189,1.19c.5,0,.655-.19,1.189-1.19,1.931-3.378,4.62-3.775,5.81-3.775,4.965,0,4.965,5.81,4.965,7.689-8.533,1.93-15.325,3.465-15.325,9.981a6.741,6.741,0,0,0,2.517,5.43s-30.047-2-31.133-2.069c-.534-.034-.741-.241-.793-.706a8.626,8.626,0,0,0,2.069-5.655c0-6.206-5.016-8.033-12.895-10.912-5.654-2.086-7.24-3.965-7.24-6.654,0-3.465,2.431-5.809,6.844-5.809a8.4,8.4,0,0,1,8.188,5.6c.552,1.69.6,1.879,1.483,1.879,1.4,0,1.345-.982,1.293-1.4-.1-1.138-.586-5.913-.9-6.4a1.039,1.039,0,0,0-.845-.448c-.293,0-1.586.4-1.845.4a3.323,3.323,0,0,1-1.431-.293,15.884,15.884,0,0,0-5.809-1.242c-5.206,0-10.671,2.638-10.671,8.93,0,5.413,4.413,7.1,9.826,9.137,4.758,1.844,9.533,3.62,9.533,8.343,0,5.465-5.516,6.309-8.533,6.309-1.931,0-7.447-.689-7.74-5.413-.1-2.085-.155-2.672-1.689-2.672a2.486,2.486,0,0,0-2.482,2.586c0,.638,2.034,7.689,11.964,7.689.862,0,1.655-.052,2.414-.035H222.432v-.776ZM82.746,170.147c-2.275,0-4.758-1.637-4.758-4.275,0-4.068,4.965-6.895,11.619-7.137.1,4.258.1,5.517.345,8.43-3.224,2.275-5.809,2.982-7.188,2.982Zm59.146,1.052v.276c-4.551-.587-11.308-1.276-12.015-1.638-.741-.345-.689-.638-.741-3.4-.173-7.74.052-9.533.155-12.015,1.345-1.983,4.172-4.672,7.24-4.672,5.465,0,5.465,5.361,5.465,9.619,0,2.189-.052,4.706-.1,6.792-.051.793,0,4.31,0,5.017Zm52.061-4.724a8.641,8.641,0,0,1-6.844,3.879c-4.619,0-7.291-4.361-7.291-9.774,0-6.5,3.327-11.068,7.636-11.068,5.465,0,6.5,5.551,6.5,5.913v11.05Z" fill="#231816"/>
        <path id="Path_373" data-name="Path 373" d="M81.609,212.692a16.154,16.154,0,0,0-2.12-1.155l-.741-.362c-1.362-.672-2.258-1.1-2.258-2.431a2.183,2.183,0,0,1,2.31-2.31A2.685,2.685,0,0,1,81.282,208l.172.328,1.12-.948-.1-.207a4.022,4.022,0,0,0-3.637-2.138,3.691,3.691,0,0,0-3.861,3.758,3.232,3.232,0,0,0,.483,1.741,5.585,5.585,0,0,0,2.672,1.948c1.155.569,1.965.983,2.344,1.207A2.175,2.175,0,0,1,81.7,215.64a2.944,2.944,0,0,1-3.086,2.93,3.088,3.088,0,0,1-2.4-1.086,4.335,4.335,0,0,1-.707-1.258l-.1-.31-1.327.62.086.242a5.1,5.1,0,0,0,.948,1.62,4.277,4.277,0,0,0,3.465,1.569,4.458,4.458,0,0,0,4.637-4.379,3.335,3.335,0,0,0-1.6-2.93Z" fill="#231816"/>
        <path id="Path_374" data-name="Path 374" d="M110.967,205.228h-2.983v14.549h1.5V213.14H111c2.638,0,4.344-1.551,4.344-3.982S113.621,205.228,110.967,205.228Zm2.827,3.947a2.47,2.47,0,0,1-2.776,2.534h-1.551v-5.085h1.413c1.862,0,2.914.931,2.914,2.534Z" fill="#231816"/>
        <path id="Path_375" data-name="Path 375" d="M144.22,204.331l-6.31,15.446h1.621l1.861-4.586h5.568l1.862,4.586h1.621Zm-.018,3.879,2.19,5.551h-4.431Z" fill="#231816"/>
      </g>
      <path id="Path_376" data-name="Path 376" d="M228.265,265.637c0,.182-.1.274-.29.274l-4.922-.069H211.4l1.145.428q.394.222.394.376a.408.408,0,0,1-.24.393,2.213,2.213,0,0,0-.6.666,7.06,7.06,0,0,1-.564.837H222.2l4.444-.068c.216,0,.324.08.324.239v.069l-.273,3.435a32.764,32.764,0,0,1-.923,6.067,3.958,3.958,0,0,1-1.35,2.256,3.635,3.635,0,0,1-2.17.581q-.564,0-2.171-.069a.915.915,0,0,1-.564-.154,2.126,2.126,0,0,1-.222-.615,3.757,3.757,0,0,0-.547-1.418,21.019,21.019,0,0,0,3.35.256q1.332,0,1.794-1.675a55.378,55.378,0,0,0,.906-7.3h-2.9a21.142,21.142,0,0,1-9.912,11.006,1.8,1.8,0,0,1-.513.2q-.154,0-.5-.393a3.866,3.866,0,0,0-1.162-.94q7.366-3.5,10.049-9.878h-3.572a20.427,20.427,0,0,1-9.092,8.476,1.773,1.773,0,0,1-.564.206c-.114,0-.267-.126-.461-.376a2.689,2.689,0,0,0-1.043-.906q6.289-2.855,8.921-7.4h-3.708a22.287,22.287,0,0,1-4.819,4.2,1.772,1.772,0,0,1-.53.239q-.171,0-.5-.427a2.664,2.664,0,0,0-.974-.854,16.867,16.867,0,0,0,6.289-5.572,6.791,6.791,0,0,0,.889-1.9H210.3l-4.973.069a.242.242,0,0,1-.274-.274V264.27a.242.242,0,0,1,.274-.273l4.973.068h12.749l4.922-.068c.193,0,.29.091.29.273Zm-4.136-3.948a.242.242,0,0,1-.273.274l-4.273-.068h-6.169l-4.272.068a.242.242,0,0,1-.274-.274l.069-3.042v-3.793l-.069-3.042a.242.242,0,0,1,.274-.274l4.272.068h6.169l4.273-.068a.242.242,0,0,1,.273.274l-.068,3.042v3.793Zm-2.033-1.435V257.52H210.9v2.734Zm0-4.307v-2.7H210.9v2.7Zm-18.679,15.364q-1.419,4.443-2.974,8.186a8.189,8.189,0,0,0-.53,1.538q-.067.428-.359.427a1.107,1.107,0,0,1-.478-.17,19.582,19.582,0,0,1-1.726-1.128,12.375,12.375,0,0,0,1.589-2.649,74.523,74.523,0,0,0,2.974-8.306,5.933,5.933,0,0,0,1.11,1.025c.342.274.513.473.513.6A1.987,1.987,0,0,1,203.417,271.311Zm-.154-7.947a.424.424,0,0,1,.154.257.729.729,0,0,1-.188.341l-.7.94c-.171.24-.3.359-.376.359a.281.281,0,0,1-.2-.119,21.5,21.5,0,0,0-4.7-3.88c-.114-.068-.171-.131-.171-.188a.508.508,0,0,1,.137-.256l.7-.872q.255-.324.41-.324a.417.417,0,0,1,.188.068A22.581,22.581,0,0,1,203.263,263.364Zm1.862-8.391a.353.353,0,0,1,.1.171,1.527,1.527,0,0,1-.239.376l-.7.957q-.256.342-.376.342a.374.374,0,0,1-.222-.137,23.99,23.99,0,0,0-4.512-4.1c-.1-.069-.154-.12-.154-.154a1.385,1.385,0,0,1,.257-.359l.666-.838c.126-.17.228-.256.308-.256a.655.655,0,0,1,.222.068A31.254,31.254,0,0,1,205.125,254.973Z" fill="#231816"/>
      <path id="Path_377" data-name="Path 377" d="M169.89,254.614c0,.194-.091.291-.274.291l-3.537-.086h-1.231a31.428,31.428,0,0,1-2.632,8.614h3.828l2.6-.069a.242.242,0,0,1,.274.274l-.086,4.1v3.094l.086,6.015c0,.182-.1.274-.291.274h-1.367a.243.243,0,0,1-.274-.274v-1.333h-4.34v3.11c0,.194-.092.291-.274.291h-1.453c-.159,0-.239-.1-.239-.291l.069-6.511v-5.776a35.386,35.386,0,0,1-2.2,3.3q-.291.342-.393.342-.086,0-.308-.393a4.056,4.056,0,0,0-.837-1.248,24.874,24.874,0,0,0,3.862-6.46,29.474,29.474,0,0,0,1.983-7.058h-.94l-3.5.086a.257.257,0,0,1-.29-.291v-1.469c0-.183.1-.274.29-.274l3.5.068h4.17l3.537-.068a.242.242,0,0,1,.274.274Zm-2.906,19.124V265.21h-4.34v8.528ZM180.776,250.8a2.14,2.14,0,0,1-.222.667,9.346,9.346,0,0,0-.171,2.444v9.245l.034,4.9a3.141,3.141,0,0,1-.94,2.546q-.888.735-3.794.735a1.166,1.166,0,0,1-.649-.1,1.772,1.772,0,0,1-.188-.6,4.215,4.215,0,0,0-.667-1.573,20.55,20.55,0,0,0,2.8.171,1.245,1.245,0,0,0,1.042-.359,1.839,1.839,0,0,0,.291-1.179V254.136a24.993,24.993,0,0,0-.205-3.828q1.452.067,2.239.188C180.633,250.53,180.776,250.632,180.776,250.8Zm6.426,16.765q0,.189-.308.376a6.045,6.045,0,0,0-1.23,1.692,23.772,23.772,0,0,1-6.443,7.434,30.594,30.594,0,0,1-9.229,4.529,2.5,2.5,0,0,1-.5.1q-.24,0-.53-.53a3.656,3.656,0,0,0-1.009-1.111,30.414,30.414,0,0,0,10.306-4.888,20.847,20.847,0,0,0,5.793-6.972,10.059,10.059,0,0,0,.838-2.171,16.232,16.232,0,0,1,1.879,1.009Q187.2,267.312,187.2,267.568Zm-11.5-10.424a.709.709,0,0,1-.205.444,2.7,2.7,0,0,0-.495.991,27.811,27.811,0,0,1-3.47,8.494q-.257.461-.427.461a2.111,2.111,0,0,1-.444-.273,3.54,3.54,0,0,0-1.367-.7,20.934,20.934,0,0,0,3.571-7.878,9.268,9.268,0,0,0,.325-2.239,1.863,1.863,0,0,0-.017-.256,19.232,19.232,0,0,1,2.034.529C175.535,256.853,175.7,256.995,175.7,257.144Zm14.031,7.553a3.806,3.806,0,0,0-1.333,1.06c-.182.182-.308.273-.376.273q-.171,0-.427-.427a35.568,35.568,0,0,1-4.478-8.613.275.275,0,0,1-.034-.12c0-.1.148-.211.444-.325l.889-.29a1.231,1.231,0,0,1,.325-.068q.171,0,.222.222a37.288,37.288,0,0,0,2.239,4.716A29.924,29.924,0,0,0,189.731,264.7Z" fill="#231816"/>
      <path id="Path_378" data-name="Path 378" d="M149.812,271.978a.241.241,0,0,1-.273.273l-4.973-.068H131.834l-4.973.068a.242.242,0,0,1-.274-.273v-1.487a.242.242,0,0,1,.274-.274l3.572.069V258.408a32.835,32.835,0,0,0-.24-4.734,11.69,11.69,0,0,1,2.342.855,54.626,54.626,0,0,0,10.493-2.6,8.692,8.692,0,0,0,2-1.008,12.1,12.1,0,0,1,1.761,1.4.624.624,0,0,1,.205.445c0,.17-.154.279-.462.324a4.186,4.186,0,0,0-1.316.308,76.332,76.332,0,0,1-12.646,3.042v4.238h11.365l4.477-.068c.194,0,.291.08.291.239v1.487c0,.205-.1.307-.291.307l-4.477-.068h-.975v7.708h1.607l4.973-.069a.242.242,0,0,1,.273.274Zm-8.989-1.692v-7.708h-8.254v7.708Zm-15.432,1.23q-1.333,3.675-3.435,8.118a8.256,8.256,0,0,0-.666,1.555q-.035.377-.308.376a.961.961,0,0,1-.5-.171,15.552,15.552,0,0,1-1.64-1.2,11.68,11.68,0,0,0,1.862-2.8,62.594,62.594,0,0,0,3.213-7.964A9.094,9.094,0,0,0,125,270.4q.513.377.513.616A1.731,1.731,0,0,1,125.391,271.516Zm24.951,8.237a4.832,4.832,0,0,0-.974,1.282c-.159.331-.325.5-.495.5a3.051,3.051,0,0,1-.564-.171,25.181,25.181,0,0,1-8.562-5.845.276.276,0,0,1-.1-.171q0-.1.342-.393l.8-.632a.706.706,0,0,1,.342-.2.371.371,0,0,1,.222.136A22.99,22.99,0,0,0,150.342,279.753Zm-15.774-4.306q0,.188-.393.376a5.349,5.349,0,0,0-.837.632,23.21,23.21,0,0,1-7.075,4.768,2.194,2.194,0,0,1-.564.154q-.222,0-.513-.479a4.391,4.391,0,0,0-1.094-1.179,23.254,23.254,0,0,0,7.315-4.375,9.258,9.258,0,0,0,1.128-1.367,14.3,14.3,0,0,1,1.674,1.008C134.449,275.145,134.568,275.3,134.568,275.447Zm-8.835-11.98c.091.068.137.131.137.188a.836.836,0,0,1-.205.342l-.735,1.008q-.222.307-.342.307a.325.325,0,0,1-.2-.119,24.653,24.653,0,0,0-5.178-3.777c-.114-.068-.171-.137-.171-.2a.786.786,0,0,1,.205-.359l.615-.8q.257-.308.376-.308a.52.52,0,0,1,.188.051A31.527,31.527,0,0,1,125.733,263.467Zm1.726-8.528a.235.235,0,0,1,.1.171.688.688,0,0,1-.206.376l-.769.957c-.159.194-.279.29-.358.29a.392.392,0,0,1-.206-.119,28.24,28.24,0,0,0-5.041-3.845c-.114-.069-.171-.131-.171-.188s.08-.171.239-.342l.735-.8c.16-.194.279-.291.359-.291a.383.383,0,0,1,.205.085A36.052,36.052,0,0,1,127.459,254.939Z" fill="#231816"/>
      <path id="Path_379" data-name="Path 379" d="M111.006,268.577c0,.182-.108.273-.325.273l-.461-.017q-1.419-.035-3.316-.051-.171,2.46-.564,6.032l3.145-.068c.194,0,.29.091.29.274v1.367c0,.182-.1.273-.29.273l-.41-.017q-1.282-.035-2.94-.051A9.487,9.487,0,0,0,106,277.6a5.078,5.078,0,0,1-1.351,3.11,4.285,4.285,0,0,1-2.922.889q-1.264,0-1.76-.034a.709.709,0,0,1-.444-.137,2.211,2.211,0,0,1-.205-.6,4.424,4.424,0,0,0-.666-1.4,23.308,23.308,0,0,0,3.008.171,2.07,2.07,0,0,0,1.657-.6,3.5,3.5,0,0,0,.684-1.845l.068-.564h-13.5q-.171.684-.6,2.221a.392.392,0,0,1-.393.308,6.7,6.7,0,0,1-.837-.1q-1.042-.171-1.043-.342a.805.805,0,0,1,.051-.222,18.919,18.919,0,0,0,.889-2.564q.872-3.469,1.47-7.109-1.453.016-2.6.051l-.8.017a.241.241,0,0,1-.273-.273v-1.4c0-.159.091-.239.273-.239l3.674.068q.256-1.623.6-4.733.12-1.3.12-2.017,0-.205-.017-.462a.271.271,0,0,1,.308-.307l4.426.068h6.921l4.427-.068a.271.271,0,0,1,.307.307q-.137,1.847-.171,2.769-.136,2.82-.256,4.443l3.64-.068c.217,0,.325.08.325.239Zm-6.1.205H99.316q-.325,3.007-.854,6.032h5.845Q104.563,272.986,104.9,268.782Zm-7.554,0H92.1q-.5,3.076-1.162,6.032h5.537Q96.924,272.234,97.351,268.782Zm7.981-7.486H99.966q-.1,1.914-.444,5.708h5.521Q105.264,263.074,105.332,261.3Zm-7.314,0H93.01q-.308,3.248-.666,5.708h5.212Q97.915,263.211,98.018,261.3Zm12.253-5.229q0,.273-.291.273l-4.716-.068H91.951a26.277,26.277,0,0,1-3.555,5.007q-.308.342-.427.342-.1,0-.5-.376a4.294,4.294,0,0,0-1.111-.8,19.663,19.663,0,0,0,5.349-8.733A7.273,7.273,0,0,0,92.07,250a16.557,16.557,0,0,1,2.085.461c.285.08.427.206.427.376a.746.746,0,0,1-.239.5,2.729,2.729,0,0,0-.666,1.111q-.256.7-.8,1.965h12.391l4.716-.068q.291,0,.291.273ZM85.662,271.243q-1.23,3.777-3.162,8.254a5.976,5.976,0,0,0-.581,1.572q0,.428-.29.428a1.284,1.284,0,0,1-.513-.205,15.715,15.715,0,0,1-1.692-1.128A14.3,14.3,0,0,0,81,277.583a48.743,48.743,0,0,0,3.127-8.408,4.177,4.177,0,0,0,1.213,1.025q.444.256.444.479A2.727,2.727,0,0,1,85.662,271.243Zm-.256-7.776a.373.373,0,0,1,.137.222q0,.086-.171.273l-.837.975q-.308.375-.393.375a.389.389,0,0,1-.205-.119,24.41,24.41,0,0,0-4.819-3.931q-.171-.086-.171-.171c0-.057.068-.159.205-.307l.735-.889c.114-.159.228-.239.342-.239a.539.539,0,0,1,.222.068A28.192,28.192,0,0,1,85.405,263.467Zm1.589-8.648a.47.47,0,0,1,.12.274.656.656,0,0,1-.239.393l-.769.957q-.239.273-.342.273c-.057,0-.125-.045-.205-.136a22.975,22.975,0,0,0-4.58-4q-.154-.085-.154-.171,0-.1.256-.342l.769-.8q.222-.257.342-.257a.43.43,0,0,1,.205.069A25.034,25.034,0,0,1,86.995,254.819Z" fill="#231816"/>
      <path id="Path_380" data-name="Path 380" d="M70.934,255.708a.242.242,0,0,1-.273.273l-4.836-.068H45.487v5.11a78.641,78.641,0,0,1-.5,9.844,26.74,26.74,0,0,1-3.11,9.895q-.205.428-.342.427-.1,0-.462-.359a4.783,4.783,0,0,0-1.435-1.008,22.236,22.236,0,0,0,3.281-9.776,82.931,82.931,0,0,0,.427-9.262l-.068-6.563a.242.242,0,0,1,.273-.273l4.973.068h6.836v-1.008a12.055,12.055,0,0,0-.256-2.871q1.06.035,2.376.171.427.051.427.307a2.155,2.155,0,0,1-.205.633,4.391,4.391,0,0,0-.222,1.674v1.094h8.34l4.836-.068a.242.242,0,0,1,.273.273Zm.239,9.075c0,.205-.091.307-.273.307l-4.341-.068v8.152l.068,4.956a3.4,3.4,0,0,1-.239,1.435,2.994,2.994,0,0,1-.735.838q-.752.649-3.879.649c-.342,0-.706-.005-1.094-.017a1.223,1.223,0,0,1-.649-.1,1.562,1.562,0,0,1-.222-.6,3.954,3.954,0,0,0-.632-1.469q1.692.137,3.879.136a1.725,1.725,0,0,0,1.179-.307,1.4,1.4,0,0,0,.29-1.008V265.022H59.279l-4.478.068c-.194,0-.291-.1-.291-.307v-1.419q0-.273.291-.273l4.478.068h5.247v-1.811a21.239,21.239,0,0,0-.273-4.068q1.094.051,2.307.2.427.069.427.291a2.991,2.991,0,0,1-.256.7,12.293,12.293,0,0,0-.171,2.836v1.846l4.341-.068a.241.241,0,0,1,.273.273Zm-16.082-6.529q0,.189-.308.462a3.3,3.3,0,0,0-.752,1.3q-.923,2.032-1.606,3.315v13.364l.068,4.6a.241.241,0,0,1-.273.273H50.6a.242.242,0,0,1-.273-.273l.068-4.6v-4.853l.1-5.366a35.355,35.355,0,0,1-3.11,3.794q-.256.307-.427.307-.154,0-.308-.307a3.378,3.378,0,0,0-1.094-1.163,32.007,32.007,0,0,0,6.477-9.621,9.663,9.663,0,0,0,.752-2.41,10.739,10.739,0,0,1,1.914.735Q55.092,258,55.092,258.254Zm6.255,14a.65.65,0,0,1,.051.2c0,.1-.1.222-.308.359l-.872.632a1.274,1.274,0,0,1-.427.24q-.085,0-.205-.171a23.864,23.864,0,0,0-3.418-5.008c-.091-.079-.137-.142-.137-.188s.1-.153.308-.29l.871-.6a.634.634,0,0,1,.291-.154.329.329,0,0,1,.205.119A28.838,28.838,0,0,1,61.347,272.251Z" fill="#231816"/>
      <path id="Path_381" data-name="Path 381" d="M16.525,267.056q-.1,2.085-.1,3.247a49.223,49.223,0,0,1-.6,6.921q-.649,3.675-3.708,3.674a19.384,19.384,0,0,1-2.136-.1,1.163,1.163,0,0,1-.615-.154,1.4,1.4,0,0,1-.188-.615,3.542,3.542,0,0,0-.564-1.538,19.222,19.222,0,0,0,3.315.342,1.522,1.522,0,0,0,1.436-.872,6.827,6.827,0,0,0,.53-1.931,47.355,47.355,0,0,0,.461-7.366H8.374a22.578,22.578,0,0,1-2.068,6.716,22.287,22.287,0,0,1-3.5,4.939q-.308.342-.461.342-.137,0-.444-.427a5.043,5.043,0,0,0-1.162-1.008,17.084,17.084,0,0,0,4.836-7.212,34.995,34.995,0,0,0,1.3-9.656l-4,.068a.241.241,0,0,1-.273-.273l.068-3.025v-3.709L2.6,252.41a.242.242,0,0,1,.273-.274l4.033.069h5.144l4.016-.069c.194,0,.291.091.291.274l-.068,3.007v3.709l.068,3.025q0,.273-.291.273l-4.016-.068H8.92q-.1,2.376-.308,4.443h4.751l2.8-.068Q16.525,266.731,16.525,267.056Zm-2.239-6.46v-6.58H4.665v6.58Zm16.526-9.16a3.529,3.529,0,0,1-.256.666,14.314,14.314,0,0,0-.171,3.042v17.175l.068,5.281a3.177,3.177,0,0,1-1.025,2.769,3.739,3.739,0,0,1-1.606.547,28.774,28.774,0,0,1-3.179.119,1.12,1.12,0,0,1-.632-.1,4.924,4.924,0,0,1-.222-.633,4.74,4.74,0,0,0-.735-1.572,30.942,30.942,0,0,0,3.4.171,2.146,2.146,0,0,0,1.47-.359,1.818,1.818,0,0,0,.359-1.316V255.178a24.825,24.825,0,0,0-.29-4.272,22.047,22.047,0,0,1,2.358.2C30.659,251.156,30.813,251.265,30.813,251.436Zm-7.4,2.529q0,.035-.171.547a25.376,25.376,0,0,0-.137,3.64v9.485l.068,4.529q0,.273-.325.273H21.276a.242.242,0,0,1-.274-.273l.068-4.529v-9.451a29.606,29.606,0,0,0-.256-4.717q.957.035,2.2.171C23.282,253.674,23.413,253.783,23.413,253.965Z" fill="#231816"/>
    </g>
    <g id="txt_spa_en" transform="translate(-548.739 3149)">
      <g id="Group_1" data-name="Group 1" clip-path="url(#clip-path)">
        <path id="Path_1" data-name="Path 1" d="M11.344,66.834A4.738,4.738,0,1,0,14.7,68.222,4.741,4.741,0,0,0,11.344,66.834Z" fill="#928dab"/>
        <path id="Path_2" data-name="Path 2" d="M38.047,48.871a6.034,6.034,0,1,0-6.034-6.034,6.034,6.034,0,0,0,6.034,6.034Z" fill="#928dab"/>
        <path id="Path_3" data-name="Path 3" d="M40.065,62.661a8.912,8.912,0,1,0,8.912,8.912,8.912,8.912,0,0,0-8.912-8.912Z" fill="#928dab"/>
        <path id="Path_4" data-name="Path 4" d="M66.768,51.458a8.619,8.619,0,1,0-8.619-8.619A8.619,8.619,0,0,0,66.768,51.458Z" fill="#928dab"/>
        <path id="Path_5" data-name="Path 5" d="M68.8,63.818a7.757,7.757,0,1,0,7.757,7.757A7.757,7.757,0,0,0,68.8,63.818Z" fill="#928dab"/>
        <path id="Path_6" data-name="Path 6" d="M95.5,36.063a6.775,6.775,0,1,0,6.775,6.775A6.775,6.775,0,0,0,95.5,36.063Z" fill="#928dab"/>
        <path id="Path_7" data-name="Path 7" d="M97.538,76.282a4.706,4.706,0,1,0-4.706-4.706,4.706,4.706,0,0,0,4.706,4.706Z" fill="#928dab"/>
        <path id="Path_8" data-name="Path 8" d="M124.24,33.392a9.439,9.439,0,1,0,6.682,2.765A9.447,9.447,0,0,0,124.24,33.392Z" fill="#928dab"/>
        <path id="Path_9" data-name="Path 9" d="M126.276,62.853A8.723,8.723,0,1,0,135,71.576a8.723,8.723,0,0,0-8.724-8.723Z" fill="#928dab"/>
        <path id="Path_10" data-name="Path 10" d="M95.9,16.136A6.637,6.637,0,1,0,89.262,9.5,6.637,6.637,0,0,0,95.9,16.136Z" fill="#928dab"/>
        <path id="Path_11" data-name="Path 11" d="M152.977,33.356a9.476,9.476,0,1,0,6.706,2.775A9.481,9.481,0,0,0,152.977,33.356Z" fill="#928dab"/>
        <path id="Path_12" data-name="Path 12" d="M154.994,63.059a8.511,8.511,0,1,0,6.023,2.493,8.516,8.516,0,0,0-6.023-2.493Z" fill="#928dab"/>
        <path id="Path_13" data-name="Path 13" d="M124.637,0a9.5,9.5,0,1,0,9.5,9.5,9.5,9.5,0,0,0-9.5-9.5Z" fill="#928dab"/>
        <path id="Path_14" data-name="Path 14" d="M181.7,37.736a5.1,5.1,0,1,0,5.1,5.1,5.1,5.1,0,0,0-5.1-5.1Z" fill="#928dab"/>
        <path id="Path_15" data-name="Path 15" d="M183.731,67.248a4.319,4.319,0,1,0,3.062,1.265A4.327,4.327,0,0,0,183.731,67.248Z" fill="#928dab"/>
        <path id="Path_16" data-name="Path 16" d="M212.467,66.023a5.547,5.547,0,1,0,3.926,1.625A5.551,5.551,0,0,0,212.467,66.023Z" fill="#928dab"/>
        <path id="Path_17" data-name="Path 17" d="M222.4,172.371v-.4s-23.151-1.827-23.91-2a1.316,1.316,0,0,1-.862-1.259c-.052-1.155.052-1.844.052-2.534l.155-29.03a1.124,1.124,0,0,0-1.19-1.189c-.1,0-4.671.638-5.412,1.086a.712.712,0,0,0-.4.689c0,.9.5.949,1.534,1,.742.052,1.483.19,1.483,1.983v9.136a10.664,10.664,0,0,0-6.31-2.189c-6.05,0-11.7,4.31-11.7,12.808,0,4.741,2.086,9.551,6.155,11.481,0,0-34.529-1.517-35.5-2.086-.689-.4-.845-.931-.9-2.154-.069-1.586.293-8.585.293-10.016,0-3.431,0-10.171-8.085-10.171-4.12,0-7.637,3.224-8.637,4.224l.052-3.224a1.227,1.227,0,0,0-1.241-1.19c-.4,0-3.724.6-4.362.742-1,.207-1.344.4-1.344,1.034,0,.741.345.793,1.844,1.034.948.155,1.19.793,1.242,1.69.051.793.1,3.172.1,7.343,0,1.293-.155,6.9-.155,8.034,0,.655-.1,3.93-.121,4.74,0,0-29.788-1.448-30.685-2-.69-.4-.741-.552-.9-2.155-.086-1.672-.138-5.344-.138-7.241,0-.741.052-3.913.052-4.568,0-3.516-1.293-8.929-8.533-8.929-2.189,0-5.258.448-6.258,1.241a8.4,8.4,0,0,0-2.241,4.309,1.125,1.125,0,0,0,1.189,1.19c.5,0,.655-.19,1.189-1.19,1.931-3.378,4.62-3.775,5.81-3.775,4.965,0,4.965,5.81,4.965,7.689-8.533,1.93-15.325,3.465-15.325,9.981a6.741,6.741,0,0,0,2.517,5.43s-30.047-2-31.133-2.069c-.534-.034-.741-.241-.793-.706a8.626,8.626,0,0,0,2.069-5.655c0-6.206-5.016-8.033-12.9-10.912-5.654-2.086-7.24-3.965-7.24-6.654,0-3.465,2.431-5.809,6.844-5.809a8.4,8.4,0,0,1,8.188,5.6c.552,1.69.6,1.879,1.483,1.879,1.4,0,1.345-.982,1.293-1.4-.1-1.138-.586-5.913-.9-6.4a1.039,1.039,0,0,0-.845-.448c-.293,0-1.586.4-1.845.4a3.323,3.323,0,0,1-1.431-.293,15.884,15.884,0,0,0-5.809-1.242c-5.206,0-10.671,2.638-10.671,8.93,0,5.413,4.413,7.1,9.826,9.137,4.758,1.844,9.533,3.62,9.533,8.343,0,5.465-5.516,6.309-8.533,6.309-1.931,0-7.447-.689-7.74-5.413-.1-2.085-.155-2.672-1.689-2.672a2.486,2.486,0,0,0-2.482,2.586c0,.638,2.034,7.689,11.964,7.689.862,0,1.655-.052,2.414-.035h186v-.776ZM82.746,170.147c-2.275,0-4.758-1.637-4.758-4.275,0-4.068,4.965-6.9,11.619-7.137.1,4.258.1,5.517.345,8.43-3.224,2.275-5.809,2.982-7.188,2.982Zm59.146,1.052v.276c-4.551-.587-11.308-1.276-12.015-1.638-.741-.345-.689-.638-.741-3.4-.173-7.74.052-9.533.155-12.015,1.345-1.983,4.172-4.672,7.24-4.672,5.465,0,5.465,5.361,5.465,9.619,0,2.189-.052,4.706-.1,6.792-.051.793,0,4.31,0,5.017Zm52.061-4.724a8.641,8.641,0,0,1-6.844,3.879c-4.619,0-7.291-4.361-7.291-9.774,0-6.5,3.327-11.068,7.636-11.068,5.465,0,6.5,5.551,6.5,5.913v11.05Z" fill="#231816"/>
        <path id="Path_18" data-name="Path 18" d="M81.609,212.692a16.157,16.157,0,0,0-2.12-1.155l-.741-.362c-1.362-.672-2.258-1.1-2.258-2.431a2.183,2.183,0,0,1,2.31-2.31A2.685,2.685,0,0,1,81.282,208l.172.328,1.12-.948-.1-.207a4.022,4.022,0,0,0-3.637-2.138,3.691,3.691,0,0,0-3.861,3.758,3.232,3.232,0,0,0,.483,1.741,5.585,5.585,0,0,0,2.672,1.948c1.155.569,1.965.983,2.344,1.207A2.175,2.175,0,0,1,81.7,215.64a2.944,2.944,0,0,1-3.086,2.93,3.088,3.088,0,0,1-2.4-1.086,4.335,4.335,0,0,1-.707-1.258l-.1-.31-1.327.62.086.242a5.1,5.1,0,0,0,.948,1.62,4.277,4.277,0,0,0,3.465,1.569,4.458,4.458,0,0,0,4.637-4.379,3.335,3.335,0,0,0-1.6-2.93Z" fill="#231816"/>
        <path id="Path_19" data-name="Path 19" d="M110.967,205.228h-2.983v14.549h1.5V213.14H111c2.638,0,4.344-1.551,4.344-3.982S113.621,205.228,110.967,205.228Zm2.827,3.947a2.47,2.47,0,0,1-2.776,2.534h-1.551v-5.085h1.413c1.862,0,2.914.931,2.914,2.534Z" fill="#231816"/>
        <path id="Path_20" data-name="Path 20" d="M144.22,204.331l-6.31,15.446h1.621l1.861-4.586h5.568l1.862,4.586h1.621Zm-.018,3.879,2.19,5.551h-4.431Z" fill="#231816"/>
      </g>
      <path id="Path_21" data-name="Path 21" d="M228.265,265.637c0,.182-.1.274-.29.274l-4.922-.069H211.4l1.145.428q.394.222.394.376a.408.408,0,0,1-.24.393,2.212,2.212,0,0,0-.6.666,7.055,7.055,0,0,1-.564.837H222.2l4.444-.068c.216,0,.324.08.324.239v.069l-.273,3.435a32.763,32.763,0,0,1-.923,6.067,3.958,3.958,0,0,1-1.35,2.256,3.635,3.635,0,0,1-2.17.581q-.564,0-2.171-.069a.915.915,0,0,1-.564-.154,2.126,2.126,0,0,1-.222-.615,3.757,3.757,0,0,0-.547-1.418,21.02,21.02,0,0,0,3.35.256q1.332,0,1.794-1.675a55.376,55.376,0,0,0,.906-7.3h-2.9a21.142,21.142,0,0,1-9.912,11.006,1.8,1.8,0,0,1-.513.2q-.154,0-.5-.393a3.866,3.866,0,0,0-1.162-.94q7.366-3.5,10.049-9.878h-3.572a20.427,20.427,0,0,1-9.092,8.476,1.773,1.773,0,0,1-.564.206c-.114,0-.267-.126-.461-.376a2.689,2.689,0,0,0-1.043-.906q6.289-2.855,8.921-7.4h-3.708a22.287,22.287,0,0,1-4.819,4.2,1.771,1.771,0,0,1-.53.239q-.171,0-.5-.427a2.664,2.664,0,0,0-.974-.854,16.867,16.867,0,0,0,6.289-5.572,6.792,6.792,0,0,0,.889-1.9h-.4l-4.973.069a.242.242,0,0,1-.274-.274V264.27a.242.242,0,0,1,.274-.273l4.973.068h12.749l4.922-.068c.193,0,.29.091.29.273Zm-4.136-3.948a.242.242,0,0,1-.273.274l-4.273-.068h-6.169l-4.272.068a.242.242,0,0,1-.274-.274l.069-3.042v-3.793l-.069-3.042a.242.242,0,0,1,.274-.274l4.272.068h6.169l4.273-.068a.242.242,0,0,1,.273.274l-.068,3.042v3.793Zm-2.033-1.435V257.52H210.9v2.734Zm0-4.307v-2.7H210.9v2.7Zm-18.679,15.364q-1.419,4.443-2.974,8.186a8.191,8.191,0,0,0-.53,1.538q-.067.428-.359.427a1.107,1.107,0,0,1-.478-.17,19.583,19.583,0,0,1-1.726-1.128,12.375,12.375,0,0,0,1.589-2.649,74.526,74.526,0,0,0,2.974-8.306,5.933,5.933,0,0,0,1.11,1.025c.342.274.513.473.513.6a1.987,1.987,0,0,1-.119.477Zm-.154-7.947a.424.424,0,0,1,.154.257.729.729,0,0,1-.188.341l-.7.94c-.171.24-.3.359-.376.359a.281.281,0,0,1-.2-.119,21.5,21.5,0,0,0-4.7-3.88c-.114-.068-.171-.131-.171-.188a.508.508,0,0,1,.137-.256l.7-.872q.255-.324.41-.324a.417.417,0,0,1,.188.068A22.581,22.581,0,0,1,203.263,263.364Zm1.862-8.391a.353.353,0,0,1,.1.171,1.527,1.527,0,0,1-.239.376l-.7.957q-.256.342-.376.342a.374.374,0,0,1-.222-.137,23.99,23.99,0,0,0-4.512-4.1c-.1-.069-.154-.12-.154-.154a1.384,1.384,0,0,1,.257-.359l.666-.838c.126-.17.228-.256.308-.256a.655.655,0,0,1,.222.068,31.255,31.255,0,0,1,4.65,3.93Z" fill="#231816" opacity="0.004"/>
      <path id="Path_22" data-name="Path 22" d="M169.89,254.614c0,.194-.091.291-.274.291l-3.537-.086h-1.231a31.428,31.428,0,0,1-2.632,8.614h3.828l2.6-.069a.242.242,0,0,1,.274.274l-.086,4.1v3.094l.086,6.015c0,.182-.1.274-.291.274H167.26a.243.243,0,0,1-.274-.274v-1.333h-4.34v3.11c0,.194-.092.291-.274.291h-1.453c-.159,0-.239-.1-.239-.291l.069-6.511v-5.776a35.392,35.392,0,0,1-2.2,3.3q-.291.342-.393.342-.086,0-.308-.393a4.056,4.056,0,0,0-.837-1.248,24.874,24.874,0,0,0,3.862-6.46,29.473,29.473,0,0,0,1.983-7.058h-.94l-3.5.086a.257.257,0,0,1-.29-.291v-1.469c0-.183.1-.274.29-.274l3.5.068h4.17l3.537-.068a.242.242,0,0,1,.274.274Zm-2.906,19.124V265.21h-4.34v8.528ZM180.776,250.8a2.14,2.14,0,0,1-.222.667,9.346,9.346,0,0,0-.171,2.444v9.245l.034,4.9a3.141,3.141,0,0,1-.94,2.546q-.888.735-3.794.735a1.166,1.166,0,0,1-.649-.1,1.771,1.771,0,0,1-.188-.6,4.215,4.215,0,0,0-.667-1.573,20.549,20.549,0,0,0,2.8.171,1.245,1.245,0,0,0,1.042-.359,1.839,1.839,0,0,0,.291-1.179V254.136a24.994,24.994,0,0,0-.2-3.828q1.452.067,2.239.188C180.633,250.53,180.776,250.632,180.776,250.8Zm6.426,16.765q0,.189-.308.376a6.045,6.045,0,0,0-1.23,1.692,23.773,23.773,0,0,1-6.443,7.434,30.594,30.594,0,0,1-9.229,4.529,2.5,2.5,0,0,1-.5.1q-.24,0-.53-.53a3.656,3.656,0,0,0-1.009-1.111,30.414,30.414,0,0,0,10.306-4.888,20.847,20.847,0,0,0,5.793-6.972,10.058,10.058,0,0,0,.838-2.171,16.229,16.229,0,0,1,1.879,1.009q.431.279.431.535Zm-11.5-10.424a.709.709,0,0,1-.205.444,2.7,2.7,0,0,0-.495.991,27.811,27.811,0,0,1-3.47,8.494q-.257.461-.427.461a2.111,2.111,0,0,1-.444-.273,3.54,3.54,0,0,0-1.367-.7,20.935,20.935,0,0,0,3.571-7.878,9.268,9.268,0,0,0,.325-2.239,1.865,1.865,0,0,0-.017-.256,19.238,19.238,0,0,1,2.034.529c.328.139.493.281.493.43Zm14.031,7.553a3.806,3.806,0,0,0-1.333,1.06c-.182.182-.308.273-.376.273q-.171,0-.427-.427a35.568,35.568,0,0,1-4.478-8.613.275.275,0,0,1-.034-.12c0-.1.148-.211.444-.325l.889-.29a1.232,1.232,0,0,1,.325-.068q.171,0,.222.222a37.289,37.289,0,0,0,2.239,4.716,29.924,29.924,0,0,0,2.527,3.578Z" fill="#231816" opacity="0.004"/>
      <path id="Path_23" data-name="Path 23" d="M149.812,271.978a.241.241,0,0,1-.273.273l-4.973-.068H131.834l-4.973.068a.242.242,0,0,1-.274-.273v-1.487a.242.242,0,0,1,.274-.274l3.572.069V258.408a32.832,32.832,0,0,0-.24-4.734,11.69,11.69,0,0,1,2.342.855,54.627,54.627,0,0,0,10.493-2.6,8.691,8.691,0,0,0,2-1.008,12.1,12.1,0,0,1,1.761,1.4.624.624,0,0,1,.205.445c0,.17-.154.279-.462.324a4.187,4.187,0,0,0-1.316.308,76.33,76.33,0,0,1-12.646,3.042v4.238h11.365l4.477-.068c.194,0,.291.08.291.239v1.487c0,.2-.1.307-.291.307l-4.477-.068h-.975v7.708h1.607l4.973-.069a.242.242,0,0,1,.273.274Zm-8.989-1.692v-7.708h-8.254v7.708Zm-15.432,1.23q-1.333,3.675-3.435,8.118a8.255,8.255,0,0,0-.666,1.555q-.035.377-.308.376a.961.961,0,0,1-.5-.171,15.548,15.548,0,0,1-1.64-1.2,11.679,11.679,0,0,0,1.862-2.8,62.6,62.6,0,0,0,3.213-7.964,9.094,9.094,0,0,0,1.083.97q.513.377.513.616A1.731,1.731,0,0,1,125.391,271.516Zm24.951,8.237a4.831,4.831,0,0,0-.974,1.282c-.159.331-.325.5-.495.5a3.05,3.05,0,0,1-.564-.171,25.181,25.181,0,0,1-8.562-5.845.276.276,0,0,1-.1-.171q0-.1.342-.393l.8-.632a.706.706,0,0,1,.342-.2.371.371,0,0,1,.222.136,22.99,22.99,0,0,0,8.989,5.494Zm-15.774-4.306q0,.188-.393.376a5.349,5.349,0,0,0-.837.632,23.21,23.21,0,0,1-7.075,4.768,2.194,2.194,0,0,1-.564.154q-.222,0-.513-.479a4.391,4.391,0,0,0-1.094-1.179,23.255,23.255,0,0,0,7.315-4.375,9.257,9.257,0,0,0,1.128-1.367,14.3,14.3,0,0,1,1.674,1.008c.24.16.359.315.359.462Zm-8.835-11.98c.091.068.137.131.137.188a.836.836,0,0,1-.205.342l-.735,1.008q-.222.307-.342.307a.325.325,0,0,1-.2-.119,24.655,24.655,0,0,0-5.178-3.777c-.114-.068-.171-.137-.171-.2a.786.786,0,0,1,.2-.359l.615-.8q.257-.308.376-.308a.52.52,0,0,1,.188.051,31.527,31.527,0,0,1,5.31,3.667Zm1.726-8.528a.235.235,0,0,1,.1.171.688.688,0,0,1-.206.376l-.769.957c-.159.194-.279.29-.358.29a.392.392,0,0,1-.206-.119,28.239,28.239,0,0,0-5.041-3.845c-.114-.069-.171-.131-.171-.188s.08-.171.239-.342l.735-.8c.16-.194.279-.291.359-.291a.383.383,0,0,1,.205.085,36.053,36.053,0,0,1,5.113,3.706Z" fill="#231816" opacity="0.004"/>
      <path id="Path_24" data-name="Path 24" d="M111.006,268.577q0,.273-.325.273l-.461-.017q-1.419-.035-3.316-.051-.171,2.46-.564,6.032l3.145-.068c.194,0,.29.091.29.274v1.367c0,.182-.1.273-.29.273l-.41-.017q-1.282-.035-2.94-.051A9.487,9.487,0,0,0,106,277.6a5.078,5.078,0,0,1-1.351,3.11,4.285,4.285,0,0,1-2.922.889q-1.264,0-1.76-.034a.709.709,0,0,1-.444-.137,2.211,2.211,0,0,1-.205-.6,4.424,4.424,0,0,0-.666-1.4,23.31,23.31,0,0,0,3.008.171,2.07,2.07,0,0,0,1.657-.6,3.5,3.5,0,0,0,.684-1.845l.068-.564h-13.5q-.171.684-.6,2.221a.392.392,0,0,1-.393.308,6.7,6.7,0,0,1-.837-.1q-1.042-.171-1.043-.342a.805.805,0,0,1,.051-.222,18.919,18.919,0,0,0,.889-2.564q.872-3.469,1.47-7.109-1.453.016-2.6.051l-.8.017a.241.241,0,0,1-.273-.273v-1.4c0-.159.091-.239.273-.239l3.674.068q.256-1.623.6-4.733.12-1.3.12-2.017,0-.2-.017-.462a.271.271,0,0,1,.308-.307l4.426.068h6.921l4.427-.068a.271.271,0,0,1,.307.307q-.137,1.847-.171,2.769-.136,2.82-.256,4.443l3.64-.068c.217,0,.325.08.325.239Zm-6.1.2h-5.59q-.325,3.007-.854,6.032h5.845q.256-1.828.593-6.032Zm-7.554,0H92.1q-.5,3.076-1.162,6.032h5.537q.449-2.58.876-6.032Zm7.981-7.486H99.966q-.1,1.914-.444,5.708h5.521q.221-3.93.289-5.7Zm-7.314,0H93.01q-.308,3.248-.666,5.708h5.212q.359-3.793.462-5.7Zm12.253-5.229q0,.273-.291.273l-4.716-.068H91.951a26.278,26.278,0,0,1-3.555,5.007q-.308.342-.427.342-.1,0-.5-.376a4.293,4.293,0,0,0-1.111-.8,19.663,19.663,0,0,0,5.349-8.733A7.274,7.274,0,0,0,92.07,250a16.555,16.555,0,0,1,2.085.461c.285.08.427.206.427.376a.746.746,0,0,1-.239.5,2.729,2.729,0,0,0-.666,1.111q-.256.7-.8,1.965h12.391l4.716-.068q.291,0,.291.273Zm-24.61,15.176q-1.23,3.777-3.162,8.254a5.976,5.976,0,0,0-.581,1.572q0,.428-.29.428a1.284,1.284,0,0,1-.513-.2,15.721,15.721,0,0,1-1.692-1.128A14.3,14.3,0,0,0,81,277.583a48.744,48.744,0,0,0,3.127-8.408A4.177,4.177,0,0,0,85.34,270.2q.444.256.444.479A2.726,2.726,0,0,1,85.662,271.243Zm-.256-7.776a.373.373,0,0,1,.137.222q0,.086-.171.273l-.837.975q-.308.375-.393.375a.389.389,0,0,1-.205-.119,24.411,24.411,0,0,0-4.819-3.931q-.171-.086-.171-.171c0-.057.068-.159.205-.307l.735-.889c.114-.159.228-.239.342-.239a.539.539,0,0,1,.222.068,28.193,28.193,0,0,1,4.954,3.743ZM87,254.819a.47.47,0,0,1,.12.274.656.656,0,0,1-.239.393l-.769.957q-.239.273-.342.273c-.057,0-.125-.045-.205-.136a22.976,22.976,0,0,0-4.58-4q-.154-.085-.154-.171t.256-.342l.769-.8q.222-.257.342-.257a.43.43,0,0,1,.205.069,25.034,25.034,0,0,1,4.6,3.74Z" fill="#231816" opacity="0.004"/>
      <path id="Path_25" data-name="Path 25" d="M70.934,255.708a.242.242,0,0,1-.273.273l-4.836-.068H45.487v5.11a78.642,78.642,0,0,1-.5,9.844,26.74,26.74,0,0,1-3.11,9.895q-.2.428-.342.427-.1,0-.462-.359a4.783,4.783,0,0,0-1.435-1.008,22.236,22.236,0,0,0,3.281-9.776,82.931,82.931,0,0,0,.427-9.262l-.068-6.563a.242.242,0,0,1,.273-.273l4.973.068H55.36v-1.008a12.055,12.055,0,0,0-.256-2.871q1.06.035,2.376.171.427.051.427.307a2.155,2.155,0,0,1-.205.633,4.391,4.391,0,0,0-.222,1.674v1.094h8.34l4.836-.068a.242.242,0,0,1,.273.273Zm.239,9.075q0,.307-.273.307l-4.341-.068v8.152l.068,4.956a3.4,3.4,0,0,1-.239,1.435,2.994,2.994,0,0,1-.735.838q-.752.649-3.879.649c-.342,0-.706-.005-1.094-.017a1.223,1.223,0,0,1-.649-.1,1.562,1.562,0,0,1-.222-.6,3.954,3.954,0,0,0-.632-1.469q1.692.137,3.879.136a1.725,1.725,0,0,0,1.179-.307,1.4,1.4,0,0,0,.29-1.008V265.022H59.279l-4.478.068c-.194,0-.291-.1-.291-.307v-1.419q0-.273.291-.273l4.478.068h5.247v-1.811a21.239,21.239,0,0,0-.273-4.068q1.094.051,2.307.2.427.069.427.291a2.991,2.991,0,0,1-.256.7,12.293,12.293,0,0,0-.171,2.836v1.846l4.341-.068a.241.241,0,0,1,.273.273Zm-16.082-6.529q0,.189-.308.462a3.3,3.3,0,0,0-.752,1.3q-.923,2.032-1.606,3.315V276.7l.068,4.6a.241.241,0,0,1-.273.273H50.6a.242.242,0,0,1-.273-.273l.068-4.6v-4.853l.1-5.366a35.357,35.357,0,0,1-3.11,3.794q-.256.307-.427.307-.154,0-.308-.307a3.378,3.378,0,0,0-1.094-1.163,32.007,32.007,0,0,0,6.477-9.621,9.663,9.663,0,0,0,.752-2.41,10.74,10.74,0,0,1,1.914.735q.393.189.393.443Zm6.255,14a.65.65,0,0,1,.051.2c0,.1-.1.222-.308.359l-.872.632a1.274,1.274,0,0,1-.427.24q-.085,0-.2-.171a23.863,23.863,0,0,0-3.418-5.008c-.091-.079-.137-.142-.137-.188s.1-.153.308-.29l.871-.6a.634.634,0,0,1,.291-.154.329.329,0,0,1,.205.119,28.839,28.839,0,0,1,3.642,4.858Z" fill="#231816" opacity="0.004"/>
      <path id="Path_26" data-name="Path 26" d="M16.525,267.056q-.1,2.085-.1,3.247a49.223,49.223,0,0,1-.6,6.921q-.649,3.675-3.708,3.674a19.374,19.374,0,0,1-2.136-.1,1.163,1.163,0,0,1-.615-.154,1.4,1.4,0,0,1-.188-.615,3.542,3.542,0,0,0-.564-1.538,19.224,19.224,0,0,0,3.315.342,1.522,1.522,0,0,0,1.436-.872,6.827,6.827,0,0,0,.53-1.931,47.355,47.355,0,0,0,.461-7.366H8.374a22.578,22.578,0,0,1-2.068,6.716,22.288,22.288,0,0,1-3.5,4.939q-.308.342-.461.342-.137,0-.444-.427a5.043,5.043,0,0,0-1.162-1.008,17.084,17.084,0,0,0,4.836-7.212,34.995,34.995,0,0,0,1.3-9.656l-4,.068a.241.241,0,0,1-.273-.273l.068-3.025v-3.709L2.6,252.41a.242.242,0,0,1,.273-.274l4.033.069H12.05l4.016-.069c.194,0,.291.091.291.274l-.068,3.007v3.709l.068,3.025q0,.273-.291.273l-4.016-.068H8.92q-.1,2.376-.308,4.443h4.751l2.8-.068Q16.525,266.731,16.525,267.056Zm-2.239-6.46v-6.58H4.665v6.58Zm16.526-9.16a3.529,3.529,0,0,1-.256.666,14.314,14.314,0,0,0-.171,3.042v17.175l.068,5.281a3.177,3.177,0,0,1-1.025,2.769,3.739,3.739,0,0,1-1.606.547,28.781,28.781,0,0,1-3.179.119,1.12,1.12,0,0,1-.632-.1,4.924,4.924,0,0,1-.222-.633,4.74,4.74,0,0,0-.735-1.572,30.942,30.942,0,0,0,3.4.171,2.146,2.146,0,0,0,1.47-.359,1.818,1.818,0,0,0,.359-1.316V255.178a24.825,24.825,0,0,0-.29-4.272,22.047,22.047,0,0,1,2.358.2c.308.05.462.159.462.33Zm-7.4,2.529q0,.035-.171.547a25.376,25.376,0,0,0-.137,3.64v9.485l.068,4.529q0,.273-.325.273H21.276a.242.242,0,0,1-.274-.273l.068-4.529v-9.451a29.606,29.606,0,0,0-.256-4.717q.957.035,2.2.171c.268.034.4.143.4.325Z" fill="#231816" opacity="0.004"/>
    </g>
  </g>
</svg>
