<svg width="216" height="220" viewBox="0 0 216 220" fill="none" xmlns="http://www.w3.org/2000/svg">
<g clip-path="url(#clip0_4413_12653)">
<path d="M4.74064 66.834C2.12036 66.834 0 68.9543 0 71.5746C0 74.1949 2.12036 76.3153 4.74064 76.3153C7.36091 76.3153 9.48127 74.1949 9.48127 71.5746C9.48127 68.9543 7.36091 66.834 4.74064 66.834Z" fill="#928DAB"/>
<path d="M31.4437 48.8708C34.7759 48.8708 37.4772 46.1695 37.4772 42.8372C37.4772 39.505 34.7759 36.8037 31.4437 36.8037C28.1115 36.8037 25.4102 39.505 25.4102 42.8372C25.4102 46.1695 28.1115 48.8708 31.4437 48.8708Z" fill="#928DAB"/>
<path d="M33.4593 62.6611C28.5462 62.6611 24.5469 66.6433 24.5469 71.5735C24.5469 76.5038 28.529 80.4859 33.4593 80.4859C38.3895 80.4859 42.3717 76.5038 42.3717 71.5735C42.3717 66.6433 38.3895 62.6611 33.4593 62.6611Z" fill="#928DAB"/>
<path d="M60.1623 51.4584C64.9226 51.4584 68.7816 47.5994 68.7816 42.8391C68.7816 38.0787 64.9226 34.2197 60.1623 34.2197C55.402 34.2197 51.543 38.0787 51.543 42.8391C51.543 47.5994 55.402 51.4584 60.1623 51.4584Z" fill="#928DAB"/>
<path d="M62.1988 63.8184C57.9236 63.8184 54.4414 67.2833 54.4414 71.5758C54.4414 75.8682 57.9064 79.3332 62.1988 79.3332C66.4912 79.3332 69.9562 75.8682 69.9562 71.5758C69.9562 67.2833 66.4912 63.8184 62.1988 63.8184Z" fill="#928DAB"/>
<path d="M88.8998 36.0635C85.159 36.0635 82.125 39.0975 82.125 42.8383C82.125 46.5791 85.159 49.6131 88.8998 49.6131C92.6406 49.6131 95.6746 46.5791 95.6746 42.8383C95.6746 39.0975 92.6406 36.0635 88.8998 36.0635Z" fill="#928DAB"/>
<path d="M90.9327 76.2824C93.5319 76.2824 95.6389 74.1754 95.6389 71.5763C95.6389 68.9771 93.5319 66.8701 90.9327 66.8701C88.3336 66.8701 86.2266 68.9771 86.2266 71.5763C86.2266 74.1754 88.3336 76.2824 90.9327 76.2824Z" fill="#928DAB"/>
<path d="M117.638 33.3916C112.415 33.3916 108.191 37.6151 108.191 42.8384C108.191 48.0617 112.415 52.2852 117.638 52.2852C122.862 52.2852 127.085 48.0617 127.085 42.8384C127.085 37.6151 122.862 33.3916 117.638 33.3916Z" fill="#928DAB"/>
<path d="M119.672 62.8525C114.862 62.8525 110.949 66.7485 110.949 71.5753C110.949 76.4021 114.845 80.2981 119.672 80.2981C124.499 80.2981 128.395 76.4021 128.395 71.5753C128.395 66.7485 124.499 62.8525 119.672 62.8525Z" fill="#928DAB"/>
<path d="M89.2951 16.136C92.9605 16.136 95.932 13.1645 95.932 9.49907C95.932 5.83362 92.9605 2.86218 89.2951 2.86218C85.6296 2.86218 82.6582 5.83362 82.6582 9.49907C82.6582 13.1645 85.6296 16.136 89.2951 16.136Z" fill="#928DAB"/>
<path d="M146.374 33.3564C141.133 33.3564 136.893 37.5972 136.893 42.8377C136.893 48.0783 141.133 52.319 146.374 52.319C151.614 52.319 155.855 48.0783 155.855 42.8377C155.855 37.5972 151.614 33.3564 146.374 33.3564Z" fill="#928DAB"/>
<path d="M148.391 63.0586C143.685 63.0586 139.875 66.8683 139.875 71.5745C139.875 76.2807 143.685 80.0904 148.391 80.0904C153.097 80.0904 156.907 76.2807 156.907 71.5745C156.907 66.8683 153.097 63.0586 148.391 63.0586Z" fill="#928DAB"/>
<path d="M118.034 0C112.793 0 108.535 4.25795 108.535 9.49851C108.535 14.7391 112.793 18.997 118.034 18.997C123.274 18.997 127.532 14.7391 127.532 9.49851C127.532 4.25795 123.274 0 118.034 0Z" fill="#928DAB"/>
<path d="M175.093 37.7361C172.283 37.7361 169.99 40.0116 169.99 42.8388C169.99 45.6659 172.266 47.9414 175.093 47.9414C177.92 47.9414 180.196 45.6659 180.196 42.8388C180.196 40.0116 177.92 37.7361 175.093 37.7361Z" fill="#928DAB"/>
<path d="M177.128 67.248C174.732 67.248 172.801 69.1788 172.801 71.575C172.801 73.9711 174.732 75.9019 177.128 75.9019C179.524 75.9019 181.455 73.9711 181.455 71.575C181.455 69.1788 179.524 67.248 177.128 67.248Z" fill="#928DAB"/>
<path d="M205.863 66.0234C202.795 66.0234 200.312 68.5058 200.312 71.5743C200.312 74.6428 202.795 77.1252 205.863 77.1252C208.932 77.1252 211.414 74.6428 211.414 71.5743C211.414 68.5058 208.932 66.0234 205.863 66.0234Z" fill="#928DAB"/>
<path d="M215.794 172.371V171.974C215.794 171.974 192.642 170.147 191.883 169.975C191.28 169.837 191.073 169.199 191.022 168.716C190.97 167.561 191.073 166.872 191.073 166.182L191.228 137.152C191.228 136.704 190.987 135.963 190.039 135.963C189.936 135.963 185.367 136.601 184.626 137.049C184.333 137.204 184.23 137.445 184.23 137.738C184.23 138.635 184.729 138.687 185.764 138.738C186.505 138.79 187.246 138.928 187.246 140.721V149.857C185.902 148.806 183.574 147.668 180.937 147.668C174.886 147.668 169.232 151.978 169.232 160.476C169.232 165.217 171.318 170.027 175.386 171.957C175.386 171.957 140.857 170.44 139.892 169.871C139.202 169.475 139.047 168.94 138.995 167.717C138.926 166.131 139.288 159.132 139.288 157.701C139.288 154.27 139.288 147.53 131.203 147.53C127.083 147.53 123.567 150.754 122.567 151.754L122.618 148.53C122.618 147.892 122.067 147.34 121.377 147.34C120.981 147.34 117.654 147.944 117.016 148.082C116.016 148.289 115.671 148.478 115.671 149.116C115.671 149.857 116.016 149.909 117.516 150.15C118.464 150.305 118.705 150.943 118.757 151.84C118.809 152.633 118.86 155.012 118.86 159.183C118.86 160.476 118.705 166.079 118.705 167.217C118.705 167.872 118.602 171.147 118.585 171.957C118.585 171.957 88.7962 170.509 87.8998 169.958C87.2103 169.561 87.1585 169.406 87.0034 167.803C86.9172 166.131 86.8655 162.459 86.8655 160.562C86.8655 159.821 86.9172 156.649 86.9172 155.994C86.9172 152.478 85.6243 147.065 78.3841 147.065C76.1947 147.065 73.1263 147.513 72.1264 148.306C71.2817 149.047 69.8854 151.426 69.8854 152.615C69.8854 153.564 70.6267 153.805 71.0749 153.805C71.5748 153.805 71.7299 153.615 72.2643 152.615C74.1951 149.237 76.8843 148.84 78.0738 148.84C83.0385 148.84 83.0385 154.65 83.0385 156.529C74.5054 158.459 67.7133 159.994 67.7133 166.51C67.7133 168.682 68.6442 170.785 70.2302 171.94C70.2302 171.94 40.1832 169.94 39.0971 169.871C38.5627 169.837 38.3559 169.63 38.3041 169.165C39.7177 167.51 40.3728 165.51 40.3728 163.51C40.3728 157.304 35.3563 155.477 27.4782 152.598C21.824 150.512 20.238 148.633 20.238 145.944C20.238 142.479 22.6687 140.135 27.0818 140.135C30.7536 140.135 34.1841 142.272 35.2701 145.737C35.8218 147.427 35.8735 147.616 36.7527 147.616C38.149 147.616 38.0973 146.634 38.0456 146.22C37.9421 145.082 37.4594 140.307 37.1491 139.824C36.9595 139.583 36.7009 139.376 36.3044 139.376C36.0114 139.376 34.7185 139.773 34.4599 139.773C33.8738 139.773 33.7186 139.721 33.0291 139.48C30.5467 138.635 29.3055 138.238 27.2197 138.238C22.0136 138.238 16.5489 140.876 16.5489 147.168C16.5489 152.581 20.962 154.27 26.375 156.305C31.1328 158.149 35.908 159.925 35.908 164.648C35.908 170.113 30.3916 170.957 27.3748 170.957C25.4441 170.957 19.9277 170.268 19.6347 165.544C19.5312 163.459 19.4795 162.872 17.9453 162.872C16.9971 162.872 15.4629 163.562 15.4629 165.458C15.4629 166.096 17.4971 173.147 27.4265 173.147C28.2885 173.147 29.0814 173.095 29.8399 173.112H215.828V172.336L215.794 172.371ZM76.143 170.147C73.8675 170.147 71.3852 168.51 71.3852 165.872C71.3852 161.804 76.3499 158.977 83.004 158.735C83.1075 162.993 83.1075 164.252 83.3488 167.165C80.1252 169.44 77.5394 170.147 76.1603 170.147H76.143ZM135.289 171.199C135.289 171.302 135.289 171.371 135.289 171.475C130.738 170.888 123.98 170.199 123.274 169.837C122.532 169.492 122.584 169.199 122.532 166.441C122.36 158.701 122.584 156.908 122.687 154.426C124.032 152.443 126.859 149.754 129.928 149.754C135.392 149.754 135.392 155.115 135.392 159.373C135.392 161.562 135.341 164.079 135.289 166.165C135.237 166.958 135.289 170.475 135.289 171.182V171.199ZM187.35 166.475C184.867 169.854 181.833 170.354 180.506 170.354C175.886 170.354 173.214 165.993 173.214 160.58C173.214 154.081 176.541 149.512 180.851 149.512C186.315 149.512 187.35 155.063 187.35 155.425V166.493V166.475Z" fill="#231816"/>
<path d="M75.006 212.692C74.4026 212.278 73.8337 212.003 72.8856 211.537L72.1443 211.175C70.7825 210.503 69.8861 210.072 69.8861 208.744C69.8861 207.589 70.5929 206.434 72.1961 206.434C72.8339 206.434 73.9889 206.641 74.6784 208.003L74.8508 208.331L75.9713 207.383L75.8679 207.176C75.1266 205.814 73.7993 205.038 72.2305 205.038C69.6964 205.038 68.3691 206.934 68.3691 208.796C68.3691 209.434 68.5242 210.003 68.8517 210.537C69.3861 211.416 70.1791 211.83 71.5237 212.485C72.6787 213.054 73.489 213.468 73.8682 213.692C74.6957 214.192 75.0922 214.812 75.0922 215.64C75.0922 217.312 73.7648 218.57 72.0064 218.57C71.0583 218.57 70.1447 218.157 69.6103 217.484C69.4206 217.26 69.0759 216.743 68.9035 216.226L68.8 215.916L67.4727 216.536L67.5588 216.778C67.6968 217.157 67.9381 217.726 68.507 218.398C69.0931 219.07 70.0757 219.967 71.972 219.967C74.575 219.967 76.6092 218.053 76.6092 215.588C76.6092 213.95 75.6955 213.123 75.006 212.658V212.692Z" fill="#231816"/>
<path d="M104.363 205.228H101.381V219.777H102.881V213.14H104.398C107.035 213.14 108.742 211.589 108.742 209.158C108.742 206.727 107.018 205.228 104.363 205.228ZM107.19 209.175C107.19 210.744 106.121 211.709 104.415 211.709H102.863V206.624H104.277C106.139 206.624 107.19 207.555 107.19 209.158V209.175Z" fill="#231816"/>
<path d="M137.616 204.331L131.307 219.777H132.927L134.789 215.191H140.357L142.219 219.777H143.839L137.616 204.331ZM137.599 208.21L139.788 213.761H135.358L137.599 208.21Z" fill="#231816"/>
</g>
<defs>
<clipPath id="clip0_4413_12653">
<rect width="215.794" height="220" fill="white"/>
</clipPath>
</defs>
</svg>
