<svg width="229" height="306" viewBox="0 0 229 306" fill="none" xmlns="http://www.w3.org/2000/svg">
<g clip-path="url(#clip0_4678_7482)">
<path d="M11.3442 66.834C8.72387 66.834 6.60352 68.9543 6.60352 71.5746C6.60352 74.1949 8.72387 76.3153 11.3442 76.3153C13.9644 76.3153 16.0848 74.1949 16.0848 71.5746C16.0848 68.9543 13.9644 66.834 11.3442 66.834Z" fill="#928DAB"/>
<path d="M38.0472 48.8708C41.3794 48.8708 44.0807 46.1695 44.0807 42.8372C44.0807 39.505 41.3794 36.8037 38.0472 36.8037C34.715 36.8037 32.0137 39.505 32.0137 42.8372C32.0137 46.1695 34.715 48.8708 38.0472 48.8708Z" fill="#928DAB"/>
<path d="M40.0647 62.6611C35.1517 62.6611 31.1523 66.6433 31.1523 71.5735C31.1523 76.5038 35.1345 80.4859 40.0647 80.4859C44.995 80.4859 48.9771 76.5038 48.9771 71.5735C48.9771 66.6433 44.995 62.6611 40.0647 62.6611Z" fill="#928DAB"/>
<path d="M66.7678 51.4584C71.5281 51.4584 75.3871 47.5994 75.3871 42.8391C75.3871 38.0787 71.5281 34.2197 66.7678 34.2197C62.0074 34.2197 58.1484 38.0787 58.1484 42.8391C58.1484 47.5994 62.0074 51.4584 66.7678 51.4584Z" fill="#928DAB"/>
<path d="M68.8004 63.8184C64.5252 63.8184 61.043 67.2833 61.043 71.5758C61.043 75.8682 64.5079 79.3332 68.8004 79.3332C73.0928 79.3332 76.5578 75.8682 76.5578 71.5758C76.5578 67.2833 73.0928 63.8184 68.8004 63.8184Z" fill="#928DAB"/>
<path d="M95.5033 36.0635C91.7625 36.0635 88.7285 39.0975 88.7285 42.8383C88.7285 46.5791 91.7625 49.6131 95.5033 49.6131C99.2441 49.6131 102.278 46.5791 102.278 42.8383C102.278 39.0975 99.2441 36.0635 95.5033 36.0635Z" fill="#928DAB"/>
<path d="M97.5382 76.2824C100.137 76.2824 102.244 74.1754 102.244 71.5763C102.244 68.9771 100.137 66.8701 97.5382 66.8701C94.939 66.8701 92.832 68.9771 92.832 71.5763C92.832 74.1754 94.939 76.2824 97.5382 76.2824Z" fill="#928DAB"/>
<path d="M124.24 33.3916C119.016 33.3916 114.793 37.6151 114.793 42.8384C114.793 48.0617 119.016 52.2852 124.24 52.2852C129.463 52.2852 133.687 48.0617 133.687 42.8384C133.687 37.6151 129.463 33.3916 124.24 33.3916Z" fill="#928DAB"/>
<path d="M126.276 62.8525C121.466 62.8525 117.553 66.7485 117.553 71.5753C117.553 76.4021 121.449 80.2981 126.276 80.2981C131.102 80.2981 134.998 76.4021 134.998 71.5753C134.998 66.7485 131.102 62.8525 126.276 62.8525Z" fill="#928DAB"/>
<path d="M95.8986 16.136C99.5641 16.136 102.536 13.1645 102.536 9.49907C102.536 5.83362 99.5641 2.86218 95.8986 2.86218C92.2332 2.86218 89.2617 5.83362 89.2617 9.49907C89.2617 13.1645 92.2332 16.136 95.8986 16.136Z" fill="#928DAB"/>
<path d="M152.977 33.3564C147.737 33.3564 143.496 37.5972 143.496 42.8377C143.496 48.0783 147.737 52.319 152.977 52.319C158.218 52.319 162.459 48.0783 162.459 42.8377C162.459 37.5972 158.218 33.3564 152.977 33.3564Z" fill="#928DAB"/>
<path d="M154.994 63.0586C150.288 63.0586 146.479 66.8683 146.479 71.5745C146.479 76.2807 150.288 80.0904 154.994 80.0904C159.701 80.0904 163.51 76.2807 163.51 71.5745C163.51 66.8683 159.701 63.0586 154.994 63.0586Z" fill="#928DAB"/>
<path d="M124.637 0C119.397 0 115.139 4.25795 115.139 9.49851C115.139 14.7391 119.397 18.997 124.637 18.997C129.878 18.997 134.136 14.7391 134.136 9.49851C134.136 4.25795 129.878 0 124.637 0Z" fill="#928DAB"/>
<path d="M181.696 37.7361C178.886 37.7361 176.594 40.0116 176.594 42.8388C176.594 45.6659 178.869 47.9414 181.696 47.9414C184.524 47.9414 186.799 45.6659 186.799 42.8388C186.799 40.0116 184.524 37.7361 181.696 37.7361Z" fill="#928DAB"/>
<path d="M183.731 67.248C181.335 67.248 179.404 69.1788 179.404 71.575C179.404 73.9711 181.335 75.9019 183.731 75.9019C186.127 75.9019 188.058 73.9711 188.058 71.575C188.058 69.1788 186.127 67.248 183.731 67.248Z" fill="#928DAB"/>
<path d="M212.467 66.0234C209.398 66.0234 206.916 68.5058 206.916 71.5743C206.916 74.6428 209.398 77.1252 212.467 77.1252C215.535 77.1252 218.018 74.6428 218.018 71.5743C218.018 68.5058 215.535 66.0234 212.467 66.0234Z" fill="#928DAB"/>
<path d="M222.397 172.371V171.974C222.397 171.974 199.246 170.147 198.487 169.975C197.884 169.837 197.677 169.199 197.625 168.716C197.573 167.561 197.677 166.872 197.677 166.182L197.832 137.152C197.832 136.704 197.591 135.963 196.642 135.963C196.539 135.963 191.971 136.601 191.23 137.049C190.936 137.204 190.833 137.445 190.833 137.738C190.833 138.635 191.333 138.687 192.367 138.738C193.109 138.79 193.85 138.928 193.85 140.721V149.857C192.505 148.806 190.178 147.668 187.54 147.668C181.49 147.668 175.835 151.978 175.835 160.476C175.835 165.217 177.921 170.027 181.99 171.957C181.99 171.957 147.461 170.44 146.495 169.871C145.806 169.475 145.65 168.94 145.599 167.717C145.53 166.131 145.892 159.132 145.892 157.701C145.892 154.27 145.892 147.53 137.807 147.53C133.687 147.53 130.17 150.754 129.17 151.754L129.222 148.53C129.222 147.892 128.67 147.34 127.981 147.34C127.584 147.34 124.257 147.944 123.619 148.082C122.62 148.289 122.275 148.478 122.275 149.116C122.275 149.857 122.62 149.909 124.119 150.15C125.067 150.305 125.309 150.943 125.361 151.84C125.412 152.633 125.464 155.012 125.464 159.183C125.464 160.476 125.309 166.079 125.309 167.217C125.309 167.872 125.205 171.147 125.188 171.957C125.188 171.957 95.3997 170.509 94.5033 169.958C93.8138 169.561 93.7621 169.406 93.6069 167.803C93.5207 166.131 93.469 162.459 93.469 160.562C93.469 159.821 93.5207 156.649 93.5207 155.994C93.5207 152.478 92.2278 147.065 84.9876 147.065C82.7983 147.065 79.7298 147.513 78.7299 148.306C77.8852 149.047 76.4889 151.426 76.4889 152.615C76.4889 153.564 77.2302 153.805 77.6784 153.805C78.1783 153.805 78.3334 153.615 78.8678 152.615C80.7986 149.237 83.4878 148.84 84.6773 148.84C89.642 148.84 89.642 154.65 89.642 156.529C81.1089 158.459 74.3168 159.994 74.3168 166.51C74.3168 168.682 75.2477 170.785 76.8337 171.94C76.8337 171.94 46.7867 169.94 45.7006 169.871C45.1662 169.837 44.9594 169.63 44.9077 169.165C46.3212 167.51 46.9763 165.51 46.9763 163.51C46.9763 157.304 41.9598 155.477 34.0818 152.598C28.4275 150.512 26.8415 148.633 26.8415 145.944C26.8415 142.479 29.2722 140.135 33.6853 140.135C37.3571 140.135 40.7876 142.272 41.8736 145.737C42.4253 147.427 42.477 147.616 43.3562 147.616C44.7525 147.616 44.7008 146.634 44.6491 146.22C44.5456 145.082 44.063 140.307 43.7527 139.824C43.563 139.583 43.3045 139.376 42.908 139.376C42.6149 139.376 41.322 139.773 41.0634 139.773C40.4773 139.773 40.3222 139.721 39.6326 139.48C37.1502 138.635 35.9091 138.238 33.8232 138.238C28.6171 138.238 23.1524 140.876 23.1524 147.168C23.1524 152.581 27.5655 154.27 32.9785 156.305C37.7364 158.149 42.5115 159.925 42.5115 164.648C42.5115 170.113 36.9951 170.957 33.9783 170.957C32.0476 170.957 26.5312 170.268 26.2382 165.544C26.1347 163.459 26.083 162.872 24.5488 162.872C23.6006 162.872 22.0664 163.562 22.0664 165.458C22.0664 166.096 24.1006 173.147 34.03 173.147C34.892 173.147 35.685 173.095 36.4435 173.112H222.432V172.336L222.397 172.371ZM82.7465 170.147C80.471 170.147 77.9887 168.51 77.9887 165.872C77.9887 161.804 82.9534 158.977 89.6075 158.735C89.711 162.993 89.711 164.252 89.9523 167.165C86.7287 169.44 84.1429 170.147 82.7638 170.147H82.7465ZM141.892 171.199C141.892 171.302 141.892 171.371 141.892 171.475C137.341 170.888 130.584 170.199 129.877 169.837C129.136 169.492 129.188 169.199 129.136 166.441C128.963 158.701 129.188 156.908 129.291 154.426C130.636 152.443 133.463 149.754 136.531 149.754C141.996 149.754 141.996 155.115 141.996 159.373C141.996 161.562 141.944 164.079 141.892 166.165C141.841 166.958 141.892 170.475 141.892 171.182V171.199ZM193.953 166.475C191.471 169.854 188.437 170.354 187.109 170.354C182.49 170.354 179.818 165.993 179.818 160.58C179.818 154.081 183.145 149.512 187.454 149.512C192.919 149.512 193.953 155.063 193.953 155.425V166.493V166.475Z" fill="#231816"/>
<path d="M81.6095 212.692C81.0061 212.278 80.4372 212.003 79.4891 211.537L78.7479 211.175C77.386 210.503 76.4896 210.072 76.4896 208.744C76.4896 207.589 77.1964 206.434 78.7996 206.434C79.4374 206.434 80.5924 206.641 81.2819 208.003L81.4543 208.331L82.5748 207.383L82.4714 207.176C81.7301 205.814 80.4028 205.038 78.8341 205.038C76.3 205.038 74.9726 206.934 74.9726 208.796C74.9726 209.434 75.1277 210.003 75.4553 210.537C75.9897 211.416 76.7826 211.83 78.1273 212.485C79.2823 213.054 80.0925 213.468 80.4717 213.692C81.2992 214.192 81.6957 214.812 81.6957 215.64C81.6957 217.312 80.3683 218.57 78.6099 218.57C77.6618 218.57 76.7482 218.157 76.2138 217.484C76.0241 217.26 75.6794 216.743 75.507 216.226L75.4036 215.916L74.0762 216.536L74.1624 216.778C74.3003 217.157 74.5416 217.726 75.1105 218.398C75.6966 219.07 76.6792 219.967 78.5755 219.967C81.1785 219.967 83.2127 218.053 83.2127 215.588C83.2127 213.95 82.299 213.123 81.6095 212.658V212.692Z" fill="#231816"/>
<path d="M110.967 205.228H107.984V219.777H109.484V213.14H111.001C113.639 213.14 115.345 211.589 115.345 209.158C115.345 206.727 113.621 205.228 110.967 205.228ZM113.794 209.175C113.794 210.744 112.725 211.709 111.018 211.709H109.467V206.624H110.88C112.742 206.624 113.794 207.555 113.794 209.158V209.175Z" fill="#231816"/>
<path d="M144.22 204.331L137.91 219.777H139.531L141.392 215.191H146.96L148.822 219.777H150.443L144.22 204.331ZM144.202 208.21L146.392 213.761H141.961L144.202 208.21Z" fill="#231816"/>
</g>
<path d="M228.265 265.637C228.265 265.819 228.168 265.911 227.975 265.911L223.053 265.842H211.397L212.542 266.27C212.805 266.418 212.936 266.543 212.936 266.646C212.936 266.828 212.856 266.959 212.696 267.039C212.525 267.141 212.326 267.363 212.098 267.705C211.973 267.933 211.785 268.212 211.534 268.542H222.198L226.642 268.474C226.858 268.474 226.966 268.554 226.966 268.713V268.782L226.693 272.217C226.511 274.678 226.203 276.7 225.77 278.284C225.474 279.355 225.024 280.107 224.42 280.54C223.884 280.927 223.161 281.121 222.25 281.121C221.874 281.121 221.15 281.098 220.079 281.052C219.771 281.029 219.583 280.978 219.515 280.898C219.458 280.83 219.384 280.625 219.293 280.283C219.179 279.702 218.997 279.229 218.746 278.865C219.806 279.036 220.922 279.121 222.096 279.121C222.984 279.121 223.583 278.563 223.89 277.446C224.232 275.965 224.534 273.533 224.796 270.149H221.891C220.056 274.854 216.752 278.523 211.979 281.155C211.705 281.292 211.534 281.36 211.466 281.36C211.363 281.36 211.198 281.229 210.97 280.967C210.617 280.557 210.23 280.243 209.808 280.027C214.719 277.691 218.068 274.399 219.857 270.149H216.285C214.303 273.761 211.272 276.586 207.193 278.625C206.909 278.762 206.721 278.831 206.629 278.831C206.515 278.831 206.362 278.705 206.168 278.455C205.838 278.01 205.49 277.708 205.125 277.549C209.318 275.646 212.292 273.18 214.046 270.149H210.338C209.016 271.71 207.41 273.111 205.519 274.353C205.234 274.513 205.057 274.592 204.989 274.592C204.875 274.592 204.71 274.45 204.493 274.165C204.186 273.755 203.861 273.47 203.519 273.311C206.333 271.761 208.43 269.904 209.808 267.739C210.184 267.192 210.48 266.56 210.697 265.842H210.304L205.331 265.911C205.148 265.911 205.057 265.819 205.057 265.637V264.27C205.057 264.088 205.148 263.997 205.331 263.997L210.304 264.065H223.053L227.975 263.997C228.168 263.997 228.265 264.088 228.265 264.27V265.637ZM224.129 261.689C224.129 261.872 224.038 261.963 223.856 261.963L219.583 261.895H213.414L209.142 261.963C208.959 261.963 208.868 261.872 208.868 261.689L208.937 258.647V254.854L208.868 251.812C208.868 251.629 208.959 251.538 209.142 251.538L213.414 251.606H219.583L223.856 251.538C224.038 251.538 224.129 251.629 224.129 251.812L224.061 254.854V258.647L224.129 261.689ZM222.096 260.254V257.52H210.902V260.254H222.096ZM222.096 255.947V253.247H210.902V255.947H222.096ZM203.417 271.311C202.471 274.273 201.48 277.002 200.443 279.497C200.112 280.306 199.936 280.819 199.913 281.035C199.868 281.32 199.748 281.462 199.554 281.462C199.44 281.462 199.281 281.405 199.076 281.292C198.574 281.007 197.999 280.631 197.35 280.164C197.931 279.446 198.46 278.563 198.939 277.515C200.021 275.008 201.013 272.24 201.913 269.209C202.14 269.505 202.511 269.847 203.023 270.234C203.365 270.508 203.536 270.707 203.536 270.833C203.536 270.912 203.496 271.072 203.417 271.311ZM203.263 263.364C203.365 263.467 203.417 263.552 203.417 263.621C203.417 263.689 203.354 263.803 203.229 263.962L202.528 264.902C202.357 265.142 202.232 265.261 202.152 265.261C202.083 265.261 202.015 265.221 201.947 265.142C200.58 263.638 199.013 262.345 197.247 261.262C197.133 261.194 197.076 261.131 197.076 261.074C197.076 261.017 197.122 260.932 197.213 260.818L197.914 259.946C198.084 259.73 198.221 259.622 198.324 259.622C198.369 259.622 198.432 259.644 198.512 259.69C200.187 260.647 201.77 261.872 203.263 263.364ZM205.125 254.973C205.194 255.053 205.228 255.11 205.228 255.144C205.228 255.178 205.148 255.304 204.989 255.52L204.288 256.477C204.117 256.705 203.992 256.819 203.912 256.819C203.855 256.819 203.781 256.773 203.69 256.682C202.232 255.007 200.728 253.64 199.178 252.581C199.076 252.512 199.024 252.461 199.024 252.427C199.024 252.393 199.11 252.273 199.281 252.068L199.947 251.23C200.073 251.06 200.175 250.974 200.255 250.974C200.3 250.974 200.375 250.997 200.477 251.042C202.118 252.17 203.667 253.481 205.125 254.973Z" fill="#231816"/>
<path d="M169.89 254.614C169.89 254.808 169.799 254.905 169.616 254.905L166.079 254.819H164.848C164.381 257.827 163.504 260.698 162.216 263.433H166.044L168.642 263.364C168.824 263.364 168.916 263.455 168.916 263.638L168.83 267.739V270.833L168.916 276.848C168.916 277.03 168.819 277.122 168.625 277.122H167.258C167.076 277.122 166.984 277.03 166.984 276.848V275.515H162.644V278.625C162.644 278.819 162.552 278.916 162.37 278.916H160.917C160.758 278.916 160.678 278.819 160.678 278.625L160.747 272.114V266.338C160.074 267.477 159.34 268.577 158.542 269.636C158.348 269.864 158.217 269.978 158.149 269.978C158.092 269.978 157.989 269.847 157.841 269.585C157.625 269.095 157.346 268.679 157.004 268.337C158.531 266.526 159.818 264.373 160.866 261.877C161.823 259.599 162.484 257.246 162.849 254.819H161.909L158.405 254.905C158.212 254.905 158.115 254.808 158.115 254.614V253.145C158.115 252.962 158.212 252.871 158.405 252.871L161.909 252.939H166.079L169.616 252.871C169.799 252.871 169.89 252.962 169.89 253.145V254.614ZM166.984 273.738V265.21H162.644V273.738H166.984ZM180.776 250.803C180.776 250.917 180.702 251.139 180.554 251.47C180.44 251.732 180.383 252.546 180.383 253.914V263.159L180.417 268.064C180.417 269.237 180.104 270.086 179.477 270.61C178.885 271.1 177.62 271.345 175.683 271.345C175.319 271.345 175.102 271.311 175.034 271.243C174.977 271.174 174.914 270.975 174.846 270.645C174.686 269.972 174.464 269.448 174.179 269.072C175 269.186 175.934 269.243 176.982 269.243C177.495 269.243 177.842 269.124 178.024 268.884C178.218 268.656 178.315 268.263 178.315 267.705V254.136C178.315 252.37 178.247 251.094 178.11 250.308C179.078 250.353 179.825 250.416 180.349 250.496C180.633 250.53 180.776 250.632 180.776 250.803ZM187.202 267.568C187.202 267.694 187.099 267.819 186.894 267.944C186.632 268.115 186.222 268.679 185.664 269.636C183.955 272.655 181.807 275.133 179.221 277.07C176.726 278.939 173.649 280.448 169.992 281.599C169.742 281.667 169.576 281.702 169.497 281.702C169.337 281.702 169.16 281.525 168.967 281.172C168.693 280.716 168.357 280.346 167.958 280.061C172.151 278.865 175.586 277.236 178.264 275.173C180.69 273.293 182.622 270.969 184.057 268.201C184.422 267.506 184.701 266.782 184.895 266.03C185.692 266.406 186.319 266.742 186.774 267.039C187.059 267.221 187.202 267.397 187.202 267.568ZM175.7 257.144C175.7 257.28 175.632 257.428 175.495 257.588C175.267 257.873 175.102 258.203 175 258.579C174.202 261.872 173.046 264.703 171.53 267.073C171.359 267.38 171.217 267.534 171.103 267.534C171.069 267.534 170.921 267.443 170.659 267.261C170.283 266.942 169.827 266.708 169.292 266.56C170.944 264.373 172.134 261.746 172.863 258.682C173.08 257.827 173.188 257.081 173.188 256.443C173.188 256.352 173.182 256.266 173.171 256.187C174.23 256.426 174.908 256.602 175.205 256.716C175.535 256.853 175.7 256.995 175.7 257.144ZM189.731 264.697C189.252 264.914 188.808 265.267 188.398 265.757C188.216 265.939 188.09 266.03 188.022 266.03C187.908 266.03 187.766 265.888 187.595 265.603C185.84 263.188 184.348 260.317 183.117 256.99C183.094 256.944 183.083 256.904 183.083 256.87C183.083 256.768 183.231 256.659 183.527 256.545L184.416 256.255C184.564 256.209 184.672 256.187 184.741 256.187C184.855 256.187 184.929 256.261 184.963 256.409C185.738 258.323 186.484 259.895 187.202 261.125C187.862 262.242 188.706 263.433 189.731 264.697Z" fill="#231816"/>
<path d="M149.812 271.978C149.812 272.16 149.721 272.251 149.539 272.251L144.566 272.183H131.834L126.861 272.251C126.679 272.251 126.587 272.16 126.587 271.978V270.491C126.587 270.308 126.679 270.217 126.861 270.217L130.433 270.286V258.408C130.433 256.232 130.353 254.654 130.193 253.674C131.014 253.879 131.794 254.164 132.535 254.529C136.682 253.868 140.18 253.002 143.028 251.931C143.894 251.601 144.56 251.265 145.027 250.923C145.768 251.424 146.355 251.891 146.788 252.324C146.924 252.461 146.993 252.609 146.993 252.769C146.993 252.939 146.839 253.048 146.531 253.093C146.064 253.127 145.625 253.23 145.215 253.401C141.444 254.688 137.229 255.702 132.569 256.443V260.681H143.934L148.411 260.613C148.605 260.613 148.702 260.693 148.702 260.852V262.339C148.702 262.544 148.605 262.646 148.411 262.646L143.934 262.578H142.959V270.286H144.566L149.539 270.217C149.721 270.217 149.812 270.308 149.812 270.491V271.978ZM140.823 270.286V262.578H132.569V270.286H140.823ZM125.391 271.516C124.502 273.966 123.357 276.672 121.956 279.634C121.535 280.488 121.312 281.007 121.29 281.189C121.267 281.44 121.164 281.565 120.982 281.565C120.834 281.565 120.669 281.508 120.486 281.394C119.757 280.916 119.21 280.517 118.846 280.198C119.563 279.412 120.184 278.477 120.708 277.395C121.871 275.037 122.942 272.382 123.921 269.431C124.229 269.762 124.588 270.086 124.998 270.405C125.34 270.656 125.511 270.861 125.511 271.021C125.511 271.123 125.471 271.288 125.391 271.516ZM150.342 279.753C149.978 280.084 149.653 280.511 149.368 281.035C149.209 281.366 149.043 281.531 148.873 281.531C148.816 281.531 148.628 281.474 148.309 281.36C145.232 280.129 142.378 278.181 139.747 275.515C139.678 275.447 139.644 275.39 139.644 275.344C139.644 275.276 139.758 275.145 139.986 274.951L140.789 274.319C140.949 274.182 141.062 274.114 141.131 274.114C141.188 274.114 141.262 274.159 141.353 274.25C143.484 276.506 146.48 278.341 150.342 279.753ZM134.568 275.447C134.568 275.572 134.437 275.697 134.175 275.823C134.016 275.903 133.737 276.113 133.338 276.455C131.39 278.403 129.031 279.993 126.263 281.223C125.978 281.326 125.79 281.377 125.699 281.377C125.551 281.377 125.38 281.217 125.186 280.898C124.856 280.397 124.491 280.004 124.092 279.719C127.203 278.466 129.641 277.008 131.407 275.344C131.828 274.923 132.204 274.467 132.535 273.977C133.207 274.33 133.765 274.666 134.209 274.985C134.449 275.145 134.568 275.299 134.568 275.447ZM125.733 263.467C125.824 263.535 125.87 263.598 125.87 263.655C125.87 263.712 125.801 263.826 125.665 263.997L124.93 265.005C124.782 265.21 124.668 265.312 124.588 265.312C124.531 265.312 124.463 265.273 124.383 265.193C122.731 263.643 121.005 262.384 119.205 261.416C119.091 261.348 119.034 261.279 119.034 261.211C119.034 261.143 119.102 261.023 119.239 260.852L119.854 260.049C120.025 259.844 120.15 259.741 120.23 259.741C120.276 259.741 120.338 259.758 120.418 259.792C122.389 260.886 124.161 262.111 125.733 263.467ZM127.459 254.939C127.527 254.996 127.562 255.053 127.562 255.11C127.562 255.201 127.493 255.326 127.356 255.486L126.587 256.443C126.428 256.637 126.308 256.733 126.229 256.733C126.183 256.733 126.115 256.694 126.023 256.614C124.428 255.098 122.748 253.817 120.982 252.769C120.868 252.7 120.811 252.638 120.811 252.581C120.811 252.524 120.891 252.41 121.05 252.239L121.785 251.436C121.945 251.242 122.064 251.145 122.144 251.145C122.201 251.145 122.269 251.174 122.349 251.23C124.218 252.358 125.921 253.595 127.459 254.939Z" fill="#231816"/>
<path d="M111.006 268.577C111.006 268.759 110.898 268.85 110.681 268.85C110.658 268.85 110.505 268.844 110.22 268.833C109.274 268.81 108.169 268.793 106.904 268.782C106.79 270.422 106.602 272.433 106.34 274.814L109.485 274.746C109.679 274.746 109.775 274.837 109.775 275.02V276.387C109.775 276.569 109.679 276.66 109.485 276.66C109.462 276.66 109.325 276.654 109.075 276.643C108.22 276.62 107.24 276.603 106.135 276.592C106.09 276.797 106.044 277.133 105.999 277.6C105.782 279.058 105.332 280.095 104.648 280.71C103.976 281.303 103.002 281.599 101.726 281.599C100.883 281.599 100.296 281.588 99.9658 281.565C99.7266 281.542 99.5785 281.497 99.5215 281.428C99.4645 281.348 99.3962 281.149 99.3164 280.83C99.1683 280.306 98.9461 279.839 98.6499 279.429C99.5158 279.543 100.518 279.6 101.658 279.6C102.421 279.6 102.974 279.4 103.315 279.001C103.646 278.637 103.874 278.022 103.999 277.156L104.067 276.592H90.5664C90.4525 277.048 90.2531 277.788 89.9683 278.813C89.8999 279.019 89.7689 279.121 89.5752 279.121C89.4385 279.121 89.1593 279.087 88.7378 279.019C88.0428 278.905 87.6953 278.791 87.6953 278.677C87.6953 278.631 87.7124 278.557 87.7466 278.455C88.0998 277.634 88.396 276.78 88.6353 275.891C89.2163 273.578 89.7062 271.208 90.105 268.782C89.1366 268.793 88.2707 268.81 87.5073 268.833C86.9832 268.844 86.7155 268.85 86.7041 268.85C86.5218 268.85 86.4307 268.759 86.4307 268.577V267.175C86.4307 267.016 86.5218 266.936 86.7041 266.936L90.3784 267.004C90.5493 265.922 90.7487 264.344 90.9766 262.271C91.0563 261.405 91.0962 260.732 91.0962 260.254C91.0962 260.117 91.0905 259.963 91.0791 259.792C91.0791 259.587 91.1816 259.485 91.3867 259.485L95.813 259.553H102.734L107.161 259.485C107.366 259.485 107.468 259.587 107.468 259.792C107.377 261.023 107.32 261.946 107.297 262.561C107.206 264.441 107.121 265.922 107.041 267.004L110.681 266.936C110.898 266.936 111.006 267.016 111.006 267.175V268.577ZM104.905 268.782H99.3164C99.0999 270.787 98.8151 272.798 98.4619 274.814H104.307C104.478 273.595 104.677 271.584 104.905 268.782ZM97.3511 268.782H92.1045C91.7741 270.833 91.3867 272.843 90.9424 274.814H96.4795C96.7757 273.094 97.0662 271.083 97.3511 268.782ZM105.332 261.296H99.9658C99.8975 262.572 99.7493 264.475 99.5215 267.004H105.042C105.19 264.384 105.286 262.481 105.332 261.296ZM98.0176 261.296H93.0103C92.8052 263.461 92.583 265.364 92.3438 267.004H97.5562C97.7954 264.475 97.9492 262.572 98.0176 261.296ZM110.271 256.067C110.271 256.249 110.174 256.34 109.98 256.34L105.264 256.272H91.9507C91.0392 257.97 89.8543 259.639 88.396 261.279C88.1909 261.507 88.0485 261.621 87.9688 261.621C87.9004 261.621 87.7352 261.496 87.4731 261.245C87.1883 260.949 86.818 260.681 86.3623 260.442C88.9372 257.97 90.7202 255.059 91.7114 251.709C91.9051 251.128 92.0247 250.558 92.0703 250C93.0957 250.182 93.7907 250.336 94.1553 250.461C94.4401 250.541 94.5825 250.667 94.5825 250.837C94.5825 250.997 94.5028 251.162 94.3433 251.333C94.0584 251.606 93.8363 251.977 93.6768 252.444C93.5059 252.911 93.2381 253.566 92.8735 254.409H105.264L109.98 254.341C110.174 254.341 110.271 254.432 110.271 254.614V256.067ZM85.6616 271.243C84.8413 273.761 83.7874 276.512 82.5 279.497C82.1354 280.272 81.9417 280.796 81.9189 281.069C81.9189 281.354 81.8221 281.497 81.6284 281.497C81.5259 281.497 81.355 281.428 81.1157 281.292C80.4549 280.904 79.891 280.528 79.4238 280.164C79.9365 279.526 80.4606 278.665 80.9961 277.583C82.2607 274.974 83.3032 272.171 84.1235 269.175C84.3856 269.528 84.79 269.87 85.3369 270.2C85.6331 270.371 85.7812 270.531 85.7812 270.679C85.7812 270.77 85.7414 270.958 85.6616 271.243ZM85.4053 263.467C85.4964 263.558 85.542 263.632 85.542 263.689C85.542 263.746 85.485 263.837 85.3711 263.962L84.5337 264.937C84.3286 265.187 84.1976 265.312 84.1406 265.312C84.0951 265.312 84.0267 265.273 83.9355 265.193C82.5114 263.689 80.9049 262.379 79.1162 261.262C79.0023 261.205 78.9453 261.148 78.9453 261.091C78.9453 261.034 79.0137 260.932 79.1504 260.784L79.8853 259.895C79.9992 259.736 80.1131 259.656 80.2271 259.656C80.284 259.656 80.3581 259.679 80.4492 259.724C82.3519 260.875 84.0039 262.122 85.4053 263.467ZM86.9946 254.819C87.0744 254.922 87.1143 255.013 87.1143 255.093C87.1143 255.195 87.0345 255.326 86.875 255.486L86.106 256.443C85.9465 256.625 85.8325 256.716 85.7642 256.716C85.7072 256.716 85.6388 256.671 85.5591 256.58C84.0096 254.871 82.4829 253.538 80.979 252.581C80.8765 252.524 80.8252 252.467 80.8252 252.41C80.8252 252.341 80.9106 252.227 81.0815 252.068L81.8506 251.265C81.9987 251.094 82.1126 251.008 82.1924 251.008C82.2493 251.008 82.3177 251.031 82.3975 251.077C84.1406 252.193 85.673 253.441 86.9946 254.819Z" fill="#231816"/>
<path d="M70.9341 255.708C70.9341 255.89 70.8429 255.981 70.6606 255.981L65.8242 255.913H45.4873V261.023C45.4873 265.068 45.3221 268.349 44.9917 270.867C44.5588 274.501 43.522 277.799 41.8813 280.762C41.7446 281.047 41.6307 281.189 41.5396 281.189C41.4712 281.189 41.3174 281.069 41.0781 280.83C40.6338 280.386 40.1553 280.05 39.6426 279.822C41.4427 276.996 42.5365 273.738 42.9238 270.046C43.2087 267.585 43.3511 264.498 43.3511 260.784L43.2827 254.221C43.2827 254.039 43.3739 253.948 43.5562 253.948L48.5293 254.016H55.3652V253.008C55.3652 251.743 55.2798 250.786 55.1089 250.137C55.8153 250.16 56.6071 250.216 57.4844 250.308C57.7692 250.342 57.9116 250.444 57.9116 250.615C57.9116 250.718 57.8433 250.929 57.7065 251.248C57.5584 251.567 57.4844 252.125 57.4844 252.922V254.016H65.8242L70.6606 253.948C70.8429 253.948 70.9341 254.039 70.9341 254.221V255.708ZM71.1733 264.783C71.1733 264.988 71.0822 265.09 70.8999 265.09L66.5591 265.022V273.174L66.6274 278.13C66.6274 278.757 66.5477 279.235 66.3882 279.565C66.2401 279.839 65.9951 280.118 65.6533 280.403C65.152 280.836 63.8589 281.052 61.7739 281.052C61.4321 281.052 61.0675 281.047 60.6802 281.035C60.327 281.035 60.1105 281.001 60.0308 280.933C59.9624 280.864 59.8883 280.665 59.8086 280.334C59.6719 279.742 59.4611 279.252 59.1763 278.865C60.3042 278.956 61.5973 279.001 63.0557 279.001C63.6253 279.001 64.0184 278.899 64.2349 278.694C64.4285 278.5 64.5254 278.164 64.5254 277.686V265.022H59.2788L54.8013 265.09C54.6076 265.09 54.5107 264.988 54.5107 264.783V263.364C54.5107 263.182 54.6076 263.091 54.8013 263.091L59.2788 263.159H64.5254V261.348C64.5254 259.468 64.4342 258.112 64.252 257.28C64.9811 257.314 65.7502 257.383 66.5591 257.485C66.8439 257.531 66.9863 257.628 66.9863 257.776C66.9863 257.856 66.9009 258.089 66.73 258.477C66.616 258.761 66.5591 259.707 66.5591 261.313V263.159L70.8999 263.091C71.0822 263.091 71.1733 263.182 71.1733 263.364V264.783ZM55.0918 258.254C55.0918 258.38 54.9893 258.534 54.7842 258.716C54.5449 258.91 54.2943 259.342 54.0322 260.015C53.417 261.37 52.8815 262.476 52.4258 263.33V276.694L52.4941 281.292C52.4941 281.474 52.403 281.565 52.2207 281.565H50.5972C50.4149 281.565 50.3237 281.474 50.3237 281.292L50.3921 276.694V271.841L50.4946 266.475C49.549 267.808 48.5122 269.072 47.3843 270.269C47.2134 270.474 47.071 270.576 46.957 270.576C46.8545 270.576 46.752 270.474 46.6494 270.269C46.3304 269.744 45.9658 269.357 45.5557 269.106C48.2786 266.326 50.4377 263.119 52.0327 259.485C52.3973 258.687 52.6479 257.884 52.7847 257.075C53.5594 257.303 54.1974 257.548 54.6987 257.81C54.9608 257.935 55.0918 258.083 55.0918 258.254ZM61.3467 272.251C61.3809 272.342 61.3979 272.41 61.3979 272.456C61.3979 272.559 61.2954 272.678 61.0903 272.815L60.2188 273.447C59.9909 273.607 59.8485 273.687 59.7915 273.687C59.7345 273.687 59.6662 273.63 59.5864 273.516C58.5838 271.59 57.4445 269.921 56.1685 268.508C56.0773 268.429 56.0317 268.366 56.0317 268.32C56.0317 268.263 56.1343 268.167 56.3394 268.03L57.2109 267.432C57.3477 267.329 57.4445 267.278 57.5015 267.278C57.5584 267.278 57.6268 267.318 57.7065 267.397C58.8687 268.594 60.082 270.212 61.3467 272.251Z" fill="#231816"/>
<path d="M16.5254 267.056C16.457 268.446 16.4229 269.528 16.4229 270.303C16.3431 273.105 16.1437 275.413 15.8247 277.224C15.3918 279.674 14.1556 280.898 12.1162 280.898C11.2959 280.898 10.5838 280.864 9.97998 280.796C9.62679 280.762 9.42171 280.71 9.36475 280.642C9.29639 280.574 9.23372 280.369 9.17676 280.027C9.1084 279.469 8.92041 278.956 8.61279 278.489C9.88883 278.717 10.994 278.831 11.9282 278.831C12.5776 278.831 13.0562 278.54 13.3638 277.959C13.5688 277.572 13.7454 276.928 13.8936 276.028C14.2012 274.148 14.355 271.693 14.355 268.662H8.37354C7.96338 271.237 7.27409 273.476 6.30566 275.378C5.46257 277.042 4.29476 278.688 2.80225 280.317C2.59717 280.545 2.44336 280.659 2.34082 280.659C2.24967 280.659 2.10156 280.517 1.89648 280.232C1.63444 279.902 1.24707 279.565 0.734375 279.224C3.09277 277.048 4.70492 274.644 5.5708 272.012C6.33415 269.688 6.76709 266.469 6.86963 262.356L2.87061 262.424C2.68831 262.424 2.59717 262.333 2.59717 262.151L2.66553 259.126V255.417L2.59717 252.41C2.59717 252.227 2.68831 252.136 2.87061 252.136L6.90381 252.205H12.0479L16.064 252.136C16.2576 252.136 16.3545 252.227 16.3545 252.41L16.2861 255.417V259.126L16.3545 262.151C16.3545 262.333 16.2576 262.424 16.064 262.424L12.0479 262.356H8.92041C8.85205 263.94 8.74951 265.421 8.61279 266.799H13.3638L16.1665 266.731C16.4058 266.731 16.5254 266.839 16.5254 267.056ZM14.2866 260.596V254.016H4.66504V260.596H14.2866ZM30.8125 251.436C30.8125 251.493 30.7271 251.715 30.5562 252.102C30.4422 252.421 30.3853 253.435 30.3853 255.144V272.319L30.4536 277.6C30.4536 278.967 30.1118 279.89 29.4282 280.369C28.9953 280.653 28.4598 280.836 27.8218 280.916C27.2065 280.995 26.147 281.035 24.6431 281.035C24.2899 281.035 24.0791 281.001 24.0107 280.933C23.9766 280.876 23.9025 280.665 23.7886 280.3C23.6405 279.731 23.3955 279.207 23.0537 278.728C24.0791 278.842 25.2127 278.899 26.4546 278.899C27.1951 278.899 27.6851 278.779 27.9243 278.54C28.1636 278.312 28.2832 277.874 28.2832 277.224V255.178C28.2832 253.389 28.1864 251.965 27.9927 250.906C28.87 250.94 29.6561 251.008 30.3511 251.111C30.6587 251.156 30.8125 251.265 30.8125 251.436ZM23.4126 253.965C23.4126 253.988 23.3556 254.17 23.2417 254.512C23.1506 254.888 23.105 256.101 23.105 258.152V267.637L23.1733 272.166C23.1733 272.348 23.0651 272.439 22.8486 272.439H21.2764C21.0941 272.439 21.0029 272.348 21.0029 272.166L21.0713 267.637V258.186C21.0713 255.964 20.9858 254.392 20.8149 253.469C21.453 253.492 22.1878 253.549 23.0195 253.64C23.2816 253.674 23.4126 253.783 23.4126 253.965Z" fill="#231816"/>
<defs>
<clipPath id="clip0_4678_7482">
<rect width="215.794" height="220" fill="white" transform="translate(6.60352)"/>
</clipPath>
</defs>
</svg>
