<svg width="32" height="32" viewBox="0 0 32 32" fill="none" xmlns="http://www.w3.org/2000/svg">
<path d="M0.115873 16.8269C0.355907 14.175 0.751301 13.6586 0.900656 13.4643C1.24404 13.0154 1.79345 12.7221 2.37487 12.4143C2.40775 12.3972 2.43614 12.3728 2.4578 12.343C2.47946 12.3133 2.4938 12.279 2.49968 12.2428C2.50557 12.2067 2.50284 12.1697 2.49171 12.1348C2.48058 12.0998 2.46135 12.0679 2.43555 12.0416C2.32788 11.9341 2.24512 11.8049 2.19299 11.663C2.14084 11.5211 2.12055 11.3697 2.1335 11.2193C2.15858 10.9526 2.28458 10.7049 2.48651 10.5254C2.68844 10.3458 2.95155 10.2475 3.22366 10.25H4.26382C4.3084 10.2503 4.35293 10.2531 4.39717 10.2585C4.42753 10.2456 4.45899 10.2352 4.49118 10.2277C5.10727 8.94603 5.95073 7.19122 7.69899 6.33481C10.292 5.06562 15.0687 5 16.0022 5C16.9357 5 21.7124 5.06562 24.3021 6.33284C26.0504 7.18925 26.8938 8.94406 27.5099 10.2257L27.5152 10.2362C27.546 10.2405 27.5761 10.248 27.6052 10.2585C27.6495 10.2531 27.694 10.2503 27.7386 10.25H28.7808C29.0529 10.2475 29.316 10.3458 29.5179 10.5254C29.7198 10.7049 29.8458 10.9526 29.8709 11.2193C29.8828 11.3693 29.8615 11.5201 29.8087 11.6614C29.7559 11.8026 29.6727 11.9309 29.5649 12.0376C29.5391 12.064 29.5198 12.0959 29.5087 12.1308C29.4976 12.1658 29.4949 12.2028 29.5007 12.2389C29.5066 12.275 29.521 12.3093 29.5426 12.3391C29.5643 12.3689 29.5927 12.3933 29.6255 12.4104C30.207 12.7201 30.759 13.0135 31.0998 13.4604C31.2491 13.6572 31.6438 14.1711 31.8845 16.823C32.0179 18.3153 32.0379 19.8601 31.9332 20.855C31.7139 22.9222 31.3025 24.1717 31.2851 24.2235C31.222 24.4122 31.1058 24.5794 30.95 24.7056C30.7942 24.8319 30.6052 24.9121 30.405 24.9369V24.95C30.405 25.2285 30.2926 25.4955 30.0925 25.6925C29.8925 25.8894 29.6211 26 29.3382 26H25.6043C25.3214 26 25.05 25.8894 24.8499 25.6925C24.6499 25.4955 24.5375 25.2285 24.5375 24.95C23.9634 24.95 23.564 24.8489 23.1406 24.7413C22.5293 24.5792 21.9045 24.4714 21.2737 24.4191C19.2394 24.2281 17.2164 24.1625 16.0022 24.1625C14.8127 24.1625 12.7004 24.2281 10.6628 24.4191C10.0294 24.4715 9.40214 24.5798 8.78848 24.7426C8.38309 24.845 7.99837 24.9395 7.46562 24.9493C7.46562 25.2278 7.35322 25.4949 7.15316 25.6918C6.95309 25.8887 6.68174 25.9993 6.3988 25.9993H2.66492C2.38198 25.9993 2.11062 25.8887 1.91055 25.6918C1.71049 25.4949 1.59809 25.2278 1.59809 24.9493V24.9415C1.39738 24.9171 1.20783 24.8372 1.05153 24.7109C0.895227 24.5846 0.778618 24.4172 0.715296 24.2281C0.69796 24.1763 0.286566 22.9268 0.0671997 20.8596C-0.0374832 19.8641 -0.0188141 18.3219 0.115873 16.8269ZM25.5816 11.1235C25.0482 10.0078 24.4381 8.74522 23.352 8.213C21.7824 7.44388 18.5292 7.09737 16.0022 7.09737C13.4752 7.09737 10.222 7.44125 8.65246 8.213C7.5663 8.74522 6.95888 10.0085 6.4228 11.1235L6.35612 11.2659C6.31713 11.3469 6.2999 11.4365 6.30606 11.526C6.31222 11.6155 6.34157 11.7019 6.39132 11.7771C6.44106 11.8522 6.50954 11.9136 6.59022 11.9553C6.6709 11.997 6.7611 12.0177 6.8522 12.0153C9.06786 11.9562 13.7352 11.7672 16.0022 11.7672C18.2692 11.7672 22.9366 11.9608 25.1556 12.0199C25.2467 12.0223 25.3368 12.0016 25.4175 11.9599C25.4982 11.9182 25.5667 11.8568 25.6164 11.7817C25.6662 11.7065 25.6955 11.6201 25.7017 11.5306C25.7079 11.4411 25.6906 11.3515 25.6516 11.2705C25.6283 11.2219 25.6036 11.1727 25.5816 11.1235ZM24.7862 16.3492C25.9331 16.4851 27.0874 16.5521 28.2427 16.55C28.9494 16.55 29.6782 16.3531 29.8136 15.7336C29.9063 15.3169 29.8963 15.0826 29.8462 14.847C29.8042 14.6469 29.7376 14.5012 29.4042 14.45C28.5374 14.3187 28.0526 14.4835 26.6338 14.8949C25.693 15.1673 25.0142 15.5302 24.6275 15.8176C24.4335 15.9594 24.5368 16.3295 24.7862 16.3492ZM10.0253 21.7304C10.9028 21.8289 12.6577 21.7928 15.9822 21.7928C19.3067 21.7928 21.061 21.8289 21.9384 21.7304C22.8439 21.6313 23.9981 20.7887 23.2099 20.038C22.6852 19.5432 21.461 19.173 19.8308 18.965C18.2005 18.757 17.5104 18.65 15.9889 18.65C14.4673 18.65 13.8472 18.7156 12.147 18.9657C10.4467 19.2157 9.16187 19.5904 8.76781 20.0386C8.04904 20.8419 9.12053 21.6261 10.0253 21.7344V21.7304ZM2.19084 15.733C2.3242 16.3551 3.05764 16.5493 3.76174 16.5493C4.9391 16.5496 6.11547 16.4826 7.28493 16.3485C7.48896 16.3295 7.58364 15.9771 7.37694 15.817C6.99622 15.5223 6.31012 15.1666 5.37065 14.8943C3.95177 14.4828 3.13365 14.3181 2.43088 14.4552C2.25952 14.4887 2.16884 14.6698 2.15817 14.7834C2.11115 15.0995 2.12221 15.4214 2.19084 15.7336V15.733Z" fill="black"/>
</svg>
