<svg width="32" height="32" viewBox="0 0 32 32" fill="none" xmlns="http://www.w3.org/2000/svg">
<path d="M4.06518 23.1951C4.2002 21.806 4.42261 21.5354 4.50662 21.4337C4.69977 21.1986 5.00882 21.0449 5.33587 20.8837C5.35436 20.8747 5.37033 20.8619 5.38251 20.8464C5.3947 20.8308 5.40276 20.8128 5.40607 20.7939C5.40938 20.7749 5.40784 20.7556 5.40158 20.7373C5.39532 20.719 5.38451 20.7022 5.37 20.6884C5.30943 20.6321 5.26288 20.5645 5.23355 20.4901C5.20423 20.4158 5.19281 20.3365 5.20009 20.2577C5.2142 20.118 5.28507 19.9883 5.39866 19.8942C5.51225 19.8002 5.66025 19.7487 5.81331 19.75H6.3984C6.42347 19.7501 6.44852 19.7516 6.47341 19.7545C6.49049 19.7477 6.50818 19.7423 6.52629 19.7383C6.87284 19.067 7.34729 18.1478 8.33068 17.6992C9.78927 17.0344 12.4762 17 13.0012 17C13.5263 17 16.2132 17.0344 17.6699 17.6982C18.6533 18.1467 19.1278 19.0659 19.4743 19.7373L19.4773 19.7428C19.4946 19.745 19.5116 19.7489 19.528 19.7545C19.5528 19.7516 19.5779 19.7501 19.603 19.75H20.1892C20.3422 19.7487 20.4902 19.8002 20.6038 19.8942C20.7174 19.9883 20.7883 20.118 20.8024 20.2577C20.8091 20.3363 20.7971 20.4153 20.7674 20.4893C20.7377 20.5633 20.6909 20.6305 20.6302 20.6864C20.6157 20.7002 20.6049 20.7169 20.5987 20.7352C20.5924 20.7535 20.5909 20.7729 20.5942 20.7918C20.5975 20.8107 20.6055 20.8287 20.6177 20.8443C20.6299 20.8599 20.6459 20.8727 20.6644 20.8816C20.9914 21.0439 21.302 21.1975 21.4936 21.4316C21.5776 21.5347 21.7997 21.8039 21.9351 23.193C22.0101 23.9747 22.0213 24.7839 21.9624 25.305C21.839 26.3878 21.6076 27.0423 21.5979 27.0695C21.5624 27.1683 21.497 27.2559 21.4094 27.322C21.3217 27.3881 21.2154 27.4301 21.1028 27.4431V27.45C21.1028 27.5959 21.0396 27.7358 20.927 27.8389C20.8145 27.9421 20.6619 28 20.5027 28H18.4024C18.2433 28 18.0906 27.9421 17.9781 27.8389C17.8655 27.7358 17.8023 27.5959 17.8023 27.45C17.4794 27.45 17.2547 27.3971 17.0166 27.3407C16.6727 27.2558 16.3213 27.1993 15.9664 27.1719C14.8221 27.0719 13.6842 27.0375 13.0012 27.0375C12.3321 27.0375 11.144 27.0719 9.9978 27.1719C9.64155 27.1993 9.2887 27.2561 8.94352 27.3414C8.71549 27.395 8.49908 27.4445 8.19941 27.4497C8.19941 27.5955 8.13619 27.7354 8.02365 27.8386C7.91111 27.9417 7.75848 27.9997 7.59932 27.9997H5.49901C5.33986 27.9997 5.18723 27.9417 5.07469 27.8386C4.96215 27.7354 4.89893 27.5955 4.89893 27.4497V27.4455C4.78603 27.4328 4.6794 27.3909 4.59148 27.3247C4.50356 27.2586 4.43797 27.1709 4.40235 27.0719C4.3926 27.0447 4.16119 26.3902 4.0378 25.3074C3.97892 24.7859 3.98942 23.9781 4.06518 23.1951ZM18.3897 20.2075C18.0896 19.6232 17.7464 18.9618 17.1355 18.683C16.2526 18.2801 14.4227 18.0986 13.0012 18.0986C11.5798 18.0986 9.74989 18.2788 8.86701 18.683C8.25604 18.9618 7.91437 19.6235 7.61282 20.2075L7.57532 20.2821C7.55339 20.3246 7.54369 20.3715 7.54716 20.4184C7.55062 20.4652 7.56713 20.5105 7.59512 20.5499C7.6231 20.5893 7.66162 20.6214 7.707 20.6432C7.75238 20.6651 7.80312 20.6759 7.85436 20.6747C9.10067 20.6437 11.7261 20.5447 13.0012 20.5447C14.2764 20.5447 16.9018 20.6462 18.15 20.6771C18.2012 20.6783 18.252 20.6675 18.2974 20.6457C18.3427 20.6238 18.3813 20.5917 18.4092 20.5523C18.4372 20.5129 18.4537 20.4677 18.4572 20.4208C18.4607 20.3739 18.451 20.327 18.429 20.2845C18.4159 20.2591 18.402 20.2333 18.3897 20.2075ZM17.9422 22.9448C18.5874 23.016 19.2367 23.0511 19.8865 23.05C20.2841 23.05 20.694 22.9469 20.7701 22.6224C20.8223 22.4041 20.8166 22.2814 20.7885 22.158C20.7649 22.0531 20.7274 21.9768 20.5399 21.95C20.0523 21.8812 19.7796 21.9675 18.9815 22.1831C18.4523 22.3257 18.0705 22.5158 17.853 22.6664C17.7438 22.7406 17.8019 22.9345 17.9422 22.9448ZM9.63925 25.7636C10.1328 25.8151 11.12 25.7962 12.99 25.7962C14.86 25.7962 15.8468 25.8151 16.3404 25.7636C16.8497 25.7117 17.4989 25.2703 17.0556 24.877C16.7604 24.6178 16.0718 24.424 15.1548 24.315C14.2378 24.206 13.8496 24.15 12.9937 24.15C12.1379 24.15 11.7891 24.1844 10.8327 24.3153C9.87628 24.4463 9.15355 24.6426 8.93189 24.8774C8.52759 25.2981 9.1303 25.7089 9.63925 25.7656V25.7636ZM5.23235 22.622C5.30736 22.9479 5.71992 23.0497 6.11598 23.0497C6.77824 23.0498 7.43995 23.0147 8.09777 22.9445C8.21254 22.9345 8.2658 22.7499 8.14953 22.666C7.93537 22.5117 7.54944 22.3254 7.02099 22.1827C6.22287 21.9672 5.76268 21.8809 5.36737 21.9528C5.27098 21.9703 5.21997 22.0652 5.21397 22.1246C5.18752 22.2902 5.19374 22.4588 5.23235 22.6224V22.622Z" fill="black"/>
<path d="M28.858 5.16275C24.666 0.94575 17.8669 0.94575 13.6749 5.16275C11.0107 7.84271 10.0427 11.5798 10.7642 15.0247C10.8699 15.5292 11.3646 15.8525 11.8691 15.7468C12.3736 15.6412 12.6969 15.1465 12.5913 14.642C11.9926 11.7838 12.7973 8.69326 14.9987 6.47879C18.4609 2.99597 24.072 2.99597 27.5342 6.47879C30.9994 9.96465 30.9994 15.6186 27.5342 19.1045L23.5 23.5C23.1366 23.8655 23.1384 24.4565 23.5039 24.8199C23.8695 25.1833 24.4604 25.1816 24.8238 24.816L28.858 20.4205C33.047 16.2065 33.047 9.37669 28.858 5.16275Z" fill="black"/>
<path fill-rule="evenodd" clip-rule="evenodd" d="M20.3335 14.5997H21.7335C23.5376 14.5997 25.0001 13.1372 25.0001 11.3331C25.0001 9.52894 23.5376 8.06641 21.7335 8.06641H19.4001C18.8847 8.06641 18.4668 8.48426 18.4668 8.99974V16.4664C18.4668 16.9819 18.8847 17.3997 19.4001 17.3997C19.9156 17.3997 20.3335 16.9819 20.3335 16.4664V14.5997ZM20.3335 9.93307V12.7331H21.7335C22.5067 12.7331 23.1335 12.1063 23.1335 11.3331C23.1335 10.5599 22.5067 9.93307 21.7335 9.93307H20.3335Z" fill="black"/>
</svg>
