<svg width="28" height="29" viewBox="0 0 28 29" fill="none" xmlns="http://www.w3.org/2000/svg">
<path d="M13.2677 24.3927C9.66774 24.1339 6.68285 22.7808 4.63613 20.4801C2.81071 18.4274 1.83721 15.737 1.89643 12.904C1.95565 10.064 3.04343 7.40315 4.96028 5.41242C7.10778 3.18159 10.1508 1.93579 13.7601 1.81082C16.7991 1.80393 19.6863 2.88736 21.8992 4.85742C22.2307 5.15264 22.7532 5.13689 23.0639 4.82298C23.3756 4.50907 23.3589 4.0141 23.0275 3.71987C20.5143 1.48116 17.2333 0.250122 13.784 0.250122H13.7425C9.648 0.390841 6.18935 1.81082 3.7416 4.35556C1.55774 6.62378 0.319317 9.65071 0.252824 12.8774C0.186332 16.0972 1.29592 19.1586 3.37693 21.4966C5.71144 24.1201 9.10151 25.6611 13.1825 25.9524H13.1981C13.2043 25.9524 13.2116 25.9524 13.2178 25.9524C13.4308 25.9524 13.6313 25.8766 13.7861 25.7369C13.9451 25.5932 14.0365 25.3984 14.0417 25.1908C14.0521 24.7686 13.7124 24.4183 13.2677 24.3927Z" fill="#65B0D4" stroke="#65B0D4" stroke-width="0.5"/>
<path d="M13.488 4.25103H13.4526C10.6653 4.34975 8.30933 5.3415 6.639 7.11849C5.1494 8.70348 4.30166 10.8174 4.25229 13.0726C4.20291 15.3242 4.9547 17.468 6.36977 19.1091C7.95719 20.9495 10.2638 22.0355 13.0418 22.2501H13.0548H13.0678C13.4759 22.2447 13.8029 21.9177 13.7963 21.521C13.7908 21.147 13.4852 20.8363 13.0977 20.8137C8.93256 20.6289 5.67388 17.3095 5.6804 13.2547C5.67295 10.149 7.53052 7.47715 10.5265 6.28071C13.515 5.0879 16.7588 5.71918 18.9964 7.93272C19.138 8.06586 19.3225 8.13741 19.5228 8.13469C19.7203 8.13107 19.9047 8.05409 20.0417 7.91551C20.3184 7.63746 20.3202 7.20091 20.0426 6.91652C18.3238 5.22104 15.9371 4.25012 13.4889 4.25012L13.488 4.25103Z" fill="#F5BB1E" stroke="#F5BB1E" stroke-width="0.5"/>
<path d="M27.0158 14.6694V14.6645C27.0075 14.4559 26.915 14.263 26.7529 14.1213C26.5919 13.9796 26.381 13.9048 26.1618 13.9127C25.715 13.9274 25.3659 14.2718 25.367 14.7009L25.6028 25.5018C25.6049 25.6868 25.5311 25.8619 25.395 25.9948C25.2589 26.1276 25.075 26.2014 24.8797 26.2044C24.8766 26.2044 24.8735 26.2044 24.8703 26.2044C24.6781 26.2044 24.4974 26.1345 24.3592 26.0076C24.2189 25.8787 24.141 25.7045 24.1379 25.5195C24.1379 25.5116 24.1379 25.5047 24.1379 25.4969L24.5888 18.7069C24.6678 17.9345 24.3239 17.2122 23.9914 16.5125C23.7182 15.9369 23.4595 15.3927 23.446 14.8603V14.8416C23.2195 12.3628 23.8169 9.65372 25.2194 6.78425L25.3306 12.1502C25.3389 12.3589 25.4324 12.5517 25.5935 12.6934C25.7545 12.8351 25.9664 12.9089 26.1846 12.9011C26.6303 12.8853 26.9794 12.5419 26.9784 12.1138L26.8599 6.42605C26.8329 5.61815 26.1431 4.98148 25.2911 4.97754C25.2859 4.97754 25.2807 4.97754 25.2755 4.97754C24.6927 4.97754 24.1504 5.29539 23.8896 5.79331C22.2366 9.02098 21.5343 12.106 21.8013 14.9626C21.8034 15.621 22.1057 16.2478 22.3977 16.853C22.6906 17.4621 22.968 18.0368 22.9431 18.6016L22.4912 25.4103C22.4382 26.3461 23.0117 27.2258 23.9259 27.6017C24.22 27.7149 24.5275 27.771 24.835 27.771C25.1425 27.771 25.4719 27.711 25.7742 27.5899C26.3685 27.3518 26.8298 26.9099 27.0729 26.3431C27.1913 26.0666 27.2516 25.7753 27.2506 25.4713L27.0147 14.6694H27.0158Z" fill="#65B0D4" stroke="#65B0D4" stroke-width="0.2"/>
<path d="M20.0455 9.31116C19.5905 9.31116 19.2217 9.66149 19.2217 10.0915V14.7549L18.2128 16.721C17.9157 17.1727 17.7786 17.711 17.8284 18.2414L18.2523 25.8372V25.849C18.2731 26.0537 18.2076 26.2545 18.0684 26.4119C17.9292 26.5694 17.7339 26.6678 17.5178 26.6865C17.07 26.7248 16.6742 26.4119 16.6336 25.9888C16.6295 25.9425 16.6295 25.8953 16.6336 25.849L17.0586 18.2414C17.1074 17.711 16.9713 17.1727 16.6742 16.721L15.683 14.7854L15.6653 14.7549V10.0915C15.6653 9.6605 15.2955 9.31116 14.8415 9.31116C14.3874 9.31116 14.0176 9.66149 14.0176 10.0915V14.7549C14.0176 15.0472 14.1028 15.3316 14.2659 15.5795L15.257 17.5142L15.2737 17.5427C15.3848 17.709 15.4357 17.9088 15.417 18.1046L14.9921 25.7113C14.8716 26.9895 15.87 28.1232 17.2196 28.2403C17.2954 28.2472 17.3713 28.2501 17.4461 28.2501C18.7032 28.2501 19.7785 27.3399 19.8959 26.1315C19.9094 25.9917 19.9094 25.851 19.8959 25.7113L19.472 18.1154V18.1046C19.4523 17.9088 19.5042 17.709 19.6154 17.5427L20.6242 15.5776C20.7863 15.3296 20.8725 15.0452 20.8725 14.7539V10.0905C20.8725 9.65952 20.5027 9.31018 20.0487 9.31018L20.0455 9.31116Z" fill="#65B0D4" stroke="#65B0D4" stroke-width="0.2"/>
<path d="M17.445 13.397H17.4564C17.9052 13.3921 18.2616 13.1155 18.2699 12.7672V12.7642V9.94888C18.2626 9.59364 17.9011 9.31909 17.446 9.31909H17.4346C16.9858 9.32401 16.6284 9.60053 16.6211 9.95577V12.7682C16.6294 13.1234 16.9899 13.398 17.445 13.398V13.397Z" fill="#65B0D4" stroke="#65B0D4" stroke-width="0.2"/>
</svg>
