<svg width="38" height="16" viewBox="0 0 38 16" fill="none" xmlns="http://www.w3.org/2000/svg">
<path d="M35.4976 12.197L30.0377 7.44012C29.1967 6.71527 28.1275 6.31702 27.022 6.3169C25.9165 6.31678 24.8472 6.71479 24.0061 7.43945L18.5461 12.1969C18.4805 12.2542 18.4043 12.2978 18.3219 12.3254C18.2396 12.3529 18.1526 12.3637 18.0661 12.3573C17.9796 12.3509 17.8952 12.3273 17.8177 12.288C17.7402 12.2486 17.6711 12.1942 17.6144 12.1278C17.5577 12.0615 17.5146 11.9845 17.4873 11.9013C17.4601 11.8181 17.4493 11.7303 17.4557 11.6429C17.462 11.5555 17.4854 11.4703 17.5243 11.392C17.5633 11.3137 17.6172 11.2439 17.6828 11.1866L23.1428 6.42851C23.7041 5.9412 24.3516 5.56571 25.0513 5.32189L23.206 3.71375C21.6085 2.33792 19.578 1.58215 17.4787 1.58203C15.3795 1.58191 13.3489 2.33744 11.7512 3.71308L2.00377 12.21C1.9381 12.2673 1.86191 12.3109 1.77955 12.3384C1.69719 12.366 1.61027 12.3768 1.52375 12.3704C1.43723 12.364 1.35281 12.3404 1.27531 12.301C1.19781 12.2617 1.12874 12.2073 1.07206 12.1409C1.01537 12.0746 0.972178 11.9976 0.944937 11.9144C0.917696 11.8312 0.906943 11.7434 0.913294 11.656C0.919645 11.5686 0.942973 11.4833 0.981949 11.4051C1.02093 11.3268 1.07479 11.257 1.14045 11.1997L10.8886 2.70222C12.7268 1.11929 15.0633 0.249878 17.4787 0.25C19.8942 0.250122 22.2306 1.11977 24.0687 2.70289L26.7024 4.99823C28.2323 4.90981 29.7368 5.42258 30.901 6.42922L36.3609 11.1867C36.4266 11.244 36.4804 11.3137 36.5194 11.392C36.5584 11.4703 36.5817 11.5556 36.5881 11.643C36.5944 11.7304 36.5837 11.8182 36.5564 11.9014C36.5292 11.9846 36.486 12.0616 36.4293 12.1279C36.3726 12.1942 36.3036 12.2486 36.2261 12.288C36.1486 12.3274 36.0641 12.3509 35.9776 12.3574C35.8911 12.3638 35.8042 12.3529 35.7218 12.3254C35.6395 12.2979 35.5633 12.2542 35.4976 12.197Z" fill="white" stroke="white" stroke-width="0.5"/>
<path d="M0.910717 13.9152H36.5893C36.7645 13.9152 36.9326 13.9855 37.0565 14.1107C37.1804 14.2358 37.25 14.4056 37.25 14.5826C37.25 14.7596 37.1804 14.9294 37.0565 15.0546C36.9326 15.1797 36.7645 15.25 36.5893 15.25H0.910717C0.735481 15.25 0.567429 15.1797 0.44352 15.0546C0.319611 14.9294 0.25 14.7596 0.25 14.5826C0.25 14.4056 0.319611 14.2358 0.44352 14.1107C0.567429 13.9855 0.735481 13.9152 0.910717 13.9152Z" fill="#F5BB1E" stroke="#F5BB1E" stroke-width="0.5"/>
<path d="M25.1768 10.4467C25.0011 10.4475 24.8328 10.5181 24.709 10.6439C24.5851 10.77 24.5152 10.9409 24.5156 11.1185C24.5161 11.2961 24.5865 11.4667 24.7109 11.5922C24.8354 11.7174 25.004 11.7874 25.1797 11.7875C25.3553 11.7875 25.524 11.7174 25.6484 11.5922C25.7729 11.4667 25.8433 11.2961 25.8438 11.1185C25.8442 10.9409 25.7752 10.77 25.6514 10.6439C25.5275 10.5179 25.3584 10.4475 25.1826 10.4467H25.1768ZM7.99707 9.11169C7.82126 9.11256 7.65316 9.1839 7.5293 9.30994C7.40548 9.43595 7.33553 9.60602 7.33594 9.78357C7.33636 9.96117 7.40678 10.1318 7.53125 10.2572C7.65567 10.3825 7.82432 10.4525 8 10.4525C8.17566 10.4525 8.34431 10.3824 8.46875 10.2572C8.59322 10.1318 8.66364 9.96117 8.66406 9.78357C8.66447 9.60619 8.59527 9.43591 8.47168 9.30994C8.34782 9.1839 8.17874 9.11256 8.00293 9.11169H7.99707ZM12.6211 9.11169C12.4459 9.11173 12.2782 9.18189 12.1543 9.30701C12.0304 9.43216 11.961 9.6017 11.9609 9.77869C11.9609 9.95568 12.0304 10.1252 12.1543 10.2504C12.2782 10.3755 12.4459 10.4466 12.6211 10.4467C12.7962 10.4475 12.9644 10.3776 13.0889 10.2533C13.2134 10.1287 13.2843 9.95863 13.2852 9.78162C13.2859 9.60475 13.217 9.43464 13.0938 9.30896C12.9705 9.18335 12.803 9.11263 12.6279 9.11169H12.6211ZM28.4795 8.44373C28.3038 8.44459 28.1356 8.51607 28.0117 8.64197C27.8879 8.76801 27.8179 8.93898 27.8184 9.11658C27.8189 9.29401 27.8893 9.4639 28.0137 9.58923C28.1381 9.71463 28.3067 9.78549 28.4824 9.78552C28.6582 9.78552 28.8267 9.71464 28.9512 9.58923C29.0756 9.46389 29.146 9.29405 29.1465 9.11658C29.1469 8.93904 29.0779 8.76799 28.9541 8.64197C28.8302 8.51593 28.6612 8.44459 28.4854 8.44373H28.4795ZM17.2471 7.10876C17.0714 7.10963 16.9031 7.18113 16.7793 7.30701C16.6554 7.43305 16.5855 7.60402 16.5859 7.78162C16.5864 7.95906 16.6569 8.12892 16.7812 8.25427C16.9057 8.37967 17.0742 8.45053 17.25 8.45056C17.4258 8.45056 17.5943 8.3797 17.7188 8.25427C17.8432 8.12891 17.9136 7.95911 17.9141 7.78162C17.9145 7.60407 17.8455 7.43304 17.7217 7.30701C17.5978 7.18097 17.4287 7.10963 17.2529 7.10876H17.2471ZM13.9443 5.10681C13.7686 5.10767 13.6004 5.17906 13.4766 5.30505C13.3528 5.43102 13.2829 5.6012 13.2832 5.77869C13.2836 5.95629 13.354 6.12689 13.4785 6.25232C13.6029 6.37767 13.7715 6.4476 13.9473 6.44763C14.123 6.44763 14.2916 6.37763 14.416 6.25232C14.5405 6.12689 14.6109 5.95629 14.6113 5.77869C14.6117 5.60134 14.5426 5.43099 14.4189 5.30505C14.2951 5.17901 14.126 5.10767 13.9502 5.10681H13.9443ZM19.1299 3.75525C18.9541 3.75611 18.786 3.82745 18.6621 3.95349C18.5383 4.07951 18.4683 4.24957 18.4688 4.42712C18.4692 4.60473 18.5396 4.77533 18.6641 4.90076C18.7885 5.02603 18.9571 5.09604 19.1328 5.09607C19.3085 5.09607 19.4771 5.02599 19.6016 4.90076C19.726 4.77533 19.7964 4.60473 19.7969 4.42712C19.7973 4.24974 19.7281 4.07948 19.6045 3.95349C19.4806 3.82745 19.3116 3.75611 19.1357 3.75525H19.1299Z" fill="#F5BB1E"/>
<path d="M25.1768 10.4467L25.1748 10.0467H25.1768V10.4467ZM24.709 10.6439L24.4237 10.3636L24.4239 10.3633L24.709 10.6439ZM24.5156 11.1185L24.1156 11.1195V11.1195L24.5156 11.1185ZM24.7109 11.5922L24.4271 11.8741L24.427 11.8739L24.7109 11.5922ZM25.1797 11.7875V12.1875H25.1796L25.1797 11.7875ZM25.6484 11.5922L25.9324 11.8739L25.9322 11.8741L25.6484 11.5922ZM25.8438 11.1185L26.2437 11.1195V11.1195L25.8438 11.1185ZM25.6514 10.6439L25.9366 10.3635L25.9367 10.3636L25.6514 10.6439ZM25.1826 10.4467V10.0467L25.1846 10.0467L25.1826 10.4467ZM7.99707 9.11169L7.99511 8.71169H7.99707V9.11169ZM7.5293 9.30994L7.24398 9.02959L7.244 9.02957L7.5293 9.30994ZM7.33594 9.78357L6.93594 9.78453V9.78448L7.33594 9.78357ZM7.53125 10.2572L7.24743 10.5391L7.24732 10.539L7.53125 10.2572ZM8 10.4525V10.8525H7.99993L8 10.4525ZM8.46875 10.2572L8.75268 10.539L8.7525 10.5391L8.46875 10.2572ZM8.66406 9.78357L9.06406 9.78448V9.78453L8.66406 9.78357ZM8.47168 9.30994L8.75698 9.02957L8.75722 9.02981L8.47168 9.30994ZM8.00293 9.11169V8.71169L8.00489 8.7117L8.00293 9.11169ZM12.6211 9.11169L12.621 8.71169H12.6211V9.11169ZM12.1543 9.30701L11.87 9.0256L11.8701 9.02557L12.1543 9.30701ZM11.9609 9.77869H11.5609V9.77864L11.9609 9.77869ZM12.1543 10.2504L11.87 10.5318L11.87 10.5317L12.1543 10.2504ZM12.6211 10.4467L12.6212 10.0467L12.6231 10.0467L12.6211 10.4467ZM13.0889 10.2533L13.3718 10.5361L13.3715 10.5363L13.0889 10.2533ZM13.2852 9.78162L13.6852 9.7833L13.6852 9.78355L13.2852 9.78162ZM13.0938 9.30896L13.3793 9.02885L13.3794 9.02894L13.0938 9.30896ZM12.6279 9.11169V8.71169L12.6301 8.7117L12.6279 9.11169ZM28.4795 8.44373L28.4775 8.04373H28.4795V8.44373ZM28.0117 8.64197L27.7264 8.3616L27.7266 8.36146L28.0117 8.64197ZM27.8184 9.11658L27.4184 9.11775L27.4184 9.11754L27.8184 9.11658ZM28.0137 9.58923L27.7297 9.87098L27.7297 9.87094L28.0137 9.58923ZM28.4824 9.78552V10.1855H28.4824L28.4824 9.78552ZM28.9512 9.58923L29.2351 9.87098L29.2351 9.87101L28.9512 9.58923ZM29.1465 9.11658L29.5465 9.11754L29.5465 9.11775L29.1465 9.11658ZM28.9541 8.64197L29.2394 8.3616L29.2395 8.36168L28.9541 8.64197ZM28.4854 8.44373V8.04372L28.4873 8.04373L28.4854 8.44373ZM17.2471 7.10876L17.2451 6.70876H17.2471V7.10876ZM16.7793 7.30701L16.494 7.02664L16.4942 7.02648L16.7793 7.30701ZM16.5859 7.78162L16.1859 7.78275V7.78258L16.5859 7.78162ZM16.7812 8.25427L16.4973 8.53602L16.4973 8.53596L16.7812 8.25427ZM17.25 8.45056V8.85056H17.2499L17.25 8.45056ZM17.7188 8.25427L18.0027 8.53602L18.0027 8.53603L17.7188 8.25427ZM17.9141 7.78162L18.3141 7.78258V7.78275L17.9141 7.78162ZM17.7217 7.30701L18.007 7.02664L18.007 7.0267L17.7217 7.30701ZM17.2529 7.10876V6.70876L17.2549 6.70877L17.2529 7.10876ZM13.9443 5.10681L13.9424 4.70681H13.9443V5.10681ZM13.4766 5.30505L13.1913 5.02468L13.1913 5.02464L13.4766 5.30505ZM13.2832 5.77869L12.8832 5.77965V5.77946L13.2832 5.77869ZM13.4785 6.25232L13.1946 6.53412L13.1946 6.53407L13.4785 6.25232ZM13.9473 6.44763V6.84763H13.9472L13.9473 6.44763ZM14.416 6.25232L14.6999 6.53407L14.6998 6.53419L14.416 6.25232ZM14.6113 5.77869L15.0113 5.77946L15.0113 5.77965L14.6113 5.77869ZM14.4189 5.30505L14.7042 5.02468L14.7044 5.02486L14.4189 5.30505ZM13.9502 5.10681V4.70681L13.9522 4.70682L13.9502 5.10681ZM19.1299 3.75525L19.1279 3.35525H19.1299V3.75525ZM18.6621 3.95349L18.3768 3.67315L18.3768 3.67312L18.6621 3.95349ZM18.4688 4.42712L18.0688 4.42809V4.42805L18.4688 4.42712ZM18.6641 4.90076L18.3803 5.18263L18.3801 5.18251L18.6641 4.90076ZM19.1328 5.09607V5.49607H19.1327L19.1328 5.09607ZM19.6016 4.90076L19.8855 5.18251L19.8853 5.1827L19.6016 4.90076ZM19.7969 4.42712L20.1969 4.42805V4.42809L19.7969 4.42712ZM19.6045 3.95349L19.8898 3.67312L19.89 3.67338L19.6045 3.95349ZM19.1357 3.75525V3.35524L19.1377 3.35525L19.1357 3.75525ZM25.1768 10.4467L25.1787 10.8467C25.1093 10.847 25.043 10.8748 24.994 10.9245L24.709 10.6439L24.4239 10.3633C24.6227 10.1614 24.893 10.048 25.1748 10.0467L25.1768 10.4467ZM24.709 10.6439L24.9943 10.9243C24.9441 10.9753 24.9155 11.0452 24.9156 11.1176L24.5156 11.1185L24.1156 11.1195C24.115 10.8366 24.2261 10.5646 24.4237 10.3636L24.709 10.6439ZM24.5156 11.1185L24.9156 11.1176C24.9158 11.1904 24.9448 11.26 24.9949 11.3104L24.7109 11.5922L24.427 11.8739C24.2281 11.6735 24.1163 11.4019 24.1156 11.1195L24.5156 11.1185ZM24.7109 11.5922L24.9947 11.3103C25.0441 11.3599 25.1106 11.3875 25.1798 11.3875L25.1797 11.7875L25.1796 12.1875C24.8974 12.1874 24.6266 12.0749 24.4271 11.8741L24.7109 11.5922ZM25.1797 11.7875V11.3875C25.2486 11.3875 25.3152 11.36 25.3647 11.3102L25.6484 11.5922L25.9322 11.8741C25.7328 12.0748 25.462 12.1875 25.1797 12.1875V11.7875ZM25.6484 11.5922L25.3645 11.3104C25.4146 11.26 25.4436 11.1904 25.4438 11.1176L25.8438 11.1185L26.2437 11.1195C26.2431 11.4019 26.1313 11.6735 25.9324 11.8739L25.6484 11.5922ZM25.8438 11.1185L25.4438 11.1176C25.4439 11.0437 25.4152 10.9743 25.3661 10.9243L25.6514 10.6439L25.9367 10.3636C26.1353 10.5657 26.2444 10.8381 26.2437 11.1195L25.8438 11.1185ZM25.6514 10.6439L25.3661 10.9243C25.3178 10.8752 25.2511 10.847 25.1807 10.8467L25.1826 10.4467L25.1846 10.0467C25.4657 10.048 25.7372 10.1606 25.9366 10.3635L25.6514 10.6439ZM25.1826 10.4467V10.8467H25.1768V10.4467V10.0467H25.1826V10.4467ZM7.99707 9.11169L7.99903 9.51169C7.93069 9.51202 7.86433 9.5397 7.81459 9.59031L7.5293 9.30994L7.244 9.02957C7.44199 8.8281 7.71183 8.71309 7.99511 8.7117L7.99707 9.11169ZM7.5293 9.30994L7.81462 9.59028C7.76407 9.64173 7.73577 9.71094 7.73594 9.78266L7.33594 9.78357L6.93594 9.78448C6.93529 9.5011 7.04689 9.23017 7.24398 9.02959L7.5293 9.30994ZM7.33594 9.78357L7.73594 9.78261C7.73611 9.85543 7.76514 9.92502 7.81518 9.97545L7.53125 10.2572L7.24732 10.539C7.04843 10.3385 6.93662 10.0669 6.93594 9.78453L7.33594 9.78357ZM7.53125 10.2572L7.81507 9.97534C7.86438 10.025 7.93089 10.0525 8.00007 10.0525L8 10.4525L7.99993 10.8525C7.71776 10.8525 7.44696 10.74 7.24743 10.5391L7.53125 10.2572ZM8 10.4525V10.0525C8.069 10.0525 8.13556 10.025 8.185 9.97527L8.46875 10.2572L8.7525 10.5391C8.55307 10.7398 8.28233 10.8525 8 10.8525V10.4525ZM8.46875 10.2572L8.18482 9.97545C8.23486 9.92502 8.26389 9.85543 8.26406 9.78261L8.66406 9.78357L9.06406 9.78453C9.06338 10.0669 8.95157 10.3385 8.75268 10.539L8.46875 10.2572ZM8.66406 9.78357L8.26406 9.78266C8.26423 9.70984 8.23578 9.64066 8.18614 9.59006L8.47168 9.30994L8.75722 9.02981C8.95476 9.23117 9.0647 9.50255 9.06406 9.78448L8.66406 9.78357ZM8.47168 9.30994L8.18638 9.59031C8.1371 9.54015 8.06994 9.51203 8.00097 9.51169L8.00293 9.11169L8.00489 8.7117C8.28753 8.71309 8.55854 8.82764 8.75698 9.02957L8.47168 9.30994ZM8.00293 9.11169V9.51169H7.99707V9.11169V8.71169H8.00293V9.11169ZM12.6211 9.11169L12.6212 9.51169C12.5533 9.51171 12.4877 9.53878 12.4385 9.58844L12.1543 9.30701L11.8701 9.02557C12.0686 8.825 12.3385 8.71174 12.621 8.71169L12.6211 9.11169ZM12.1543 9.30701L12.4386 9.58841C12.3893 9.63817 12.3609 9.70639 12.3609 9.77874L11.9609 9.77869L11.5609 9.77864C11.561 9.49701 11.6715 9.22615 11.87 9.0256L12.1543 9.30701ZM11.9609 9.77869H12.3609C12.3609 9.85095 12.3893 9.91916 12.4386 9.96898L12.1543 10.2504L11.87 10.5317C11.6715 10.3312 11.5609 10.0604 11.5609 9.77869H11.9609ZM12.1543 10.2504L12.4386 9.96896C12.4888 10.0197 12.5548 10.0466 12.6212 10.0467L12.6211 10.4467L12.621 10.8467C12.337 10.8466 12.0676 10.7313 11.87 10.5318L12.1543 10.2504ZM12.6211 10.4467L12.6231 10.0467C12.69 10.047 12.7562 10.0202 12.8062 9.97028L13.0889 10.2533L13.3715 10.5363C13.1726 10.735 12.9023 10.848 12.6191 10.8467L12.6211 10.4467ZM13.0889 10.2533L12.806 9.97051C12.8558 9.92069 12.8848 9.8516 12.8852 9.77968L13.2852 9.78162L13.6852 9.78355C13.6838 10.0657 13.571 10.3368 13.3718 10.5361L13.0889 10.2533ZM13.2852 9.78162L12.8852 9.77993C12.8855 9.70791 12.8573 9.63915 12.8081 9.58898L13.0938 9.30896L13.3794 9.02894C13.5766 9.23013 13.6863 9.50158 13.6852 9.7833L13.2852 9.78162ZM13.0938 9.30896L12.8082 9.58907C12.7596 9.53957 12.6941 9.51205 12.6258 9.51169L12.6279 9.11169L12.6301 8.7117C12.9119 8.71321 13.1814 8.82712 13.3793 9.02885L13.0938 9.30896ZM12.6279 9.11169V9.51169H12.6211V9.11169V8.71169H12.6279V9.11169ZM28.4795 8.44373L28.4815 8.84372C28.4134 8.84405 28.3467 8.87178 28.2969 8.92247L28.0117 8.64197L27.7266 8.36146C27.9244 8.16037 28.1942 8.04512 28.4775 8.04373L28.4795 8.44373ZM28.0117 8.64197L28.297 8.92234C28.2469 8.97337 28.2182 9.04328 28.2184 9.11562L27.8184 9.11658L27.4184 9.11754C27.4177 8.83467 27.5289 8.56264 27.7264 8.3616L28.0117 8.64197ZM27.8184 9.11658L28.2184 9.1154C28.2186 9.1877 28.2473 9.25681 28.2976 9.30753L28.0137 9.58923L27.7297 9.87094C27.5313 9.67098 27.4192 9.40033 27.4184 9.11775L27.8184 9.11658ZM28.0137 9.58923L28.2976 9.30748C28.3479 9.35813 28.4146 9.38551 28.4825 9.38552L28.4824 9.78552L28.4824 10.1855C28.1987 10.1855 27.9284 10.0711 27.7297 9.87098L28.0137 9.58923ZM28.4824 9.78552V9.38552C28.5502 9.38552 28.6169 9.35819 28.6673 9.30746L28.9512 9.58923L29.2351 9.87101C29.0365 10.0711 28.7662 10.1855 28.4824 10.1855V9.78552ZM28.9512 9.58923L28.6672 9.30748C28.7175 9.25681 28.7463 9.18778 28.7465 9.1154L29.1465 9.11658L29.5465 9.11775C29.5457 9.40031 29.4336 9.67097 29.2351 9.87098L28.9512 9.58923ZM29.1465 9.11658L28.7465 9.11562C28.7467 9.04193 28.7179 8.9723 28.6687 8.92225L28.9541 8.64197L29.2395 8.36168C29.4379 8.56368 29.5472 8.83616 29.5465 9.11754L29.1465 9.11658ZM28.9541 8.64197L28.6688 8.92234C28.6195 8.87218 28.5524 8.84406 28.4834 8.84372L28.4854 8.44373L28.4873 8.04373C28.77 8.04512 29.041 8.15968 29.2394 8.3616L28.9541 8.64197ZM28.4854 8.44373V8.84373H28.4795V8.44373V8.04373H28.4854V8.44373ZM17.2471 7.10876L17.249 7.50876C17.181 7.50909 17.1143 7.53682 17.0644 7.58754L16.7793 7.30701L16.4942 7.02648C16.6919 6.82544 16.9618 6.71016 17.2451 6.70877L17.2471 7.10876ZM16.7793 7.30701L17.0646 7.58738C17.0144 7.63841 16.9858 7.70832 16.9859 7.78065L16.5859 7.78162L16.1859 7.78258C16.1853 7.49971 16.2964 7.22768 16.494 7.02664L16.7793 7.30701ZM16.5859 7.78162L16.9859 7.78049C16.9861 7.8527 17.0149 7.92181 17.0652 7.97259L16.7812 8.25427L16.4973 8.53596C16.299 8.33603 16.1867 8.06542 16.1859 7.78275L16.5859 7.78162ZM16.7812 8.25427L17.0652 7.97252C17.1154 8.02317 17.1822 8.05055 17.2501 8.05056L17.25 8.45056L17.2499 8.85056C16.9663 8.85051 16.6959 8.73618 16.4973 8.53602L16.7812 8.25427ZM17.25 8.45056V8.05056C17.3178 8.05056 17.3845 8.02324 17.4348 7.97252L17.7188 8.25427L18.0027 8.53603C17.8041 8.73616 17.5338 8.85056 17.25 8.85056V8.45056ZM17.7188 8.25427L17.4348 7.97252C17.4851 7.92181 17.5139 7.85282 17.5141 7.78049L17.9141 7.78162L18.3141 7.78275C18.3133 8.0654 18.2012 8.33601 18.0027 8.53602L17.7188 8.25427ZM17.9141 7.78162L17.5141 7.78065C17.5142 7.70693 17.4855 7.63734 17.4363 7.58731L17.7217 7.30701L18.007 7.0267C18.2055 7.22873 18.3147 7.5012 18.3141 7.78258L17.9141 7.78162ZM17.7217 7.30701L17.4364 7.58738C17.3871 7.53722 17.3199 7.5091 17.251 7.50876L17.2529 7.10876L17.2549 6.70877C17.5375 6.71016 17.8085 6.82471 18.007 7.02664L17.7217 7.30701ZM17.2529 7.10876V7.50876H17.2471V7.10876V6.70876H17.2529V7.10876ZM13.9443 5.10681L13.9463 5.50681C13.878 5.50714 13.8116 5.53483 13.7618 5.58547L13.4766 5.30505L13.1913 5.02464C13.3892 4.82329 13.6591 4.70821 13.9424 4.70682L13.9443 5.10681ZM13.4766 5.30505L13.7619 5.58542C13.7114 5.63672 13.6831 5.70604 13.6832 5.77791L13.2832 5.77869L12.8832 5.77946C12.8827 5.49637 12.9941 5.22531 13.1913 5.02468L13.4766 5.30505ZM13.2832 5.77869L13.6832 5.77772C13.6834 5.85054 13.7124 5.92014 13.7624 5.97057L13.4785 6.25232L13.1946 6.53407C12.9957 6.33364 12.8839 6.06203 12.8832 5.77965L13.2832 5.77869ZM13.4785 6.25232L13.7624 5.97052C13.8116 6.02013 13.878 6.04762 13.9473 6.04763L13.9473 6.44763L13.9472 6.84763C13.665 6.84758 13.3943 6.73522 13.1946 6.53412L13.4785 6.25232ZM13.9473 6.44763V6.04763C14.0164 6.04763 14.0828 6.02017 14.1322 5.97045L14.416 6.25232L14.6998 6.53419C14.5003 6.73509 14.2296 6.84763 13.9473 6.84763V6.44763ZM14.416 6.25232L14.1321 5.97057C14.1821 5.92014 14.2112 5.85054 14.2113 5.77772L14.6113 5.77869L15.0113 5.77965C15.0106 6.06203 14.8988 6.33364 14.6999 6.53407L14.416 6.25232ZM14.6113 5.77869L14.2113 5.77791C14.2115 5.70485 14.183 5.63565 14.1335 5.58525L14.4189 5.30505L14.7044 5.02486C14.9022 5.22633 15.0119 5.49783 15.0113 5.77946L14.6113 5.77869ZM14.4189 5.30505L14.1337 5.58542C14.0844 5.53527 14.0172 5.50715 13.9482 5.50681L13.9502 5.10681L13.9522 4.70682C14.2348 4.7082 14.5058 4.82276 14.7042 5.02468L14.4189 5.30505ZM13.9502 5.10681V5.50681H13.9443V5.10681V4.70681H13.9502V5.10681ZM19.1299 3.75525L19.1318 4.15524C19.0635 4.15558 18.9971 4.18325 18.9474 4.23386L18.6621 3.95349L18.3768 3.67312C18.5748 3.47165 18.8446 3.35664 19.1279 3.35525L19.1299 3.75525ZM18.6621 3.95349L18.9474 4.23383C18.8969 4.2853 18.8686 4.3545 18.8687 4.4262L18.4688 4.42712L18.0688 4.42805C18.0681 4.14464 18.1797 3.87372 18.3768 3.67315L18.6621 3.95349ZM18.4688 4.42712L18.8687 4.42616C18.8689 4.49898 18.8979 4.56857 18.948 4.61901L18.6641 4.90076L18.3801 5.18251C18.1812 4.98208 18.0694 4.71047 18.0688 4.42809L18.4688 4.42712ZM18.6641 4.90076L18.9479 4.61888C18.9972 4.66854 19.0637 4.69606 19.1329 4.69607L19.1328 5.09607L19.1327 5.49607C18.8506 5.49602 18.5798 5.38351 18.3803 5.18263L18.6641 4.90076ZM19.1328 5.09607V4.69607C19.2018 4.69607 19.2684 4.66858 19.3178 4.61881L19.6016 4.90076L19.8853 5.1827C19.6859 5.38339 19.4151 5.49607 19.1328 5.49607V5.09607ZM19.6016 4.90076L19.3176 4.61901C19.3677 4.56857 19.3967 4.49898 19.3969 4.42616L19.7969 4.42712L20.1969 4.42809C20.1962 4.71047 20.0844 4.98208 19.8855 5.18251L19.6016 4.90076ZM19.7969 4.42712L19.3969 4.4262C19.397 4.35341 19.3686 4.28423 19.3189 4.2336L19.6045 3.95349L19.89 3.67338C20.0875 3.87472 20.1975 4.14608 20.1969 4.42805L19.7969 4.42712ZM19.6045 3.95349L19.3192 4.23386C19.2699 4.18371 19.2028 4.15558 19.1338 4.15524L19.1357 3.75525L19.1377 3.35525C19.4203 3.35664 19.6913 3.4712 19.8898 3.67312L19.6045 3.95349ZM19.1357 3.75525V4.15525H19.1299V3.75525V3.35525H19.1357V3.75525Z" fill="#F5BB1E"/>
</svg>
