<svg width="28" height="26" viewBox="0 0 28 26" fill="none" xmlns="http://www.w3.org/2000/svg">
<path d="M16.6374 25.3249C16.5789 25.3249 16.5187 25.3156 16.4596 25.2967C16.1655 25.2021 16.0058 24.8944 16.1043 24.609L17.9695 19.2021C18.2748 18.314 19.1331 17.7161 20.1035 17.7161H21.6997V16.0857C21.6997 15.7852 21.9512 15.5424 22.2623 15.5424C22.5733 15.5424 22.8248 15.7852 22.8248 16.0857V18.2597C22.8248 18.5602 22.5733 18.8032 22.2623 18.8032H20.1035C19.6186 18.8032 19.1894 19.1016 19.0369 19.5456L17.1713 24.9532C17.0924 25.1808 16.873 25.3249 16.6374 25.3249Z" fill="white" stroke="white" stroke-width="0.65"/>
<path d="M22.2623 16.6293C22.1448 16.6293 22.0266 16.5941 21.9255 16.5206C21.6768 16.3407 21.6262 16 21.8128 15.7604L23.5002 13.5864C23.6865 13.3462 24.0391 13.2978 24.2873 13.4777C24.5359 13.6576 24.5864 13.9984 24.3998 14.238L22.7123 16.412C22.6025 16.5543 22.4338 16.6293 22.2623 16.6293Z" fill="white" stroke="white" stroke-width="0.65"/>
<path d="M13.2627 16.7161H14.3878V25.3249H13.2627V16.7161Z" fill="white" stroke="white" stroke-width="0.65" stroke-linejoin="round"/>
<path d="M5.3877 15.5422H22.2622V16.6291H5.3877V15.5422Z" fill="white" stroke="white" stroke-width="0.65" stroke-linejoin="round"/>
<path d="M24.5127 8.47707C22.9619 8.47707 21.7002 7.25803 21.7002 5.75975C21.7002 4.26128 22.9619 3.04224 24.5127 3.04224C26.0634 3.04224 27.3251 4.26128 27.3251 5.75975C27.3251 7.25803 26.0634 8.47707 24.5127 8.47707ZM24.5127 4.12932C23.5823 4.12932 22.8253 4.86075 22.8253 5.75975C22.8253 6.65856 23.5823 7.39018 24.5127 7.39018C25.443 7.39018 26.2002 6.65856 26.2002 5.75975C26.2002 4.86075 25.443 4.12932 24.5127 4.12932Z" fill="white" stroke="white" stroke-width="0.65" stroke-linejoin="round"/>
<path d="M19.8875 25.0859C19.8134 25.0859 19.738 25.0722 19.6659 25.0417C19.3802 24.9233 19.248 24.6039 19.3707 24.3282L21.0582 20.5238C21.1463 20.324 21.3501 20.1946 21.575 20.1946H24.5124C25.4427 20.1946 26.1999 19.463 26.1999 18.5642V11.4989C26.1999 10.8995 25.6952 10.412 25.0748 10.412H24.5124C24.1176 10.412 23.7581 10.6642 23.2738 11.2838C22.7304 11.9772 21.0813 13.9336 21.0115 14.0162C20.904 14.143 20.7443 14.2162 20.575 14.2162H17.7626C17.452 14.2162 17.2001 14.4599 17.2001 14.7598V15.8467C17.2001 16.1472 16.9486 16.3902 16.6375 16.3902C16.3265 16.3902 16.0752 16.1472 16.0752 15.8467V14.7598C16.0752 13.8608 16.8322 13.1294 17.7626 13.1294H20.3072C20.7505 12.6021 21.9452 11.1783 22.3761 10.6278C22.8514 10.0211 23.5229 9.32495 24.5124 9.32495H25.0748C26.3157 9.32495 27.3248 10.3 27.3248 11.4989V18.5642C27.3248 20.0625 26.0631 21.2815 24.5124 21.2815H21.9458L20.4044 24.7565C20.3133 24.9625 20.1057 25.0859 19.8875 25.0859Z" fill="white" stroke="white" stroke-width="0.65" stroke-linejoin="round"/>
<path d="M3.13754 8.47707C1.58687 8.47707 0.325195 7.25803 0.325195 5.75975C0.325195 4.26128 1.58687 3.04224 3.13754 3.04224C4.68842 3.04224 5.95009 4.26128 5.95009 5.75975C5.95009 7.25803 4.68842 8.47707 3.13754 8.47707ZM3.13754 4.12932C2.2073 4.12932 1.45009 4.86075 1.45009 5.75975C1.45009 6.65856 2.2073 7.39018 3.13754 7.39018C4.06799 7.39018 4.82499 6.65856 4.82499 5.75975C4.82499 4.86075 4.06799 4.12932 3.13754 4.12932Z" fill="white" stroke="white" stroke-width="0.65" stroke-linejoin="round"/>
<path d="M7.76244 25.3249C7.5443 25.3249 7.33666 25.2015 7.24562 24.9955L5.70421 21.5205H3.13754C1.58687 21.5205 0.325195 20.3015 0.325195 18.8032V11.7379C0.325195 10.539 1.33433 9.56396 2.5752 9.56396H3.13754C4.12711 9.56396 4.79924 10.2602 5.27343 10.8668C5.70476 11.4173 6.89887 12.8411 7.34216 13.3684H9.88734C10.8178 13.3684 11.5748 14.0998 11.5748 14.9988V16.0857C11.5748 16.3862 11.3229 16.6292 11.0124 16.6292C10.7018 16.6292 10.4499 16.3862 10.4499 16.0857V14.9988C10.4499 14.6989 10.1973 14.4553 9.88734 14.4553H7.07499C6.90567 14.4553 6.74603 14.382 6.63912 14.2552C6.56929 14.1726 4.91954 12.2162 4.37676 11.5222C3.89187 10.9032 3.53304 10.6511 3.13754 10.6511H2.5752C1.95476 10.6511 1.45009 11.1385 1.45009 11.7379V18.8032C1.45009 19.702 2.2073 20.4336 3.13754 20.4336H6.07499C6.29993 20.4336 6.50365 20.563 6.59181 20.7628L8.27926 24.5672C8.40203 24.8429 8.26917 25.1623 7.98408 25.2807C7.91199 25.3112 7.8366 25.3249 7.76244 25.3249Z" fill="white" stroke="white" stroke-width="0.65" stroke-linejoin="round"/>
<path d="M11.0126 25.3249C10.777 25.3249 10.5576 25.1808 10.4787 24.9532L8.61351 19.546C8.46067 19.1022 8.03139 18.8032 7.5465 18.8032H5.38775C5.07732 18.8032 4.8252 18.5602 4.8252 18.2597V16.0857C4.8252 15.7852 5.07732 15.5424 5.38775 15.5424C5.69817 15.5424 5.9503 15.7852 5.9503 16.0857V17.7161H7.5465C8.5169 17.7161 9.37463 18.3134 9.68114 19.2021L11.5464 24.609C11.6448 24.8938 11.4856 25.2021 11.1908 25.2967C11.1313 25.3156 11.0711 25.3249 11.0126 25.3249Z" fill="white" stroke="white" stroke-width="0.65"/>
<path d="M5.38844 16.6293C5.21747 16.6293 5.04856 16.5543 4.93774 16.412L3.25029 14.238C3.06367 13.9984 3.11434 13.6576 3.36297 13.4777C3.61262 13.2978 3.96466 13.3462 4.15046 13.5864L5.83791 15.7604C6.02453 16 5.97386 16.3407 5.72523 16.5206C5.62409 16.5941 5.50544 16.6293 5.38844 16.6293Z" fill="white" stroke="white" stroke-width="0.65"/>
<path d="M18.3248 14.4553C18.0138 14.4553 17.7625 14.2125 17.7625 13.9119V10.1075C17.7625 8.9086 16.7534 7.93357 15.5125 7.93357H12.1376C10.8967 7.93357 9.88759 8.9086 9.88759 10.1075V11.738C9.88759 12.0379 9.63567 12.2815 9.32525 12.2815C9.01462 12.2815 8.7627 12.0379 8.7627 11.738V10.1075C8.7627 8.30913 10.2763 6.84668 12.1376 6.84668H15.5125C17.3738 6.84668 18.8874 8.30913 18.8874 10.1075V13.9119C18.8874 14.2125 18.6359 14.4553 18.3248 14.4553Z" fill="#F5BB1E" stroke="#F5BB1E" stroke-width="0.65"/>
<path d="M13.825 5.75979C12.2744 5.75979 11.0127 4.54074 11.0127 3.04227C11.0127 1.54399 12.2744 0.324951 13.825 0.324951C15.3757 0.324951 16.6374 1.54399 16.6374 3.04227C16.6374 4.54074 15.3757 5.75979 13.825 5.75979ZM13.825 1.41184C12.8946 1.41184 12.1376 2.14346 12.1376 3.04227C12.1376 3.94127 12.8946 4.6727 13.825 4.6727C14.7555 4.6727 15.5125 3.94127 15.5125 3.04227C15.5125 2.14346 14.7555 1.41184 13.825 1.41184Z" fill="#F5BB1E" stroke="#F5BB1E" stroke-width="0.65"/>
<path d="M13.2627 9.86839C13.2627 9.56826 13.506 9.32495 13.8061 9.32495H13.8444C14.1445 9.32495 14.3878 9.56826 14.3878 9.86839C14.3878 10.1685 14.1445 10.4118 13.8444 10.4118H13.8061C13.506 10.4118 13.2627 10.1685 13.2627 9.86839Z" fill="#F5BB1E" stroke="#F5BB1E" stroke-width="0.65"/>
</svg>
