<svg width="30" height="28" viewBox="0 0 30 28" fill="none" xmlns="http://www.w3.org/2000/svg">
<path d="M20.6747 27.1466H9.83162C7.26042 27.1957 5.93263 26.7204 4.92842 25.8239C3.9242 24.9274 3.32471 23.6821 3.26018 22.3586V16.0819C3.26018 15.8151 3.36927 15.5592 3.56343 15.3706C3.7576 15.182 4.02094 15.076 4.29553 15.076C4.57012 15.076 4.83347 15.182 5.02763 15.3706C5.2218 15.5592 5.33088 15.8151 5.33088 16.0819V22.3586C5.39452 23.1486 5.7755 23.8827 6.39153 24.4021C7.00757 24.9216 7.80921 25.1848 9.83162 25.1348H20.6747C21.4888 25.1848 22.2905 24.9216 22.9065 24.4021C23.5225 23.8827 23.9035 23.1486 23.9672 22.3586V16.0819C23.9672 15.8151 24.0762 15.5592 24.2704 15.3706C24.4646 15.182 24.7279 15.076 25.0025 15.076C25.2771 15.076 25.5404 15.182 25.7346 15.3706C25.9288 15.5592 26.0379 15.8151 26.0379 16.0819V22.3586C25.9733 23.6821 25.3738 24.9274 24.3696 25.8239C23.3654 26.7204 22.0376 27.1957 20.6747 27.1466ZM28.8436 14.9524C28.9407 14.8588 29.0177 14.7476 29.0703 14.625C29.1228 14.5024 29.1499 14.371 29.1499 14.2382C29.1499 14.1054 29.1228 13.9739 29.0703 13.8513C29.0177 13.7288 28.9407 13.6175 28.8436 13.524L15.3841 0.447562C15.2879 0.353282 15.1734 0.278451 15.0472 0.227384C14.921 0.176316 14.7857 0.150024 14.649 0.150024C14.5123 0.150024 14.377 0.176316 14.2508 0.227384C14.1247 0.278451 14.0102 0.353282 13.9139 0.447562L0.45439 13.524C0.25943 13.7134 0.149902 13.9703 0.149902 14.2382C0.149902 14.506 0.25943 14.7629 0.45439 14.9524C0.64935 15.1418 0.913772 15.2482 1.18949 15.2482C1.4652 15.2482 1.72962 15.1418 1.92458 14.9524L14.649 2.58003L27.3735 14.9524C27.4697 15.0466 27.5842 15.1215 27.7104 15.1725C27.8365 15.2236 27.9719 15.2499 28.1086 15.2499C28.2452 15.2499 28.3806 15.2236 28.5067 15.1725C28.6329 15.1215 28.7474 15.0466 28.8436 14.9524Z" fill="white" stroke="white" stroke-width="0.3"/>
<path d="M14.6577 8.21936C16.6791 8.21936 18.3236 9.86415 18.3237 11.8854C18.3237 13.2828 17.5373 14.4987 16.3843 15.1168C18.8601 15.8732 20.6663 18.213 20.6665 20.9703V21.1246C20.6665 21.6885 20.2173 22.151 19.6548 22.151C19.0923 22.1509 18.6431 21.6884 18.6431 21.1246V20.9703C18.6428 18.7288 16.8527 16.911 14.6597 16.9108C12.4656 16.9108 10.6746 18.7287 10.6743 20.9703V21.1256C10.6743 21.6896 10.2242 22.152 9.6626 22.152C9.101 22.152 8.65088 21.6896 8.65088 21.1256V20.9703C8.65112 18.2141 10.4565 15.8742 12.9312 15.1168C11.7785 14.4986 10.9927 13.2826 10.9927 11.8854C10.9928 9.86352 12.6366 8.21958 14.6577 8.21936ZM14.6577 10.0963C13.672 10.0965 12.8698 10.8995 12.8696 11.8854C12.8696 12.8713 13.6719 13.6742 14.6577 13.6744C15.6438 13.6744 16.4468 12.8721 16.4468 11.8854C16.4466 10.8987 15.6436 10.0963 14.6577 10.0963Z" fill="#F5BB1E"/>
<path d="M14.6577 8.21936V8.06936H14.6577L14.6577 8.21936ZM18.3237 11.8854H18.4737V11.8854L18.3237 11.8854ZM16.3843 15.1168L16.3134 14.9846L15.9957 15.1549L16.3404 15.2603L16.3843 15.1168ZM20.6665 20.9703H20.8165V20.9703L20.6665 20.9703ZM19.6548 22.151L19.6548 22.301H19.6548V22.151ZM18.6431 20.9703H18.7931V20.9703L18.6431 20.9703ZM14.6597 16.9108L14.6597 16.7608H14.6597V16.9108ZM10.6743 20.9703L10.5243 20.9703V20.9703H10.6743ZM9.6626 22.152L9.6626 22.302H9.6626V22.152ZM8.65088 20.9703L8.50088 20.9703V20.9703H8.65088ZM12.9312 15.1168L12.9751 15.2603L13.3194 15.1549L13.002 14.9846L12.9312 15.1168ZM10.9927 11.8854L10.8427 11.8854V11.8854H10.9927ZM14.6577 10.0963V9.94631H14.6577L14.6577 10.0963ZM12.8696 11.8854L12.7196 11.8854V11.8854H12.8696ZM14.6577 13.6744L14.6577 13.8244H14.6577V13.6744ZM16.4468 11.8854H16.5968V11.8854L16.4468 11.8854ZM14.6577 8.21936V8.36936C16.5962 8.36936 18.1736 9.94698 18.1737 11.8854L18.3237 11.8854L18.4737 11.8854C18.4736 9.78132 16.7619 8.06936 14.6577 8.06936V8.21936ZM18.3237 11.8854H18.1737C18.1737 13.225 17.4199 14.3914 16.3134 14.9846L16.3843 15.1168L16.4551 15.249C17.6547 14.6059 18.4737 13.3405 18.4737 11.8854H18.3237ZM16.3843 15.1168L16.3404 15.2603C18.7536 15.9976 20.5163 18.2794 20.5165 20.9704L20.6665 20.9703L20.8165 20.9703C20.8163 18.1465 18.9666 15.7489 16.4281 14.9734L16.3843 15.1168ZM20.6665 20.9703H20.5165V21.1246H20.6665H20.8165V20.9703H20.6665ZM20.6665 21.1246H20.5165C20.5165 21.6084 20.1318 22.001 19.6548 22.001V22.151V22.301C20.3028 22.301 20.8165 21.7687 20.8165 21.1246H20.6665ZM19.6548 22.151L19.6548 22.001C19.1778 22.0009 18.7931 21.6083 18.7931 21.1246H18.6431H18.4931C18.4931 21.7686 19.0068 22.3009 19.6548 22.301L19.6548 22.151ZM18.6431 21.1246H18.7931V20.9703H18.6431H18.4931V21.1246H18.6431ZM18.6431 20.9703L18.7931 20.9703C18.7928 18.6485 16.938 16.761 14.6597 16.7608L14.6597 16.9108L14.6596 17.0608C16.7673 17.061 18.4928 18.8091 18.4931 20.9704L18.6431 20.9703ZM14.6597 16.9108V16.7608C12.3803 16.7608 10.5246 18.6483 10.5243 20.9703L10.6743 20.9703L10.8243 20.9704C10.8246 18.809 12.5509 17.0608 14.6597 17.0608V16.9108ZM10.6743 20.9703H10.5243V21.1256H10.6743H10.8243V20.9703H10.6743ZM10.6743 21.1256H10.5243C10.5243 21.6094 10.1388 22.002 9.6626 22.002V22.152V22.302C10.3096 22.302 10.8243 21.7699 10.8243 21.1256H10.6743ZM9.6626 22.152L9.6626 22.002C9.18641 22.002 8.80088 21.6094 8.80088 21.1256H8.65088H8.50088C8.50088 21.7699 9.01559 22.302 9.6626 22.302L9.6626 22.152ZM8.65088 21.1256H8.80088V20.9703H8.65088H8.50088V21.1256H8.65088ZM8.65088 20.9703L8.80088 20.9704C8.80111 18.2805 10.563 15.9985 12.9751 15.2603L12.9312 15.1168L12.8873 14.9734C10.3501 15.7499 8.50112 18.1476 8.50088 20.9703L8.65088 20.9703ZM12.9312 15.1168L13.002 14.9846C11.896 14.3914 11.1427 13.2249 11.1427 11.8854H10.9927H10.8427C10.8427 13.3402 11.6611 14.6058 12.8603 15.249L12.9312 15.1168ZM10.9927 11.8854L11.1427 11.8854C11.1428 9.94633 12.7194 8.36957 14.6577 8.36936L14.6577 8.21936L14.6577 8.06936C12.5537 8.06959 10.8428 9.7807 10.8427 11.8854L10.9927 11.8854ZM14.6577 10.0963L14.6577 9.94631C13.5891 9.94655 12.7198 10.8167 12.7196 11.8854L12.8696 11.8854L13.0196 11.8854C13.0198 10.9822 13.755 10.2465 14.6577 10.2463L14.6577 10.0963ZM12.8696 11.8854H12.7196C12.7196 12.9541 13.5889 13.8242 14.6577 13.8244L14.6577 13.6744L14.6577 13.5244C13.7548 13.5242 13.0196 12.7885 13.0196 11.8854H12.8696ZM14.6577 13.6744V13.8244C15.7266 13.8244 16.5968 12.955 16.5968 11.8854H16.4468H16.2968C16.2968 12.7892 15.561 13.5244 14.6577 13.5244V13.6744ZM16.4468 11.8854L16.5968 11.8854C16.5966 10.8158 15.7264 9.94631 14.6577 9.94631V10.0963V10.2463C15.5608 10.2463 16.2967 10.9815 16.2968 11.8854L16.4468 11.8854Z" fill="#F5BB1E"/>
</svg>
