<svg width="23" height="23" viewBox="0 0 23 23" fill="none" xmlns="http://www.w3.org/2000/svg">
<g clip-path="url(#clip0_5_4130)">
<path d="M0.881329 4.69631C1.76386 3.48194 3.30936 2.38584 5.23318 1.61004C7.14663 0.838463 9.36828 0.411795 11.489 0.408741C13.6099 0.40344 15.8343 0.825705 17.7505 1.59131C19.6776 2.36131 21.2269 3.45265 22.1126 4.66415C22.9633 5.82776 23.2085 7.08193 22.8217 8.29109C22.5707 9.07552 21.8387 9.60331 20.9997 9.60452L18.1269 9.60721C18.126 9.60721 18.125 9.60721 18.1241 9.60721C17.5512 9.60717 17.013 9.35641 16.6472 8.91892C16.2854 8.4861 16.1354 7.92044 16.2359 7.36691C16.2389 7.3507 16.2425 7.33453 16.2465 7.31849L16.3977 6.73082C15.5606 6.33142 13.664 5.55975 11.4979 5.57202C9.33324 5.58311 7.43795 6.35433 6.59984 6.75391L6.75343 7.33825C6.75778 7.35479 6.76147 7.37145 6.76461 7.38821C6.86663 7.94142 6.71839 8.50748 6.35775 8.94134C5.99263 9.38067 5.45402 9.63304 4.87969 9.6339L2.00689 9.63659C2.00595 9.63659 2.00496 9.63659 2.00402 9.63659C1.16663 9.63655 0.434401 9.11119 0.181535 8.32842C-0.208881 7.11953 0.0330688 5.86356 0.881329 4.69631ZM1.48782 7.90643C1.55588 8.11702 1.76804 8.26391 2.00451 8.26391C2.00474 8.26391 2.00505 8.26391 2.00532 8.26391L4.87812 8.26122C5.04361 8.261 5.19819 8.18907 5.30223 8.06388C5.35878 7.99582 5.44705 7.85427 5.41817 7.65742L5.13238 6.57018C5.05408 6.27221 5.18386 5.95866 5.44984 5.80314C5.56066 5.73836 8.2022 4.21614 11.4908 4.1992C11.5091 4.19911 11.5269 4.19907 11.5451 4.19907C14.8126 4.19907 17.4353 5.71464 17.546 5.77951C17.8102 5.93449 17.9398 6.2458 17.8635 6.54255L17.5833 7.63155C17.5547 7.8288 17.6435 7.97035 17.7003 8.03836C17.8045 8.16297 17.959 8.2344 18.1245 8.2344C18.1247 8.2344 18.125 8.2344 18.1253 8.2344L20.9981 8.23171C21.2345 8.23135 21.4468 8.08373 21.5143 7.87269C21.7655 7.08741 21.594 6.28039 21.0045 5.47413C19.4386 3.33244 15.4496 1.78124 11.5124 1.78124C11.5054 1.78124 11.4979 1.78124 11.4909 1.78124C7.5498 1.7869 3.55476 3.3522 1.99162 5.50315C1.40364 6.31251 1.23406 7.12106 1.48782 7.90643Z" fill="#65B0D4"/>
<path d="M5.00431 12.5695L7.14668 10.3201C7.27628 10.184 7.45583 10.1071 7.64365 10.1071H9.02814V9.17167C9.02814 8.79262 9.3354 8.48535 9.71445 8.48535C10.0935 8.48535 10.4008 8.79262 10.4008 9.17167V10.1071H12.5984V9.17167C12.5984 8.79262 12.9057 8.48535 13.2848 8.48535C13.6638 8.48535 13.9711 8.79262 13.9711 9.17167V10.1071H15.3555C15.5433 10.1071 15.723 10.1841 15.8525 10.3201L17.9948 12.5695C19.6745 14.3332 20.5996 16.6459 20.5996 19.0815V21.905C20.5996 22.284 20.2923 22.5913 19.9133 22.5913H3.08592C2.70687 22.5913 2.3996 22.284 2.3996 21.905V19.0815C2.39951 16.6459 3.32459 14.3332 5.00431 12.5695ZM19.227 21.2186V19.0815C19.227 16.9999 18.4364 15.0235 17.0008 13.5161L15.0613 11.4796H7.93779L5.99834 13.5161C4.56281 15.0234 3.77223 16.9999 3.77223 19.0815V21.2186H19.227Z" fill="#65B0D4"/>
<path d="M11.4999 12.8984C13.4805 12.8984 15.0918 14.5098 15.0918 16.4903C15.0918 18.471 13.4804 20.0823 11.4999 20.0823C9.51933 20.0823 7.90798 18.471 7.90798 16.4903C7.90798 14.5097 9.51928 12.8984 11.4999 12.8984ZM11.4999 18.7096C12.7237 18.7096 13.7192 17.7141 13.7192 16.4903C13.7192 15.2666 12.7236 14.271 11.4999 14.271C10.2762 14.271 9.28061 15.2666 9.28061 16.4903C9.28061 17.7141 10.2762 18.7096 11.4999 18.7096Z" fill="#F5BB1E"/>
</g>
<defs>
<clipPath id="clip0_5_4130">
<rect width="23" height="23" fill="white" transform="matrix(-1 0 0 1 23 0)"/>
</clipPath>
</defs>
</svg>
